<svg xmlns="http://www.w3.org/2000/svg" width="316" height="227" viewBox="0 0 316 227" fill="none">
<g filter="url(#filter0_ddd_638_4311)">
<g clip-path="url(#clip0_638_4311)">
<rect width="303" height="214.115" transform="translate(6.12805 5.7876)" fill="#F5F5F5"/>
<line x1="278.986" y1="17.8602" x2="296.503" y2="17.8602" stroke="#757575" stroke-width="0.789063"/>
<line x1="287.981" y1="20.7008" x2="293.505" y2="20.7008" stroke="#757575" stroke-width="0.789063"/>
<line x1="296.424" y1="38.2969" x2="296.424" y2="17.4656" stroke="#757575" stroke-width="0.789063"/>
<line x1="293.11" y1="29.775" x2="293.11" y2="20.4641" stroke="#757575" stroke-width="0.789063"/>
<line x1="296.898" y1="190.27" x2="296.898" y2="207.788" stroke="#757575" stroke-width="0.789063"/>
<line x1="294.057" y1="199.266" x2="294.057" y2="204.789" stroke="#757575" stroke-width="0.789063"/>
<line x1="276.461" y1="207.709" x2="297.292" y2="207.709" stroke="#757575" stroke-width="0.789063"/>
<line x1="284.983" y1="204.395" x2="294.294" y2="204.395" stroke="#757575" stroke-width="0.789063"/>
<line x1="35.7968" y1="207.709" x2="18.2796" y2="207.709" stroke="#757575" stroke-width="0.789063"/>
<line x1="245.53" y1="207.709" x2="68.4639" y2="207.709" stroke="#757575" stroke-width="0.789063"/>
<line x1="26.8015" y1="204.868" x2="21.2781" y2="204.868" stroke="#757575" stroke-width="0.789063"/>
<line x1="18.3585" y1="187.272" x2="18.3585" y2="208.103" stroke="#757575" stroke-width="0.789063"/>
<line x1="21.6726" y1="195.794" x2="21.6726" y2="205.105" stroke="#757575" stroke-width="0.789063"/>
<line x1="18.8319" y1="35.4563" x2="18.8319" y2="17.9391" stroke="#757575" stroke-width="0.789063"/>
<line x1="18.8319" y1="151.448" x2="18.8319" y2="74.1204" stroke="#757575" stroke-width="0.789063"/>
<line x1="296.898" y1="151.448" x2="296.898" y2="74.1204" stroke="#757575" stroke-width="0.789063"/>
<line x1="21.6726" y1="26.4611" x2="21.6726" y2="20.9376" stroke="#757575" stroke-width="0.789063"/>
<line x1="39.2687" y1="18.0181" x2="18.4374" y2="18.0181" stroke="#757575" stroke-width="0.789063"/>
<line x1="245.53" y1="18.0181" x2="60.8889" y2="18.0181" stroke="#757575" stroke-width="0.789063"/>
<line x1="30.7468" y1="21.3322" x2="21.4359" y2="21.3322" stroke="#757575" stroke-width="0.789063"/>
<path d="M97.344 95.867L93.8406 102.669V106.788H91.5207V102.684L88.0173 95.867H90.5581L92.7359 100.822L94.8979 95.867H97.344ZM100.888 98.171C102.14 98.171 103.118 98.5656 103.823 99.3546C104.528 100.133 104.88 101.217 104.88 102.606C104.88 103.489 104.717 104.268 104.391 104.941C104.076 105.604 103.613 106.12 103.002 106.488C102.403 106.856 101.693 107.04 100.872 107.04C99.62 107.04 98.6363 106.651 97.9209 105.872C97.216 105.083 96.8635 103.994 96.8635 102.606C96.8635 101.722 97.0213 100.949 97.337 100.286C97.6631 99.6124 98.126 99.0916 98.7257 98.7234C99.3359 98.3551 100.057 98.171 100.888 98.171ZM100.888 99.8438C100.32 99.8438 99.8935 100.07 99.6095 100.522C99.3359 100.964 99.1992 101.659 99.1992 102.606C99.1992 103.552 99.3359 104.252 99.6095 104.704C99.8935 105.146 100.314 105.367 100.872 105.367C101.43 105.367 101.845 105.146 102.119 104.704C102.403 104.252 102.545 103.552 102.545 102.606C102.545 101.659 102.408 100.964 102.134 100.522C101.861 100.07 101.445 99.8438 100.888 99.8438ZM113.434 106.788H111.493L111.382 105.667C111.087 106.13 110.73 106.477 110.309 106.709C109.888 106.93 109.399 107.04 108.841 107.04C108.084 107.04 107.505 106.814 107.105 106.362C106.706 105.899 106.506 105.257 106.506 104.436V98.4235H108.747V104.152C108.747 104.594 108.82 104.91 108.968 105.099C109.115 105.278 109.346 105.367 109.662 105.367C110.262 105.367 110.772 105.004 111.193 104.278V98.4235H113.434V106.788ZM119.97 98.1868C120.223 98.1868 120.502 98.2289 120.807 98.3131L120.428 100.475C120.134 100.401 119.886 100.365 119.686 100.365C119.192 100.365 118.808 100.538 118.534 100.885C118.261 101.233 118.045 101.759 117.887 102.464V106.788H115.646V98.4235H117.588L117.793 100.049C117.993 99.4598 118.282 99.0022 118.661 98.676C119.05 98.3499 119.487 98.1868 119.97 98.1868ZM129.259 98.171C129.817 98.171 130.317 98.2552 130.759 98.4235C131.211 98.5813 131.637 98.8338 132.037 99.181L131.058 100.507C130.785 100.296 130.517 100.144 130.254 100.049C130.001 99.9543 129.722 99.907 129.417 99.907C128.228 99.907 127.634 100.822 127.634 102.653C127.634 103.579 127.786 104.242 128.092 104.641C128.397 105.041 128.833 105.241 129.401 105.241C129.696 105.241 129.964 105.199 130.206 105.115C130.448 105.02 130.732 104.868 131.058 104.657L132.037 106.062C131.237 106.714 130.322 107.04 129.291 107.04C128.47 107.04 127.755 106.861 127.145 106.504C126.545 106.146 126.082 105.641 125.756 104.989C125.43 104.326 125.267 103.552 125.267 102.669C125.267 101.785 125.43 101.006 125.756 100.333C126.082 99.6492 126.545 99.1179 127.145 98.7392C127.755 98.3604 128.46 98.171 129.259 98.171ZM140.07 102.416C140.07 102.521 140.054 102.811 140.022 103.284H134.799C134.872 104.042 135.078 104.578 135.414 104.894C135.751 105.209 136.208 105.367 136.787 105.367C137.145 105.367 137.482 105.309 137.797 105.194C138.113 105.078 138.455 104.894 138.823 104.641L139.754 105.904C138.818 106.661 137.76 107.04 136.582 107.04C135.267 107.04 134.257 106.646 133.552 105.857C132.847 105.067 132.495 104 132.495 102.653C132.495 101.801 132.642 101.038 132.937 100.365C133.242 99.6808 133.678 99.1442 134.246 98.7549C134.825 98.3657 135.509 98.171 136.298 98.171C137.487 98.171 138.413 98.5445 139.075 99.2915C139.738 100.038 140.07 101.08 140.07 102.416ZM137.844 101.785C137.844 100.396 137.345 99.7018 136.345 99.7018C135.882 99.7018 135.519 99.8754 135.256 100.223C135.004 100.559 134.851 101.112 134.799 101.88H137.844V101.785ZM146.016 98.1868C146.268 98.1868 146.547 98.2289 146.852 98.3131L146.473 100.475C146.179 100.401 145.932 100.365 145.732 100.365C145.237 100.365 144.853 100.538 144.58 100.885C144.306 101.233 144.09 101.759 143.933 102.464V106.788H141.692V98.4235H143.633L143.838 100.049C144.038 99.4598 144.327 99.0022 144.706 98.676C145.095 98.3499 145.532 98.1868 146.016 98.1868ZM152.967 106.393C152.662 106.603 152.314 106.761 151.925 106.867C151.546 106.982 151.168 107.04 150.789 107.04C149.926 107.03 149.274 106.782 148.832 106.298C148.39 105.814 148.169 105.104 148.169 104.168V100.002H146.923V98.4235H148.169V96.5929L150.41 96.3246V98.4235H152.335L152.115 100.002H150.41V104.121C150.41 104.52 150.479 104.81 150.615 104.989C150.752 105.167 150.963 105.257 151.247 105.257C151.531 105.257 151.846 105.162 152.193 104.973L152.967 106.393ZM156.2 98.4235V106.788H153.959V98.4235H156.2ZM155.064 94.1153C155.464 94.1153 155.79 94.2415 156.042 94.494C156.305 94.736 156.437 95.0463 156.437 95.4251C156.437 95.8038 156.305 96.1195 156.042 96.372C155.79 96.614 155.464 96.7349 155.064 96.7349C154.664 96.7349 154.338 96.614 154.085 96.372C153.833 96.1195 153.707 95.8038 153.707 95.4251C153.707 95.0463 153.833 94.736 154.085 94.494C154.338 94.2415 154.664 94.1153 155.064 94.1153ZM162.011 94.8412C162.947 94.8412 163.836 95.0463 164.678 95.4567L164.015 96.9243C163.458 96.6613 162.863 96.5298 162.232 96.5298C161.727 96.5298 161.38 96.6192 161.191 96.7981C161.001 96.9769 160.906 97.2715 160.906 97.6818V98.4235H165.562V106.788H163.321V100.002H160.906V106.788H158.666V100.002H157.371V98.4235H158.666V97.6187C158.666 96.7875 158.939 96.1195 159.486 95.6145C160.044 95.099 160.885 94.8412 162.011 94.8412ZM171.255 98.171C171.813 98.171 172.313 98.2552 172.755 98.4235C173.207 98.5813 173.633 98.8338 174.033 99.181L173.054 100.507C172.781 100.296 172.513 100.144 172.25 100.049C171.997 99.9543 171.718 99.907 171.413 99.907C170.224 99.907 169.63 100.822 169.63 102.653C169.63 103.579 169.782 104.242 170.088 104.641C170.393 105.041 170.829 105.241 171.397 105.241C171.692 105.241 171.96 105.199 172.202 105.115C172.444 105.02 172.728 104.868 173.054 104.657L174.033 106.062C173.233 106.714 172.318 107.04 171.287 107.04C170.466 107.04 169.751 106.861 169.141 106.504C168.541 106.146 168.078 105.641 167.752 104.989C167.426 104.326 167.263 103.552 167.263 102.669C167.263 101.785 167.426 101.006 167.752 100.333C168.078 99.6492 168.541 99.1179 169.141 98.7392C169.751 98.3604 170.456 98.171 171.255 98.171ZM181.541 104.468C181.541 104.794 181.589 105.036 181.683 105.194C181.778 105.341 181.936 105.451 182.157 105.525L181.683 107.009C181.189 106.966 180.784 106.851 180.468 106.661C180.163 106.472 179.926 106.177 179.758 105.778C179.211 106.619 178.374 107.04 177.249 107.04C176.418 107.04 175.755 106.803 175.26 106.33C174.776 105.846 174.534 105.22 174.534 104.452C174.534 103.537 174.866 102.837 175.529 102.353C176.191 101.869 177.143 101.627 178.385 101.627H179.348V101.217C179.348 100.701 179.232 100.344 179 100.144C178.769 99.9438 178.385 99.8438 177.848 99.8438C177.259 99.8438 176.523 99.9911 175.639 100.286L175.134 98.7865C176.176 98.3762 177.207 98.171 178.227 98.171C179.363 98.171 180.2 98.4183 180.736 98.9128C181.273 99.3967 181.541 100.123 181.541 101.091V104.468ZM177.864 105.43C178.495 105.43 178.99 105.12 179.348 104.499V102.905H178.606C177.396 102.905 176.791 103.358 176.791 104.263C176.791 104.631 176.88 104.92 177.059 105.131C177.249 105.33 177.517 105.43 177.864 105.43ZM188.783 106.393C188.478 106.603 188.13 106.761 187.741 106.867C187.362 106.982 186.984 107.04 186.605 107.04C185.742 107.03 185.09 106.782 184.648 106.298C184.206 105.814 183.985 105.104 183.985 104.168V100.002H182.739V98.4235H183.985V96.5929L186.226 96.3246V98.4235H188.152L187.931 100.002H186.226V104.121C186.226 104.52 186.295 104.81 186.431 104.989C186.568 105.167 186.779 105.257 187.063 105.257C187.347 105.257 187.662 105.162 188.01 104.973L188.783 106.393ZM192.016 98.4235V106.788H189.775V98.4235H192.016ZM190.88 94.1153C191.28 94.1153 191.606 94.2415 191.858 94.494C192.121 94.736 192.253 95.0463 192.253 95.4251C192.253 95.8038 192.121 96.1195 191.858 96.372C191.606 96.614 191.28 96.7349 190.88 96.7349C190.48 96.7349 190.154 96.614 189.901 96.372C189.649 96.1195 189.523 95.8038 189.523 95.4251C189.523 95.0463 189.649 94.736 189.901 94.494C190.154 94.2415 190.48 94.1153 190.88 94.1153ZM197.748 98.171C199 98.171 199.979 98.5656 200.684 99.3546C201.388 100.133 201.741 101.217 201.741 102.606C201.741 103.489 201.578 104.268 201.252 104.941C200.936 105.604 200.473 106.12 199.863 106.488C199.263 106.856 198.553 107.04 197.732 107.04C196.481 107.04 195.497 106.651 194.781 105.872C194.076 105.083 193.724 103.994 193.724 102.606C193.724 101.722 193.882 100.949 194.197 100.286C194.524 99.6124 194.987 99.0916 195.586 98.7234C196.196 98.3551 196.917 98.171 197.748 98.171ZM197.748 99.8438C197.18 99.8438 196.754 100.07 196.47 100.522C196.196 100.964 196.06 101.659 196.06 102.606C196.06 103.552 196.196 104.252 196.47 104.704C196.754 105.146 197.175 105.367 197.732 105.367C198.29 105.367 198.706 105.146 198.979 104.704C199.263 104.252 199.405 103.552 199.405 102.606C199.405 101.659 199.269 100.964 198.995 100.522C198.721 100.07 198.306 99.8438 197.748 99.8438ZM208.116 98.171C208.853 98.171 209.426 98.3972 209.836 98.8496C210.247 99.2915 210.452 99.907 210.452 100.696V106.788H208.211V101.075C208.211 100.622 208.132 100.307 207.974 100.128C207.827 99.9385 207.601 99.8438 207.296 99.8438C206.98 99.8438 206.691 99.9438 206.428 100.144C206.175 100.333 205.928 100.622 205.686 101.012V106.788H203.445V98.4235H205.386L205.56 99.4809C205.907 99.0495 206.286 98.7234 206.696 98.5024C207.117 98.2815 207.59 98.171 208.116 98.171ZM226.9 98.4235L225.117 106.788H222.386L221.187 100.428L219.988 106.788H217.289L215.458 98.4235H217.715L218.741 105.131L220.13 98.4235H222.371L223.617 105.131L224.754 98.4235H226.9ZM230.375 98.4235V106.788H228.134V98.4235H230.375ZM229.239 94.1153C229.639 94.1153 229.965 94.2415 230.217 94.494C230.48 94.736 230.612 95.0463 230.612 95.4251C230.612 95.8038 230.48 96.1195 230.217 96.372C229.965 96.614 229.639 96.7349 229.239 96.7349C228.839 96.7349 228.513 96.614 228.26 96.372C228.008 96.1195 227.882 95.8038 227.882 95.4251C227.882 95.0463 228.008 94.736 228.26 94.494C228.513 94.2415 228.839 94.1153 229.239 94.1153ZM234.671 107.04C233.987 107.04 233.456 106.845 233.077 106.456C232.698 106.056 232.509 105.494 232.509 104.768V95.0937L234.75 94.8412V104.704C234.75 105.073 234.903 105.257 235.208 105.257C235.376 105.257 235.523 105.225 235.65 105.162L236.107 106.756C235.676 106.945 235.197 107.04 234.671 107.04ZM239.341 107.04C238.657 107.04 238.126 106.845 237.747 106.456C237.368 106.056 237.179 105.494 237.179 104.768V95.0937L239.42 94.8412V104.704C239.42 105.073 239.572 105.257 239.877 105.257C240.046 105.257 240.193 105.225 240.319 105.162L240.777 106.756C240.345 106.945 239.867 107.04 239.341 107.04ZM128.426 125.468C128.426 125.794 128.473 126.036 128.568 126.194C128.663 126.341 128.82 126.451 129.041 126.525L128.568 128.009C128.073 127.966 127.668 127.851 127.353 127.661C127.048 127.472 126.811 127.177 126.643 126.778C126.095 127.619 125.259 128.04 124.133 128.04C123.302 128.04 122.639 127.803 122.145 127.33C121.661 126.846 121.419 126.22 121.419 125.452C121.419 124.537 121.75 123.837 122.413 123.353C123.076 122.869 124.028 122.627 125.27 122.627H126.232V122.217C126.232 121.701 126.117 121.344 125.885 121.144C125.654 120.944 125.27 120.844 124.733 120.844C124.144 120.844 123.407 120.991 122.524 121.286L122.019 119.787C123.06 119.376 124.091 119.171 125.112 119.171C126.248 119.171 127.084 119.418 127.621 119.913C128.158 120.397 128.426 121.123 128.426 122.091V125.468ZM124.749 126.43C125.38 126.43 125.875 126.12 126.232 125.499V123.905H125.491C124.281 123.905 123.676 124.358 123.676 125.263C123.676 125.631 123.765 125.92 123.944 126.131C124.133 126.33 124.402 126.43 124.749 126.43ZM135.178 119.171C136.23 119.171 137.009 119.56 137.514 120.339C138.029 121.107 138.287 122.191 138.287 123.59C138.287 124.442 138.156 125.205 137.893 125.878C137.63 126.551 137.246 127.083 136.741 127.472C136.246 127.851 135.657 128.04 134.973 128.04C134.121 128.04 133.432 127.74 132.906 127.141V131.007L130.665 131.259V119.424H132.637L132.748 120.402C133.064 119.992 133.432 119.687 133.853 119.487C134.284 119.276 134.726 119.171 135.178 119.171ZM134.31 126.367C135.404 126.367 135.952 125.447 135.952 123.606C135.952 122.596 135.831 121.88 135.589 121.459C135.347 121.038 134.978 120.828 134.484 120.828C134.168 120.828 133.874 120.928 133.6 121.128C133.337 121.317 133.106 121.575 132.906 121.901V125.547C133.263 126.094 133.732 126.367 134.31 126.367ZM144.579 119.171C145.631 119.171 146.41 119.56 146.915 120.339C147.43 121.107 147.688 122.191 147.688 123.59C147.688 124.442 147.557 125.205 147.294 125.878C147.031 126.551 146.647 127.083 146.142 127.472C145.647 127.851 145.058 128.04 144.374 128.04C143.522 128.04 142.833 127.74 142.307 127.141V131.007L140.066 131.259V119.424H142.038L142.149 120.402C142.465 119.992 142.833 119.687 143.254 119.487C143.685 119.276 144.127 119.171 144.579 119.171ZM143.711 126.367C144.805 126.367 145.352 125.447 145.352 123.606C145.352 122.596 145.231 121.88 144.99 121.459C144.748 121.038 144.379 120.828 143.885 120.828C143.569 120.828 143.275 120.928 143.001 121.128C142.738 121.317 142.507 121.575 142.307 121.901V125.547C142.664 126.094 143.133 126.367 143.711 126.367ZM156.537 123.416C156.537 123.521 156.521 123.811 156.489 124.284H151.266C151.339 125.042 151.545 125.578 151.881 125.894C152.218 126.209 152.676 126.367 153.254 126.367C153.612 126.367 153.949 126.309 154.264 126.194C154.58 126.078 154.922 125.894 155.29 125.641L156.221 126.904C155.285 127.661 154.227 128.04 153.049 128.04C151.734 128.04 150.724 127.646 150.019 126.857C149.314 126.067 148.962 125 148.962 123.653C148.962 122.801 149.109 122.038 149.404 121.365C149.709 120.681 150.145 120.144 150.713 119.755C151.292 119.366 151.976 119.171 152.765 119.171C153.954 119.171 154.88 119.545 155.542 120.292C156.205 121.038 156.537 122.08 156.537 123.416ZM154.312 122.785C154.312 121.396 153.812 120.702 152.812 120.702C152.349 120.702 151.986 120.875 151.723 121.223C151.471 121.559 151.318 122.112 151.266 122.88H154.312V122.785ZM164.396 125.468C164.396 125.794 164.443 126.036 164.538 126.194C164.633 126.341 164.791 126.451 165.011 126.525L164.538 128.009C164.044 127.966 163.639 127.851 163.323 127.661C163.018 127.472 162.781 127.177 162.613 126.778C162.066 127.619 161.229 128.04 160.104 128.04C159.272 128.04 158.61 127.803 158.115 127.33C157.631 126.846 157.389 126.22 157.389 125.452C157.389 124.537 157.721 123.837 158.383 123.353C159.046 122.869 159.998 122.627 161.24 122.627H162.202V122.217C162.202 121.701 162.087 121.344 161.855 121.144C161.624 120.944 161.24 120.844 160.703 120.844C160.114 120.844 159.378 120.991 158.494 121.286L157.989 119.787C159.03 119.376 160.061 119.171 161.082 119.171C162.218 119.171 163.055 119.418 163.591 119.913C164.128 120.397 164.396 121.123 164.396 122.091V125.468ZM160.719 126.43C161.35 126.43 161.845 126.12 162.202 125.499V123.905H161.461C160.251 123.905 159.646 124.358 159.646 125.263C159.646 125.631 159.735 125.92 159.914 126.131C160.104 126.33 160.372 126.43 160.719 126.43ZM170.959 119.187C171.212 119.187 171.49 119.229 171.795 119.313L171.417 121.475C171.122 121.401 170.875 121.365 170.675 121.365C170.18 121.365 169.796 121.538 169.523 121.885C169.249 122.233 169.034 122.759 168.876 123.464V127.788H166.635V119.424H168.576L168.781 121.049C168.981 120.46 169.27 120.002 169.649 119.676C170.038 119.35 170.475 119.187 170.959 119.187ZM181.432 119.171C182.157 119.171 182.726 119.397 183.136 119.85C183.557 120.292 183.767 120.907 183.767 121.696V127.788H181.526V122.075C181.526 121.622 181.447 121.307 181.289 121.128C181.132 120.939 180.905 120.844 180.611 120.844C180.022 120.844 179.485 121.228 179.001 121.996V127.788H176.76V116.094L179.001 115.857V120.37C179.338 119.971 179.701 119.671 180.09 119.471C180.49 119.271 180.937 119.171 181.432 119.171ZM192.969 123.416C192.969 123.521 192.953 123.811 192.922 124.284H187.698C187.772 125.042 187.977 125.578 188.314 125.894C188.65 126.209 189.108 126.367 189.687 126.367C190.044 126.367 190.381 126.309 190.697 126.194C191.012 126.078 191.354 125.894 191.722 125.641L192.654 126.904C191.717 127.661 190.66 128.04 189.482 128.04C188.166 128.04 187.156 127.646 186.452 126.857C185.747 126.067 185.394 125 185.394 123.653C185.394 122.801 185.541 122.038 185.836 121.365C186.141 120.681 186.578 120.144 187.146 119.755C187.725 119.366 188.408 119.171 189.197 119.171C190.386 119.171 191.312 119.545 191.975 120.292C192.638 121.038 192.969 122.08 192.969 123.416ZM190.744 122.785C190.744 121.396 190.244 120.702 189.245 120.702C188.782 120.702 188.419 120.875 188.156 121.223C187.903 121.559 187.751 122.112 187.698 122.88H190.744V122.785ZM198.915 119.187C199.168 119.187 199.447 119.229 199.752 119.313L199.373 121.475C199.078 121.401 198.831 121.365 198.631 121.365C198.137 121.365 197.753 121.538 197.479 121.885C197.206 122.233 196.99 122.759 196.832 123.464V127.788H194.591V119.424H196.532L196.737 121.049C196.937 120.46 197.227 120.002 197.605 119.676C197.995 119.35 198.431 119.187 198.915 119.187ZM207.456 123.416C207.456 123.521 207.44 123.811 207.409 124.284H202.185C202.259 125.042 202.464 125.578 202.8 125.894C203.137 126.209 203.595 126.367 204.173 126.367C204.531 126.367 204.868 126.309 205.183 126.194C205.499 126.078 205.841 125.894 206.209 125.641L207.14 126.904C206.204 127.661 205.147 128.04 203.968 128.04C202.653 128.04 201.643 127.646 200.938 126.857C200.233 126.067 199.881 125 199.881 123.653C199.881 122.801 200.028 122.038 200.323 121.365C200.628 120.681 201.064 120.144 201.633 119.755C202.211 119.366 202.895 119.171 203.684 119.171C204.873 119.171 205.799 119.545 206.462 120.292C207.124 121.038 207.456 122.08 207.456 123.416ZM205.231 122.785C205.231 121.396 204.731 120.702 203.732 120.702C203.269 120.702 202.906 120.875 202.643 121.223C202.39 121.559 202.238 122.112 202.185 122.88H205.231V122.785Z" fill="#9E9E9E"/>
</g>
</g>
<defs>
<filter id="filter0_ddd_638_4311" x="-3.86238e-05" y="-4.3273e-05" width="315.256" height="226.371" filterUnits="userSpaceOnUse" color-interpolation-filters="sRGB">
<feFlood flood-opacity="0" result="BackgroundImageFix"/>
<feColorMatrix in="SourceAlpha" type="matrix" values="0 0 0 0 0 0 0 0 0 0 0 0 0 0 0 0 0 0 127 0" result="hardAlpha"/>
<feOffset dy="1.02135"/>
<feGaussianBlur stdDeviation="0.851124"/>
<feColorMatrix type="matrix" values="0 0 0 0 0 0 0 0 0 0 0 0 0 0 0 0 0 0 0.2 0"/>
<feBlend mode="normal" in2="BackgroundImageFix" result="effect1_dropShadow_638_4311"/>
<feColorMatrix in="SourceAlpha" type="matrix" values="0 0 0 0 0 0 0 0 0 0 0 0 0 0 0 0 0 0 127 0" result="hardAlpha"/>
<feOffset dy="0.340449"/>
<feGaussianBlur stdDeviation="3.06405"/>
<feColorMatrix type="matrix" values="0 0 0 0 0 0 0 0 0 0 0 0 0 0 0 0 0 0 0.12 0"/>
<feBlend mode="normal" in2="effect1_dropShadow_638_4311" result="effect2_dropShadow_638_4311"/>
<feColorMatrix in="SourceAlpha" type="matrix" values="0 0 0 0 0 0 0 0 0 0 0 0 0 0 0 0 0 0 127 0" result="hardAlpha"/>
<feOffset dy="2.0427"/>
<feGaussianBlur stdDeviation="1.70225"/>
<feColorMatrix type="matrix" values="0 0 0 0 0 0 0 0 0 0 0 0 0 0 0 0 0 0 0.14 0"/>
<feBlend mode="normal" in2="effect2_dropShadow_638_4311" result="effect3_dropShadow_638_4311"/>
<feBlend mode="normal" in="SourceGraphic" in2="effect3_dropShadow_638_4311" result="shape"/>
</filter>
<clipPath id="clip0_638_4311">
<rect width="303" height="214.115" fill="white" transform="translate(6.12805 5.7876)"/>
</clipPath>
</defs>
</svg>
