<svg width="177" height="158" viewBox="0 0 177 158" fill="none" xmlns="http://www.w3.org/2000/svg">
<g clip-path="url(#clip0_6_7255)">
<path d="M84.1301 156.944C130.469 156.944 168.034 153.645 168.034 149.576C168.034 145.507 130.469 142.209 84.1301 142.209C37.7914 142.209 0.226562 145.507 0.226562 149.576C0.226562 153.645 37.7914 156.944 84.1301 156.944Z" fill="#B75400"/>
<path opacity="0.5" d="M84.1301 156.944C130.469 156.944 168.034 153.645 168.034 149.576C168.034 145.507 130.469 142.209 84.1301 142.209C37.7914 142.209 0.226562 145.507 0.226562 149.576C0.226562 153.645 37.7914 156.944 84.1301 156.944Z" fill="white"/>
<path d="M174.38 76.7142V76.6896H174.35V76.6651C173.667 76.5963 166.6 75.9922 160.151 79.3419C163 75.7632 164.314 71.2012 163.805 66.6554C162.248 51.0859 147.558 42.1764 146.423 41.5084V41.5133H146.389H146.354C145.22 42.1813 130.53 51.0908 128.973 66.6603C128.64 69.6742 129.104 72.7227 130.318 75.5011C122.047 70.5552 112.401 71.3901 111.512 71.4785V71.4491V71.4834H111.478V71.508C111.041 72.5149 105.52 85.7907 112.151 97.0724C118.084 107.161 130.525 104.494 133.904 103.546C136.743 106.527 141.919 113.315 144.218 124.896H140.996L142.494 146.861H149.743L151.335 124.926H147.538C149.278 117.076 152.416 109.602 156.801 102.863C160.185 103.708 169.34 105.132 173.854 97.4605C179.217 88.3005 174.738 77.5344 174.38 76.7142ZM146.158 76.6307L138.496 65.9874C138.48 65.9656 138.468 65.9407 138.461 65.9142C138.455 65.8878 138.454 65.8603 138.458 65.8333C138.462 65.8064 138.471 65.7805 138.485 65.7572C138.5 65.7339 138.518 65.7137 138.54 65.6977C138.585 65.6646 138.641 65.6506 138.697 65.6589C138.752 65.6672 138.802 65.697 138.835 65.7419L146.173 75.9333V65.1525L138.511 54.5141C138.478 54.4691 138.464 54.4129 138.472 54.3577C138.48 54.3024 138.51 54.2527 138.555 54.2194C138.601 54.1881 138.657 54.1757 138.712 54.1849C138.767 54.194 138.816 54.224 138.85 54.2686L146.187 64.46V48.7431C146.187 48.716 146.193 48.6892 146.203 48.6642C146.214 48.6391 146.229 48.6164 146.248 48.5972C146.267 48.5781 146.29 48.5629 146.315 48.5525C146.34 48.5421 146.367 48.5368 146.394 48.5368C146.448 48.5368 146.501 48.5585 146.54 48.5972C146.578 48.6359 146.6 48.6884 146.6 48.7431V63.9148L154.557 53.8265C154.591 53.7829 154.64 53.7545 154.695 53.7476C154.75 53.7407 154.805 53.7558 154.849 53.7897C154.893 53.8235 154.921 53.8734 154.928 53.9282C154.935 53.983 154.92 54.0383 154.886 54.0819L146.6 64.5877V75.393L154.557 65.2998C154.591 65.2565 154.642 65.2286 154.697 65.2222C154.752 65.2157 154.808 65.2313 154.851 65.2654C154.873 65.2822 154.89 65.303 154.904 65.3266C154.917 65.3503 154.925 65.3763 154.929 65.4032C154.932 65.4301 154.93 65.4574 154.922 65.4835C154.915 65.5096 154.903 65.5339 154.886 65.5552L146.6 76.0659V85.2259L154.557 75.1376C154.591 75.094 154.64 75.0656 154.695 75.0587C154.75 75.0518 154.805 75.0669 154.849 75.1008C154.893 75.1346 154.921 75.1844 154.928 75.2393C154.935 75.2941 154.92 75.3494 154.886 75.393L146.6 85.8987V86.1001H145.932L138.521 75.7859C138.488 75.7409 138.474 75.6847 138.482 75.6295C138.49 75.5742 138.52 75.5245 138.565 75.4912C138.611 75.4599 138.667 75.4475 138.722 75.4567C138.777 75.4658 138.826 75.4958 138.859 75.5403L146.173 85.717V76.6111L146.158 76.6307ZM133.982 102.608L133.231 101.576L122.426 98.5705C122.382 98.5558 122.346 98.5254 122.324 98.4854C122.303 98.4454 122.297 98.3986 122.308 98.3544C122.32 98.3096 122.35 98.2716 122.391 98.2486C122.431 98.2256 122.479 98.2195 122.524 98.2316L132.877 101.12L128.373 94.9605L117.568 91.9547C117.523 91.942 117.485 91.9123 117.462 91.8718C117.439 91.8314 117.433 91.7835 117.445 91.7385C117.46 91.6954 117.49 91.6593 117.53 91.6374C117.57 91.6156 117.617 91.6096 117.661 91.6207L128.02 94.5086L122.696 87.2199L111.89 84.2141C111.868 84.2085 111.848 84.1984 111.83 84.1846C111.812 84.1708 111.797 84.1535 111.786 84.1338C111.775 84.114 111.768 84.0922 111.766 84.0697C111.764 84.0472 111.766 84.0245 111.772 84.0029C111.778 83.9809 111.788 83.9603 111.802 83.9422C111.816 83.9241 111.833 83.9089 111.852 83.8975C111.872 83.886 111.894 83.8786 111.916 83.8756C111.939 83.8727 111.962 83.8742 111.984 83.8801L122.342 86.7681L114.852 76.5226C114.825 76.4848 114.814 76.4378 114.821 76.3918C114.829 76.3458 114.854 76.3046 114.891 76.2771C114.909 76.2631 114.93 76.253 114.952 76.2474C114.974 76.2418 114.998 76.2408 115.02 76.2445C115.043 76.2482 115.064 76.2565 115.083 76.2688C115.103 76.2812 115.119 76.2974 115.132 76.3164L122.882 86.9154L122.848 76.4097C122.849 76.3632 122.868 76.3189 122.901 76.286C122.934 76.2531 122.978 76.2341 123.025 76.2329C123.071 76.2341 123.115 76.2533 123.147 76.2864C123.179 76.3194 123.197 76.3636 123.197 76.4097L123.275 87.3771L128.599 94.6609L128.521 84.1552C128.516 84.1298 128.518 84.1038 128.525 84.079C128.531 84.0543 128.543 84.0312 128.56 84.0116C128.577 83.992 128.597 83.9762 128.621 83.9654C128.644 83.9546 128.669 83.949 128.695 83.949C128.721 83.949 128.746 83.9546 128.77 83.9654C128.793 83.9762 128.814 83.992 128.83 84.0116C128.847 84.0312 128.859 84.0543 128.866 84.079C128.872 84.1038 128.874 84.1298 128.869 84.1552L128.948 95.1275L133.447 101.282L133.368 90.7759C133.37 90.7298 133.389 90.6861 133.422 90.654C133.455 90.6219 133.499 90.604 133.545 90.604C133.591 90.604 133.635 90.6221 133.667 90.6543C133.699 90.6866 133.717 90.7303 133.717 90.7759L133.796 101.748L134.439 102.627L133.982 102.608ZM135.21 102.608C136.782 100.216 141.32 92.3623 138.609 84.8035C140.717 86.1939 142.972 87.3469 145.333 88.2415V122.347C142.843 111.895 138.157 105.648 135.299 102.608H135.21ZM146.998 120.245V88.3987C149.245 87.5827 151.4 86.5324 153.427 85.2651C149.1 92.2002 153.948 100.211 155.225 102.102C151.589 107.704 148.816 113.819 146.998 120.245ZM173.972 86.9989L165.225 89.4547L160.902 95.3485L169.306 93.0057C169.324 92.9997 169.343 92.9976 169.362 92.9994C169.381 93.0012 169.399 93.0068 169.416 93.0161C169.433 93.0253 169.447 93.0379 169.459 93.053C169.47 93.0681 169.478 93.0855 169.483 93.1039C169.492 93.1397 169.487 93.1777 169.468 93.2098C169.45 93.2418 169.42 93.2655 169.385 93.2759L160.637 95.7316L156.983 100.727L165.387 98.3838C165.422 98.3747 165.46 98.3799 165.492 98.3982C165.524 98.4165 165.548 98.4466 165.559 98.4821C165.568 98.5185 165.563 98.5571 165.545 98.59C165.526 98.6229 165.496 98.6475 165.46 98.6589L156.713 101.115L156.251 101.743C156.168 101.694 156.089 101.65 156.011 101.596L156.271 101.237L156.34 92.3377C156.336 92.3172 156.336 92.296 156.342 92.2757C156.347 92.2555 156.357 92.2366 156.37 92.2205C156.383 92.2044 156.4 92.1914 156.419 92.1825C156.438 92.1736 156.459 92.169 156.48 92.169C156.501 92.169 156.521 92.1736 156.54 92.1825C156.559 92.1914 156.576 92.2044 156.589 92.2205C156.603 92.2366 156.612 92.2555 156.617 92.2757C156.623 92.296 156.623 92.3172 156.62 92.3377L156.561 100.864L160.175 95.8446L160.239 86.9449C160.239 86.9264 160.243 86.9081 160.25 86.8911C160.257 86.8741 160.268 86.8587 160.281 86.8459C160.295 86.833 160.31 86.823 160.328 86.8164C160.345 86.8098 160.363 86.8067 160.382 86.8074C160.4 86.8074 160.419 86.8111 160.436 86.8182C160.454 86.8254 160.469 86.8359 160.482 86.8491C160.496 86.8623 160.506 86.878 160.513 86.8953C160.521 86.9126 160.524 86.9311 160.524 86.9498L160.46 95.4713L164.782 89.5775L164.846 80.6778C164.846 80.6591 164.85 80.6406 164.857 80.6233C164.864 80.606 164.875 80.5903 164.888 80.5771C164.901 80.5639 164.917 80.5534 164.934 80.5462C164.952 80.539 164.97 80.5354 164.989 80.5354C165.007 80.5354 165.026 80.5391 165.043 80.5463C165.06 80.5535 165.075 80.5641 165.088 80.5774C165.101 80.5907 165.111 80.6064 165.117 80.6237C165.124 80.6409 165.127 80.6593 165.126 80.6778L165.067 89.1993L171.354 80.5992C171.377 80.5697 171.41 80.5501 171.446 80.5446C171.483 80.5391 171.52 80.5481 171.551 80.5697C171.566 80.5804 171.579 80.5941 171.588 80.6099C171.598 80.6257 171.604 80.6433 171.607 80.6617C171.61 80.68 171.609 80.6988 171.604 80.7167C171.6 80.7347 171.591 80.7515 171.58 80.7662L165.504 89.0814L173.908 86.7386C173.944 86.7295 173.982 86.7347 174.014 86.753C174.046 86.7713 174.07 86.8014 174.08 86.8368C174.084 86.8546 174.085 86.8731 174.082 86.8911C174.078 86.9091 174.072 86.9263 174.061 86.9415C174.051 86.9567 174.038 86.9697 174.023 86.9796C174.007 86.9895 173.99 86.996 173.972 86.9989Z" fill="#212121"/>
<path d="M126.232 0.294189H50.398C48.5671 0.294189 47.0828 1.77849 47.0828 3.60947V145.597C47.0828 147.428 48.5671 148.912 50.398 148.912H126.232C128.063 148.912 129.547 147.428 129.547 145.597V3.60947C129.547 1.77849 128.063 0.294189 126.232 0.294189Z" fill="#212121" stroke="#212121" stroke-width="0.479894" stroke-linecap="round" stroke-linejoin="round"/>
<path d="M123.614 0.294189H47.7801C45.9491 0.294189 44.4648 1.77849 44.4648 3.60947V145.597C44.4648 147.428 45.9491 148.912 47.7801 148.912H123.614C125.445 148.912 126.929 147.428 126.929 145.597V3.60947C126.929 1.77849 125.445 0.294189 123.614 0.294189Z" fill="white"/>
<path d="M126.929 56.3746L54.4155 148.918H123.619C124.497 148.916 125.339 148.566 125.96 147.945C126.581 147.323 126.929 146.481 126.929 145.602V56.3746Z" fill="#B75400"/>
<path opacity="0.5" d="M126.929 56.3746L54.4155 148.918H123.619C124.497 148.916 125.339 148.566 125.96 147.945C126.581 147.323 126.929 146.481 126.929 145.602V56.3746Z" fill="white"/>
<path d="M123.614 0.294189H47.7801C45.9491 0.294189 44.4648 1.77849 44.4648 3.60947V145.597C44.4648 147.428 45.9491 148.912 47.7801 148.912H123.614C125.445 148.912 126.929 147.428 126.929 145.597V3.60947C126.929 1.77849 125.445 0.294189 123.614 0.294189Z" stroke="#212121" stroke-width="0.479894" stroke-linecap="round" stroke-linejoin="round"/>
<path d="M91.4141 9.17419H81.149C80.8689 9.17419 80.6003 9.06293 80.4023 8.8649C80.2043 8.66687 80.093 8.39827 80.093 8.11821C80.093 7.97977 80.1204 7.84269 80.1735 7.71485C80.2266 7.58701 80.3045 7.47092 80.4026 7.37326C80.5007 7.27559 80.6172 7.19828 80.7453 7.14574C80.8734 7.09321 81.0106 7.0665 81.149 7.06715H91.4141C91.6928 7.06715 91.9602 7.17788 92.1573 7.375C92.3544 7.57211 92.4651 7.83945 92.4651 8.11821C92.4658 8.25665 92.4391 8.39386 92.3865 8.52195C92.334 8.65004 92.2567 8.76649 92.159 8.86461C92.0614 8.96273 91.9453 9.04059 91.8174 9.09372C91.6896 9.14685 91.5525 9.17419 91.4141 9.17419Z" fill="#212121" stroke="#212121" stroke-width="0.479894" stroke-linecap="round" stroke-linejoin="round"/>
<path d="M121.718 135.631H49.6663V9.29688H66.7436L68.664 10.8882C69.3343 11.4464 70.1788 11.7522 71.051 11.7526H101.183C102.088 11.749 102.96 11.4174 103.639 10.8194L105.378 9.29688H121.718V135.631Z" fill="#FAFAFA" stroke="#212121" stroke-width="0.479894" stroke-linecap="round" stroke-linejoin="round"/>
<path d="M63.1924 108.392H108.202" stroke="#212121" stroke-width="0.479894" stroke-linecap="round" stroke-linejoin="round"/>
<path d="M63.1924 114.315H108.202" stroke="#212121" stroke-width="0.479894" stroke-linecap="round" stroke-linejoin="round"/>
<path d="M63.1924 120.238H108.202" stroke="#212121" stroke-width="0.479894" stroke-linecap="round" stroke-linejoin="round"/>
<path d="M67.3475 53.3975C64.5188 57.496 63.1452 62.4242 63.446 67.395C63.7467 72.3658 65.7046 77.0924 69.0069 80.8198C72.3091 84.5473 76.7653 87.0607 81.6635 87.9584C86.5618 88.8562 91.6197 88.0866 96.0292 85.7726C100.439 83.4585 103.946 79.7335 105.99 75.1925C108.034 70.6515 108.497 65.5565 107.306 60.7212C106.115 55.886 103.337 51.5894 99.4178 48.5177C95.4981 45.4461 90.6621 43.7766 85.6822 43.7759C84.3167 43.776 82.9539 43.8992 81.6106 44.1442" stroke="#212121" stroke-width="0.479894" stroke-linecap="round" stroke-linejoin="round"/>
<path d="M71.1442 49.1884C70.3958 49.836 69.6903 50.5316 69.0322 51.2708" stroke="white" stroke-width="0.479894" stroke-linecap="round" stroke-linejoin="round"/>
<path d="M103.085 73.4598C107.176 63.8567 102.706 52.756 93.1032 48.6659C83.5 44.5757 72.3994 49.0449 68.3092 58.6481C64.219 68.2512 68.6882 79.3519 78.2914 83.442C87.8946 87.5322 98.9952 83.063 103.085 73.4598Z" fill="#B75400"/>
<path d="M86.0142 51.3365C89.3247 51.3365 92.0072 53.9681 92.0073 57.2047V59.7301H93.3589C94.6373 59.7303 95.679 60.7546 95.6792 62.0006V73.9918C95.6791 75.2379 94.6373 76.2622 93.3589 76.2623H78.6704C77.3918 76.2623 76.3493 75.238 76.3491 73.9918V62.0006C76.3494 60.7545 77.3919 59.7301 78.6704 59.7301H80.021V57.2047C80.0211 53.9682 82.7037 51.3367 86.0142 51.3365ZM86.0142 65.4713C84.6001 65.4714 83.439 66.6051 83.439 67.9967C83.4392 69.3881 84.6002 70.521 86.0142 70.5211C87.4282 70.5211 88.5891 69.3882 88.5894 67.9967C88.5894 66.6051 87.4283 65.4713 86.0142 65.4713ZM86.0142 53.361C83.8535 53.3611 82.0924 55.0818 82.0923 57.2047V59.7301H89.936V57.2047C89.936 55.0817 88.175 53.361 86.0142 53.361Z" fill="white" stroke="#212121" stroke-width="0.254344"/>
<path d="M103.659 10.8194C102.98 11.4174 102.107 11.749 101.203 11.7526H71.0608C70.1886 11.7522 69.3441 11.4464 68.6738 10.8882L66.7534 9.29688H49.6663V22.2191H121.718V9.29688H105.397L103.659 10.8194Z" fill="#B75400" stroke="#212121" stroke-width="0.479894" stroke-linecap="round" stroke-linejoin="round"/>
<path d="M88.0006 139.526C88.0016 139.201 87.9061 138.883 87.7262 138.613C87.5463 138.342 87.2902 138.131 86.9902 138.007C86.6903 137.882 86.36 137.849 86.0413 137.912C85.7227 137.975 85.4299 138.132 85.2002 138.361C84.9705 138.591 84.8142 138.884 84.751 139.202C84.6879 139.521 84.7208 139.851 84.8455 140.151C84.9703 140.451 85.1813 140.707 85.4519 140.887C85.7224 141.067 86.0402 141.163 86.3651 141.162C86.7985 141.16 87.2137 140.988 87.5201 140.681C87.8266 140.375 87.9993 139.959 88.0006 139.526Z" fill="#212121" stroke="#212121" stroke-width="0.479894" stroke-linecap="round" stroke-linejoin="round"/>
<path d="M23.9201 89.2825L17.4958 146.747C17.4958 146.747 12.7856 150.843 13.1982 152.499C13.6108 154.154 19.0478 151.516 19.7993 150.151C20.3326 149.014 20.7125 147.812 20.9289 146.575L34.4553 103.354L44.8579 149.704C44.8579 149.704 49.2782 153.334 51.734 153.211C54.1898 153.088 53.3155 152.12 51.9157 150.347C50.5159 148.574 47.348 147.563 47.348 147.563L45.7861 87.8237L23.9201 89.2825Z" fill="#212121" stroke="#212121" stroke-width="0.479894" stroke-linecap="round" stroke-linejoin="round"/>
<path d="M45.4337 86.8183L23.8508 87.9154L24.0004 90.8585L45.5833 89.7614L45.4337 86.8183Z" fill="#212121" stroke="#212121" stroke-width="0.479894" stroke-linecap="round" stroke-linejoin="round"/>
<path d="M37.2401 88.6877C37.2744 89.4195 36.3462 90.058 35.1576 90.1219C33.969 90.1857 32.967 89.6455 32.967 88.9088C32.967 88.172 33.8659 87.5384 35.0495 87.4795C36.2332 87.4206 37.2008 87.9608 37.2401 88.6877Z" fill="white"/>
<path d="M33.5418 58.4918L25.428 60.869L26.4348 87.9904L45.467 87.5189L43.0603 59.4839L33.5418 58.4918Z" fill="white" stroke="#212121" stroke-width="0.479894" stroke-linecap="round" stroke-linejoin="round"/>
<path d="M29.9906 58.7966L28.9002 105.078L18.5664 100.073L23.1096 85.4564L20.0104 60.776L29.9906 58.7966Z" fill="#B75400" stroke="#212121" stroke-width="0.479894" stroke-linecap="round" stroke-linejoin="round"/>
<path d="M38.2075 58.379L43.9835 104.312L53.7623 98.2851L47.7604 84.2038L48.34 59.3368L38.2075 58.379Z" fill="#B75400" stroke="#212121" stroke-width="0.479894" stroke-linecap="round" stroke-linejoin="round"/>
<path d="M32.0583 63.9783L33.6693 66.601L32.3825 84.8621L35.4375 88.4769L37.019 84.1352L34.5731 66.6354L36.0809 64.1011L33.8904 61.2622L32.0583 63.9783Z" fill="#212121" stroke="#212121" stroke-width="0.479894" stroke-linecap="round" stroke-linejoin="round"/>
<path d="M34.0525 63.6294L31.0123 65.9181L28.5762 59.9752L29.9465 57.8534L37.3874 57.4752L39.1458 59.8475L37.6969 65.2502L34.0525 63.6294Z" fill="white" stroke="#212121" stroke-width="0.479894" stroke-linecap="round" stroke-linejoin="round"/>
<path d="M30.5654 55.5695L31.2481 59.3465L34.0526 63.6293L36.6213 58.5803L36.4593 55.3927L30.5654 55.5695Z" fill="white" stroke="#212121" stroke-width="0.479894" stroke-linecap="round" stroke-linejoin="round"/>
<path d="M20.0105 60.7758L6.22876 77.4602L15.3887 88.3048L19.0773 85.908L14.5489 76.6694L21.3071 71.7776L20.0105 60.7758Z" fill="#B75400" stroke="#212121" stroke-width="0.479894" stroke-linecap="round" stroke-linejoin="round"/>
<path d="M19.0774 85.908L19.6275 87.1064L16.5234 88.8647L16.106 87.902L19.0774 85.908Z" fill="white" stroke="#212121" stroke-width="0.479894" stroke-linecap="round" stroke-linejoin="round"/>
<path d="M19.6273 87.1063L22.7903 91.2516L21.7491 92.5336L20.9927 92.2045L19.4603 93.511C19.4603 93.511 18.3405 93.1966 18.198 92.8381C18.0556 92.4795 16.5379 91.566 16.5036 90.957C16.4692 90.3479 16.5036 88.8647 16.5036 88.8647L19.6273 87.1063Z" fill="white" stroke="#212121" stroke-width="0.479894" stroke-linecap="round" stroke-linejoin="round"/>
<path d="M56.0168 62.5929C56.2035 62.106 56.2445 61.5752 56.1347 61.0654C55.9088 60.4809 55.4078 58.4574 55.506 57.7894C55.6042 57.1215 56.616 56.149 56.7044 55.2846C56.7928 54.4201 56.7044 53.6294 56.7044 53.1628C56.7126 53.0351 56.7617 52.9134 56.8446 52.8159C56.9274 52.7183 57.0395 52.6502 57.1643 52.6215C57.289 52.5928 57.4196 52.6051 57.5368 52.6566C57.6539 52.7081 57.7513 52.7961 57.8144 52.9074C58.3056 53.4771 58.6003 54.0616 58.3645 54.6657C58.204 55.3413 58.1281 56.0342 58.1386 56.7285C58.1386 56.7285 58.9244 57.814 59.3566 58.5213C59.7889 59.2285 59.7496 61.0802 59.4598 61.8218C59.1897 62.3834 58.8088 62.8846 58.34 63.2953L58.3891 64.5722L56.0168 62.5929Z" fill="white" stroke="#212121" stroke-width="0.479894" stroke-linecap="round" stroke-linejoin="round"/>
<path d="M57.4509 55.7071C57.4509 55.7071 57.1071 56.7188 57.7112 56.9497C58.3154 57.1805 60.7859 57.5243 60.8104 56.7286C60.835 55.933 60.8841 55.5351 60.4863 55.5548C60.0884 55.5744 58.2368 55.5548 58.2368 55.5548C58.2368 55.5548 57.3773 55.5106 57.4509 55.7071Z" fill="white" stroke="#212121" stroke-width="0.479894" stroke-linecap="round" stroke-linejoin="round"/>
<path d="M57.7309 60.6676C57.7309 60.6676 57.4853 61.4191 57.9224 61.591C58.3595 61.7629 60.1375 62.0232 60.1522 61.4289C60.167 60.8346 60.2014 60.5399 59.9165 60.5547C59.6316 60.5694 58.2957 60.5547 58.2957 60.5547C58.2957 60.5547 57.6768 60.5105 57.7309 60.6676Z" fill="white" stroke="#212121" stroke-width="0.479894" stroke-linecap="round" stroke-linejoin="round"/>
<path d="M57.4019 59.0615C57.4019 59.0615 57.1171 59.9358 57.623 60.1372C58.1288 60.3385 60.1868 60.6283 60.2064 59.9505C60.2261 59.2727 60.2654 58.9191 59.9314 58.9338C59.5974 58.9486 58.0552 58.9338 58.0552 58.9338C58.0552 58.9338 57.3381 58.8945 57.4019 59.0615Z" fill="white" stroke="#212121" stroke-width="0.479894" stroke-linecap="round" stroke-linejoin="round"/>
<path d="M57.2105 57.5046C57.2105 57.5046 56.8666 58.5164 57.4757 58.7472C58.0847 58.978 60.5454 59.3218 60.5699 58.5262C60.5945 57.7305 60.6436 57.3327 60.2458 57.3523C59.8479 57.372 57.9963 57.3523 57.9963 57.3523C57.9963 57.3523 57.1368 57.313 57.2105 57.5046Z" fill="white" stroke="#212121" stroke-width="0.479894" stroke-linecap="round" stroke-linejoin="round"/>
<path d="M55.7368 63.5998L56.1199 62.0576L58.782 63.644L58.335 65.3189L55.7368 63.5998Z" fill="white" stroke="#212121" stroke-width="0.479894" stroke-linecap="round" stroke-linejoin="round"/>
<path d="M48.3401 59.3365L53.4383 70.1861L55.9432 63.2068L58.3989 65.5447L55.8842 78.4817C55.8058 78.88 55.6127 79.2467 55.3287 79.5367C55.0446 79.8267 54.682 80.0273 54.2853 80.114C53.8887 80.2006 53.4755 80.1694 53.0964 80.0243C52.7172 79.8791 52.3888 79.6263 52.1515 79.297L48.0798 73.6143L48.3401 59.3365Z" fill="#B75400" stroke="#212121" stroke-width="0.479894" stroke-linecap="round" stroke-linejoin="round"/>
<path d="M28.193 51.159C28.193 51.159 27.1616 50.0588 27.029 50.8643C26.8964 51.6698 27.3138 53.0598 27.9621 53.5558C28.6105 54.0519 29.1802 53.2317 29.1802 53.2317L28.193 51.159Z" fill="white" stroke="#212121" stroke-width="0.479894" stroke-linecap="round" stroke-linejoin="round"/>
<path d="M37.9425 50.6628C37.9425 50.6628 38.8512 49.4644 39.0722 50.2503C39.2932 51.0361 39.0083 52.4654 38.414 53.0253C37.8197 53.5852 37.1665 52.8239 37.1665 52.8239L37.9425 50.6628Z" fill="white" stroke="#212121" stroke-width="0.479894" stroke-linecap="round" stroke-linejoin="round"/>
<path d="M28.6055 52.2886L27.6232 50.211C26.8326 49.0982 26.2854 47.8314 26.0172 46.493C25.526 44.214 26.3364 42.3182 27.3678 41.7337C27.9475 41.3867 28.6319 41.2579 29.298 41.3703C29.298 41.3703 29.4945 40.0343 32.7361 38.9145C35.9777 37.7947 39.5042 39.8133 39.4502 40.5206C39.3961 41.2278 38.5317 41.5422 38.5317 41.5422C38.5317 41.5422 41.0562 42.4753 40.1427 43.6688C39.5793 44.3979 38.8503 44.9822 38.016 45.3731C38.1991 45.975 38.3483 46.5866 38.4629 47.2051C38.5906 47.9959 37.8785 51.3947 37.8785 51.3947L36.1349 46.6158L30.6634 46.8957C30.6634 46.8957 30.3393 49.2139 29.7597 50.0391C29.3898 50.6654 29.1837 51.3749 29.1605 52.1019C29.1605 52.1019 28.9051 52.9762 28.6055 52.2886Z" fill="#212121" stroke="#212121" stroke-width="0.479894" stroke-linecap="round" stroke-linejoin="round"/>
<path d="M29.5781 43.6541C29.5687 45.0804 29.4653 46.5045 29.2686 47.9172C29.1503 48.7033 28.7442 49.4175 28.1292 49.9212C28.1292 49.9212 28.8266 53.1578 29.7107 54.8818C30.5947 56.6057 32.4316 58.0203 34.2833 57.8287C36.1349 57.6372 37.6133 55.535 37.7901 53.757C37.9669 51.9791 37.0976 45.4075 37.0976 45.4075C37.0976 45.4075 31.3118 46.4242 29.5781 43.6541Z" fill="white" stroke="#212121" stroke-width="0.479894" stroke-linecap="round" stroke-linejoin="round"/>
<path d="M30.0693 50.2992C30.3643 50.1247 30.6972 50.0245 31.0395 50.0074C31.3818 49.9903 31.7231 50.0567 32.0339 50.201" stroke="#212121" stroke-width="0.479894" stroke-linecap="round" stroke-linejoin="round"/>
<path d="M29.9907 48.8258C29.9907 48.8258 30.1037 47.8435 31.7441 47.7551" stroke="#212121" stroke-width="0.479894" stroke-linecap="round" stroke-linejoin="round"/>
<path d="M34.3572 47.5394C34.7284 47.3873 35.1385 47.3582 35.5274 47.4563C35.9164 47.5544 36.2636 47.7746 36.5182 48.0845" stroke="#212121" stroke-width="0.479894" stroke-linecap="round" stroke-linejoin="round"/>
<path d="M33.7823 49.1256C33.7823 49.1256 34.0426 51.0902 34.0573 51.3309C34.0721 51.5716 34.8923 51.6157 34.6713 52.1167C34.4503 52.6177 33.7381 53.1481 33.1438 52.77" stroke="#212121" stroke-width="0.479894" stroke-linecap="round" stroke-linejoin="round"/>
<path d="M34.7056 54.4154C34.7056 54.4154 34.0818 55.0195 32.8245 54.5087" stroke="#212121" stroke-width="0.479894" stroke-linecap="round" stroke-linejoin="round"/>
<path d="M35.9482 49.7541C35.9482 50.1176 35.796 50.4221 35.57 50.4319C35.3441 50.4417 35.1476 50.1569 35.128 49.7983C35.1083 49.4398 35.2803 49.1353 35.5062 49.1205C35.7321 49.1058 35.9138 49.3956 35.9482 49.7541Z" fill="#212121"/>
</g>
<defs>
<clipPath id="clip0_6_7255">
<rect width="177" height="157.056" fill="white"/>
</clipPath>
</defs>
</svg>
