<svg xmlns="http://www.w3.org/2000/svg" width="25" height="25" viewBox="0 0 25 25" fill="none">
<g id="Add Circle Outline">
<path id="Vector" d="M13.8 7.172H11.8V11.172H7.79999V13.172H11.8V17.172H13.8V13.172H17.8V11.172H13.8V7.172ZM12.8 2.172C7.27999 2.172 2.79999 6.652 2.79999 12.172C2.79999 17.692 7.27999 22.172 12.8 22.172C18.32 22.172 22.8 17.692 22.8 12.172C22.8 6.652 18.32 2.172 12.8 2.172ZM12.8 20.172C8.38999 20.172 4.79999 16.582 4.79999 12.172C4.79999 7.762 8.38999 4.172 12.8 4.172C17.21 4.172 20.8 7.762 20.8 12.172C20.8 16.582 17.21 20.172 12.8 20.172Z" fill="#8BC34A"/>
</g>
</svg>
