<svg width="222" height="51" viewBox="0 0 222 51" fill="none" xmlns="http://www.w3.org/2000/svg">
<g clip-path="url(#clip0_430_1154)">
<path d="M124 0.343994H0V50.344H124V0.343994Z" fill="#0A97D9"/>
<path d="M16.1559 10.7774V35.7671H11.9523V16.6388H11.9163L8.96886 19.6967H8.93042V15.3108L12.8005 10.7774H16.1559Z" fill="white"/>
<path d="M45.7982 10.724H44.0945V20.8635H45.7982V10.724Z" fill="white"/>
<path d="M46.7964 20.8648H48.5001V16.3908H50.2039V15.0157H48.5001V12.1141H50.7867V10.724H46.7964V20.8648Z" fill="white"/>
<path d="M55.6116 12.1141V10.724H51.5469V20.8648H55.6116V19.4735H53.2506V16.3908H54.9395V15.0157H53.2506V12.1141H55.6116Z" fill="white"/>
<path d="M63.7845 17.2886C63.7845 16.3623 63.3678 15.7944 62.5159 15.5997C63.2165 15.3753 63.5327 14.8371 63.5327 13.9877V12.9548C63.5327 11.5214 62.9636 10.7228 61.2598 10.7228H58.7935V20.8623H61.4384C63.1434 20.8623 63.7845 20.0699 63.7845 18.6303V17.2886ZM60.4972 12.1141H61.08C61.6492 12.1141 61.9034 12.3856 61.9034 12.9374V14.1774C61.9034 14.7168 61.6492 15.0008 61.0949 15.0008H60.4972V12.1141ZM62.0819 18.6501C62.0819 19.1883 61.8116 19.4722 61.2449 19.4722H60.5009V16.3028H61.2338C61.8315 16.3028 62.0857 16.5868 62.0857 17.1249L62.0819 18.6501Z" fill="white"/>
<path d="M64.5122 20.8648H68.5769V19.4735H66.2147V16.3908H67.9036V15.0157H66.2147V12.1141H68.5769V10.724H64.5122V20.8648Z" fill="white"/>
<path d="M69.6248 10.724V20.8648H73.3621V19.4735H71.3285V10.724H69.6248Z" fill="white"/>
<path d="M74.0107 13.3417V18.2459C74.0107 19.8182 74.7882 20.9826 76.5813 20.9826C78.3743 20.9826 79.1679 19.8182 79.1679 18.2459V13.3417C79.1679 11.757 78.3904 10.605 76.5813 10.605C74.7721 10.605 74.0107 11.752 74.0107 13.3417ZM77.4641 13.0714V18.5162C77.4641 19.1288 77.1951 19.5628 76.5813 19.5628C75.9675 19.5628 75.7133 19.1288 75.7133 18.5162V13.0714C75.7133 12.4588 75.9836 12.026 76.5813 12.026C77.1789 12.026 77.4641 12.4588 77.4641 13.0714Z" fill="white"/>
<path d="M82.2256 17.1547H82.212L81.4196 10.724H79.7754L81.1357 20.8648H82.734L83.6913 14.5966H83.705L84.7069 20.8648H86.3214L87.6358 10.724H86.2023L85.4236 17.1547H85.41L84.4688 10.724H83.0788L82.2256 17.1547Z" fill="white"/>
<path d="M40.6894 35.7299H42.2877L43.245 29.4641H43.2599L44.2618 35.7299H45.8763L47.1919 25.5916H45.756L44.9798 32.0223H44.9637L44.0237 25.5916H42.6325L41.7806 32.0223H41.7657L40.9733 25.5916H39.3291L40.6894 35.7299Z" fill="white"/>
<path d="M46.9612 35.7299H48.5732L48.8708 33.8773H50.6799L50.9924 35.7299H52.7408L50.8151 25.5916H48.8733L46.9612 35.7299ZM49.7698 28.4473H49.7859L50.4592 32.5146H49.1039L49.7698 28.4473Z" fill="white"/>
<path d="M55.5432 35.7299V26.9817H56.9482V25.5916H52.4197V26.9817H53.8234V35.7299H55.5432Z" fill="white"/>
<path d="M61.8015 26.9817V25.5916H57.7368V35.7299H61.8015V34.3398H59.4406V31.2584H61.1295V29.882H59.4406V26.9817H61.8015Z" fill="white"/>
<path d="M67.539 29.1653V27.8646C67.539 26.4435 66.9115 25.5929 65.1929 25.5929H62.7129V35.7299H64.4166V31.0811L66.015 35.7299H67.8093L66.1812 31.1233C67.1521 30.9001 67.5452 30.2553 67.5452 29.1653M65.8265 29.3005C65.8265 29.8386 65.5785 30.1375 64.9908 30.1375H64.4216V26.9817H64.9908C65.5723 26.9817 65.8265 27.2508 65.8265 27.8038V29.3005Z" fill="white"/>
<path d="M28.9527 35.7733V31.716H30.6491V28.4349H28.9527V10.7711H24.8223L17.5571 29.1355V31.716H24.9699V35.772L28.9527 35.7733ZM21.2449 28.4349L25.0058 18.1429H25.043V28.4349H21.2449Z" fill="white"/>
<path d="M39.5684 10.724V20.8648H43.307V19.4735H41.2734V10.724H39.5684Z" fill="white"/>
</g>
<rect width="98" height="50" transform="translate(124 0.343994)" fill="#0A97D9"/>
<path d="M193.911 33.6643C192.925 32.332 186.554 24.2117 177.621 24.2117C169.863 24.2117 161.568 31.2459 161.568 31.2459C161.568 31.2459 158.451 24.8669 152.076 24.254C152.039 24.254 151.997 24.2454 151.956 24.2454H151.917C151.783 24.2533 151.659 24.3826 151.674 24.4978C151.692 24.5815 151.726 24.6612 151.773 24.7329C152.595 26.0925 154.692 29.9756 154.692 33.8508C154.692 37.7409 152.583 41.6326 151.768 42.9906L151.713 43.0768C151.688 43.1173 151.674 43.164 151.674 43.2116C151.674 43.2754 151.698 43.3366 151.742 43.383C151.786 43.4295 151.845 43.4579 151.909 43.4624L151.978 43.4569C152 43.4579 152.022 43.4558 152.044 43.4507C158.44 42.8551 161.568 36.4565 161.568 36.4565C161.568 36.4565 169.866 43.4914 177.621 43.4914C186.555 43.4914 192.924 35.3695 193.911 34.0396C193.937 34.0036 193.959 33.9723 193.979 33.9487C193.992 33.9177 193.999 33.8845 194 33.8508C194 33.8173 193.992 33.7842 193.979 33.7536C193.959 33.7262 193.937 33.6948 193.911 33.6619M182.588 34.8789C182.073 34.8783 181.569 34.725 181.141 34.4382C180.713 34.1515 180.379 33.7442 180.183 33.2679C179.986 32.7917 179.935 32.2677 180.035 31.7624C180.136 31.257 180.385 30.7928 180.749 30.4286C181.114 30.0644 181.578 29.8164 182.084 29.716C182.589 29.6156 183.113 29.6673 183.589 29.8645C184.065 30.0618 184.472 30.3957 184.758 30.8242C185.045 31.2526 185.198 31.7564 185.198 32.2717C185.198 32.6143 185.13 32.9534 184.999 33.2699C184.868 33.5863 184.676 33.8738 184.433 34.1159C184.191 34.358 183.903 34.55 183.587 34.6809C183.27 34.8119 182.931 34.8792 182.588 34.8789Z" fill="white"/>
<path d="M151.875 8.9436C151.859 8.93842 151.842 8.93474 151.826 8.93263C151.792 8.93284 151.758 8.93971 151.727 8.95286C151.696 8.966 151.668 8.98517 151.644 9.00925C151.62 9.03334 151.601 9.06188 151.588 9.09324C151.576 9.1246 151.569 9.15817 151.569 9.19202V10.9678C151.569 11.0019 151.575 11.0358 151.588 11.0675C151.601 11.0991 151.62 11.1279 151.644 11.152C155.954 14.8979 160.038 11.3871 160.983 10.46C161 10.4319 161.023 10.4074 161.05 10.3879C161.092 10.3591 161.141 10.3431 161.192 10.3417C161.256 10.3413 161.319 10.366 161.365 10.4106C161.369 10.4151 161.373 10.4188 161.378 10.4216C166.248 15.0687 171.355 11.3048 172.417 10.4216L172.521 10.326C172.552 10.3124 172.585 10.3057 172.619 10.3064C172.653 10.3054 172.688 10.3121 172.72 10.326L172.825 10.4216C173.887 11.3048 178.994 15.0687 183.863 10.4216C183.867 10.4183 183.87 10.4146 183.873 10.4106C183.919 10.3662 183.981 10.3415 184.046 10.3417C184.097 10.3427 184.146 10.3588 184.188 10.3879C184.216 10.4074 184.24 10.4319 184.259 10.46C185.203 11.3878 189.282 14.8979 193.596 11.152C193.62 11.1277 193.639 11.0989 193.652 11.0673C193.665 11.0357 193.671 11.0019 193.671 10.9678V9.19202C193.672 9.15832 193.665 9.12482 193.653 9.09348C193.641 9.06214 193.622 9.03357 193.599 9.00944C193.575 8.98531 193.547 8.9661 193.516 8.95291C193.485 8.93973 193.451 8.93283 193.418 8.93263C193.399 8.93439 193.381 8.93807 193.363 8.9436C193.323 8.96633 193.285 8.98827 193.234 9.011C191.908 9.67476 187.795 11.2546 184.065 7.72266C184.029 7.69053 183.993 7.65761 183.956 7.61921C183.922 7.60383 183.884 7.59582 183.847 7.5957C183.82 7.59738 183.794 7.60131 183.769 7.60746C183.716 7.62802 183.671 7.66311 183.638 7.70855C182.526 8.55647 177.419 12.014 172.872 7.77203L172.805 7.70698C172.755 7.6593 172.689 7.63145 172.62 7.62862C172.553 7.63193 172.49 7.65984 172.442 7.70698L172.372 7.77203C167.826 12.014 162.714 8.55569 161.603 7.70855C161.572 7.66307 161.528 7.62788 161.476 7.60746C161.451 7.60161 161.424 7.59769 161.398 7.5957C161.361 7.59666 161.325 7.60464 161.291 7.61921C161.257 7.65627 161.221 7.69085 161.182 7.72266C157.449 11.2546 153.337 9.67476 152.013 9.011C151.967 8.98827 151.922 8.96633 151.882 8.9436" fill="white"/>
<path d="M160.983 16.9299C161.001 16.9025 161.024 16.8787 161.051 16.8594C161.092 16.8299 161.141 16.813 161.192 16.8108C161.257 16.811 161.319 16.8366 161.366 16.8821C161.369 16.8865 161.373 16.8903 161.378 16.8931C166.247 21.5347 171.354 17.7723 172.417 16.8931L172.521 16.7943C172.552 16.7825 172.585 16.7769 172.618 16.7779C172.653 16.7767 172.688 16.7823 172.721 16.7943L172.825 16.8931C173.887 17.7723 178.993 21.5347 183.864 16.8931C183.864 16.8931 183.87 16.8868 183.873 16.8821C183.919 16.8367 183.981 16.8111 184.046 16.8108C184.097 16.8125 184.146 16.8295 184.187 16.8594C184.215 16.8783 184.239 16.9022 184.259 16.9299C185.199 17.8586 189.281 21.3694 193.596 17.6195C193.621 17.5965 193.64 17.5687 193.654 17.5378C193.667 17.507 193.674 17.4737 193.675 17.4401V15.6572C193.675 15.6238 193.668 15.5906 193.656 15.5597C193.643 15.5287 193.624 15.5006 193.6 15.4769C193.577 15.4532 193.549 15.4345 193.518 15.4217C193.487 15.409 193.453 15.4024 193.42 15.4025C193.401 15.4044 193.383 15.4078 193.365 15.4127L193.236 15.4778C191.911 16.1423 187.796 17.7183 184.067 14.191L183.959 14.0891C183.925 14.0705 183.887 14.0616 183.849 14.0633C183.822 14.0628 183.795 14.0696 183.771 14.0829C183.717 14.097 183.67 14.1312 183.641 14.1785C182.529 15.0248 177.422 18.4831 172.873 14.2412L172.807 14.1745C172.757 14.1277 172.691 14.1021 172.622 14.1032C172.556 14.1027 172.492 14.1283 172.444 14.1745L172.374 14.2412C167.829 18.4831 162.716 15.0248 161.605 14.1785C161.577 14.1315 161.532 14.0973 161.479 14.0829C161.454 14.0704 161.428 14.0636 161.4 14.0633C161.363 14.0621 161.327 14.0711 161.295 14.0891C161.259 14.1244 161.222 14.1581 161.183 14.191C157.451 17.7175 153.34 16.1423 152.014 15.4778L151.884 15.4127C151.868 15.4082 151.851 15.4048 151.835 15.4025C151.801 15.4023 151.768 15.4088 151.737 15.4215C151.706 15.4342 151.677 15.4529 151.654 15.4765C151.63 15.5002 151.611 15.5283 151.598 15.5594C151.585 15.5904 151.578 15.6236 151.578 15.6572V17.4401C151.577 17.4735 151.584 17.5066 151.597 17.5375C151.609 17.5683 151.628 17.5963 151.652 17.6195C155.962 21.3694 160.047 17.8546 160.991 16.9299" fill="white"/>
<defs>
<clipPath id="clip0_430_1154">
<rect width="124" height="50" fill="white" transform="translate(0 0.343994)"/>
</clipPath>
</defs>
</svg>
