<svg width="112" height="111" viewBox="0 0 112 111" fill="none" xmlns="http://www.w3.org/2000/svg">
  <path d="M46.9782 90.2326L48.9609 82.8329L46.9782 90.2326C56.237 92.7134 66.1021 91.4147 74.4032 86.622C82.7044 81.8293 88.7617 73.9353 91.2426 64.6765C93.7235 55.4177 92.4247 45.5527 87.632 37.2515C82.8393 28.9503 74.9453 22.893 65.6865 20.4121L63.7038 27.8118L65.6865 20.4121C56.4278 17.9312 46.5627 19.23 38.2615 24.0227C29.9603 28.8154 23.903 36.7094 21.4221 45.9682C18.9413 55.2269 20.24 65.092 25.0327 73.3932C29.8254 81.6944 37.7194 87.7517 46.9782 90.2326Z" fill="white" stroke="#B75400" stroke-width="15.6544" stroke-miterlimit="10"/>
  <path d="M36.7546 21.5263L39.3726 26.2307L38.4033 26.7701L35.7853 22.0657L36.7546 21.5263ZM39.747 22.4931L40.1677 23.2492L38.0288 24.4395L37.608 23.6834L39.747 22.4931ZM38.8548 20.3575L39.2773 21.1168L36.9122 22.433L36.4896 21.6737L38.8548 20.3575Z" fill="white"/>
  <path d="M44.6359 19.0704L44.5765 23.7672L43.4511 24.1207L43.7462 18.3849L44.4623 18.1599L44.6359 19.0704ZM47.134 22.9638L44.396 19.1458L44.0072 18.3029L44.7304 18.0757L48.2629 22.6092L47.134 22.9638ZM46.4699 21.0717L46.7303 21.9007L44.0175 22.7529L43.7571 21.9239L46.4699 21.0717Z" fill="white"/>
  <path d="M51.5657 16.6492L52.24 21.9906L51.1431 22.1291L50.4688 16.7877L51.5657 16.6492Z" fill="white"/>
  <path d="M55.7947 16.3411L57.8003 16.4356C58.2115 16.4549 58.5619 16.5331 58.8516 16.6702C59.1438 16.8073 59.3642 17.0003 59.5129 17.2492C59.6616 17.498 59.7276 17.7985 59.711 18.1506C59.6975 18.4387 59.6366 18.6839 59.5283 18.8861C59.4227 19.0859 59.278 19.2506 59.0942 19.3802C58.913 19.5074 58.7023 19.606 58.462 19.6762L58.1025 19.8443L56.3591 19.7622L56.3924 18.8976L57.6889 18.9586C57.8834 18.9678 58.0463 18.9409 58.1776 18.878C58.3089 18.8151 58.4094 18.7236 58.4792 18.6035C58.5515 18.4835 58.5915 18.3422 58.5991 18.1797C58.6073 18.0073 58.5823 17.8569 58.5242 17.7283C58.4661 17.5997 58.3733 17.4991 58.2459 17.4264C58.1186 17.3538 57.9564 17.3128 57.7594 17.3036L56.8619 17.2613L56.6495 21.7711L55.5414 21.719L55.7947 16.3411ZM58.548 21.8606L57.4346 19.4057L58.6058 19.4534L59.736 21.8647L59.7336 21.9164L58.548 21.8606Z" fill="white"/>
  <path d="M68.8393 22.8004L68.8394 22.8004C69.1274 22.6743 69.3272 22.4591 69.4335 22.1615C69.5397 21.8642 69.521 21.5728 69.3765 21.2962C69.236 21.0152 68.9933 20.8177 68.6629 20.6997C68.3322 20.5816 68.0178 20.5803 67.7278 20.707C67.4405 20.8295 67.2413 21.0432 67.1351 21.3407C67.0288 21.6383 67.0471 21.9314 67.1901 22.2114L67.1901 22.2114L67.1907 22.2126C67.3362 22.4906 67.581 22.6865 67.9113 22.8044C68.2414 22.9223 68.5536 22.9253 68.8393 22.8004Z" fill="white" stroke="black" stroke-width="0.248319"/>
  <path d="M77.4463 22.8076L79.058 24.0049C79.3885 24.2504 79.6357 24.5108 79.7996 24.7862C79.9656 25.063 80.0408 25.3461 80.0254 25.6356C80.01 25.9251 79.8971 26.2113 79.6869 26.4943C79.5149 26.7258 79.3276 26.8953 79.125 27.0027C78.9258 27.1096 78.7138 27.1655 78.489 27.1705C78.2676 27.175 78.0377 27.1393 77.7993 27.0635L77.407 27.0024L76.006 25.9616L76.5161 25.2626L77.5579 26.0366C77.7142 26.1527 77.8644 26.2213 78.0085 26.2424C78.1525 26.2634 78.2871 26.2436 78.412 26.1828C78.5389 26.1236 78.6509 26.0287 78.7479 25.8981C78.8508 25.7595 78.914 25.6207 78.9376 25.4816C78.9611 25.3424 78.9403 25.2072 78.8751 25.0758C78.8099 24.9445 78.6981 24.82 78.5398 24.7024L77.8185 24.1666L75.1262 27.7908L74.2357 27.1293L77.4463 22.8076ZM76.6519 28.9242L77.0975 26.2658L78.0428 26.9588L77.6355 29.5905L77.6047 29.632L76.6519 28.9242Z" fill="white"/>
  <path d="M82.6985 33.664L82.0528 34.24L80.1452 32.1015L80.7908 31.5255L82.6985 33.664ZM84.404 28.788L80.3864 32.3719L79.6479 31.5441L83.6655 27.9602L84.404 28.788ZM84.1855 31.837L83.5564 32.3983L81.8973 30.5385L82.5265 29.9773L84.1855 31.837ZM86.0679 30.6533L85.4195 31.2318L83.5143 29.0961L84.1627 28.5176L86.0679 30.6533Z" fill="white"/>
  <path d="M86.5224 37.475L85.8349 36.2879L86.5836 35.8543L87.2712 37.0414C87.3774 37.2248 87.4938 37.3569 87.6202 37.4375C87.7488 37.5168 87.8829 37.5517 88.0226 37.542C88.1623 37.5323 88.3004 37.4879 88.4369 37.4089C88.5755 37.3286 88.6891 37.2271 88.7777 37.1046C88.8663 36.9821 88.9135 36.8423 88.9193 36.6851C88.9251 36.5279 88.8749 36.3575 88.7686 36.1741L88.2738 35.3198L84.3669 37.5825L83.811 36.6226L88.4698 33.9243L89.5206 35.7386C89.7318 36.1034 89.8467 36.4542 89.8652 36.791C89.887 37.1288 89.8229 37.4337 89.6728 37.7058C89.5227 37.9778 89.2994 38.1998 89.0029 38.3715C88.7022 38.5457 88.4018 38.6271 88.1017 38.6157C87.8017 38.6043 87.516 38.502 87.2446 38.3088C86.9744 38.1177 86.7337 37.8398 86.5224 37.475Z" fill="white"/>
  <path d="M91.0844 46.1571L90.8414 46.2347C90.4516 46.3592 90.0848 46.4181 89.7411 46.4115C89.3974 46.4048 89.0856 46.3401 88.8057 46.2173C88.5282 46.0937 88.2891 45.9165 88.0885 45.6855C87.8887 45.4569 87.737 45.1806 87.6335 44.8565C87.5308 44.5348 87.4942 44.2218 87.5237 43.9173C87.554 43.6152 87.6461 43.3322 87.7999 43.0683C87.956 42.8036 88.1718 42.5678 88.4473 42.3608C88.7235 42.1561 89.0565 41.9915 89.4463 41.867L89.6893 41.7894C90.0815 41.6641 90.4482 41.6052 90.7896 41.6126C91.1333 41.6193 91.4451 41.684 91.725 41.8068C92.0057 41.9319 92.2459 42.1088 92.4457 42.3374C92.6463 42.5683 92.7979 42.8447 92.9007 43.1664C93.0042 43.4904 93.0408 43.8035 93.0105 44.1056C92.981 44.4101 92.8877 44.6934 92.7309 44.9558C92.5747 45.2204 92.3586 45.4551 92.0823 45.6598C91.8092 45.866 91.4766 46.0318 91.0844 46.1571ZM90.5005 45.1674L90.7506 45.0875C91.023 45.0005 91.2546 44.8994 91.4455 44.7841C91.6364 44.6687 91.7869 44.5404 91.8971 44.3992C92.0072 44.2579 92.0754 44.1067 92.1016 43.9457C92.1301 43.7839 92.1159 43.6137 92.0589 43.4353C92.0019 43.2568 91.9148 43.1099 91.7978 42.9946C91.6838 42.8809 91.541 42.7985 91.3694 42.7472C91.1985 42.6983 91.0019 42.6821 90.7795 42.6988C90.5571 42.7155 90.3097 42.7674 90.0373 42.8544L89.7872 42.9343C89.5171 43.0205 89.2855 43.1217 89.0923 43.2377C88.9014 43.3531 88.7497 43.4817 88.6372 43.6238C88.527 43.765 88.4577 43.9166 88.4292 44.0784C88.4006 44.2402 88.4148 44.4103 88.4719 44.5888C88.5289 44.7672 88.6159 44.9141 88.7329 45.0294C88.85 45.1447 88.994 45.2268 89.1648 45.2757C89.3381 45.3239 89.5359 45.3397 89.7583 45.323C89.9831 45.3055 90.2304 45.2537 90.5005 45.1674Z" fill="white"/>
  <path d="M90.648 52.601C90.7438 52.5921 90.8283 52.5693 90.9016 52.5327C90.9776 52.4983 91.044 52.4401 91.1007 52.3581C91.1598 52.2758 91.2148 52.1629 91.2658 52.0195C91.3167 51.8761 91.3663 51.6919 91.4146 51.4671C91.4704 51.2167 91.5371 50.9777 91.6148 50.7501C91.6928 50.5249 91.789 50.3228 91.9034 50.1437C92.0206 49.9669 92.1618 49.8224 92.3271 49.7104C92.4926 49.6008 92.6907 49.5352 92.9214 49.5136C93.1448 49.4927 93.3519 49.5228 93.5427 49.604C93.736 49.6849 93.9059 49.8076 94.0525 49.9721C94.2016 50.1365 94.323 50.3355 94.4167 50.5694C94.5107 50.8057 94.5712 51.0687 94.5983 51.3583C94.6353 51.7534 94.5964 52.1049 94.4817 52.4128C94.3669 52.7207 94.1932 52.9672 93.9604 53.1524C93.7279 53.3401 93.4522 53.4488 93.1331 53.4787L93.0303 52.3816C93.1874 52.3669 93.3218 52.3209 93.4334 52.2436C93.5477 52.1685 93.633 52.0615 93.6893 51.9225C93.7458 51.786 93.7648 51.6183 93.7461 51.4195C93.7282 51.2281 93.6838 51.0713 93.613 50.9492C93.5446 50.8269 93.4583 50.7384 93.3541 50.6838C93.2524 50.6289 93.1415 50.6071 93.0212 50.6184C92.9304 50.6269 92.8502 50.6567 92.7807 50.7078C92.7115 50.7613 92.6492 50.8364 92.5939 50.9332C92.5386 51.03 92.4889 51.1473 92.4449 51.2852C92.4008 51.423 92.36 51.5815 92.3223 51.7609C92.2613 52.0612 92.1859 52.327 92.0961 52.5582C92.0066 52.7919 91.9001 52.9901 91.7767 53.1527C91.6533 53.3152 91.508 53.4427 91.3409 53.5351C91.1738 53.6276 90.9797 53.6841 90.7588 53.7048C90.5257 53.7266 90.3128 53.7008 90.1202 53.6272C89.9276 53.5536 89.7595 53.4369 89.6158 53.2771C89.4721 53.1172 89.3559 52.9213 89.2673 52.6895C89.1788 52.4576 89.1207 52.1944 89.0931 51.8999C89.0683 51.6348 89.0782 51.3702 89.1228 51.1061C89.1698 50.8417 89.2546 50.5973 89.3772 50.3729C89.5 50.1509 89.666 49.967 89.8752 49.8212C90.0843 49.6753 90.3399 49.5882 90.6418 49.56L90.7455 50.6681C90.5787 50.6837 90.4399 50.7227 90.3294 50.7851C90.2189 50.8474 90.1324 50.9286 90.07 51.0285C90.0077 51.1309 89.9668 51.2486 89.9471 51.3817C89.9276 51.5172 89.9252 51.6635 89.9399 51.8206C89.9578 52.012 89.9995 52.1666 90.065 52.2842C90.1307 52.4044 90.2142 52.4894 90.3154 52.5393C90.4169 52.5917 90.5278 52.6123 90.648 52.601Z" fill="white"/>
  <path d="M94.5506 58.5414L89.1837 58.1152L89.2712 57.0131L94.6381 57.4393L94.5506 58.5414Z" fill="white"/>
  <path d="M93.3922 65.0757L88.1783 63.734L88.4538 62.6633L93.6677 64.005L93.3922 65.0757ZM92.9793 66.68L92.1378 66.4635L93.2326 62.2092L94.0741 62.4258L92.9793 66.68Z" fill="white"/>
  <path d="M87.2813 73.3009L87.0536 73.1859C86.6883 73.0014 86.3855 72.7863 86.145 72.5406C85.9046 72.2949 85.7276 72.0302 85.6141 71.7464C85.5028 71.4637 85.4565 71.1698 85.4754 70.8645C85.4932 70.5614 85.5787 70.258 85.7321 69.9543C85.8843 69.6529 86.0777 69.4039 86.3122 69.2075C86.5456 69.0133 86.8096 68.876 87.1043 68.7956C87.4012 68.7164 87.7204 68.6995 88.062 68.7449C88.4024 68.7926 88.7553 68.9087 89.1206 69.0931L89.3483 69.2081C89.7158 69.3937 90.0186 69.6088 90.2569 69.8534C90.4973 70.0991 90.6743 70.3639 90.7878 70.6476C90.9002 70.9336 90.9475 71.2282 90.9298 71.5313C90.9109 71.8366 90.8254 72.1399 90.6731 72.4414C90.5198 72.7451 90.3264 72.994 90.093 73.1882C89.8585 73.3846 89.5934 73.5213 89.2976 73.5984C89.0007 73.6777 88.6821 73.6935 88.3416 73.6458C88.0022 73.6015 87.6488 73.4865 87.2813 73.3009ZM87.5587 72.1858L87.793 72.3042C88.0483 72.4331 88.2844 72.5233 88.5013 72.5749C88.7183 72.6265 88.9156 72.6405 89.0932 72.617C89.2708 72.5934 89.4254 72.5334 89.5569 72.4369C89.6907 72.3415 89.7998 72.2102 89.8843 72.043C89.9687 71.8758 90.0096 71.71 90.007 71.5457C90.0054 71.3848 89.9614 71.2259 89.875 71.069C89.7874 70.9143 89.6585 70.7649 89.4881 70.6209C89.3178 70.4769 89.1051 70.3405 88.8498 70.2116L88.6155 70.0932C88.3624 69.9654 88.1263 69.8752 87.9071 69.8225C87.6902 69.7709 87.4918 69.7563 87.312 69.7788C87.1344 69.8023 86.9787 69.8618 86.845 69.9571C86.7112 70.0525 86.6021 70.1838 86.5176 70.351C86.4332 70.5183 86.3923 70.684 86.3949 70.8483C86.3975 71.0126 86.4427 71.1721 86.5302 71.3267C86.62 71.4826 86.75 71.6325 86.9203 71.7765C87.0928 71.9216 87.3056 72.058 87.5587 72.1858Z" fill="white"/>
  <path d="M87.3049 77.9272L86.037 79.4841C85.777 79.8033 85.5059 80.0387 85.2235 80.1902C84.9396 80.3437 84.6534 80.4063 84.3649 80.378C84.0764 80.3496 83.7954 80.2242 83.5221 80.0016C83.2985 79.8195 83.1375 79.6248 83.0392 79.4176C82.9413 79.2138 82.8948 78.9996 82.8998 78.7748C82.9052 78.5534 82.9511 78.3253 83.0375 78.0905L83.1159 77.7013L84.218 76.348L84.8936 76.8887L84.074 77.8951C83.9511 78.0461 83.8759 78.1931 83.8484 78.336C83.821 78.479 83.8349 78.6143 83.89 78.7418C83.9435 78.8712 84.0334 78.9873 84.1595 79.0901C84.2933 79.199 84.4292 79.2684 84.5671 79.2981C84.7051 79.3277 84.8411 79.313 84.9752 79.2537C85.1094 79.1944 85.2387 79.0883 85.3632 78.9354L85.9306 78.2387L82.4298 75.3877L83.1303 74.5275L87.3049 77.9272ZM81.2296 76.8614L83.8656 77.4249L83.1312 78.3385L80.5202 77.8145L80.4801 77.7818L81.2296 76.8614Z" fill="white"/>
  <path d="M81.29 84.4017L78.8748 83.1939L79.5387 85.8114L78.5968 86.5696L77.8296 82.7917L76.6007 81.265L77.4764 80.5602L78.7052 82.0868L82.2348 83.6412L81.29 84.4017Z" fill="white"/>
  <path d="M67.8179 87.7507L67.8179 87.7507C67.6859 88.0361 67.679 88.3297 67.7967 88.623C67.9143 88.9159 68.1215 89.1216 68.413 89.2329C68.7045 89.3502 69.0172 89.3371 69.3428 89.2064C69.6686 89.0755 69.9049 88.8681 70.0379 88.581C70.1718 88.2988 70.1793 88.0067 70.0616 87.7136C69.9438 87.4204 69.7359 87.2131 69.4431 87.0982L69.4431 87.0982L69.4419 87.0978C69.1486 86.9862 68.8355 87.0017 68.5101 87.1324C68.1847 87.263 67.949 87.4678 67.8179 87.7507Z" fill="white" stroke="black" stroke-width="0.248319"/>
  <path d="M57.9519 90.1348L56.8504 90.2296C56.8414 89.8667 56.9133 89.5376 57.066 89.2424C57.2163 88.9474 57.4418 88.7078 57.7427 88.5235C58.0411 88.3395 58.4101 88.2285 58.8497 88.1907C59.1935 88.1611 59.5069 88.1935 59.7896 88.2879C60.0726 88.3848 60.3207 88.5367 60.534 88.7435C60.7448 88.9505 60.9142 89.2081 61.0421 89.5162C61.1701 89.8244 61.251 90.1749 61.2848 90.5679L61.3169 90.94C61.3507 91.333 61.3296 91.6923 61.2538 92.018C61.1756 92.3464 61.0492 92.6307 60.8744 92.8709C60.6971 93.1113 60.4774 93.3034 60.2151 93.4472C59.9529 93.591 59.6535 93.6774 59.317 93.7063C58.87 93.7448 58.4861 93.6962 58.1651 93.5605C57.8417 93.4251 57.583 93.2222 57.389 92.9519C57.1926 92.6818 57.0615 92.3665 56.9958 92.0059L58.101 91.9108C58.1319 92.1259 58.1907 92.3052 58.2772 92.4486C58.364 92.5946 58.4856 92.6991 58.642 92.7624C58.7961 92.8283 58.996 92.8507 59.2416 92.8295C59.4258 92.8137 59.5837 92.7655 59.7153 92.6848C59.8469 92.6042 59.9534 92.4899 60.0346 92.3419C60.1159 92.1939 60.1707 92.011 60.199 91.7933C60.225 91.5783 60.2257 91.3283 60.2012 91.0434L60.1686 90.664C60.1447 90.3865 60.1028 90.1439 60.0428 89.9363C59.9831 89.7311 59.904 89.5597 59.8056 89.4222C59.7049 89.2874 59.5826 89.1891 59.4388 89.1272C59.2926 89.068 59.1213 89.0469 58.9249 89.0638C58.694 89.0837 58.5068 89.1369 58.3633 89.2235C58.2199 89.3101 58.1151 89.4292 58.0489 89.5809C57.9804 89.7327 57.948 89.9174 57.9519 90.1348Z" fill="white"/>
  <path d="M50.2401 88.8062L50.3416 87.9469L53.1875 88.2831L53.086 89.1424L50.2401 88.8062ZM52.196 93.5872L52.8276 88.2406L53.9292 88.3707L53.2976 93.7173L52.196 93.5872ZM50.3381 91.1597L50.437 90.3225L52.912 90.6149L52.8131 91.4521L50.3381 91.1597ZM49.7136 93.2939L49.8156 92.431L52.6578 92.7668L52.5558 93.6297L49.7136 93.2939Z" fill="white"/>
  <path d="M45.7469 92.4376L43.8417 91.804C43.451 91.6741 43.1348 91.504 42.893 91.2937C42.6488 91.0826 42.4889 90.8372 42.4131 90.5574C42.3372 90.2776 42.355 89.9704 42.4662 89.6359C42.5572 89.3622 42.6822 89.1427 42.8411 88.9773C42.9969 88.8135 43.1808 88.6941 43.3927 88.6191C43.6016 88.5457 43.8312 88.5078 44.0814 88.5052L44.4731 88.4407L46.1292 88.9914L45.8632 89.8148L44.6316 89.4052C44.4468 89.3438 44.2827 89.3256 44.1393 89.3506C43.9959 89.3757 43.8743 89.4365 43.7746 89.5333C43.6725 89.6292 43.5958 89.7544 43.5445 89.9088C43.49 90.0725 43.4734 90.2242 43.4945 90.3637C43.5157 90.5032 43.5777 90.6252 43.6807 90.7295C43.7837 90.8339 43.9287 90.9172 44.1159 90.9795L44.9685 91.263L46.3932 86.9788L47.4458 87.3289L45.7469 92.4376ZM44.5897 86.3791L44.9973 89.0436L43.8827 88.6808L43.4471 86.0537L43.4634 86.0045L44.5897 86.3791Z" fill="white"/>
  <path d="M36.1223 88.2647L38.8471 83.6214L39.8007 84.1809L37.0759 88.8243L36.1223 88.2647ZM34.6936 87.4263L35.1334 86.6769L38.922 88.9001L38.4823 89.6496L34.6936 87.4263Z" fill="white"/>
  <path d="M30.6917 84.332L34.1736 80.2257L35.0169 80.9407L31.535 85.047L30.6917 84.332Z" fill="white"/>
  <path d="M26.9401 80.6079L31.0328 77.1101L31.7535 77.9533L27.6608 81.4512L26.9401 80.6079ZM27.2951 77.4833L27.9528 76.9212L29.5432 78.782L28.8855 79.3442L27.2951 77.4833ZM25.3785 78.7809L26.0391 78.2163L27.7977 80.2739L27.1371 80.8384L25.3785 78.7809Z" fill="white"/>
  <path d="M22.7644 74.8612L27.3629 72.0614L27.9379 73.0057L23.3394 75.8055L22.7644 74.8612Z" fill="white"/>
  <path d="M22.9616 66.908L22.5574 65.8789C22.9028 65.7671 23.2388 65.7424 23.5652 65.8048C23.8908 65.865 24.1847 66.0131 24.4469 66.2491C24.7082 66.4828 24.9195 66.805 25.0808 67.2157C25.207 67.537 25.265 67.8465 25.2549 68.1445C25.2425 68.4433 25.1675 68.7244 25.0299 68.9877C24.8914 69.2486 24.6927 69.4843 24.4336 69.6946C24.1746 69.905 23.8615 70.0822 23.4944 70.2264L23.1468 70.363C22.7797 70.5072 22.4292 70.5892 22.0954 70.6091C21.7583 70.6276 21.4498 70.5872 21.1698 70.488C20.8889 70.3864 20.6423 70.2304 20.4298 70.0199C20.2173 69.8093 20.0494 69.5469 19.9259 69.2326C19.7619 68.815 19.6992 68.433 19.738 68.0868C19.7759 67.7382 19.8968 67.4324 20.1008 67.1696C20.3039 66.9044 20.5689 66.6891 20.8958 66.5236L21.3014 67.5561C21.104 67.6469 20.9488 67.7542 20.8359 67.878C20.7207 68.0027 20.655 68.149 20.6388 68.3169C20.6195 68.4834 20.6549 68.6814 20.745 68.9108C20.8126 69.0829 20.9038 69.2206 21.0185 69.3238C21.1332 69.4271 21.2731 69.4966 21.4381 69.5325C21.6031 69.5683 21.794 69.5688 22.0107 69.534C22.2243 69.4978 22.4641 69.4274 22.7303 69.3228L23.0848 69.1836C23.3441 69.0818 23.5647 68.9726 23.7467 68.8561C23.9264 68.7405 24.0682 68.6159 24.172 68.4824C24.2726 68.3476 24.3321 68.2024 24.3505 68.0468C24.3657 67.8899 24.3372 67.7197 24.2651 67.5361C24.1804 67.3204 24.0761 67.1561 23.9523 67.0432C23.8285 66.9303 23.6845 66.8637 23.5203 66.8435C23.3552 66.8209 23.169 66.8424 22.9616 66.908Z" fill="white"/>
  <path d="M18.7328 61.1065L23.371 61.8481L23.5572 63.0129L17.9251 61.8872L17.8067 61.146L18.7328 61.1065ZM22.9479 59.2009L18.7725 61.3548L17.882 61.617L17.7623 60.8685L22.7612 58.0325L22.9479 59.2009ZM20.9794 59.5829L21.8375 59.4458L22.2862 62.2536L21.4282 62.3908L20.9794 59.5829Z" fill="white"/>
  <path d="M17.4129 52.5035L22.7878 52.8118L22.7245 53.9156L17.3495 53.6073L17.4129 52.5035ZM17.5077 50.8497L18.3752 50.8994L18.1237 55.285L17.2562 55.2353L17.5077 50.8497Z" fill="white"/>
  <path d="M18.4374 45.8772L23.6795 47.1042L23.4275 48.1807L18.1854 46.9537L18.4374 45.8772Z" fill="white"/>
  <path d="M23.7319 38.7361L23.966 38.8375C24.3415 39.0002 24.6565 39.197 24.911 39.4281C25.1655 39.6593 25.3578 39.9131 25.4878 40.1897C25.6156 40.4654 25.679 40.7561 25.6782 41.062C25.6783 41.3656 25.6108 41.6735 25.4756 41.9857C25.3414 42.2956 25.163 42.5554 24.9405 42.7653C24.7189 42.9729 24.4634 43.1255 24.174 43.2231C23.8823 43.3198 23.5646 43.3555 23.221 43.3302C22.8783 43.3027 22.5192 43.2076 22.1437 43.0449L21.9096 42.9435C21.5318 42.7799 21.2168 42.5831 20.9646 42.3529C20.7101 42.1218 20.5178 41.8679 20.3878 41.5913C20.2587 41.3125 20.1941 41.0212 20.194 40.7176C20.1948 40.4117 20.2624 40.1038 20.3966 39.7939C20.5318 39.4818 20.7102 39.2219 20.9317 39.0143C21.1543 38.8044 21.4109 38.6523 21.7016 38.5579C21.9933 38.4613 22.3104 38.4267 22.6531 38.4543C22.9945 38.4786 23.3541 38.5725 23.7319 38.7361ZM23.5207 39.8656L23.2798 39.7613C23.0174 39.6476 22.7764 39.5715 22.5567 39.5327C22.3371 39.494 22.1393 39.4917 21.9635 39.5256C21.7876 39.5596 21.6368 39.6286 21.5111 39.7327C21.3832 39.8358 21.282 39.9733 21.2075 40.1452C21.1331 40.3171 21.102 40.485 21.1143 40.6488C21.1254 40.8094 21.1787 40.9654 21.2742 41.117C21.3708 41.2662 21.5083 41.4077 21.6868 41.5415C21.8652 41.6752 22.0857 41.7989 22.3481 41.9125L22.589 42.0168C22.8491 42.1295 23.0901 42.2057 23.312 42.2454C23.5317 42.2841 23.7306 42.287 23.9087 42.254C24.0846 42.22 24.2365 42.1515 24.3645 42.0484C24.4924 41.9453 24.5936 41.8078 24.668 41.6359C24.7425 41.464 24.7736 41.2961 24.7612 41.1323C24.7489 40.9684 24.6945 40.8119 24.598 40.6626C24.4992 40.5124 24.3605 40.3704 24.182 40.2367C24.0013 40.102 23.7808 39.9783 23.5207 39.8656Z" fill="white"/>
  <path d="M26.0255 30.5499L30.3736 33.7247L29.7195 34.6206L25.5292 34.2395L28.4439 36.3676L27.7898 37.2635L23.4416 34.0888L24.0958 33.1929L28.2912 33.5732L25.3735 31.4429L26.0255 30.5499Z" fill="white"/>
  <path d="M34.5974 27.8612L34.5974 27.8612C34.6528 27.5516 34.5851 27.2659 34.3968 27.0121C34.2088 26.7585 33.9563 26.612 33.6461 26.5782C33.3344 26.5386 33.0353 26.6305 32.7534 26.8395C32.4714 27.0487 32.2954 27.3092 32.2394 27.6207C32.1814 27.9276 32.2483 28.212 32.4364 28.4657C32.6246 28.7195 32.8783 28.8674 33.1906 28.9043L33.1906 28.9043L33.1919 28.9044C33.5039 28.9381 33.8028 28.8436 34.0845 28.6347C34.3662 28.4259 34.5423 28.1681 34.5974 27.8612Z" fill="white" stroke="black" stroke-width="0.248319"/>
  <path d="M55.7882 70.9038C55.444 70.9038 55.1062 70.8587 54.7813 70.7718C54.2762 70.6366 53.7873 70.4113 53.25 70.0636C53.1696 70.0121 52.6581 69.5743 52.3718 69.3297L52.3654 69.3232C52.3107 69.2782 52.2656 69.2395 52.2335 69.2106C51.9214 69.3618 51.6255 69.5646 51.3359 69.7642C50.7537 70.1666 50.1489 70.5786 49.3736 70.6076C48.7077 70.6334 48.0032 70.5271 47.1957 70.2857C47.1249 70.2664 46.9673 70.1988 46.7099 70.0958C46.4236 69.9767 45.9926 69.8286 45.851 69.7707C45.8381 69.7642 45.7835 69.732 45.7642 69.6741C45.7449 69.6194 45.7449 69.5325 45.7545 69.5131C46.2885 69.1043 46.8032 68.615 47.3019 68.1386C47.63 67.8264 47.971 67.5012 48.312 67.2051C48.431 67.1021 48.5404 66.9894 48.6466 66.8671L48.8203 66.645C49.7403 65.3895 50.1264 63.3551 50.3419 61.8422C50.5446 60.4322 50.4352 58.9675 50.3162 57.7057C50.0974 55.3751 49.3543 53.6851 48.0386 52.5327C47.4273 51.9983 46.7421 51.5637 46.0923 51.1678L45.8092 50.9972C45.1465 50.5948 44.4645 50.1795 43.8436 49.687C43.7729 49.6323 43.7439 49.5454 43.7664 49.4617C43.8694 49.0625 45.6065 48.5024 45.6226 48.4992C45.9347 48.4509 46.2724 48.4252 46.652 48.4252C47.0831 48.4252 47.5142 48.4574 47.9195 48.4863C48.9071 48.5636 49.5441 49.011 50.2229 49.4875C50.4609 49.6548 50.7054 49.8255 50.9724 49.9864L50.9982 49.9574C51.0786 49.8544 51.1365 49.7289 51.2008 49.5969C51.2877 49.4134 51.3778 49.2235 51.5354 49.069C51.9086 48.7052 52.3654 48.6054 52.7257 48.5604C52.8576 48.5443 52.9766 48.5346 53.0956 48.5346C53.7583 48.5346 54.1701 48.805 54.688 49.1527C54.7684 49.2042 54.8489 49.2589 54.9357 49.3168C55.1513 49.4553 55.3346 49.5261 55.4826 49.5261C55.7303 49.5261 55.8783 49.3394 56.1067 49.0336C56.348 48.7084 56.6182 48.3415 57.1361 48.2803C57.6701 48.2192 58.0916 48.4896 58.4583 48.7278C58.7382 48.908 59.0052 49.0819 59.2754 49.0819C59.491 49.0819 59.7129 48.9724 59.951 48.7439C60.2437 48.4638 60.4882 48.2513 60.7842 48.2513C60.9933 48.2513 61.2024 48.3576 61.4404 48.5861L61.4951 48.6376C62.0098 49.1301 62.1514 49.2686 62.798 48.9241C63.2902 48.6634 63.9175 48.4992 64.4386 48.4992C65.3265 48.4992 65.8766 48.9595 65.9088 49.7546L65.8284 49.7772L65.6868 49.8222C65.6225 49.848 65.5871 49.8544 65.5292 49.8802C64.8408 50.0894 62.7594 51.2515 62.5503 51.4124C61.8522 51.9436 61.1959 52.626 60.7038 53.3342C58.7961 56.0704 58.8315 59.9687 59.4427 62.4763C59.7644 63.7961 60.1955 65.3348 60.9708 66.7673C61.315 67.4047 61.7171 67.997 62.161 68.5281L62.2061 68.5828C63.2709 69.8608 63.5057 69.9123 63.5733 69.9799C63.6151 70.0218 63.6441 70.0507 63.6505 70.0894C63.6601 70.173 63.5669 70.2374 63.4961 70.2761C63.4028 70.3243 63.3031 70.3565 63.2001 70.3791C63.1004 70.4016 63.0361 70.4113 62.9042 70.4338C62.7948 70.4531 62.6822 70.4628 62.5696 70.4724C62.087 70.5078 61.6109 70.5271 61.1284 70.4789C60.8292 70.4467 60.53 70.4113 60.2341 70.3565C59.877 70.2921 59.121 70.1344 58.6996 69.8833L58.4229 70.0378C57.9886 70.334 57.1908 70.6623 57.0879 70.6978C56.6697 70.8297 56.2289 70.9038 55.7882 70.9038ZM52.4715 69.0303C52.7418 69.2653 53.3369 69.7707 53.4045 69.8157C53.9159 70.1473 54.376 70.363 54.8521 70.4885C55.5373 70.672 56.2933 70.6462 57.0075 70.4113C57.1007 70.3823 57.9243 70.0378 58.3007 69.7642L58.217 69.5968C57.905 68.9691 57.4739 68.1096 57.2552 67.4755C57.2069 67.3403 57.1619 67.2115 57.1168 67.0924C56.8723 66.4196 56.6825 65.8853 56.6825 64.9453V64.1438L58.5806 69.2073C58.6256 69.2975 58.6674 69.4005 58.7028 69.5035H58.706C58.8572 69.7192 59.6325 69.9445 60.2888 70.0636C61.3986 70.2632 62.4087 70.2664 63.2033 70.0636C62.9653 69.8737 62.5985 69.497 61.9841 68.7631L61.9391 68.7116C61.4823 68.1676 61.0705 67.5592 60.7134 66.9025C59.922 65.4443 59.4845 63.8798 59.1596 62.5439C58.5355 59.9783 58.5033 55.9835 60.4657 53.1668C60.9772 52.4329 61.656 51.7279 62.3734 51.1775C62.5535 51.039 64.9051 49.7418 65.5807 49.5872C65.4713 48.9306 64.9083 48.7857 64.4354 48.7857C63.9593 48.7857 63.3835 48.9338 62.9299 49.1752C62.1096 49.6098 61.8329 49.3619 61.2892 48.8436L61.2345 48.7921C61.0544 48.6215 60.9064 48.5378 60.7777 48.5378C60.5912 48.5378 60.3885 48.7149 60.1472 48.9499C59.8545 49.2299 59.5682 49.3684 59.2722 49.3684C58.9151 49.3684 58.5999 49.1656 58.2975 48.9692C57.9532 48.7471 57.5994 48.5153 57.1651 48.5668C56.7726 48.6119 56.5603 48.8984 56.3351 49.2042C56.1131 49.5035 55.8847 49.8158 55.4794 49.8158C55.2735 49.8158 55.0419 49.7321 54.7749 49.5615C54.688 49.5036 54.6044 49.4488 54.524 49.3973C54.006 49.0561 53.665 48.8276 53.0892 48.8276C52.9862 48.8276 52.8737 48.834 52.7578 48.8501C52.2849 48.9112 51.9793 49.04 51.7348 49.2782C51.6158 49.3973 51.5386 49.5551 51.4582 49.7224C51.4067 49.8319 51.352 49.9446 51.2813 50.0508C51.9311 51.0841 52.2946 52.3234 52.4104 53.0863C52.6099 54.4062 52.2817 55.1272 51.9697 55.8258L51.7316 56.3537L50.921 50.2922C50.6057 50.1119 50.3226 49.9124 50.0492 49.7224C49.4058 49.2718 48.7978 48.8469 47.8906 48.776C47.4884 48.7439 47.0638 48.7149 46.6456 48.7149C46.2821 48.7149 45.9604 48.7374 45.6612 48.7857C45.4843 48.8243 44.3037 49.2782 44.072 49.5003C44.664 49.9639 45.3202 50.363 45.954 50.7461L46.2371 50.9167C46.8965 51.3191 47.5946 51.7601 48.2219 52.3106C49.5956 53.5113 50.3709 55.2656 50.596 57.6735C50.7151 58.9515 50.8244 60.4387 50.6186 61.8776C50.4288 63.2135 50.1392 64.7522 49.5473 65.969L51.0271 64.6266C51.1751 64.4914 51.3745 64.3369 51.5354 64.2082L52.3332 63.5772L51.278 65.1546C51.04 65.3702 50.8598 65.5408 50.67 65.8112C50.477 66.0881 50.1617 66.3231 49.9333 66.4969C49.6889 66.6804 49.4186 66.777 49.0422 66.8188C48.8782 67.0409 48.6948 67.2405 48.4954 67.4143C48.1576 67.7073 47.8198 68.0292 47.4949 68.3382C47.0606 68.7502 46.6167 69.1751 46.1502 69.5518C46.3014 69.6065 46.5105 69.6934 46.8129 69.8157C47.0156 69.8994 47.2086 69.9799 47.2697 69.996C48.0482 70.2278 48.7205 70.3308 49.3543 70.3082C50.0492 70.2825 50.5896 69.9123 51.1654 69.5164C51.4839 69.2975 51.8121 69.0721 52.1724 68.908L53.7905 62.7628V63.883C53.7905 64.9904 53.7165 65.47 53.6103 66.0301C53.546 66.3746 53.3723 66.8156 53.2179 67.2083C53.1342 67.4175 53.057 67.6171 53.0055 67.7813C52.9123 68.0678 52.819 68.2642 52.6967 68.5152C52.6388 68.6665 52.5616 68.8275 52.4715 69.0303ZM57.1007 66.0784C57.1747 66.3874 57.2777 66.6707 57.3967 66.9991C57.4417 67.1214 57.4868 67.2502 57.535 67.3854C57.6508 67.7234 57.831 68.129 58.0208 68.5313L57.1007 66.0784ZM53.4495 65.2318L52.9509 67.1246C52.9541 67.1182 52.9541 67.1117 52.9573 67.1085C53.1053 66.7287 53.2758 66.2973 53.3337 65.9818C53.3787 65.7404 53.4205 65.5086 53.4495 65.2318ZM50.6829 65.3445L49.4862 66.4293C49.5891 66.3874 49.6792 66.3359 49.7661 66.2716C49.9784 66.1106 50.2711 65.8917 50.4384 65.6535C50.5188 65.5344 50.5993 65.4346 50.6829 65.3445ZM51.2716 50.5948L51.8893 55.2914C52.1177 54.7313 52.2785 54.1164 52.1305 53.125C52.034 52.4844 51.7574 51.4961 51.2716 50.5948ZM59.0341 67.6976C58.9151 67.4304 58.854 67.16 58.7961 66.8993L58.751 66.6997L58.6513 66.3553C58.6449 66.3263 58.6352 66.3005 58.6256 66.2716C58.5419 66.0462 58.4326 65.8499 58.3264 65.6567C58.2042 65.4346 58.0787 65.2028 57.9854 64.926C57.6315 63.8637 57.3935 62.9431 57.3935 61.9065V60.8636L58.9441 66.3327C58.9762 66.4293 59.0052 66.5323 59.0277 66.6321L59.3012 67.5946L59.0341 67.6976ZM55.563 58.1982L56.3801 56.3987C56.4606 56.0962 56.5153 55.726 56.5732 55.3687C56.6343 54.9727 56.6922 54.5993 56.7855 54.3579C57.0557 53.6561 57.6444 53.228 58.2106 52.8159C58.4969 52.6099 58.7639 52.4136 58.9955 52.185L59.7354 51.4543L56.8723 56.5146C56.7597 56.8977 56.2418 57.9181 55.9008 58.0598L55.563 58.1982ZM58.5806 52.9061C58.513 52.9544 58.4454 53.0059 58.3779 53.0542C57.8181 53.4598 57.2905 53.8428 57.0525 54.4641C56.9721 54.6733 56.9174 55.0339 56.8563 55.4137C56.8177 55.6712 56.7758 55.932 56.7244 56.1831L58.5806 52.9061ZM59.5296 52.1593L59.7387 51.4897C59.9027 50.9618 60.3917 49.7257 61.3471 49.6709L61.6881 49.6516L59.5296 52.1593ZM60.8775 50.1506C60.7038 50.2793 60.5397 50.4693 60.3917 50.7139L60.8775 50.1506Z" fill="#212121"/>
  <path d="M45.9765 70.334C47.4048 72.9382 51.4324 73.5144 54.0768 73.5788C55.0869 73.6045 56.1067 73.5402 57.1072 73.4114C57.6412 73.3406 58.1463 73.1893 58.6964 73.0348C59.6389 72.7676 60.5815 72.4747 61.4726 72.0626C62.2672 71.6924 63.3931 71.3126 63.6312 70.2986C63.2033 71.0036 59.7515 70.6012 59.2304 70.3501C58.9055 70.1924 58.9376 70.1376 58.6706 70.3952C57.8439 71.1967 56.3866 71.4542 55.3057 71.2546C54.4339 71.0937 53.2565 70.4145 52.5552 69.8705C52.2849 69.658 52.4136 69.5518 52.0372 69.7288C51.1944 70.1215 50.596 70.6495 49.6277 70.8072C48.6176 70.9714 47.6782 70.7911 46.5523 70.2921C46.2724 70.1698 46.1598 70.1537 45.8414 69.9413L45.9765 70.334Z" fill="#212121"/>
  <path d="M43.8822 49.0915C45.5776 46.7899 48.3699 45.9626 50.9982 45.2351C52.3364 44.8649 53.4495 44.6363 54.8617 44.6363C56.0938 44.6363 57.2938 44.9261 58.4937 45.1675C59.7001 45.4089 60.9354 45.5988 62.0034 46.2491C62.6918 46.6676 63.5025 46.8897 64.1909 47.3178C64.4226 47.4627 65.2365 47.6558 65.1335 48.0067C64.9855 48.5056 63.7824 48.0357 63.4028 48.2288C62.991 48.438 62.4473 48.8275 61.9777 48.6923C61.5273 48.5636 61.3986 48.0324 60.8936 47.9809C60.1215 47.9037 59.9671 48.7245 59.195 48.6666C58.6095 48.6215 57.9372 47.8908 57.3452 47.9294C56.7855 47.9648 56.1775 48.5668 55.7625 48.8726C55.0001 49.4392 54.6719 48.6505 54.0189 48.3898C53.6296 48.2352 53.4784 48.1902 53.0506 48.1902C51.9793 48.1902 51.3263 48.6666 50.7183 49.5164C50.9242 49.2267 49.5666 48.5861 49.4315 48.5475C48.8621 48.3898 48.2702 48.1515 47.6815 48.1419C46.1952 48.1161 45.1465 48.158 43.8822 49.0915Z" fill="#212121"/>
  <path d="M54.9615 36.7336C54.6687 36.3441 54.3084 36.4986 53.8484 36.5211C53.6007 37.21 53.8291 37.7959 53.9546 38.3785C54.0929 39.0223 54.2119 39.6822 54.3277 40.2874C54.4532 40.928 54.5014 41.5976 54.5368 42.3025C54.5529 42.647 54.569 43.0365 54.495 43.3648C54.4274 43.661 54.2248 43.8606 54.1701 44.1503C54.7524 44.1342 55.3797 44.147 55.9748 44.1149C55.978 43.8219 55.785 43.5322 55.7142 43.2554C55.6338 42.9367 55.6853 42.6309 55.6499 42.3025C55.592 41.7553 55.4569 41.2177 55.3958 40.6351C55.2574 39.3475 55.0419 38.0534 54.9615 36.7336Z" fill="#212121"/>
  <path d="M65.2879 39.135C63.6923 39.1608 61.9455 39.238 60.4689 40.0685C59.7773 40.4548 59.2851 40.9409 58.6385 41.4173C58.3136 41.6587 57.9822 41.8712 57.6026 42.0611C57.2198 42.251 56.7662 42.2832 56.4123 42.4957L56.5989 42.9238C57.0782 42.7886 57.1812 42.7081 57.6734 42.6792C58.1591 42.6502 58.6224 42.5697 59.1532 42.6212C59.6518 42.6695 60.2309 42.6599 60.707 42.7886C61.2635 42.9399 61.9712 42.9399 62.5406 42.985C63.6762 43.0719 65.0692 42.824 66.2048 42.5858C67.0219 42.412 68.1124 42.0611 68.7397 41.4463C69.0035 41.1855 69.1419 40.9312 69.4571 40.6383C69.7563 40.3582 70.2195 39.7981 70.4415 39.473C70.6603 39.1511 70.8597 38.9547 71.0656 38.6071C71.2458 38.3045 71.5868 37.6703 71.5932 37.2873C70.049 39.0256 67.3951 39.0996 65.2879 39.135Z" fill="#212121"/>
</svg>
