<svg width="222" height="51" viewBox="0 0 222 51" fill="none" xmlns="http://www.w3.org/2000/svg">
<g clip-path="url(#clip0_430_1947)">
<path d="M124 0.343994H0V50.344H124V0.343994Z" fill="#3F7E44"/>
<path d="M15.6513 10.7451V35.7361H11.4489V16.6066H11.4117L8.46422 19.6657H8.42578V15.2786L12.2958 10.7451H15.6513Z" fill="white"/>
<path d="M29.512 16.1652V18.3389C29.512 20.4382 28.37 21.8394 26.6377 22.3937C28.7383 22.8723 29.7377 24.3467 29.7377 26.632V30.3185C29.7377 33.7818 27.8951 36.0312 23.6555 36.0312C19.3788 36.0312 17.866 33.5983 17.866 29.8014V26.5216H21.7V30.104C21.7 31.5784 22.2146 32.5344 23.6543 32.5344C24.9426 32.5344 25.5316 31.6143 25.5316 30.2863V26.1534C25.5316 24.8253 24.9426 24.126 23.4695 24.126H21.7V20.9193H23.286C24.65 20.9193 25.5316 20.2175 25.5316 18.8919V16.2011C25.5316 14.8371 25.0542 13.953 23.7274 13.953C22.4006 13.953 21.922 14.8371 21.922 16.3846V18.9279H18.083V16.712C18.083 13.0255 19.5945 10.445 23.9444 10.445C27.8157 10.445 29.5108 12.6212 29.5108 16.1602" fill="white"/>
<path d="M39.5684 18.3984V13.3925C39.5684 11.7805 40.331 10.6 42.1624 10.6C44.0857 10.6 44.6201 11.6677 44.6201 13.1941V14.4155H43.028V13.0515C43.028 12.4104 42.8147 12.0446 42.1885 12.0446C41.5623 12.0446 41.3081 12.496 41.3081 13.116V18.6712C41.3081 19.2912 41.5672 19.7388 42.1934 19.7388C42.8196 19.7388 43.0329 19.342 43.0329 18.732V16.8261H44.6201V18.6117C44.6201 20.0922 44.01 21.1909 42.1624 21.1909C40.3148 21.1909 39.5684 20.0005 39.5684 18.3984Z" fill="white"/>
<path d="M45.7175 10.7215H47.4535V19.6496H49.5293V21.0694H45.7175V10.7215Z" fill="white"/>
<path d="M50.4766 10.7215H52.2126V21.0694H50.4766V10.7215Z" fill="white"/>
<path d="M58.306 14.356H58.2601L57.0858 21.0706H56.2761L54.9791 14.356H54.9481V21.0706H53.5146V10.7215H55.5433L56.6729 16.5495H56.689L57.6959 10.7215H59.892V21.0693H58.306V14.356Z" fill="white"/>
<path d="M60.76 21.0694L62.7143 10.7215H64.6983L66.6674 21.0694H64.8818L64.5606 19.1759H62.7155L62.4092 21.0694H60.76ZM62.9424 17.7883H64.3324L63.6455 13.6368H63.6294L62.9424 17.7883Z" fill="white"/>
<path d="M66.4355 10.7215H71.0607V12.1413H69.6261V21.0694H67.8702V12.1413H66.4355V10.7215Z" fill="white"/>
<path d="M72.0205 10.7215H76.172V12.1413H73.7602V15.1H75.4851V16.5037H73.7602V19.6471H76.172V21.0669H72.0205V10.7215Z" fill="white"/>
<path d="M39.2646 35.7361L41.2189 25.392H43.2029L45.172 35.7386H43.3864L43.0652 33.8463H41.2189L40.9126 35.7386L39.2646 35.7361ZM41.447 32.46H42.8371L42.1501 28.3097H42.134L41.447 32.46Z" fill="white"/>
<path d="M45.6716 33.0664V28.0605C45.6716 26.4423 46.4355 25.268 48.2669 25.268C50.1889 25.268 50.7234 26.3356 50.7234 27.8621V29.0822H49.1362V27.7244C49.1362 27.0834 48.9229 26.7176 48.2967 26.7176C47.6705 26.7176 47.4114 27.1602 47.4114 27.7852V33.3404C47.4114 33.9604 47.6717 34.4093 48.2967 34.4093C48.9217 34.4093 49.1362 34.0125 49.1362 33.4012V31.494H50.7234V33.2796C50.7234 34.7602 50.1133 35.8588 48.2669 35.8588C46.4206 35.8588 45.6716 34.6684 45.6716 33.0664Z" fill="white"/>
<path d="M51.3359 25.392H55.9611V26.8118H54.5215V35.7398H52.7657V26.8118H51.3359V25.392Z" fill="white"/>
<path d="M56.916 25.392H58.652V35.7386H56.916V25.392Z" fill="white"/>
<path d="M59.814 33.0664V28.0605C59.814 26.4423 60.6088 25.268 62.439 25.268C64.2693 25.268 65.0802 26.4423 65.0802 28.0605V33.0664C65.0802 34.6684 64.2854 35.8588 62.439 35.8588C60.5927 35.8588 59.814 34.6684 59.814 33.0664ZM63.3405 33.3404V27.7852C63.3405 27.1652 63.0652 26.7176 62.439 26.7176C61.8128 26.7176 61.5537 27.1602 61.5537 27.7852V33.3404C61.5537 33.9604 61.829 34.4093 62.439 34.4093C63.0491 34.4093 63.3405 33.9666 63.3405 33.3404Z" fill="white"/>
<path d="M67.6866 29.236V35.7373H66.2222V25.392H67.9321L69.812 31.3254V25.392H71.2628V35.7386H69.7326L67.6866 29.236Z" fill="white"/>
</g>
<rect width="98" height="50" transform="translate(124 0.343994)" fill="#3F7E44"/>
<path d="M200.784 24.7222C198.785 21.9222 189.744 10.7298 172.936 10.7298C156.129 10.7298 147.092 21.9222 145.09 24.7222C145.005 24.842 144.932 24.9497 144.873 25.0339C144.932 25.1242 145.005 25.2274 145.09 25.3488C147.092 28.1533 156.13 39.3465 172.936 39.3465C189.742 39.3465 198.785 28.1533 200.784 25.3518C200.871 25.2304 200.943 25.1242 201 25.037C200.943 24.949 200.871 24.8451 200.784 24.7252M163.564 17.8068C163.715 17.5845 164.218 16.9503 164.279 16.8699C164.409 16.703 164.666 16.6688 164.846 16.637C165.026 16.6051 165.262 16.703 165.291 16.8373C165.32 16.9715 165.222 17.4919 165.134 17.5814C164.888 17.8371 164.246 18.1982 163.892 18.1413C163.618 18.0996 163.513 17.8879 163.564 17.8068ZM162.963 19.0008C162.989 18.9689 163.014 18.9431 163.024 18.9302C163.235 18.689 163.656 18.6374 163.947 18.5919C164.237 18.5464 164.63 18.689 164.674 18.8824C164.718 19.0759 163.943 19.4286 163.8 19.5652C163.396 19.9377 162.763 20.6963 162.393 20.779C162.292 20.8047 162.184 20.7937 162.09 20.7478C162.331 20.1428 162.623 19.5591 162.962 19.0031M169.252 31.9054C169.024 32.8005 168.759 33.1229 168.533 33.4051C168.307 33.6873 167.471 34.0552 166.94 34.0158C166.409 33.9764 166.333 32.5555 166.333 31.8242C166.333 31.5723 165.975 32.3203 165.789 30.7993C165.67 29.826 165.045 30.901 165.001 30.2516C164.957 29.6023 164.644 29.7327 164.318 29.3276C163.992 28.9225 163.583 29.3671 163.127 29.5719C162.67 29.7767 162.86 29.8799 162.216 29.6766C162.2 29.6713 162.191 29.6667 162.176 29.6607C161.564 28.2186 161.248 26.668 161.248 25.1015C161.248 24.7062 161.27 24.3171 161.307 23.9332C161.327 23.8946 161.352 23.8581 161.379 23.824C161.998 23.0912 161.986 22.9197 161.986 22.9197L162.669 22.683C162.669 22.683 163.763 22.8515 164.586 23.1617C165.265 23.4159 166.331 23.9916 166.955 23.7383C167.405 23.5532 167.757 23.3074 167.714 22.9334C167.664 22.4638 167.294 22.3523 166.846 22.6686C166.682 22.7855 166.33 21.9609 166.053 22.0033C165.777 22.0458 166.395 22.9713 166.161 23.0108C165.928 23.0502 165.455 22.0443 165.375 21.8812C165.294 21.7181 164.931 21.3153 164.604 21.6233C163.913 22.2795 162.792 22.2393 162.567 22.4084C161.884 22.9212 161.701 22.2393 161.716 21.8243C161.743 21.7295 161.771 21.6339 161.802 21.5398C162.025 21.2933 162.829 21.2114 163.105 21.3949C163.408 21.5975 163.625 21.3434 163.744 21.2205C163.862 21.0976 163.819 20.9056 163.744 20.7448C163.668 20.584 163.895 20.4626 164.052 20.4209C164.208 20.3792 164.73 20.0135 164.939 19.8899C165.148 19.7662 166.229 19.6373 166.717 19.88C166.909 19.9816 167.13 20.0135 167.343 19.9705C167.556 19.9275 167.748 19.8122 167.886 19.6441C168.124 19.3597 168.412 19.12 168.734 18.9363C168.904 18.8604 168.316 18.3089 167.834 18.9067C167.351 19.5045 167.103 19.5561 166.876 19.5561C166.648 19.5561 165.296 19.2193 165.131 18.7922C164.966 18.3651 165.554 18.0457 166.053 17.806C166.551 17.5663 167.917 17.5716 168.266 17.4927C168.975 17.3372 169.882 16.9806 170.339 17.2917C170.796 17.6027 168.431 18.1352 169.208 18.5547C169.484 18.7065 170.733 17.8363 171.161 17.6133C172.168 17.0944 170.185 16.923 170.442 15.8685C170.733 14.676 168.009 15.1372 166.649 15.2389C168.221 14.2332 170.011 13.618 171.869 13.4446C173.727 13.2711 175.599 13.5444 177.33 14.2417C179.061 14.939 180.601 16.04 181.82 17.453C183.039 18.866 183.902 20.5499 184.338 22.3644C184.345 22.547 184.326 22.7297 184.281 22.9068C184.175 23.3286 183.371 23.6912 182.91 23.0123C182.792 22.8408 182.29 22.3667 182.303 23.1777C182.317 23.9886 183.092 24.072 182.344 24.5591C181.595 25.0461 181.459 24.9285 181.113 25.0514C180.767 25.1743 180.431 26.0095 180.516 26.4563C180.602 26.9031 181.667 28.1253 180.875 28.0737C180.689 28.0593 179.29 27.1042 179.06 26.4897C178.815 25.8426 178.55 25.2099 178.361 24.7222C178.172 24.2344 177.678 24.1153 177.258 24.3982C176.838 24.6812 177.374 24.968 177.074 25.5779C176.775 26.1878 176.562 26.7302 176.122 26.2272C174.979 24.9179 173.316 25.5635 173.058 24.1031C172.918 23.3134 172.238 23.3893 171.669 22.9417C171.1 22.4942 170.779 22.259 170.682 22.5768C170.598 22.8598 172.472 24.3459 172.606 24.726C172.805 25.2919 172.045 25.788 171.488 25.9245C170.931 26.0611 170.69 25.6128 170.144 25.0438C169.598 24.4749 169.36 24.0713 169.322 24.5173C169.268 25.1614 169.84 26.1104 170.396 26.4609C170.87 26.7605 171.401 26.8963 171.247 27.3833C171.093 27.8704 171.247 27.5957 170.716 28.1207C170.185 28.6457 170.083 28.8179 170.122 29.5469C170.161 30.2759 169.97 30.3199 169.856 30.9275C169.741 31.5352 169.476 31.0095 169.249 31.9008M181.812 27.2347C182.205 27.2028 182.798 27.7482 182.565 27.9576C182.332 28.167 181.745 28.0896 181.449 27.8575C181.152 27.6253 181.634 27.2506 181.812 27.2347ZM181.314 26.8751C181.188 26.828 181.076 26.7082 180.98 26.4199C180.885 26.1316 181.127 25.9648 181.36 26.0839C181.593 26.203 181.912 26.5641 181.912 26.7552C181.912 26.9464 181.439 26.9244 181.31 26.8736M176.144 26.8531C175.912 27.0594 175.321 26.9836 175.025 26.7529C174.729 26.5223 175.211 26.1461 175.387 26.1301C175.781 26.0945 176.374 26.6452 176.146 26.8531M171.367 29.1782C171.206 29.4414 170.765 31.41 170.47 31.1809C170.175 30.9518 170.59 28.8975 170.675 28.7412C171.138 27.8931 172.137 27.9348 171.367 29.1782ZM172.96 36.8082C171.846 36.8085 170.738 36.6499 169.67 36.3371C169.586 36.2709 169.527 36.1789 169.501 36.0753C169.475 35.9718 169.485 35.8627 169.528 35.7651C169.89 34.8207 170.969 34.4505 171.82 34.3685C173.717 34.1834 176.214 35.6013 176.611 35.3722C177.008 35.1431 177.812 34.1 178.989 34.144C179.793 34.1751 179.787 34.3101 180.057 34.4118C178.019 35.9694 175.525 36.8117 172.96 36.8082ZM181.217 33.4006C181.091 33.3677 180.968 33.3222 180.85 33.2648C180.211 32.9393 180.287 33.459 179.973 33.3406C179.659 33.2223 180.327 32.4948 179.384 33.1131C178.44 33.7313 178.697 33.0175 178.287 31.9752C177.878 30.9328 178.759 29.7426 179.501 29.4718C180.519 29.1038 181.15 29.0287 181.625 28.9112C183.032 28.5599 183.329 27.7255 183.584 28.233C183.633 28.3278 183.679 28.4188 183.721 28.5038C183.835 28.7447 183.896 29.0073 183.899 29.2738C183.307 30.825 182.392 32.2327 181.215 33.4036M184.422 27.4933C184.108 27.4076 182.794 25.59 183.833 24.3944C184.006 24.198 183.484 23.6192 183.626 23.6078C184.195 23.5638 184.497 23.9165 184.647 24.4248C184.658 24.6524 184.667 24.8754 184.667 25.1075C184.667 25.9103 184.585 26.711 184.422 27.4971" fill="white"/>
<defs>
<clipPath id="clip0_430_1947">
<rect width="124" height="50" fill="white" transform="translate(0 0.343994)"/>
</clipPath>
</defs>
</svg>
