<svg width="222" height="51" viewBox="0 0 222 51" fill="none" xmlns="http://www.w3.org/2000/svg">
<rect width="222" height="50" transform="translate(0 0.343994)" fill="#A21942"/>
<g clip-path="url(#clip0_430_919)">
<path d="M124 1.32242H0V50.342H124V1.32242Z" fill="#A21942"/>
<path d="M24.0933 30.0255V27.351C24.0933 25.0023 23.2464 23.3028 21.2909 22.4348C22.9488 21.6409 23.725 20.1943 23.725 18.1701V17.1563C23.725 13.3244 21.6976 11.2638 17.8251 11.2638C13.991 11.2638 11.9971 13.3305 11.9971 17.1563V18.1701C11.9971 20.159 12.7411 21.6409 14.3531 22.4348C12.3989 23.3028 11.5867 25.0023 11.5867 27.351V30.0255C11.5867 33.7479 13.3946 36.3471 17.8201 36.3471C22.2841 36.3471 24.0883 33.7431 24.0883 30.0255M15.9378 16.8961C15.9378 15.4117 16.4562 14.545 17.8201 14.545C19.2201 14.545 19.7372 15.4117 19.7372 16.8961V18.5579C19.7372 20.0399 19.2201 20.9103 17.8201 20.9103C16.4562 20.9103 15.9378 20.0399 15.9378 18.5579V16.8961ZM19.8897 30.4583C19.8897 31.9414 19.3367 32.9893 17.8251 32.9893C16.3495 32.9893 15.7965 31.9414 15.7965 30.4583V26.4818C15.7965 24.9999 16.3495 23.9507 17.8251 23.9507C19.3367 23.9507 19.8897 24.9999 19.8897 26.4818V30.4583Z" fill="white"/>
<path d="M38.4153 14.1632V18.7646C38.4153 20.2891 37.7717 21.4318 35.9489 21.4318H33.3176V11.496H35.9489C37.7717 11.496 38.4153 12.6303 38.4153 14.1632ZM35.7393 20.069C36.4424 20.069 36.7115 19.6593 36.7115 19.0576V13.8557C36.7115 13.2685 36.4424 12.8588 35.7393 12.8588H35.0214V20.069H35.7393Z" fill="white"/>
<path d="M39.4917 11.496H43.5577V12.8588H41.2017V15.7023H42.8905V17.0505H41.1955V20.069H43.5515V21.4318H39.4917V11.496Z" fill="white"/>
<path d="M44.4243 18.8679V14.0599C44.4243 12.5063 45.1683 11.3781 46.9651 11.3781C48.8486 11.3781 49.3719 12.4041 49.3719 13.8703V15.0422H47.8182V13.7377C47.8182 13.1226 47.6086 12.7652 46.9961 12.7652C46.3835 12.7652 46.1281 13.1907 46.1281 13.7912V19.1269C46.1281 19.7274 46.3823 20.1529 46.9961 20.1529C47.6099 20.1529 47.8182 19.7712 47.8182 19.1804V17.3581H49.3719V19.0734C49.3719 20.4957 48.7742 21.551 46.9651 21.551C45.1559 21.551 44.4243 20.4106 44.4243 18.8679Z" fill="white"/>
<path d="M50.4036 11.496H54.4695V12.8588H52.1135V15.7023H53.8036V17.0505H52.1073V20.069H54.4633V21.4318H50.4036V11.496Z" fill="white"/>
<path d="M56.916 15.1893V21.4318H55.4863V11.496H57.164L59.003 17.1964V11.496H60.4228V21.4318H58.9248L56.916 15.1893Z" fill="white"/>
<path d="M61.3008 11.496H65.8305V12.8588H64.4256V21.4318H62.7057V12.8588H61.3008V11.496Z" fill="white"/>
<path d="M72.0788 15.2914L71.1228 21.4318H69.5232L68.1592 11.496H69.8121L70.6045 17.7981H70.6193L71.4712 11.496H72.8613L73.8024 17.7981H73.8173L74.5948 11.496H76.0307L74.7101 21.4318H73.0981L72.0962 15.2914H72.0788Z" fill="white"/>
<path d="M76.7126 18.8679V14.0599C76.7126 12.5063 77.4901 11.3781 79.2844 11.3781C81.0787 11.3781 81.8698 12.5063 81.8698 14.0599V18.8679C81.8698 20.407 81.0923 21.5497 79.2844 21.5497C77.4765 21.5497 76.7126 20.4106 76.7126 18.8679ZM80.166 19.1317V13.7961C80.166 13.1955 79.897 12.7701 79.2844 12.7701C78.6718 12.7701 78.4164 13.1955 78.4164 13.7961V19.1317C78.4164 19.7323 78.6855 20.1578 79.2844 20.1578C79.8833 20.1578 80.166 19.7323 80.166 19.1317Z" fill="white"/>
<path d="M84.6498 16.8742V21.4318H82.946V11.496H85.426C87.1459 11.496 87.7734 12.3312 87.7734 13.7232V14.9984C87.7734 16.0682 87.3852 16.7004 86.4094 16.918L88.04 21.4318H86.2494L84.6498 16.8742ZM84.6498 12.8624V15.9552H85.2177C85.8018 15.9552 86.056 15.661 86.056 15.1334V13.6745C86.056 13.1323 85.808 12.8685 85.2177 12.8685L84.6498 12.8624Z" fill="white"/>
<path d="M90.5102 16.5958V21.4318H88.8064V11.496H90.5102V15.8628L92.3702 11.496H94.0442L92.0713 15.9661L94.0888 21.4367H92.2896L90.5102 16.5958Z" fill="white"/>
<path d="M96.4597 21.4318L98.373 11.496H100.316L102.246 21.4318H100.496L100.182 19.6156H98.373L98.0742 21.4318H96.4597ZM98.5975 18.2808H99.9615L99.2894 14.2945H99.2733L98.5975 18.2808Z" fill="white"/>
<path d="M104.248 15.1893V21.4318H102.812V11.496H104.487L106.326 17.1964V11.496H107.746V21.4318H106.251L104.248 15.1893Z" fill="white"/>
<path d="M113.965 14.1632V18.7646C113.965 20.2891 113.321 21.4318 111.497 21.4318H108.872V11.496H111.502C113.321 11.496 113.965 12.6303 113.965 14.1632ZM111.289 20.069C111.991 20.069 112.26 19.6593 112.26 19.0576V13.8557C112.26 13.2685 111.991 12.8588 111.289 12.8588H110.571V20.069H111.289Z" fill="white"/>
<path d="M33.3176 26.0891H37.3836V27.4519H35.0214V30.2954H36.7115V31.6436H35.0214V34.6634H37.3836V36.0261H33.3176V26.0891Z" fill="white"/>
<path d="M38.1313 33.461V28.6542C38.1313 27.1006 38.8753 25.9724 40.6721 25.9724C42.5557 25.9724 43.0789 26.9972 43.0789 28.4634V29.6365H41.524V28.3321C41.524 27.7157 41.3157 27.3595 40.7019 27.3595C40.0881 27.3595 39.8339 27.7838 39.8339 28.3855V33.72C39.8339 34.3205 40.0881 34.746 40.7019 34.746C41.3157 34.746 41.524 34.3655 41.524 33.7735V31.9512H43.0789V33.6616C43.0789 35.0828 42.4813 36.138 40.6721 36.138C38.8629 36.138 38.1313 34.9989 38.1313 33.461Z" fill="white"/>
<path d="M44.0051 33.461V28.6542C44.0051 27.1006 44.7826 25.9724 46.5769 25.9724C48.3712 25.9724 49.1635 27.1006 49.1635 28.6542V33.461C49.1635 35.0001 48.386 36.1428 46.5769 36.1428C44.7677 36.1428 44.0051 34.9989 44.0051 33.461ZM47.4585 33.7248V28.3904C47.4585 27.7886 47.1894 27.3644 46.5769 27.3644C45.9643 27.3644 45.7089 27.7886 45.7089 28.3904V33.7248C45.7089 34.3254 45.978 34.7509 46.5769 34.7509C47.1758 34.7509 47.4585 34.3254 47.4585 33.7248Z" fill="white"/>
<path d="M51.5692 29.7824V36.0261H50.1345V26.0891H51.8085L53.6474 31.7907V26.0891H55.0672V36.0261H53.5681L51.5692 29.7824Z" fill="white"/>
<path d="M56.0393 33.461V28.6542C56.0393 27.1006 56.8168 25.9724 58.6098 25.9724C60.4029 25.9724 61.1965 27.1006 61.1965 28.6542V33.461C61.1965 35.0001 60.419 36.1428 58.6098 36.1428C56.8007 36.1428 56.0393 34.9989 56.0393 33.461ZM59.4927 33.7248V28.3904C59.4927 27.7886 59.2236 27.3644 58.6098 27.3644C57.996 27.3644 57.7418 27.7886 57.7418 28.3904V33.7248C57.7418 34.3254 58.0109 34.7509 58.6098 34.7509C59.2087 34.7509 59.4927 34.3254 59.4927 33.7248Z" fill="white"/>
<path d="M66.8621 29.5769H66.8175L65.6655 36.0201H64.8732L63.6034 29.5769H63.5724V36.0201H62.1675V26.0891H64.1515L65.2576 31.6813H65.2724L66.2644 26.0891H68.4183V36.0261H66.8621V29.5769Z" fill="white"/>
<path d="M69.3879 26.0891H71.0917V36.0261H69.3879V26.0891Z" fill="white"/>
<path d="M72.0442 33.461V28.6542C72.0442 27.1006 72.7882 25.9724 74.5849 25.9724C76.4685 25.9724 76.9918 26.9972 76.9918 28.4634V29.6365H75.4418V28.3321C75.4418 27.7157 75.2322 27.3595 74.6197 27.3595C74.0071 27.3595 73.7517 27.7838 73.7517 28.3855V33.72C73.7517 34.3205 74.0059 34.746 74.6197 34.746C75.2335 34.746 75.4418 34.3655 75.4418 33.7735V31.9512H76.9967V33.6616C76.9967 35.0828 76.3991 36.138 74.5899 36.138C72.7808 36.138 72.0442 34.9989 72.0442 33.461Z" fill="white"/>
<path d="M82.4675 30.7209H84.8892V36.0261H83.6641V34.9417C83.4397 35.6894 82.961 36.1428 82.0347 36.1428C80.5691 36.1428 79.897 35.0001 79.897 33.461V28.6542C79.897 27.1006 80.6583 25.9724 82.4526 25.9724C84.3362 25.9724 84.8892 26.9972 84.8892 28.4634V29.3423H83.3342V28.3321C83.3342 27.7157 83.0949 27.3595 82.4824 27.3595C81.8698 27.3595 81.6007 27.7838 81.6007 28.3856V33.72C81.6007 34.3205 81.8487 34.746 82.4377 34.746C82.9908 34.746 83.2747 34.4385 83.2747 33.7929V32.0399H82.4675V30.7209Z" fill="white"/>
<path d="M87.5651 31.4734V36.031H85.8601V26.0891H88.3401C90.0588 26.0891 90.6874 26.9243 90.6874 28.3163V29.5915C90.6874 30.6613 90.2981 31.2935 89.3234 31.5123L90.954 36.0261H89.1647L87.5651 31.4734ZM87.5651 27.4616V30.5543H88.133C88.7158 30.5543 88.97 30.2614 88.97 29.7338V28.2579C88.97 27.7157 88.722 27.4519 88.133 27.4519L87.5651 27.4616Z" fill="white"/>
<path d="M91.4663 33.461V28.6542C91.4663 27.1006 92.2438 25.9724 94.0381 25.9724C95.8323 25.9724 96.6235 27.1006 96.6235 28.6542V33.461C96.6235 35.0001 95.8472 36.1428 94.0381 36.1428C92.2289 36.1428 91.4663 34.9989 91.4663 33.461ZM94.9197 33.7248V28.3904C94.9197 27.7886 94.6506 27.3644 94.0381 27.3644C93.4255 27.3644 93.1701 27.7886 93.1701 28.3904V33.7248C93.1701 34.3254 93.4391 34.7509 94.0381 34.7509C94.637 34.7509 94.9197 34.3254 94.9197 33.7248Z" fill="white"/>
<path d="M100.988 29.8845L100.032 36.0261H98.4326L97.0686 26.0891H98.7166L99.5089 32.3912H99.5238L100.376 26.0891H101.766L102.708 32.3912H102.723L103.5 26.0891H104.935L103.62 36.0261H102.008L101.006 29.8845H100.988Z" fill="white"/>
<path d="M105.458 26.0891H109.988V27.4519H108.583V36.0261H106.863V27.4519H105.458V26.0891Z" fill="white"/>
<path d="M113.859 31.6436H112.22V36.0201H110.51V26.0891H112.22V30.2954H113.864V26.0891H115.583V36.0261H113.859V31.6436Z" fill="white"/>
</g>
<rect width="98" height="50" transform="translate(124 0.343994)" fill="#A21942"/>
<path d="M200.919 12.0559C200.92 11.5202 201.078 10.9965 201.373 10.5512C201.668 10.1059 202.088 9.75886 202.579 9.55396C203.07 9.34907 203.61 9.29551 204.131 9.40006C204.652 9.5046 205.13 9.76256 205.506 10.1413C205.881 10.5201 206.137 11.0027 206.241 11.5281C206.345 12.0536 206.292 12.5982 206.089 13.0933C205.886 13.5885 205.542 14.0118 205.101 14.3098C204.659 14.6078 204.14 14.7672 203.609 14.7678C202.896 14.7678 202.212 14.4821 201.708 13.9736C201.203 13.465 200.92 12.7753 200.919 12.0559Z" fill="white"/>
<path d="M206.747 15.8128C207.637 15.8957 208.464 16.311 209.066 16.9773C209.668 17.6435 210.001 18.5126 210 19.414V26.9336C210 27.2123 209.891 27.4796 209.695 27.6767C209.5 27.8738 209.235 27.9845 208.958 27.9845C208.682 27.9845 208.417 27.8738 208.222 27.6767C208.026 27.4796 207.916 27.2123 207.916 26.9336V20.4746C207.916 20.2318 207.848 19.9046 207.409 19.9046C207.105 19.9046 207.042 20.2288 207.031 20.4355V39.782C207.031 40.1828 206.873 40.5671 206.592 40.8505C206.311 41.1339 205.93 41.2932 205.533 41.2932C205.135 41.2932 204.754 41.1339 204.473 40.8505C204.192 40.5671 204.034 40.1828 204.034 39.782V28.6338C204.034 28.5104 203.99 28.1911 203.609 28.1911C203.227 28.1911 203.181 28.5104 203.177 28.6338V39.782C203.182 39.9835 203.147 40.184 203.074 40.3716C203.001 40.5593 202.892 40.7303 202.752 40.8746C202.613 41.0189 202.446 41.1337 202.262 41.212C202.078 41.2903 201.88 41.3306 201.68 41.3306C201.48 41.3306 201.282 41.2903 201.098 41.212C200.914 41.1337 200.747 41.0189 200.608 40.8746C200.468 40.7303 200.359 40.5593 200.286 40.3716C200.213 40.184 200.178 39.9835 200.183 39.782V20.4355C200.174 20.2288 200.108 19.9046 199.807 19.9046C199.366 19.9046 199.299 20.2318 199.299 20.4746V26.9336C199.287 27.2042 199.172 27.4598 198.978 27.6472C198.784 27.8345 198.526 27.9391 198.258 27.9391C197.989 27.9391 197.731 27.8345 197.537 27.6472C197.343 27.4598 197.228 27.2042 197.217 26.9336V19.414C197.216 18.512 197.55 17.6425 198.153 16.9762C198.756 16.3099 199.584 15.8949 200.475 15.8128C200.539 15.803 200.604 15.7974 200.669 15.7962H206.539C206.607 15.7973 206.676 15.8028 206.743 15.8128" fill="white"/>
<path d="M184.933 13.4799C184.933 12.9722 184.784 12.4759 184.504 12.0538C184.224 11.6318 183.826 11.3029 183.361 11.1089C182.896 10.9148 182.384 10.8642 181.89 10.9635C181.397 11.0628 180.943 11.3076 180.588 11.6668C180.232 12.026 179.99 12.4836 179.892 12.9817C179.794 13.4797 179.845 13.9958 180.038 14.4648C180.231 14.9337 180.557 15.3344 180.976 15.6162C181.395 15.898 181.887 16.0482 182.39 16.0478C183.065 16.0473 183.712 15.7765 184.189 15.2949C184.666 14.8134 184.934 14.1605 184.933 13.4799Z" fill="white"/>
<path d="M177.26 19.2944L175.144 26.248C175.144 26.248 174.768 27.5212 175.839 27.8395C176.91 28.1578 177.228 26.9149 177.228 26.9149L178.934 21.1161C178.934 21.1161 179.031 20.6695 179.36 20.7664C179.688 20.8634 179.567 21.3394 179.567 21.3394L176.598 32.2104H179.36V39.9935C179.369 40.3419 179.513 40.6729 179.76 40.916C180.008 41.1591 180.34 41.2951 180.685 41.2951C181.031 41.2951 181.363 41.1591 181.611 40.916C181.858 40.6729 182.002 40.3419 182.011 39.9935V32.2016H182.765V39.9847C182.774 40.3333 182.918 40.6646 183.166 40.9078C183.414 41.1511 183.746 41.2873 184.092 41.2873C184.438 41.2873 184.77 41.1511 185.018 40.9078C185.265 40.6646 185.409 40.3333 185.419 39.9847V32.2016H188.179L185.212 21.3306C185.212 21.3306 185.087 20.8614 185.419 20.7635C185.751 20.6656 185.844 21.1131 185.844 21.1131L187.55 26.912C187.55 26.912 187.874 28.1548 188.939 27.8365C190.003 27.5182 189.633 26.248 189.633 26.248L187.517 19.2944C187.517 19.2944 186.762 17.2858 185.09 17.2858H179.693C178.019 17.2858 177.265 19.2944 177.265 19.2944" fill="white"/>
<path d="M169.687 13.4799C169.687 12.9722 169.537 12.476 169.257 12.0539C168.978 11.6319 168.58 11.3031 168.115 11.109C167.65 10.9149 167.138 10.8642 166.644 10.9635C166.151 11.0627 165.697 11.3073 165.341 11.6665C164.986 12.0256 164.743 12.4831 164.645 12.9811C164.547 13.479 164.598 13.9951 164.791 14.4641C164.984 14.9331 165.31 15.3338 165.729 15.6157C166.147 15.8976 166.639 16.048 167.143 16.0478C167.818 16.0473 168.465 15.7765 168.942 15.295C169.419 14.8135 169.687 14.1606 169.687 13.4799Z" fill="white"/>
<path d="M162.013 19.2944L159.898 26.248C159.898 26.248 159.519 27.5212 160.591 27.8395C161.663 28.1578 161.981 26.9149 161.981 26.9149L163.687 21.1161C163.687 21.1161 163.779 20.6695 164.112 20.7664C164.445 20.8634 164.319 21.3394 164.319 21.3394L161.351 32.2104H164.112V39.9935C164.112 40.3483 164.252 40.6886 164.501 40.9395C164.749 41.1903 165.087 41.3313 165.439 41.3313C165.79 41.3313 166.128 41.1903 166.376 40.9395C166.625 40.6886 166.765 40.3483 166.765 39.9935V32.2016H167.518V39.9847C167.528 40.3331 167.672 40.6641 167.919 40.9072C168.167 41.1503 168.499 41.2863 168.844 41.2863C169.19 41.2863 169.522 41.1503 169.77 40.9072C170.017 40.6641 170.161 40.3331 170.17 39.9847V32.2016H172.933L169.965 21.3306C169.965 21.3306 169.839 20.8536 170.17 20.7576C170.501 20.6616 170.597 21.1073 170.597 21.1073L172.302 26.9061C172.302 26.9061 172.626 28.1489 173.691 27.8306C174.756 27.5124 174.385 26.248 174.385 26.248L172.269 19.2944C172.269 19.2944 171.514 17.2858 169.841 17.2858H164.445C162.772 17.2858 162.013 19.2944 162.013 19.2944Z" fill="white"/>
<path d="M193.482 27.8492C193.901 27.8492 194.31 27.724 194.658 27.4892C195.007 27.2545 195.278 26.9209 195.439 26.5305C195.599 26.1401 195.641 25.7105 195.56 25.2961C195.478 24.8816 195.277 24.5008 194.98 24.2019C194.684 23.9029 194.307 23.6992 193.896 23.6166C193.485 23.5339 193.059 23.5759 192.672 23.7374C192.285 23.8988 191.954 24.1724 191.721 24.5236C191.488 24.8747 191.363 25.2877 191.363 25.7103C191.362 25.9912 191.417 26.2694 191.523 26.529C191.629 26.7886 191.785 27.0245 191.982 27.2232C192.179 27.4219 192.413 27.5795 192.67 27.6869C192.927 27.7943 193.203 27.8495 193.482 27.8492Z" fill="white"/>
<path d="M188.402 34.4874C188.298 34.7372 188.213 35.2709 188.71 35.4981C189.293 35.7684 189.618 35.2043 189.618 35.2043L190.77 31.4993C190.77 31.4993 190.97 31.2516 190.97 31.5082V40.2295H190.975C190.983 40.5146 191.102 40.7852 191.304 40.9838C191.507 41.1825 191.779 41.2936 192.062 41.2936C192.345 41.2936 192.616 41.1825 192.819 40.9838C193.022 40.7852 193.141 40.5146 193.149 40.2295V36.7831C193.149 36.7831 193.086 36.2934 193.475 36.2934C193.865 36.2934 193.803 36.7831 193.803 36.7831V40.2255C193.803 40.517 193.918 40.7965 194.123 41.0026C194.327 41.2086 194.604 41.3244 194.893 41.3244C195.182 41.3244 195.459 41.2086 195.663 41.0026C195.868 40.7965 195.982 40.517 195.982 40.2255V31.5042C195.982 31.2476 196.116 31.4308 196.116 31.4308L197.019 33.9674C197.019 33.9674 197.408 35.1005 197.532 35.1504C197.63 35.1914 197.734 35.2125 197.84 35.2126C197.945 35.2128 198.05 35.1919 198.147 35.1513C198.245 35.1106 198.333 35.0509 198.408 34.9757C198.482 34.9004 198.542 34.811 198.582 34.7127C198.636 34.5858 198.657 34.4469 198.642 34.3096C198.627 34.1722 198.577 34.0412 198.496 33.9292L198.504 33.9213C198.478 33.8391 197.154 30.566 196.999 30.1067C196.521 28.6993 195.651 28.7121 194.814 28.6885C193.977 28.665 193.475 28.6885 193.475 28.6885C193.475 28.6885 192.94 28.667 191.834 28.6993C190.728 28.7316 190.378 29.3056 189.163 32.466C188.989 32.9214 188.402 34.3934 188.394 34.4815L188.402 34.4874Z" fill="white"/>
<path d="M144.263 14.7678C144.795 14.7683 145.315 14.6098 145.758 14.3122C146.2 14.0145 146.545 13.5912 146.749 13.0957C146.953 12.6002 147.007 12.0549 146.903 11.5286C146.8 11.0024 146.544 10.5189 146.168 10.1393C145.792 9.75977 145.313 9.5012 144.792 9.39632C144.27 9.29144 143.729 9.34497 143.238 9.55014C142.746 9.75531 142.326 10.1029 142.03 10.5489C141.735 10.995 141.577 11.5194 141.577 12.0559C141.578 12.7744 141.861 13.4632 142.364 13.9716C142.868 14.4799 143.551 14.7662 144.263 14.7678Z" fill="white"/>
<path d="M147.424 15.799C147.353 15.7844 147.281 15.7743 147.209 15.7686H141.334C141.269 15.7739 141.204 15.7841 141.14 15.799C140.248 15.8844 139.421 16.3024 138.819 16.9711C138.217 17.6397 137.885 18.5109 137.887 19.4139V26.9335C137.886 27.1233 137.936 27.3098 138.032 27.4731C138.128 27.6363 138.266 27.7701 138.432 27.86C138.416 27.8891 138.404 27.92 138.397 27.952L136.008 40.7133C135.997 40.7645 135.997 40.8173 136.008 40.8686C136.018 40.9199 136.038 40.9686 136.067 41.0119C136.096 41.0552 136.134 41.0921 136.177 41.1205C136.221 41.149 136.269 41.1683 136.321 41.1775C136.345 41.1822 136.369 41.1845 136.393 41.1843C136.486 41.1847 136.575 41.1525 136.646 41.0933C136.717 41.034 136.765 40.9515 136.782 40.8602L139.169 28.0989C139.173 28.0492 139.168 27.999 139.154 27.9511C139.377 27.8927 139.574 27.7608 139.714 27.5764C139.854 27.392 139.928 27.1657 139.926 26.9335V20.4745C139.926 20.2316 139.989 19.9045 140.428 19.9045C140.731 19.9045 140.8 20.2287 140.8 20.4354V39.7819C140.8 40.1845 140.958 40.5706 141.241 40.8553C141.523 41.14 141.906 41.2999 142.305 41.2999C142.704 41.2999 143.087 41.14 143.369 40.8553C143.651 40.5706 143.81 40.1845 143.81 39.7819V28.6337C143.809 28.5748 143.82 28.5163 143.843 28.4621C143.866 28.4079 143.9 28.359 143.942 28.3188C143.985 28.2786 144.035 28.2478 144.091 28.2285C144.146 28.2092 144.204 28.2017 144.263 28.2067C144.644 28.2067 144.683 28.5103 144.683 28.6337V39.7819C144.683 40.1845 144.842 40.5706 145.124 40.8553C145.406 41.14 145.789 41.2999 146.188 41.2999C146.587 41.2999 146.97 41.14 147.252 40.8553C147.535 40.5706 147.693 40.1845 147.693 39.7819V20.4354C147.693 20.2287 147.765 19.9045 148.065 19.9045C148.507 19.9045 148.567 20.2316 148.567 20.4745V26.9335C148.567 27.2192 148.68 27.4932 148.88 27.6953C149.08 27.8973 149.352 28.0108 149.635 28.0108C149.918 28.0108 150.19 27.8973 150.39 27.6953C150.591 27.4932 150.703 27.2192 150.703 26.9335V19.4139C150.699 18.5083 150.361 17.6367 149.755 16.9686C149.149 16.3005 148.318 15.8836 147.424 15.799Z" fill="white"/>
<path d="M157.808 31.3808L159.774 27.7816C159.774 27.7816 160.011 27.2645 160.011 27.1411C160.009 26.973 159.952 26.8103 159.851 26.6769C159.75 26.5436 159.608 26.4466 159.448 26.4004C159.288 26.3542 159.117 26.3612 158.961 26.4203C158.805 26.4794 158.672 26.5876 158.582 26.7287H158.573C158.511 26.7826 157.522 28.5533 157.195 28.8834C156.851 29.235 156.541 29.1909 156.541 29.1909H153.973C153.973 29.1909 153.663 29.235 153.319 28.8834C152.989 28.5543 152.004 26.7807 151.941 26.7287L151.934 26.7346C151.843 26.596 151.711 26.4901 151.557 26.4322C151.402 26.3743 151.234 26.3674 151.075 26.4125C150.917 26.4576 150.776 26.5524 150.675 26.6832C150.573 26.814 150.515 26.974 150.51 27.1401C150.521 27.2567 150.546 27.3716 150.586 27.4819L152.717 31.3808C152.79 31.5428 152.832 31.7172 152.842 31.8949V32.6628L151.724 36.8251H152.84V40.2529H152.855C152.858 40.5352 152.971 40.805 153.17 41.0036C153.369 41.2022 153.637 41.3136 153.917 41.3136C154.195 41.3162 154.463 41.2074 154.661 41.0111C154.86 40.8148 154.973 40.5471 154.976 40.2666V36.9632C154.961 36.944 154.95 36.9219 154.944 36.8981C154.937 36.8743 154.936 36.8494 154.94 36.8251H155.571C155.577 36.8714 155.573 36.9185 155.559 36.9632V40.2666C155.559 40.5523 155.672 40.8263 155.872 41.0284C156.072 41.2304 156.344 41.3439 156.627 41.3439C156.91 41.3439 157.182 41.2304 157.382 41.0284C157.583 40.8263 157.695 40.5523 157.695 40.2666V36.8251H158.792L157.695 32.6383V31.8949C157.704 31.7183 157.742 31.5445 157.808 31.3808Z" fill="white"/>
<path d="M155.256 27.8492C155.675 27.8494 156.085 27.7243 156.434 27.4897C156.782 27.2551 157.054 26.9215 157.214 26.5312C157.375 26.1408 157.417 25.7112 157.336 25.2967C157.254 24.8821 157.053 24.5012 156.757 24.2022C156.461 23.9032 156.083 23.6994 155.672 23.6166C155.261 23.5339 154.835 23.5759 154.448 23.7373C154.061 23.8987 153.73 24.1723 153.497 24.5235C153.264 24.8747 153.139 25.2877 153.139 25.7103C153.138 25.9911 153.193 26.2692 153.299 26.5288C153.405 26.7883 153.561 27.0242 153.758 27.2229C153.954 27.4215 154.188 27.5791 154.445 27.6866C154.702 27.7941 154.978 27.8494 155.256 27.8492Z" fill="white"/>
<defs>
<clipPath id="clip0_430_919">
<rect width="124" height="50" fill="white" transform="translate(0 0.343994)"/>
</clipPath>
</defs>
</svg>
