<svg width="222" height="51" viewBox="0 0 222 51" fill="none" xmlns="http://www.w3.org/2000/svg">
<g clip-path="url(#clip0_430_663)">
<rect width="124" height="50" transform="translate(0 0.343994)" fill="#FCC30B"/>
<path d="M124 1.32242H0V50.342H124V1.32242Z" fill="#FCC30B"/>
<path d="M12.7188 14.8732H19.2102L13.6029 36.0225H17.7718L23.2662 15.3072V11.5106H12.7188V14.8732Z" fill="white"/>
<path d="M35.1516 21.4318L37.0649 11.496H39.0093L40.9375 21.4318H39.1841L38.8704 19.6156H37.0649L36.7661 21.4318H35.1516ZM37.2894 18.2808H38.6534L37.9813 14.2945H37.9664L37.2894 18.2808Z" fill="white"/>
<path d="M41.5649 11.496H45.5565V12.8588H43.2687V15.7023H44.9737V17.0505H43.2687V21.427H41.5649V11.496Z" fill="white"/>
<path d="M46.2285 11.496H50.2201V12.8588H47.9323V15.7023H49.6373V17.0505H47.9323V21.427H46.2285V11.496Z" fill="white"/>
<path d="M50.7434 18.868V14.0599C50.7434 12.5087 51.5209 11.3781 53.3201 11.3781C55.1194 11.3781 55.9068 12.5063 55.9068 14.0599V18.868C55.9068 20.407 55.1293 21.5498 53.3201 21.5498C51.511 21.5498 50.7434 20.4107 50.7434 18.868ZM54.1968 19.1318V13.7961C54.1968 13.1956 53.9277 12.7701 53.3139 12.7701C52.7001 12.7701 52.4459 13.1956 52.4459 13.7961V19.1318C52.4459 19.7323 52.715 20.1578 53.3139 20.1578C53.9129 20.1578 54.1968 19.7323 54.1968 19.1318Z" fill="white"/>
<path d="M58.5007 16.8742V21.4318H56.792V11.496H59.272C60.9981 11.496 61.628 12.3312 61.628 13.7244V14.9996C61.628 16.0694 61.2399 16.7016 60.264 16.9192L61.8934 21.4331H60.1003L58.5007 16.8742ZM58.5007 12.8625V15.954H59.0686C59.6527 15.954 59.9069 15.661 59.9069 15.1334V13.6745C59.9069 13.1323 59.6527 12.8685 59.0686 12.8685L58.5007 12.8625Z" fill="white"/>
<path d="M67.5801 14.1632V18.7646C67.5801 20.2891 66.9378 21.4318 65.1138 21.4318H62.4775V11.496H65.1088C66.9329 11.496 67.5801 12.6303 67.5801 14.1632ZM64.9042 20.0691C65.6073 20.0691 65.8764 19.6594 65.8764 19.0576V13.8545C65.8764 13.2685 65.6073 12.8588 64.9042 12.8588H64.1863V20.0691H64.9042Z" fill="white"/>
<path d="M67.978 21.4318L69.8913 11.496H71.8357L73.7639 21.4318H72.0142L71.7005 19.6156H69.8913L69.5925 21.4318H67.978ZM70.1158 18.2808H71.4798L70.804 14.2945H70.7891L70.1158 18.2808Z" fill="white"/>
<path d="M74.3914 11.496H76.8577C78.5627 11.496 79.1306 12.2716 79.1306 13.6843V14.6969C79.1306 15.5321 78.8157 16.0597 78.1138 16.2773C78.9657 16.467 79.3848 17.025 79.3848 17.9331V19.2521C79.3848 20.6587 78.7413 21.4403 77.0375 21.4403H74.3914V11.496ZM76.0951 15.6877H76.694C77.2471 15.6877 77.5013 15.4081 77.5013 14.8805V13.6648C77.5013 13.1226 77.2533 12.8588 76.6792 12.8588H76.0951V15.6877ZM76.0951 16.9618V20.0691H76.8391C77.407 20.0691 77.6761 19.7907 77.6761 19.2631V17.7678C77.6761 17.2402 77.4219 16.9618 76.8242 16.9618H76.0951Z" fill="white"/>
<path d="M80.1611 11.496H81.8661V20.0691H83.8985V21.4318H80.1611V11.496Z" fill="white"/>
<path d="M84.6002 11.496H88.6674V12.8588H86.304V15.7023H87.9929V17.0505H86.304V20.0691H88.66V21.4318H84.5928L84.6002 11.496Z" fill="white"/>
<path d="M90.7297 21.4318L92.6431 11.496H94.5861L96.5156 21.4318H94.7659L94.4522 19.6156H92.6431L92.3442 21.4318H90.7297ZM92.8675 18.2808H94.2315L93.5594 14.2945H93.5433L92.8675 18.2808Z" fill="white"/>
<path d="M98.58 15.1893V21.4318H97.1428V11.496H98.8168L100.656 17.1964V11.496H102.076V21.4318H100.581L98.58 15.1893Z" fill="white"/>
<path d="M108.07 14.1632V18.7646C108.07 20.2891 107.427 21.4318 105.603 21.4318H102.972V11.496H105.603C107.427 11.496 108.07 12.6303 108.07 14.1632ZM105.4 20.0691C106.103 20.0691 106.372 19.6594 106.372 19.0576V13.8545C106.372 13.2685 106.103 12.8588 105.4 12.8588H104.683V20.0691H105.4Z" fill="white"/>
<path d="M35.407 33.4586V28.6773C35.407 27.1322 36.151 26.0028 37.9353 26.0028C39.809 26.0028 40.3298 27.024 40.3298 28.4816V29.6499H38.7823V28.3552C38.7823 27.7473 38.5739 27.3936 37.9651 27.3936C37.3563 27.3936 37.0971 27.8154 37.0971 28.4135V33.7212C37.0971 34.3193 37.3451 34.7412 37.9651 34.7412C38.5851 34.7412 38.7823 34.3619 38.7823 33.7796V31.9597H40.3298V33.6616C40.3298 35.0755 39.7346 36.1258 37.9353 36.1258C36.1361 36.1258 35.407 34.9892 35.407 33.4586Z" fill="white"/>
<path d="M41.3999 26.1244H43.095V34.6536H45.1175V36.0103H41.3975L41.3999 26.1244Z" fill="white"/>
<path d="M46.04 26.1244H50.0849V27.4811H47.7401V30.3088H49.4203V31.646H47.7401V34.6488H50.0961V36.0055H46.04V26.1244Z" fill="white"/>
<path d="M50.8735 36.0103L52.7769 26.1244H54.7101L56.6284 36.0103H54.8924L54.5799 34.2026H52.7769L52.4793 36.0103H50.8735ZM53.0001 32.8751H54.353L53.6834 28.9095H53.6685L53.0001 32.8751Z" fill="white"/>
<path d="M58.9001 29.7994V36.0103H57.4753V26.1244H59.1481L60.9771 31.7968V26.1244H62.3895V36.0103H60.9015L58.9001 29.7994Z" fill="white"/>
<path d="M66.9192 26.1244H70.9641V27.4811H68.6143V30.3088H70.2945V31.646H68.6143V34.6488H70.9641V36.0055H66.9192V26.1244Z" fill="white"/>
<path d="M73.408 29.7994V36.0103H71.9758V26.1244H73.6411L75.4701 31.7968V26.1244H76.88V36.0103H75.392L73.408 29.7994Z" fill="white"/>
<path d="M77.9836 26.1244H82.0285V27.4811H79.6787V30.3088H81.3589V31.646H79.6787V34.6488H82.0285V36.0055H77.9836V26.1244Z" fill="white"/>
<path d="M84.7503 31.4734V36.0079H83.054V26.1244H85.5228C87.234 26.1244 87.8577 26.9559 87.8577 28.3406V29.6097C87.8577 30.6735 87.4708 31.3008 86.5049 31.5196L88.1256 36.0103H86.3412L84.7503 31.4734ZM84.7503 27.4786V30.5543H85.312C85.8923 30.5543 86.1453 30.2626 86.1453 29.7386V28.2798C86.1453 27.74 85.8973 27.4786 85.312 27.4786H84.7503Z" fill="white"/>
<path d="M91.4861 30.7318H93.8954V36.0103H92.6765V34.9308C92.4533 35.6748 91.9771 36.127 91.0558 36.127C89.5976 36.127 88.9292 34.9892 88.9292 33.4586V28.6773C88.9292 27.1322 89.6868 26.0028 91.4712 26.0028C93.3461 26.0028 93.8954 27.024 93.8954 28.4816V29.3569H92.3491V28.3503C92.3491 27.7425 92.111 27.3887 91.5022 27.3887C90.8934 27.3887 90.6243 27.8105 90.6243 28.4086V33.7163C90.6243 34.3145 90.8723 34.7363 91.4563 34.7363C92.0069 34.7363 92.2896 34.4299 92.2896 33.7893V32.0448H91.4861V30.7318Z" fill="white"/>
<path d="M98.2823 32.2478V36.0103H96.5872V32.2478L94.6987 26.1244H96.4719L97.4987 29.8723H97.5135L98.5353 26.1244H100.156L98.2823 32.2478Z" fill="white"/>
</g>
<rect width="98" height="50" transform="translate(124 0.343994)" fill="#FCC30B"/>
<path d="M172.5 15.7279C170.511 15.7271 168.566 16.3162 166.912 17.4208C165.258 18.5254 163.968 20.0958 163.206 21.9335C162.444 23.7711 162.245 25.7933 162.632 27.7445C163.02 29.6956 163.977 31.4879 165.384 32.8948C166.79 34.3017 168.582 35.2598 170.533 35.6481C172.484 36.0364 174.507 35.8374 176.344 35.0763C178.182 34.3151 179.753 33.026 180.858 31.372C181.963 29.7179 182.553 27.7733 182.553 25.7841C182.553 23.1175 181.494 20.5601 179.609 18.6743C177.724 16.7884 175.167 15.7286 172.5 15.7279ZM171.756 19.7004C171.756 19.3663 172.092 18.9972 172.505 18.9972C172.918 18.9972 173.249 19.3663 173.249 19.7004V23.1535C173.249 23.4863 172.916 23.8513 172.505 23.8513C172.093 23.8513 171.756 23.4863 171.756 23.1535V19.7004ZM172.5 30.9367C171.251 30.9347 170.043 30.4854 169.096 29.6701C168.149 28.8548 167.525 27.7274 167.337 26.492C167.149 25.2565 167.41 23.9946 168.072 22.9348C168.734 21.8749 169.754 21.087 170.946 20.7138V22.6616C170.261 23.011 169.713 23.581 169.392 24.2798C169.07 24.9786 168.993 25.7653 169.173 26.5132C169.354 27.261 169.78 27.9263 170.385 28.4018C170.99 28.8773 171.737 29.1353 172.506 29.1341C173.276 29.1329 174.022 28.8726 174.625 28.3953C175.228 27.9179 175.653 27.2512 175.831 26.5029C176.009 25.7545 175.93 24.9679 175.606 24.2702C175.282 23.5724 174.733 23.0041 174.046 22.6568V20.709C175.242 21.0791 176.265 21.8657 176.93 22.926C177.596 23.9863 177.858 25.2499 177.671 26.4875C177.484 27.7251 176.86 28.8546 175.911 29.671C174.962 30.4873 173.752 30.9364 172.5 30.9367Z" fill="white"/>
<path d="M160.955 25.6962C160.955 25.24 160.551 24.8729 160.183 24.8729H155.779C155.408 24.8729 155 25.242 155 25.6962C155 26.1504 155.408 26.5243 155.779 26.5243H160.183C160.551 26.5243 160.955 26.1532 160.955 25.6962Z" fill="white"/>
<path d="M190.001 25.6962C190.001 25.24 189.597 24.8729 189.228 24.8729H184.825C184.454 24.8729 184.046 25.242 184.046 25.6962C184.046 26.1504 184.454 26.5243 184.825 26.5243H189.228C189.597 26.5243 190.001 26.1532 190.001 25.6962Z" fill="white"/>
<path d="M172.5 14.1526C172.955 14.1526 173.324 13.7485 173.324 13.3801V8.97599C173.324 8.60481 172.954 8.19727 172.5 8.19727C172.047 8.19727 171.671 8.60481 171.671 8.97599V13.3801C171.671 13.7485 172.043 14.1526 172.5 14.1526Z" fill="white"/>
<path d="M172.5 43.1973C172.955 43.1973 173.324 42.7932 173.324 42.4247V38.0213C173.324 37.6508 172.954 37.2426 172.5 37.2426C172.047 37.2426 171.671 37.6508 171.671 38.0213V42.4247C171.671 42.7932 172.043 43.1973 172.5 43.1973Z" fill="white"/>
<path d="M162.483 19.9611C162.71 19.5653 162.543 19.0445 162.222 18.8634L158.401 16.6761C158.078 16.4915 157.542 16.6075 157.315 17.0054C157.088 17.4034 157.258 17.9269 157.58 18.1114L161.402 20.2987C161.722 20.4819 162.257 20.3605 162.483 19.9632" fill="white"/>
<path d="M187.69 34.3884C187.915 33.9939 187.749 33.4718 187.429 33.2907L183.607 31.1034C183.285 30.9195 182.748 31.0348 182.521 31.4334C182.295 31.832 182.464 32.3548 182.786 32.5387L186.608 34.726C186.928 34.9092 187.463 34.7878 187.69 34.3905" fill="white"/>
<path d="M178.237 15.6785C178.632 15.9042 179.153 15.7375 179.335 15.4178L181.521 11.5955C181.706 11.2731 181.59 10.7358 181.193 10.5094C180.795 10.283 180.27 10.4518 180.087 10.7743L177.901 14.5965C177.718 14.9169 177.84 15.4521 178.237 15.6792" fill="white"/>
<path d="M163.81 40.8872C164.205 41.1129 164.725 40.9462 164.907 40.6258L167.094 36.8042C167.278 36.4824 167.163 35.9445 166.765 35.7181C166.367 35.4917 165.845 35.6598 165.661 35.9829L163.474 39.8045C163.291 40.1242 163.412 40.6601 163.81 40.8872Z" fill="white"/>
<path d="M166.747 15.6881C167.141 15.461 167.261 14.9265 167.077 14.6068L164.881 10.7894C164.696 10.4676 164.173 10.2988 163.778 10.5259C163.383 10.753 163.263 11.2923 163.449 11.6141L165.644 15.4308C165.829 15.7506 166.351 15.9159 166.748 15.6881" fill="white"/>
<path d="M181.225 40.8673C181.621 40.6402 181.739 40.1057 181.556 39.7867L179.361 35.9692C179.175 35.6467 178.653 35.478 178.257 35.7051C177.861 35.9322 177.741 36.4714 177.928 36.7939L180.124 40.6107C180.307 40.9304 180.83 41.0951 181.227 40.8673" fill="white"/>
<path d="M182.51 19.9433C182.737 20.3385 183.271 20.4572 183.591 20.274L187.408 18.0785C187.73 17.8932 187.9 17.3697 187.672 16.9746C187.445 16.5794 186.907 16.46 186.584 16.6452L182.767 18.8407C182.447 19.0246 182.282 19.5481 182.51 19.944" fill="white"/>
<path d="M157.331 34.4248C157.558 34.82 158.092 34.9387 158.412 34.7548L162.229 32.5593C162.551 32.3741 162.721 31.8506 162.492 31.4554C162.264 31.0602 161.727 30.9408 161.405 31.1254L157.588 33.3209C157.268 33.5041 157.103 34.0282 157.331 34.4241" fill="white"/>
<defs>
<clipPath id="clip0_430_663">
<rect width="124" height="50" fill="white" transform="translate(0 0.343994)"/>
</clipPath>
</defs>
</svg>
