<svg width="222" height="51" viewBox="0 0 222 51" fill="none" xmlns="http://www.w3.org/2000/svg">
<g clip-path="url(#clip0_430_636)">
<path d="M123.994 0.343994H0V50.344H123.994V0.343994Z" fill="#FF3A21"/>
<path d="M37.5435 20.9788C38.4722 20.9788 38.9509 20.5151 39.1741 19.7537V20.8586H40.3992V15.446H37.9787V16.7914H38.786V18.5869C38.786 19.2441 38.5008 19.5578 37.9477 19.5578C37.3649 19.5578 37.1107 19.1238 37.1107 18.5112V13.0664C37.1107 12.4563 37.3798 12.0211 37.9936 12.0211C38.6074 12.0211 38.8455 12.3794 38.8455 13.0131V14.0448H40.3992V13.147C40.3992 11.6516 39.8462 10.6038 37.9638 10.6038C36.1696 10.6038 35.4082 11.7557 35.4082 13.3404V18.2459C35.4082 19.8157 36.079 20.9826 37.5435 20.9826" fill="white"/>
<path d="M45.5862 19.4685H43.2252V16.3871H44.9154V15.0107H43.2252V12.1116H45.5862V10.7191H41.5215V20.8598H45.5862V19.4685Z" fill="white"/>
<path d="M48.0848 14.4887L50.0862 20.8598H51.5816V10.7191H50.1631V16.5372L48.3229 10.7191H46.6501V20.8598H48.0848V14.4887Z" fill="white"/>
<path d="M57.8001 18.1368V13.4421C57.8001 11.8723 57.1578 10.7141 55.3337 10.7141H52.7V20.8548H55.3288C57.1528 20.8548 57.7951 19.688 57.7951 18.1268M54.4037 19.4586V12.1104H55.1217C55.8235 12.1104 56.0914 12.5295 56.0914 13.1272V18.4368C56.0914 19.0494 55.8235 19.4685 55.1217 19.4685L54.4037 19.4586Z" fill="white"/>
<path d="M62.9883 19.4685H60.6286V16.3871H62.3175V15.0107H60.6286V12.1116H62.9883V10.7191H58.9236V20.8598H62.9883V19.4685Z" fill="white"/>
<path d="M65.7411 16.2073L67.332 20.8598H69.1262L67.5031 16.2532C68.474 16.0288 68.8671 15.3852 68.8671 14.294V12.992C68.8671 11.571 68.2397 10.7178 66.521 10.7178H64.041V20.8586H65.746L65.7411 16.2073ZM65.7411 12.1153H66.3065C66.8905 12.1153 67.1435 12.3832 67.1435 12.9362V14.4242C67.1435 14.9648 66.8955 15.2624 66.3065 15.2624H65.7411V12.1153Z" fill="white"/>
<path d="M39.4729 34.3336H37.112V31.2535H38.8008V29.8783H37.112V26.9767H39.4729V25.5854H35.4082V35.7249H39.4729V34.3336Z" fill="white"/>
<path d="M42.4651 35.7237V36.4131L45.6767 37.0108V35.7398L44.4218 35.4992C45.2898 35.0814 45.6767 34.2146 45.6767 33.1073V28.2018C45.6767 26.6171 44.9004 25.4651 43.0913 25.4651C41.2821 25.4651 40.522 26.6171 40.522 28.2018V33.1073C40.522 34.4837 41.1048 35.4856 42.4651 35.7237ZM42.2245 27.934C42.2245 27.3214 42.4936 26.8862 43.0925 26.8862C43.6914 26.8862 43.9741 27.3214 43.9741 27.934V33.4681C43.9741 34.0658 43.7063 34.5134 43.0925 34.5134C42.4787 34.5134 42.2245 34.0658 42.2245 33.4681V27.934Z" fill="white"/>
<path d="M46.7839 25.5854V33.2573C46.7839 34.8272 47.5279 35.844 49.3247 35.844C51.0607 35.844 51.7315 34.8272 51.7315 33.2573V25.5854H50.1629V33.421C50.1629 34.0199 49.9236 34.4229 49.3247 34.4229C48.7258 34.4229 48.4877 34.0199 48.4877 33.421V25.5854H46.7839Z" fill="white"/>
<path d="M54.483 33.8699H56.2959L56.6096 35.7299H58.358L56.4298 25.5904H54.483L52.5759 35.7249H54.1879L54.483 33.8699ZM55.3783 28.4424H55.3957L56.0665 32.5096H54.7025L55.3783 28.4424Z" fill="white"/>
<path d="M59.1926 25.5854V35.7249H62.9287V34.3349H60.8976V25.5854H59.1926Z" fill="white"/>
<path d="M65.5463 25.5854H63.8413V35.7249H65.5463V25.5854Z" fill="white"/>
<path d="M69.5962 35.7249V26.9767H70.9999V25.5867H66.4739V26.9767H67.8776V35.7249H69.5962Z" fill="white"/>
<path d="M73.542 35.7249H75.247V31.8673L77.1281 25.5867H75.5012L74.4695 29.4282H74.4546L73.4242 25.5867H71.6448L73.542 31.8673V35.7249Z" fill="white"/>
<path d="M19.7706 18.6514C18.1114 18.6514 16.895 19.2404 16.2304 20.3874H16.1932V14.1526H23.4211V10.7228H12.3603V24.8104H16.1932V24.2549C16.1932 22.7806 16.8578 21.9684 18.037 21.9684C19.3279 21.9684 19.8462 22.855 19.8462 24.2202V30.2677C19.8462 31.5957 19.3651 32.5158 18.0742 32.5158C16.6358 32.5158 16.1212 31.5573 16.1212 30.0842V26.9482H12.2834V29.7878C12.2834 33.5859 13.7962 36.02 18.0742 36.02C22.315 36.02 24.0473 33.7707 24.0473 30.3036V24.183C24.0473 20.2373 22.0199 18.6514 19.7706 18.6514Z" fill="white"/>
</g>
<rect width="98" height="50" transform="translate(124 0.343994)" fill="#FF3A21"/>
<path d="M186.816 6.34399H178.176C178.147 6.34436 178.119 6.35614 178.098 6.37681C178.078 6.39749 178.066 6.42539 178.066 6.45454V9.32513C178.066 9.35433 178.077 9.38234 178.098 9.40305C178.119 9.42376 178.147 9.43549 178.176 9.43567H181.616L177.795 13.2594C175.808 11.6924 173.35 10.841 170.819 10.8428C164.579 10.8428 159.502 15.918 159.502 22.1597C159.502 27.9051 163.806 32.6576 169.358 33.3786V36.6872H165.952C165.937 36.6869 165.923 36.6895 165.909 36.6949C165.896 36.7003 165.883 36.7082 165.873 36.7184C165.863 36.7286 165.854 36.7407 165.849 36.7541C165.843 36.7675 165.84 36.7818 165.84 36.7963V39.8741C165.84 39.8887 165.843 39.9031 165.849 39.9166C165.854 39.93 165.862 39.9423 165.873 39.9525C165.883 39.9627 165.895 39.9708 165.909 39.9762C165.923 39.9816 165.937 39.9842 165.952 39.984H169.358V43.2341C169.358 43.2486 169.361 43.2629 169.366 43.2763C169.372 43.2897 169.38 43.3018 169.39 43.312C169.4 43.3222 169.413 43.3303 169.426 43.3358C169.439 43.3413 169.454 43.3441 169.468 43.344H172.544C172.558 43.3441 172.573 43.3413 172.586 43.3358C172.6 43.3304 172.612 43.3223 172.622 43.3121C172.632 43.3019 172.641 43.2898 172.646 43.2764C172.652 43.263 172.655 43.2487 172.655 43.2341V39.9812H176.062C176.076 39.9812 176.09 39.9783 176.103 39.9728C176.117 39.9673 176.129 39.9592 176.139 39.949C176.149 39.9388 176.157 39.9266 176.163 39.9133C176.168 39.9 176.171 39.8857 176.171 39.8713V36.7936C176.171 36.7792 176.168 36.765 176.162 36.7518C176.157 36.7385 176.149 36.7265 176.139 36.7164C176.129 36.7062 176.117 36.6982 176.103 36.6927C176.09 36.6872 176.076 36.6844 176.062 36.6844H172.655V33.3223C178.024 32.4414 182.134 27.7716 182.134 22.1569C182.136 19.8256 181.413 17.5513 180.067 15.6482L183.834 11.8794V15.0927C183.834 15.1221 183.846 15.1502 183.867 15.1707C183.888 15.1913 183.916 15.2028 183.945 15.2026H186.816C186.845 15.2028 186.874 15.1913 186.895 15.1707C186.916 15.1502 186.928 15.1221 186.928 15.0927V6.45662C186.928 6.44201 186.925 6.42757 186.919 6.4141C186.914 6.40064 186.905 6.38843 186.895 6.37817C186.885 6.3679 186.872 6.35979 186.859 6.35428C186.845 6.34877 186.831 6.34599 186.816 6.34608M170.819 30.4872C169.171 30.4872 167.561 29.9986 166.191 29.0833C164.821 28.1679 163.753 26.8669 163.123 25.3448C162.492 23.8226 162.327 22.1477 162.649 20.5318C162.97 18.9159 163.764 17.4316 164.929 16.2666C166.094 15.1016 167.578 14.3082 169.194 13.9868C170.81 13.6654 172.485 13.8303 174.007 14.4608C175.529 15.0913 176.83 16.159 177.745 17.5289C178.661 18.8988 179.149 20.5094 179.149 22.1569C179.147 24.3656 178.269 26.4831 176.707 28.0448C175.145 29.6066 173.027 30.4849 170.819 30.4872Z" fill="white"/>
<path d="M175.991 18.7378H165.887C165.86 18.7366 165.833 18.7463 165.812 18.7648C165.792 18.7832 165.779 18.809 165.777 18.8365V21.2823C165.778 21.2961 165.781 21.3097 165.787 21.3222C165.793 21.3348 165.801 21.346 165.811 21.3554C165.822 21.3647 165.834 21.3719 165.847 21.3765C165.86 21.3812 165.873 21.3832 165.887 21.3824H175.991C176.005 21.3834 176.019 21.3815 176.032 21.3769C176.045 21.3724 176.058 21.3652 176.068 21.3559C176.078 21.3466 176.087 21.3353 176.093 21.3226C176.099 21.31 176.102 21.2963 176.103 21.2823V18.8365C176.101 18.8086 176.088 18.7827 176.067 18.7642C176.046 18.7457 176.019 18.7362 175.991 18.7378Z" fill="white"/>
<path d="M175.991 23.1052H165.887C165.859 23.1045 165.832 23.1148 165.811 23.1339C165.791 23.153 165.779 23.1794 165.777 23.2075V25.6533C165.778 25.667 165.781 25.6804 165.787 25.6928C165.793 25.7052 165.802 25.7162 165.812 25.7254C165.822 25.7346 165.834 25.7417 165.847 25.7462C165.86 25.7508 165.873 25.7527 165.887 25.752H175.991C176.005 25.7529 176.019 25.7511 176.032 25.7466C176.045 25.7422 176.057 25.7352 176.067 25.726C176.078 25.7168 176.086 25.7056 176.092 25.6932C176.099 25.6807 176.102 25.6671 176.103 25.6533V23.2075C176.101 23.1791 176.089 23.1525 176.068 23.1333C176.047 23.1142 176.019 23.1041 175.991 23.1052Z" fill="white"/>
<defs>
<clipPath id="clip0_430_636">
<rect width="124" height="50" fill="white" transform="translate(0 0.343994)"/>
</clipPath>
</defs>
</svg>
