<svg width="222" height="51" viewBox="0 0 222 51" fill="none" xmlns="http://www.w3.org/2000/svg">
<g clip-path="url(#clip0_430_1825)">
<path d="M124 0.343994H0V50.344H124V0.343994Z" fill="#19486A"/>
<path d="M39.5696 10.7203H42.0967C43.8153 10.7203 44.4428 11.5722 44.4428 12.9945V15.1322C44.4428 16.5545 43.8153 17.4213 42.0967 17.4213H41.2746V20.861H39.5696V10.7203ZM41.2746 12.1103V16.1044H41.9008C42.4848 16.1044 42.7365 15.8204 42.7365 15.2661V12.9337C42.7365 12.3819 42.4885 12.1103 41.9008 12.1103H41.2746Z" fill="white"/>
<path d="M44.6523 20.861L46.5669 10.7203H48.5087L50.4357 20.861H48.6885L48.3748 19.001H46.5669L46.2668 20.861H44.6523ZM46.7913 17.6445H48.1553L47.482 13.576H47.4671L46.7913 17.6445Z" fill="white"/>
<path d="M52.995 16.216V20.8672H51.2913V10.7203H53.7713C55.4899 10.7203 56.1173 11.5722 56.1173 12.9945V14.2952C56.1173 15.3864 55.7292 16.0312 54.7533 16.2544L56.3827 20.861H54.5909L52.995 16.216ZM52.995 12.1165V15.2723H53.5679C54.1519 15.2723 54.4061 14.9735 54.4061 14.4353V12.9337C54.4061 12.3819 54.1581 12.1103 53.5679 12.1103L52.995 12.1165Z" fill="white"/>
<path d="M56.7251 10.7203H61.2548V12.1103H59.8487V20.861H58.13V12.1103H56.7251V10.7203Z" fill="white"/>
<path d="M63.7694 14.4899V20.861H62.3347V10.7203H64.0062L65.8476 16.5371V10.7203H67.2662V20.861H65.772L63.7694 14.4899Z" fill="white"/>
<path d="M68.6663 10.7203H72.731V12.1103H70.3713V15.0119H72.0601V16.3896H70.3713V19.4697H72.731V20.861H68.6663V10.7203Z" fill="white"/>
<path d="M75.4975 16.216V20.8672H73.7937V10.7203H76.2737C77.9948 10.7203 78.621 11.5722 78.621 12.9945V14.2952C78.621 15.3864 78.2317 16.0312 77.257 16.2544L78.8864 20.861H77.0958L75.4975 16.216ZM75.4975 12.1165V15.2723H76.0666C76.6494 15.2723 76.9036 14.9735 76.9036 14.4353V12.9337C76.9036 12.3819 76.6494 12.1103 76.0666 12.1103L75.4975 12.1165Z" fill="white"/>
<path d="M79.4717 18.6761V17.3121H81.0576V18.7022C81.0576 19.2713 81.3056 19.5999 81.8922 19.5999C82.4316 19.5999 82.6696 19.2403 82.6696 18.7022V18.324C82.6696 17.7399 82.4316 17.3803 81.9058 16.8868L80.9064 15.8837C79.9342 14.9289 79.4866 14.3436 79.4866 13.1792V12.8345C79.4866 11.5771 80.2194 10.6025 81.8773 10.6025C83.581 10.6025 84.2556 11.4395 84.2556 12.9064V13.7285H82.6994V12.8469C82.6994 12.2616 82.4316 11.9789 81.8922 11.9789C81.4135 11.9789 81.0862 12.2492 81.0862 12.8171V13.0267C81.0862 13.5959 81.4011 13.9232 81.8922 14.4019L82.9834 15.4782C83.9109 16.4206 84.3573 16.9885 84.3573 18.1107V18.6067C84.3573 19.9992 83.6133 20.9838 81.8773 20.9838C80.1413 20.9838 79.4717 20.0129 79.4717 18.6811" fill="white"/>
<path d="M88.7555 16.3896H87.1125V20.861H85.4062V10.7203H87.1125V15.0144H88.7555V10.7203H90.4729V20.861H88.7555V16.3896Z" fill="white"/>
<path d="M93.3 10.7203H91.5962V20.8598H93.3V10.7203Z" fill="white"/>
<path d="M94.436 10.7203H96.9681C98.688 10.7203 99.3154 11.5722 99.3154 12.9945V15.1322C99.3154 16.5545 98.688 17.4213 96.9681 17.4213H96.1472V20.861H94.436V10.7203ZM96.141 12.1103V16.1044H96.761C97.3451 16.1044 97.5993 15.8204 97.5993 15.2661V12.9337C97.5993 12.3819 97.3513 12.1103 96.761 12.1103H96.141Z" fill="white"/>
<path d="M99.9751 18.6761V17.3121H101.556V18.7022C101.556 19.2713 101.81 19.5999 102.394 19.5999C102.931 19.5999 103.172 19.2403 103.172 18.7022V18.324C103.172 17.7399 102.931 17.3803 102.409 16.8868L101.407 15.8837C100.436 14.9289 99.9875 14.3436 99.9875 13.1792V12.8345C99.9875 11.5771 100.722 10.6025 102.378 10.6025C104.083 10.6025 104.754 11.4395 104.754 12.9064V13.7285H103.204V12.8469C103.204 12.2616 102.934 11.9789 102.397 11.9789C101.918 11.9789 101.591 12.2492 101.591 12.8171V13.0267C101.591 13.5959 101.902 13.9232 102.397 14.4019L103.488 15.4782C104.414 16.4206 104.862 16.9885 104.862 18.1107V18.6067C104.862 19.9992 104.118 20.9838 102.382 20.9838C100.646 20.9838 99.9763 20.0129 99.9763 18.6811" fill="white"/>
<path d="M18.5541 10.7364V35.7361H14.3505V16.5991H14.3133L11.3634 19.6595H11.3274V15.2711L15.1999 10.7364H18.5541Z" fill="white"/>
<path d="M20.4724 10.7364H31.0199V14.6077L25.5242 35.7361H21.3553L26.9613 14.165H20.4724V10.7364Z" fill="white"/>
<path d="M39.572 25.449H43.6268V26.8602H41.3031V29.8064H43.0341V31.2014H41.3031V35.741H39.572V25.449Z" fill="white"/>
<path d="M44.2334 33.08V28.1051C44.2334 26.4931 45.022 25.3275 46.8374 25.3275C48.6528 25.3275 49.4761 26.4968 49.4761 28.1051V33.08C49.4761 34.6734 48.6875 35.8576 46.8498 35.8576C45.0121 35.8576 44.2458 34.6734 44.2458 33.08M47.7513 33.3528V27.8323C47.7513 27.2123 47.4785 26.7696 46.856 26.7696C46.2335 26.7696 45.9768 27.2098 45.9768 27.8323V33.3578C45.9768 33.9778 46.2484 34.4204 46.856 34.4204C47.4636 34.4204 47.7513 33.9802 47.7513 33.3578" fill="white"/>
<path d="M52.328 31.0204V35.741H50.592V25.449H53.1117C54.8576 25.449 55.4962 26.317 55.4962 27.7567V29.0773C55.4962 30.1846 55.1007 30.8381 54.1149 31.0613L55.7678 35.7373H53.9487L52.328 31.0204ZM52.328 26.8602V30.0643H52.9046C53.4961 30.0643 53.7553 29.7605 53.7553 29.2137V27.6947C53.7553 27.133 53.4961 26.8602 52.9046 26.8602H52.328Z" fill="white"/>
<path d="M58.2341 25.449H62.8333V26.8602H61.4073V35.741H59.6614V26.8602H58.2341V25.449Z" fill="white"/>
<path d="M67.038 31.2014H65.3677V35.741H63.6379V25.449H65.3677V29.8064H67.038V25.449H68.7839V35.741H67.038V31.2014Z" fill="white"/>
<path d="M69.9099 25.449H74.0391V26.8602H71.641V29.8064H73.3559V31.2014H71.641V34.3299H74.0391V35.741H69.9099V25.449Z" fill="white"/>
<path d="M79.5684 30.2454H82.0273V35.741H80.7873V34.6176C80.5604 35.3926 80.0743 35.8576 79.1332 35.8576C77.6452 35.8576 76.9619 34.6734 76.9619 33.08V28.1051C76.9619 26.4931 77.7357 25.3275 79.5585 25.3275C81.4706 25.3275 82.0385 26.3902 82.0385 27.908V28.8181H80.4488V27.7716C80.4488 27.1342 80.2008 26.7696 79.5808 26.7696C78.9608 26.7696 78.6855 27.2098 78.6855 27.8323V33.3578C78.6855 33.9778 78.9422 34.4204 79.5362 34.4204C80.0966 34.4204 80.3856 34.1005 80.3856 33.4284V31.6118H79.5659L79.5684 30.2454Z" fill="white"/>
<path d="M83.0144 33.08V28.1051C83.0144 26.4931 83.803 25.3275 85.6184 25.3275C87.4338 25.3275 88.246 26.4968 88.246 28.1051V33.08C88.246 34.6734 87.4561 35.8576 85.6184 35.8576C83.7807 35.8576 83.0144 34.6734 83.0144 33.08ZM86.5211 33.3528V27.8323C86.5211 27.2123 86.2471 26.7696 85.6246 26.7696C85.0021 26.7696 84.7454 27.2098 84.7454 27.8323V33.3578C84.7454 33.9778 85.0183 34.4204 85.6246 34.4204C86.231 34.4204 86.5211 33.9802 86.5211 33.3578" fill="white"/>
<path d="M88.7368 35.741L90.6799 25.449H92.654L94.6119 35.741H92.835L92.5176 33.8575H90.6799L90.3773 35.741H88.7368ZM90.9068 32.4774H92.2894L91.6049 28.3482H91.5913L90.9068 32.4774Z" fill="white"/>
<path d="M95.6028 25.449H97.3338V34.3299H99.3972V35.741H95.6028V25.449Z" fill="white"/>
<path d="M100.018 33.5252V32.1438H101.63V33.5549C101.63 34.1315 101.889 34.4663 102.48 34.4663C103.028 34.4663 103.271 34.1005 103.271 33.5549V33.1606C103.271 32.5679 103.023 32.2046 102.496 31.7024L101.48 30.6868C100.488 29.7146 100.038 29.1232 100.038 27.9377V27.5893C100.038 26.3146 100.782 25.3275 102.466 25.3275C104.202 25.3275 104.88 26.1769 104.88 27.6649V28.4994H103.298V27.6054C103.298 27.0127 103.024 26.7238 102.476 26.7238C101.991 26.7238 101.658 26.9978 101.658 27.5744V27.7864C101.658 28.363 101.978 28.6978 102.476 29.1839L103.585 30.2764C104.527 31.2324 104.983 31.809 104.983 32.9473V33.4433C104.983 34.8557 104.223 35.8576 102.462 35.8576C100.702 35.8576 100.018 34.8656 100.018 33.5202" fill="white"/>
</g>
<rect width="98" height="50" transform="translate(124 0.343994)" fill="#19486A"/>
<path d="M191.432 23.2679C191.432 18.1149 187.332 13.9054 182.225 13.7191C181.567 11.8549 180.347 10.2407 178.734 9.09891C177.12 7.95714 175.192 7.34399 173.215 7.34399C171.238 7.34399 169.31 7.95714 167.696 9.09891C166.082 10.2407 164.862 11.8549 164.204 13.7191C159.098 13.9054 155 18.1156 155 23.2679C155 24.7215 155.332 26.1558 155.972 27.4612C156.611 28.7667 157.54 29.9089 158.688 30.8005C158.438 31.6628 158.311 32.5559 158.311 33.4537C158.311 38.7204 162.598 43.0076 167.868 43.0076C169.794 43.0095 171.675 42.4261 173.261 41.3347C174.829 42.3861 176.675 42.9465 178.563 42.9445C183.833 42.9445 188.12 38.6573 188.12 33.3898C188.12 32.5107 187.998 31.6359 187.758 30.7902C188.902 29.898 189.827 28.7569 190.463 27.4536C191.1 26.1503 191.431 24.7191 191.432 23.2687M180.847 16.9006C180.847 20.7263 178.015 23.8931 174.34 24.4404C174.276 24.0523 174.243 23.6598 174.24 23.2665C174.243 21.439 174.901 19.6731 176.095 18.2896C177.289 16.9061 178.939 15.9967 180.747 15.7266C180.81 16.1147 180.844 16.5072 180.847 16.9006ZM173.25 38.8562C172.522 38.1524 171.942 37.3105 171.544 36.3798C171.145 35.449 170.936 34.4481 170.93 33.4357C170.923 32.4232 171.118 31.4196 171.504 30.4836C171.89 29.5475 172.459 28.6979 173.177 27.9844C173.905 28.688 174.485 29.5298 174.884 30.4606C175.283 31.3914 175.492 32.3923 175.498 33.4049C175.505 34.4174 175.31 35.4211 174.924 36.3571C174.538 37.2932 173.969 38.1428 173.25 38.8562ZM165.682 15.7273C169.358 16.2739 172.189 19.4415 172.189 23.2679C172.186 23.6613 172.152 24.0538 172.088 24.4419C168.414 23.8931 165.585 20.7263 165.585 16.9006C165.588 16.5072 165.621 16.1147 165.685 15.7266M171.373 26.6813C170.923 27.5862 170.297 28.3924 169.532 29.0526C168.767 29.7128 167.878 30.2139 166.917 30.5265C165.956 30.8391 164.942 30.957 163.935 30.8733C162.928 30.7896 161.947 30.5059 161.051 30.0388C161.501 29.1339 162.127 28.3278 162.892 27.6675C163.657 27.0073 164.546 26.5062 165.508 26.1936C166.469 25.881 167.482 25.7631 168.49 25.8468C169.497 25.9306 170.477 26.2142 171.373 26.6813ZM175.032 26.6299C175.934 26.1566 176.92 25.869 177.935 25.784C178.949 25.699 179.97 25.8185 180.937 26.1353C181.904 26.452 182.798 26.9597 183.566 27.6282C184.333 28.2967 184.959 29.1125 185.405 30.0271C184.504 30.5004 183.517 30.7881 182.503 30.873C181.489 30.958 180.468 30.8385 179.501 30.5218C178.533 30.205 177.639 29.6973 176.872 29.0288C176.105 28.3603 175.479 27.5445 175.032 26.6299ZM173.216 9.26896C174.702 9.27058 176.155 9.70555 177.398 10.5206C178.64 11.3356 179.618 12.4954 180.212 13.8577C178.701 14.1278 177.277 14.7565 176.06 15.6909C174.843 16.6254 173.867 17.8384 173.216 19.228C172.565 17.838 171.59 16.6247 170.372 15.6902C169.155 14.7557 167.731 14.1272 166.22 13.8577C166.813 12.4954 167.791 11.3357 169.034 10.5207C170.276 9.70568 171.73 9.27067 173.216 9.26896ZM156.927 23.2679C156.929 21.3861 157.626 19.5712 158.883 18.1711C160.141 16.7709 161.87 15.8838 163.741 15.6796C163.541 17.2028 163.713 18.7518 164.242 20.194C164.772 21.6362 165.643 22.9286 166.781 23.9606C165.25 24.1374 163.784 24.6811 162.509 25.5455C161.233 26.4099 160.185 27.5695 159.453 28.9258C158.659 28.2127 158.023 27.3405 157.588 26.3657C157.153 25.3909 156.927 24.3355 156.927 23.2679ZM160.235 33.4537C160.235 32.922 160.291 32.3917 160.402 31.8717C161.776 32.5364 163.29 32.8615 164.816 32.8198C166.342 32.778 167.836 32.3706 169.171 31.6318C168.888 33.1333 168.971 34.6809 169.412 36.1436C169.854 37.6064 170.641 38.9413 171.708 40.0353C170.55 40.7145 169.233 41.0757 167.89 41.0821C166.548 41.0886 165.227 40.7401 164.063 40.072C162.898 39.4039 161.931 38.44 161.259 37.2777C160.586 36.1155 160.233 34.7963 160.235 33.4537ZM186.196 33.3898C186.198 34.7251 185.849 36.0374 185.184 37.1953C184.52 38.3533 183.562 39.3161 182.408 39.9875C181.254 40.6589 179.943 41.0152 178.608 41.0208C177.273 41.0263 175.96 40.6809 174.8 40.0191C175.849 38.9174 176.619 37.5801 177.045 36.1195C177.47 34.6588 177.539 33.1174 177.246 31.6245C178.585 32.368 180.083 32.7781 181.614 32.8198C183.145 32.8616 184.664 32.5339 186.041 31.8644C186.144 32.3663 186.196 32.8774 186.196 33.3898ZM179.709 23.9041C180.675 23.0113 181.446 21.9282 181.973 20.7229C182.5 19.5175 182.772 18.2161 182.772 16.9006C182.771 16.4923 182.744 16.0845 182.692 15.6796C184.155 15.8347 185.541 16.4098 186.684 17.3355C187.827 18.2613 188.677 19.4981 189.133 20.8966C189.588 22.2952 189.629 23.7956 189.251 25.2169C188.872 26.6381 188.09 27.9194 186.999 28.906C186.275 27.5477 185.235 26.3839 183.966 25.5132C182.697 24.6425 181.236 24.0905 179.709 23.9041Z" fill="white"/>
<defs>
<clipPath id="clip0_430_1825">
<rect width="124" height="50" fill="white" transform="translate(0 0.343994)"/>
</clipPath>
</defs>
</svg>
