<svg width="222" height="51" viewBox="0 0 222 51" fill="none" xmlns="http://www.w3.org/2000/svg">
<g clip-path="url(#clip0_430_93)">
<rect width="124" height="50" transform="translate(0 0.343994)" fill="#4C9F38"/>
<path d="M124 1.32245H0V50.3421H124V1.32245Z" fill="#4C9F38"/>
<path d="M17.6949 36.3532C21.9369 36.3532 23.7808 34.1467 23.7808 30.7489V27.1346C23.7808 24.8929 22.7888 23.4462 20.6808 22.977C22.4168 22.4348 23.5563 21.0599 23.5563 19.0005V16.867C23.5563 13.3962 21.86 11.2639 17.9887 11.2639C13.6363 11.2639 12.1235 13.7925 12.1235 17.4092V19.5779H15.9589V17.0833C15.9589 15.565 16.44 14.6982 17.7668 14.6982C19.0936 14.6982 19.5722 15.565 19.5722 16.9022V19.5415C19.5722 20.8435 18.6881 21.5291 17.3253 21.5291H15.7381V24.6765H17.5089C18.9832 24.6765 19.5722 25.3622 19.5722 26.6642V30.7136C19.5722 32.0144 18.9832 32.9201 17.6924 32.9201C16.2552 32.9201 15.7381 31.9779 15.7381 30.5325V27.0264H11.9041V30.2432C11.9041 33.968 13.4144 36.3532 17.6911 36.3532" fill="white"/>
<path d="M37.9726 16.1302H40.3956V21.4367H39.1692V20.3511C38.9448 21.0988 38.4661 21.5534 37.5399 21.5534C36.0742 21.5534 35.4021 20.4107 35.4021 18.8716V14.0636C35.4021 12.5099 36.1647 11.3818 37.9577 11.3818C39.8413 11.3818 40.3956 12.4078 40.3956 13.8739V14.7529H38.8406V13.7414C38.8406 13.1263 38.6013 12.7689 37.9887 12.7689C37.3762 12.7689 37.1059 13.1944 37.1059 13.7949V19.1306C37.1059 19.7311 37.3601 20.1566 37.9429 20.1566C38.4959 20.1566 38.7811 19.849 38.7811 19.2035V17.4493H37.9726V16.1302Z" fill="white"/>
<path d="M41.5154 18.8716V14.0636C41.5154 12.5099 42.2929 11.3818 44.0871 11.3818C45.8814 11.3818 46.6738 12.5087 46.6738 14.0636V18.8716C46.6738 20.4107 45.8963 21.5534 44.0871 21.5534C42.278 21.5534 41.5154 20.4107 41.5154 18.8716ZM44.9688 19.1354V13.7998C44.9688 13.1992 44.6997 12.7737 44.0871 12.7737C43.4746 12.7737 43.2191 13.1992 43.2191 13.7998V19.1354C43.2191 19.736 43.4882 20.1615 44.0871 20.1615C44.6861 20.1615 44.9688 19.736 44.9688 19.1354Z" fill="white"/>
<path d="M47.7947 18.8716V14.0636C47.7947 12.5099 48.5722 11.3818 50.3664 11.3818C52.1607 11.3818 52.9481 12.5087 52.9481 14.0636V18.8716C52.9481 20.4107 52.1706 21.5534 50.3627 21.5534C48.5548 21.5534 47.7947 20.4107 47.7947 18.8716ZM51.2481 19.1354V13.7998C51.2481 13.1992 50.979 12.7737 50.3664 12.7737C49.7539 12.7737 49.4984 13.1992 49.4984 13.7998V19.1354C49.4984 19.736 49.7675 20.1615 50.3664 20.1615C50.9654 20.1615 51.2481 19.736 51.2481 19.1354Z" fill="white"/>
<path d="M59.1704 14.1669V18.7683C59.1704 20.2928 58.5281 21.4367 56.704 21.4367H54.0728V11.4997H56.704C58.5281 11.4997 59.1704 12.6303 59.1704 14.1669ZM56.4945 20.0727C57.1976 20.0727 57.4666 19.663 57.4666 19.0613V13.8593C57.4666 13.2722 57.1976 12.8625 56.4945 12.8625H55.7778V20.0727H56.4945Z" fill="white"/>
<path d="M65.9581 17.0542H64.3139V21.4367H62.6089V11.4997H64.3139V15.706H65.9581V11.4997H67.6768V21.4367H65.9581V17.0542Z" fill="white"/>
<path d="M68.7977 11.4997H72.8649V12.8625H70.5089V15.706H72.1978V17.0542H70.5027V20.0727H72.8587V21.4367H68.7915L68.7977 11.4997Z" fill="white"/>
<path d="M73.656 21.4367L75.5706 11.4997H77.5136L79.4418 21.4367H77.6922L77.376 19.6193H75.5706L75.268 21.4367H73.656ZM75.7938 18.2857H77.1578L76.4857 14.2982H76.4708L75.7938 18.2857Z" fill="white"/>
<path d="M80.2939 11.4997H81.9977V20.0727H84.0313V21.4367H80.2939V11.4997Z" fill="white"/>
<path d="M83.7917 11.4997H88.3215V12.8625H86.9165V21.4367H85.1967V12.8625H83.7917V11.4997Z" fill="white"/>
<path d="M92.6119 17.0542H90.9677V21.4367H89.2639V11.4997H90.9677V15.706H92.6119V11.4997H94.3306V21.4367H92.6119V17.0542Z" fill="white"/>
<path d="M35.1453 36.0067L37.0586 26.0697H39.0017L40.9299 36.0067H39.1839L38.8702 34.1832H37.0586L36.7597 36.0067H35.1453ZM37.283 32.8557H38.647L37.9737 28.8694H37.9588L37.283 32.8557Z" fill="white"/>
<path d="M43.2176 29.763V36.0067H41.7878V26.0697H43.4631L45.3008 31.7713V26.0697H46.7218V36.0067H45.2202L43.2176 29.763Z" fill="white"/>
<path d="M52.9343 28.7381V33.3395C52.9343 34.864 52.292 36.0067 50.4679 36.0067H47.8367V26.0697H50.4679C52.292 26.0697 52.9343 27.1991 52.9343 28.7381ZM50.2584 34.6439C50.9615 34.6439 51.2305 34.2343 51.2305 33.6325V28.4342C51.2305 27.8483 50.9615 27.4386 50.2584 27.4386H49.5404V34.6488L50.2584 34.6439Z" fill="white"/>
<path d="M59.4519 29.8663L58.4958 36.0067H56.8962L55.5322 26.0697H57.1765L57.9688 32.3718H57.9837L58.8356 26.0697H60.2256L61.168 32.3718H61.1829L61.9604 26.0697H63.3951L62.0794 36.0067H60.4674L59.4655 29.8663H59.4519Z" fill="white"/>
<path d="M64.2803 26.0697H68.3462V27.4337H65.9902V30.276H67.6791V31.6254H65.9853V34.6439H68.3413V36.0067H64.2803V26.0697Z" fill="white"/>
<path d="M69.4077 26.0697H71.1127V34.6439H73.1451V36.0067H69.4077V26.0697Z" fill="white"/>
<path d="M74.0725 26.0697H75.7763V34.6439H77.8099V36.0067H74.0725V26.0697Z" fill="white"/>
<path d="M77.5854 30.1362H79.9799V31.4734H77.5854V30.1362Z" fill="white"/>
<path d="M80.9941 26.0697H83.4605C85.1643 26.0697 85.7322 26.8465 85.7322 28.2579V29.2694C85.7322 30.1046 85.4185 30.6322 84.7166 30.8498C85.5685 31.0394 85.9864 31.5962 85.9864 32.5055V33.8246C85.9864 35.2311 85.3441 36.0128 83.6403 36.0128H80.9941V26.0697ZM82.6979 30.2577H83.2956C83.8486 30.2577 84.1028 29.9793 84.1028 29.4517V28.2361C84.1028 27.6939 83.8548 27.4301 83.2807 27.4301H82.6979V30.2577ZM82.6979 31.533V34.6403H83.4419C84.0098 34.6403 84.2789 34.3619 84.2789 33.8343V32.339C84.2789 31.8114 84.0247 31.533 83.427 31.533H82.6979Z" fill="white"/>
<path d="M86.9885 26.0697H91.0545V27.4337H88.6985V30.276H90.3886V31.6254H88.6923V34.6439H91.0483V36.0067H86.9885V26.0697Z" fill="white"/>
<path d="M92.1157 26.0697H93.8195V36.0067H92.1157V26.0697Z" fill="white"/>
<path d="M96.3912 29.763V36.0067H94.9565V26.0697H96.6305L98.4695 31.7713V26.0697H99.8893V36.0067H98.4013L96.3912 29.763Z" fill="white"/>
<path d="M103.582 30.7015H106.004V36.0067H104.78V34.9223C104.556 35.67 104.078 36.1247 103.151 36.1247C101.686 36.1247 101.013 34.9807 101.013 33.4416V28.6348C101.013 27.0812 101.776 25.953 103.57 25.953C105.453 25.953 106.006 26.979 106.006 28.4439V29.3241H104.449V28.3127C104.449 27.6975 104.21 27.3401 103.597 27.3401C102.985 27.3401 102.714 27.7656 102.714 28.3661V33.7018C102.714 34.3023 102.962 34.7266 103.552 34.7266C104.105 34.7266 104.389 34.419 104.389 33.7747V32.0205H103.582V30.7015Z" fill="white"/>
</g>
<rect width="98" height="50" transform="translate(124 0.343994)" fill="#4C9F38"/>
<path d="M197.484 25.8664C197.484 23.7667 196.141 22.061 194.096 22.061C193.076 22.061 191.845 23.1802 191.176 23.8659C190.505 23.1772 189.359 22.0595 188.341 22.0595C186.301 22.0595 184.871 23.7615 184.871 25.8649C184.867 26.8672 185.256 27.8311 185.953 28.5511L191.184 33.7914L196.407 28.557L196.403 28.5533C197.099 27.8328 197.487 26.8687 197.484 25.8664Z" fill="white"/>
<path d="M175.214 42.3476H175.161C174.968 42.336 174.784 42.2593 174.64 42.1301C174.496 42.0008 174.4 41.8266 174.368 41.6358L171.711 26.1596L167.686 33.6212C167.6 33.7802 167.466 33.908 167.303 33.9866C167.141 34.0651 166.957 34.0903 166.78 34.0587C166.602 34.027 166.438 33.9401 166.313 33.8102C166.187 33.6804 166.106 33.5143 166.08 33.3355L164.371 21.3932L161.246 28.4145C161.178 28.5664 161.068 28.6955 160.929 28.7862C160.789 28.8769 160.627 28.9253 160.461 28.9257H148.311C148.092 28.9127 147.886 28.8167 147.736 28.6572C147.586 28.4977 147.502 28.2868 147.502 28.0676C147.502 27.8484 147.586 27.6374 147.736 27.4779C147.886 27.3184 148.092 27.2224 148.311 27.2095H159.903L164.015 17.9742C164.09 17.8041 164.219 17.663 164.381 17.5724C164.544 17.4817 164.732 17.4463 164.916 17.4716C165.101 17.4968 165.272 17.5814 165.404 17.7124C165.536 17.8434 165.622 18.0139 165.649 18.1981L167.411 30.5098L171.38 23.1504C171.465 22.9933 171.597 22.8667 171.757 22.788C171.918 22.7094 172.099 22.6827 172.275 22.7115C172.451 22.7404 172.614 22.8235 172.741 22.9492C172.868 23.0749 172.952 23.237 172.983 23.413L175.445 37.7445L184.41 7.95854C184.46 7.79286 184.559 7.64616 184.694 7.53763C184.829 7.42909 184.993 7.36378 185.166 7.35023C185.338 7.33669 185.511 7.37554 185.661 7.46171C185.811 7.54788 185.932 7.67735 186.007 7.83318L190.725 17.6146C190.776 17.7165 190.807 17.8276 190.815 17.9414C190.823 18.0553 190.809 18.1696 190.772 18.2777C190.735 18.3858 190.678 18.4855 190.602 18.5711C190.526 18.6566 190.435 18.7262 190.332 18.7758C190.229 18.8254 190.117 18.854 190.003 18.8599C189.889 18.8658 189.775 18.849 189.668 18.8104C189.56 18.7717 189.462 18.7121 189.378 18.6349C189.294 18.5577 189.226 18.4645 189.178 18.3608L185.419 10.5701L176.036 41.7357C175.983 41.9125 175.875 42.0675 175.727 42.1777C175.579 42.2879 175.399 42.3475 175.214 42.3476Z" fill="white"/>
<defs>
<clipPath id="clip0_430_93">
<rect width="124" height="50" fill="white" transform="translate(0 0.343994)"/>
</clipPath>
</defs>
</svg>
