<svg width="222" height="51" viewBox="0 0 222 51" fill="none" xmlns="http://www.w3.org/2000/svg">
<g clip-path="url(#clip0_430_277)">
<rect width="124" height="50" transform="translate(0 0.343994)" fill="#DDA63A"/>
<path d="M124 0.813049H0V50.813H124V0.813049Z" fill="#DDA63A"/>
<path d="M23.1879 31.5361H16.2947V30.4014C16.2947 28.5243 16.9953 27.8151 18.0642 26.7162L20.755 23.9869C22.9312 21.7546 23.4111 20.3363 23.4111 17.9252V15.5868C23.4111 12.1495 21.6751 10.5178 17.9166 10.5178C14.2301 10.5178 12.3478 12.3962 12.3478 15.762V18.6689H16.1844V15.6559C16.1844 14.2042 16.9209 13.7775 17.8075 13.7775C18.6172 13.7775 19.3178 14.0981 19.3178 15.5868V17.5712C19.3178 19.5568 19.1331 20.3363 17.7691 21.7176L15.4131 24.1275C13.124 26.4683 12.2759 28.0285 12.2759 30.4014V34.8327H23.1879V31.5361Z" fill="white"/>
<path d="M37.0834 19.2064H39.6688V20.5424H35.304V19.2064L37.9799 12.1375H35.573V10.8015H39.7742V12.1375L37.0834 19.2064Z" fill="white"/>
<path d="M40.8208 10.8015H44.888V12.1375H42.5246V14.9253H44.2134V16.247H42.5246V19.2064H44.888V20.5424H40.8208V10.8015Z" fill="white"/>
<path d="M47.6518 16.0706V20.5389H45.9468V10.8015H48.4268C50.1454 10.8015 50.7741 11.6203 50.7741 12.9849V14.2352C50.7741 15.284 50.3847 15.9038 49.4101 16.1171L51.0407 20.5424H49.2514L47.6518 16.0706ZM47.6518 12.1375V15.1696H48.2197C48.8025 15.1696 49.0567 14.8812 49.0567 14.3639V12.9277C49.0567 12.3961 48.8025 12.1375 48.2197 12.1375H47.6518Z" fill="white"/>
<path d="M51.8518 18.0288V13.3151C51.8518 11.7919 52.6293 10.6859 54.4236 10.6859C56.2178 10.6859 57.0102 11.7919 57.0102 13.3151V18.0288C57.0102 19.5377 56.2327 20.6581 54.4236 20.6581C52.6144 20.6581 51.8518 19.5377 51.8518 18.0288ZM55.304 18.2875V13.0564C55.304 12.4677 55.0349 12.0505 54.4223 12.0505C53.8098 12.0505 53.5543 12.4677 53.5543 13.0564V18.2875C53.5543 18.8762 53.8234 19.2934 54.4223 19.2934C55.0212 19.2934 55.304 18.8762 55.304 18.2875Z" fill="white"/>
<path d="M38.7487 30.5194H37.1032V34.8101H35.3994V25.0739H37.1032V29.1977H38.7487V25.0739H40.4673V34.816H38.7487V30.5194Z" fill="white"/>
<path d="M46.5357 25.0739V32.4442C46.5357 33.9531 45.8637 34.9304 44.1289 34.9304C42.3359 34.9304 41.5881 33.9531 41.5881 32.4442V25.0739H43.2919V32.6028C43.2919 33.1772 43.5312 33.5658 44.1289 33.5658C44.7266 33.5658 44.9671 33.1772 44.9671 32.6028V25.0739H46.5357Z" fill="white"/>
<path d="M49.0927 28.6947V34.816H47.6567V25.0739H49.332L51.1709 30.6636V25.0739H52.5907V34.816H51.0953L49.0927 28.6947Z" fill="white"/>
<path d="M56.2822 29.6136H58.7051V34.816H57.4788V33.7529C57.2544 34.4847 56.7757 34.9305 55.8494 34.9305C54.3837 34.9305 53.7117 33.8101 53.7117 32.3012V27.5887C53.7117 26.0655 54.4743 24.9583 56.2673 24.9583C58.1509 24.9583 58.7051 25.9642 58.7051 27.4015V28.2632H57.1502V27.274C57.1502 26.6709 56.9109 26.3265 56.2983 26.3265C55.6857 26.3265 55.4154 26.7424 55.4154 27.3324V32.5622C55.4154 33.151 55.6696 33.5682 56.2524 33.5682C56.8055 33.5682 57.0907 33.2666 57.0907 32.6338V30.908H56.2822V29.6136Z" fill="white"/>
<path d="M59.825 25.0739H63.8922V26.4099H61.53V29.1977H63.2188V30.5194H61.53V33.48H63.8922V34.816H59.825V25.0739Z" fill="white"/>
<path d="M66.6574 30.3466V34.816H64.9524V25.0739H67.4324C69.151 25.0739 69.7785 25.8927 69.7785 27.2573V28.5076C69.7785 29.5564 69.3904 30.1762 68.4145 30.3895L70.0438 34.816H68.257L66.6574 30.3466ZM66.6574 26.4135V29.4456H67.2253C67.8081 29.4456 68.0623 29.1583 68.0623 28.6411V27.2001C68.0623 26.6685 67.8143 26.4099 67.2253 26.4099L66.6574 26.4135Z" fill="white"/>
</g>
<rect width="98" height="50" transform="translate(124 0.343994)" fill="#DDA63A"/>
<path d="M166.633 42.141V43.241C166.631 43.2489 166.629 43.257 166.629 43.2652C166.629 43.2739 166.63 43.2826 166.633 43.291C166.638 43.4224 166.694 43.5468 166.788 43.6386C166.882 43.7304 167.008 43.7828 167.139 43.7851C167.139 43.7851 167.146 43.7851 167.149 43.7851H167.162H180.062C180.062 43.7851 180.069 43.7851 180.073 43.7851H180.084C180.22 43.7825 180.349 43.727 180.444 43.6306C180.539 43.5342 180.592 43.4044 180.593 43.2691C180.592 43.2679 180.592 43.2665 180.593 43.2652V42.0174C187.853 39.6376 193.292 33.7537 194.488 26.5829C194.488 26.5673 194.492 26.5532 194.495 26.5399C194.499 26.5162 194.501 26.4921 194.502 26.468C194.502 26.3995 194.489 26.3316 194.462 26.2683C194.436 26.205 194.398 26.1475 194.349 26.099C194.301 26.0506 194.243 26.0122 194.18 25.986C194.117 25.9598 194.049 25.9464 193.98 25.9465H152.874C152.806 25.9463 152.738 25.9597 152.674 25.9858C152.611 26.0119 152.553 26.0503 152.505 26.0987C152.456 26.1472 152.417 26.2047 152.391 26.2681C152.365 26.3315 152.351 26.3994 152.351 26.468L152.379 26.7025C153.635 33.9413 159.223 39.8581 166.633 42.141Z" fill="white"/>
<path d="M180.578 8.40427C180.408 8.64507 176.434 14.3625 180.666 18.9853C182.606 21.1071 182.438 22.9788 181.884 24.243H184.597C185.144 22.3768 184.919 20.0353 182.721 17.6289C179.605 14.2217 182.761 9.61764 182.808 9.5465C183.181 9.02112 182.981 8.34407 182.368 8.02822C181.755 7.71237 180.956 7.88202 180.582 8.40427" fill="white"/>
<path d="M173.707 24.243H176.421C176.968 22.376 176.742 20.0353 174.54 17.6288C171.422 14.2217 174.576 9.61919 174.626 9.54413C174.996 9.0211 174.8 8.34483 174.185 8.0282C173.57 7.71157 172.773 7.88122 172.401 8.40425C172.23 8.64427 168.257 14.3624 172.489 18.9853C174.429 21.1071 174.259 22.9795 173.707 24.243Z" fill="white"/>
<path d="M164.222 8.40427C164.05 8.64507 160.079 14.3624 164.31 18.9853C166.25 21.1079 166.082 22.9796 165.529 24.243H168.242C168.79 22.3776 168.564 20.0361 166.36 17.6289C163.243 14.2217 166.399 9.61764 166.449 9.54493C166.817 9.02112 166.621 8.34407 166.006 8.02822C165.39 7.71237 164.594 7.88124 164.222 8.40427Z" fill="white"/>
<defs>
<clipPath id="clip0_430_277">
<rect width="124" height="50" fill="white" transform="translate(0 0.343994)"/>
</clipPath>
</defs>
</svg>
