<svg xmlns="http://www.w3.org/2000/svg" width="321" height="284" viewBox="0 0 321 284" fill="none">
<g clip-path="url(#clip0_521_2916)">
<path d="M152.615 283.567C236.229 283.567 304.012 277.615 304.012 270.274C304.012 262.932 236.229 256.98 152.615 256.98C69.0007 256.98 1.21802 262.932 1.21802 270.274C1.21802 277.615 69.0007 283.567 152.615 283.567Z" fill="#B75400"/>
<path opacity="0.5" d="M152.615 283.567C236.229 283.567 304.012 277.615 304.012 270.274C304.012 262.932 236.229 256.98 152.615 256.98C69.0007 256.98 1.21802 262.932 1.21802 270.274C1.21802 277.615 69.0007 283.567 152.615 283.567Z" fill="white"/>
<path d="M315.462 138.8V138.756H315.409V138.711C314.177 138.587 301.424 137.497 289.788 143.541C294.928 137.084 297.299 128.852 296.381 120.65C293.572 92.5559 267.064 76.4795 265.017 75.2742V75.283H264.955H264.893C262.846 76.4883 236.338 92.5647 233.529 120.659C232.929 126.097 233.766 131.598 235.957 136.611C221.033 127.687 203.627 129.193 202.023 129.353V129.3V129.362H201.961V129.406C201.172 131.223 191.211 155.178 203.175 175.535C213.881 193.738 236.329 188.926 242.427 187.215C247.549 192.595 256.89 204.843 261.038 225.74H255.224L257.927 265.373H271.008L273.88 225.794H267.029C270.168 211.629 275.83 198.144 283.743 185.984C289.85 187.508 306.369 190.078 314.514 176.235C324.192 159.706 316.109 140.28 315.462 138.8ZM264.539 138.649L250.713 119.444C250.684 119.405 250.663 119.36 250.651 119.312C250.639 119.265 250.637 119.215 250.644 119.166C250.651 119.118 250.668 119.071 250.694 119.029C250.72 118.987 250.753 118.951 250.793 118.922C250.874 118.862 250.976 118.837 251.075 118.852C251.175 118.867 251.265 118.92 251.325 119.001L264.565 137.391V117.938L250.74 98.7419C250.68 98.6607 250.655 98.5592 250.67 98.4595C250.685 98.3599 250.739 98.2702 250.82 98.2101C250.903 98.1536 251.004 98.1312 251.103 98.1477C251.202 98.1643 251.291 98.2183 251.351 98.2987L264.592 116.688V88.3285C264.592 88.2796 264.601 88.2312 264.62 88.1861C264.639 88.1409 264.666 88.0999 264.701 88.0653C264.735 88.0308 264.776 88.0033 264.822 87.9846C264.867 87.9659 264.915 87.9563 264.964 87.9563C265.063 87.9563 265.157 87.9955 265.227 88.0653C265.297 88.1351 265.336 88.2298 265.336 88.3285V115.705L279.693 97.5011C279.754 97.4224 279.844 97.3711 279.943 97.3587C280.042 97.3462 280.142 97.3735 280.221 97.4346C280.299 97.4958 280.351 97.5856 280.363 97.6845C280.376 97.7834 280.348 97.8832 280.287 97.962L265.336 116.919V136.416L279.693 118.204C279.756 118.126 279.847 118.075 279.946 118.064C280.046 118.052 280.146 118.08 280.225 118.142C280.263 118.172 280.296 118.209 280.319 118.252C280.343 118.295 280.359 118.342 280.364 118.39C280.37 118.439 280.366 118.488 280.353 118.535C280.34 118.582 280.317 118.626 280.287 118.665L265.336 137.63V154.159L279.693 135.955C279.754 135.876 279.844 135.825 279.943 135.813C280.042 135.8 280.142 135.828 280.221 135.889C280.299 135.95 280.351 136.04 280.363 136.139C280.376 136.237 280.348 136.337 280.287 136.416L265.336 155.373V155.736H264.131L250.758 137.125C250.698 137.044 250.673 136.942 250.688 136.843C250.703 136.743 250.756 136.653 250.837 136.593C250.92 136.537 251.022 136.514 251.121 136.531C251.22 136.547 251.309 136.601 251.369 136.682L264.565 155.045V138.614L264.539 138.649ZM242.569 185.523L241.213 183.662L221.715 178.238C221.637 178.211 221.572 178.157 221.533 178.084C221.494 178.012 221.483 177.928 221.503 177.848C221.525 177.767 221.579 177.698 221.652 177.657C221.725 177.616 221.812 177.604 221.893 177.626L240.575 182.837L232.448 171.724L212.95 166.3C212.87 166.277 212.801 166.224 212.76 166.151C212.718 166.078 212.707 165.991 212.729 165.91C212.755 165.832 212.81 165.767 212.882 165.728C212.955 165.688 213.039 165.678 213.119 165.697L231.81 170.909L222.203 157.757L202.705 152.333C202.666 152.323 202.629 152.305 202.597 152.28C202.564 152.255 202.537 152.224 202.517 152.188C202.498 152.152 202.485 152.113 202.481 152.072C202.477 152.032 202.481 151.991 202.493 151.952C202.503 151.912 202.521 151.875 202.546 151.842C202.571 151.81 202.602 151.782 202.637 151.762C202.673 151.741 202.712 151.728 202.752 151.722C202.793 151.717 202.834 151.72 202.874 151.73L221.565 156.941L208.049 138.454C208.001 138.386 207.981 138.301 207.994 138.218C208.007 138.135 208.053 138.061 208.12 138.011C208.153 137.986 208.191 137.968 208.231 137.958C208.271 137.948 208.312 137.946 208.353 137.953C208.394 137.959 208.433 137.974 208.467 137.996C208.502 138.019 208.532 138.048 208.555 138.082L222.54 157.207L222.478 138.251C222.48 138.167 222.514 138.087 222.573 138.027C222.633 137.968 222.713 137.934 222.797 137.931C222.88 137.934 222.959 137.968 223.016 138.028C223.074 138.088 223.107 138.167 223.107 138.251L223.249 158.04L232.855 171.183L232.714 152.227C232.706 152.181 232.708 152.134 232.721 152.089C232.733 152.045 232.755 152.003 232.785 151.968C232.815 151.932 232.852 151.904 232.894 151.884C232.936 151.865 232.982 151.855 233.028 151.855C233.075 151.855 233.12 151.865 233.163 151.884C233.205 151.904 233.242 151.932 233.272 151.968C233.302 152.003 233.324 152.045 233.336 152.089C233.348 152.134 233.351 152.181 233.343 152.227L233.485 172.025L241.603 183.13L241.461 164.173C241.463 164.09 241.498 164.011 241.557 163.953C241.617 163.895 241.697 163.863 241.78 163.863C241.862 163.863 241.941 163.896 241.999 163.954C242.057 164.012 242.09 164.091 242.09 164.173L242.232 183.972L243.393 185.558L242.569 185.523ZM244.784 185.523C247.62 181.207 255.809 167.036 250.917 153.396C254.72 155.905 258.789 157.986 263.05 159.6V221.141C258.556 202.282 250.102 191.009 244.944 185.523H244.784ZM266.054 217.348V159.884C270.109 158.411 273.997 156.516 277.655 154.229C269.847 166.743 278.594 181.198 280.899 184.61C274.339 194.718 269.335 205.753 266.054 217.348ZM314.726 157.358L298.942 161.789L291.144 172.424L306.307 168.197C306.34 168.186 306.374 168.182 306.408 168.185C306.442 168.188 306.476 168.199 306.506 168.215C306.536 168.232 306.562 168.255 306.582 168.282C306.603 168.309 306.618 168.341 306.626 168.374C306.643 168.439 306.633 168.507 306.6 168.565C306.567 168.623 306.513 168.665 306.449 168.684L290.665 173.115L284.071 182.128L299.235 177.901C299.3 177.885 299.368 177.894 299.426 177.927C299.484 177.96 299.527 178.014 299.545 178.078C299.562 178.144 299.553 178.214 299.52 178.273C299.487 178.332 299.433 178.377 299.368 178.397L283.584 182.829L282.751 183.963C282.6 183.874 282.458 183.795 282.317 183.697L282.786 183.05L282.91 166.991C282.903 166.954 282.905 166.916 282.914 166.879C282.924 166.843 282.941 166.809 282.965 166.78C282.989 166.751 283.019 166.727 283.054 166.711C283.088 166.695 283.125 166.687 283.163 166.687C283.201 166.687 283.238 166.695 283.272 166.711C283.306 166.727 283.337 166.751 283.361 166.78C283.385 166.809 283.402 166.843 283.412 166.879C283.421 166.916 283.423 166.954 283.416 166.991L283.309 182.377L289.832 173.319L289.947 157.26C289.947 157.227 289.954 157.194 289.967 157.163C289.98 157.133 289.999 157.105 290.023 157.082C290.047 157.059 290.075 157.041 290.106 157.029C290.138 157.017 290.171 157.011 290.204 157.012C290.238 157.012 290.271 157.019 290.302 157.032C290.334 157.045 290.362 157.064 290.386 157.088C290.41 157.111 290.429 157.14 290.442 157.171C290.455 157.202 290.461 157.236 290.461 157.269L290.346 172.646L298.145 162.011L298.26 145.952C298.26 145.918 298.267 145.885 298.28 145.854C298.293 145.822 298.312 145.794 298.335 145.77C298.359 145.746 298.388 145.727 298.419 145.715C298.45 145.702 298.483 145.695 298.517 145.695C298.55 145.695 298.583 145.702 298.614 145.715C298.645 145.728 298.673 145.747 298.696 145.771C298.719 145.795 298.737 145.823 298.749 145.854C298.761 145.885 298.766 145.919 298.765 145.952L298.659 161.328L310.003 145.81C310.043 145.757 310.103 145.722 310.169 145.712C310.235 145.702 310.303 145.718 310.357 145.757C310.385 145.776 310.408 145.801 310.425 145.83C310.443 145.858 310.455 145.89 310.46 145.923C310.465 145.956 310.463 145.99 310.454 146.022C310.446 146.055 310.431 146.085 310.41 146.112L299.448 161.116L314.611 156.888C314.676 156.872 314.744 156.881 314.802 156.914C314.86 156.947 314.903 157.001 314.921 157.065C314.929 157.098 314.93 157.131 314.924 157.163C314.919 157.196 314.906 157.227 314.888 157.254C314.87 157.282 314.846 157.305 314.818 157.323C314.79 157.341 314.759 157.353 314.726 157.358Z" fill="#212121"/>
<path d="M228.584 0.906738H91.748C88.4442 0.906738 85.7659 3.58503 85.7659 6.88887V263.093C85.7659 266.396 88.4442 269.075 91.748 269.075H228.584C231.888 269.075 234.566 266.396 234.566 263.093V6.88887C234.566 3.58503 231.888 0.906738 228.584 0.906738Z" fill="#212121" stroke="#212121" stroke-width="0.865929" stroke-linecap="round" stroke-linejoin="round"/>
<path d="M223.86 0.906738H87.0244C83.7205 0.906738 81.0422 3.58503 81.0422 6.88887V263.093C81.0422 266.396 83.7205 269.075 87.0244 269.075H223.86C227.164 269.075 229.842 266.396 229.842 263.093V6.88887C229.842 3.58503 227.164 0.906738 223.86 0.906738Z" fill="white"/>
<path d="M229.842 102.099L98.9976 269.085H223.869C225.454 269.083 226.973 268.451 228.093 267.33C229.213 266.208 229.842 264.688 229.842 263.103V102.099Z" fill="#B75400"/>
<path opacity="0.5" d="M229.842 102.099L98.9976 269.085H223.869C225.454 269.083 226.973 268.451 228.093 267.33C229.213 266.208 229.842 264.688 229.842 263.103V102.099Z" fill="white"/>
<path d="M223.86 0.906738H87.0244C83.7205 0.906738 81.0422 3.58503 81.0422 6.88887V263.093C81.0422 266.396 83.7205 269.075 87.0244 269.075H223.86C227.164 269.075 229.842 266.396 229.842 263.093V6.88887C229.842 3.58503 227.164 0.906738 223.86 0.906738Z" stroke="#212121" stroke-width="0.865929" stroke-linecap="round" stroke-linejoin="round"/>
<path d="M165.758 16.9299H147.236C146.73 16.9299 146.246 16.7292 145.888 16.3718C145.531 16.0145 145.33 15.5299 145.33 15.0245C145.33 14.7747 145.38 14.5274 145.476 14.2967C145.571 14.066 145.712 13.8565 145.889 13.6803C146.066 13.5041 146.276 13.3646 146.507 13.2698C146.738 13.175 146.986 13.1268 147.236 13.128H165.758C166.261 13.128 166.744 13.3278 167.099 13.6834C167.455 14.0391 167.655 14.5215 167.655 15.0245C167.656 15.2743 167.608 15.5219 167.513 15.753C167.418 15.9841 167.279 16.1943 167.102 16.3713C166.926 16.5484 166.717 16.6889 166.486 16.7847C166.255 16.8806 166.008 16.9299 165.758 16.9299Z" fill="#212121" stroke="#212121" stroke-width="0.865929" stroke-linecap="round" stroke-linejoin="round"/>
<path d="M220.439 245.111H90.4275V17.1514H121.242L124.707 20.0228C125.917 21.03 127.441 21.5818 129.014 21.5826H183.385C185.018 21.576 186.592 20.9777 187.817 19.8987L190.954 17.1514H220.439V245.111Z" fill="#FAFAFA" stroke="#212121" stroke-width="0.865929" stroke-linecap="round" stroke-linejoin="round"/>
<path d="M114.835 195.96H196.05" stroke="#212121" stroke-width="0.865929" stroke-linecap="round" stroke-linejoin="round"/>
<path d="M114.835 206.648H196.05" stroke="#212121" stroke-width="0.865929" stroke-linecap="round" stroke-linejoin="round"/>
<path d="M114.835 217.336H196.05" stroke="#212121" stroke-width="0.865929" stroke-linecap="round" stroke-linejoin="round"/>
<path d="M122.332 96.7272C117.228 104.123 114.749 113.015 115.292 121.984C115.835 130.954 119.368 139.482 125.326 146.208C131.285 152.934 139.326 157.469 148.164 159.089C157.003 160.709 166.129 159.321 174.086 155.145C182.043 150.97 188.37 144.248 192.059 136.054C195.747 127.861 196.584 118.667 194.434 109.942C192.284 101.217 187.273 93.4645 180.2 87.922C173.127 82.3795 164.401 79.367 155.416 79.3657C152.952 79.3659 150.493 79.5883 148.069 80.0304" stroke="#212121" stroke-width="0.865929" stroke-linecap="round" stroke-linejoin="round"/>
<path d="M129.183 89.1321C127.833 90.3007 126.56 91.5559 125.372 92.8897" stroke="white" stroke-width="0.865929" stroke-linecap="round" stroke-linejoin="round"/>
<path d="M186.818 132.928C194.198 115.6 186.134 95.5697 168.806 88.1893C151.478 80.809 131.447 88.8733 124.067 106.201C116.687 123.529 124.751 143.56 142.079 150.94C159.407 158.32 179.437 150.256 186.818 132.928Z" fill="#B75400"/>
<path d="M166.829 107.924V108.154H167.058H169.267C171.574 108.154 173.455 110.003 173.455 112.252V133.887C173.455 136.136 171.574 137.985 169.267 137.985H142.763C140.456 137.985 138.575 136.136 138.575 133.887V112.252C138.575 110.003 140.456 108.154 142.763 108.154H144.972H145.201V107.924V103.597C145.201 97.7569 150.041 93.0088 156.015 93.0088C161.989 93.0088 166.829 97.7569 166.829 103.597V107.924ZM162.862 108.154H163.091V107.924V103.597C163.091 99.7663 159.914 96.6606 156.015 96.6606C152.116 96.6606 148.939 99.7663 148.939 103.597V107.924V108.154H149.168H162.862ZM151.368 123.069C151.368 125.581 153.463 127.626 156.015 127.626C158.567 127.626 160.662 125.581 160.662 123.069C160.662 120.558 158.567 118.513 156.015 118.513C153.463 118.513 151.368 120.558 151.368 123.069Z" fill="white" stroke="#212121" stroke-width="0.458942"/>
<path d="M187.852 19.8987C186.627 20.9777 185.053 21.576 183.421 21.5826H129.032C127.458 21.5818 125.934 21.03 124.725 20.0228L121.26 17.1514H90.4275V40.4684H220.439V17.1514H190.989L187.852 19.8987Z" fill="#B75400" stroke="#212121" stroke-width="0.865929" stroke-linecap="round" stroke-linejoin="round"/>
<path d="M159.599 252.139C159.601 251.553 159.428 250.979 159.104 250.491C158.779 250.003 158.317 249.622 157.776 249.397C157.234 249.172 156.638 249.112 156.063 249.226C155.488 249.34 154.96 249.622 154.546 250.037C154.131 250.451 153.849 250.98 153.735 251.555C153.621 252.13 153.681 252.726 153.906 253.267C154.131 253.808 154.512 254.27 155 254.595C155.488 254.919 156.061 255.092 156.648 255.09C157.43 255.088 158.179 254.776 158.732 254.223C159.285 253.67 159.596 252.921 159.599 252.139Z" fill="#212121" stroke="#212121" stroke-width="0.865929" stroke-linecap="round" stroke-linejoin="round"/>
<path d="M43.9705 161.479L32.3785 265.169C32.3785 265.169 23.8794 272.56 24.6238 275.547C25.3683 278.533 35.179 273.774 36.5349 271.311C37.4972 269.26 38.1827 267.09 38.5733 264.859L62.9804 186.869L81.751 270.504C81.751 270.504 89.7272 277.053 94.1584 276.832C98.5896 276.61 97.0121 274.864 94.4863 271.665C91.9605 268.466 86.2443 266.64 86.2443 266.64L83.426 158.846L43.9705 161.479Z" fill="#212121" stroke="#212121" stroke-width="0.865929" stroke-linecap="round" stroke-linejoin="round"/>
<path d="M82.7898 157.032L43.8455 159.012L44.1154 164.323L83.0598 162.343L82.7898 157.032Z" fill="#212121" stroke="#212121" stroke-width="0.865929" stroke-linecap="round" stroke-linejoin="round"/>
<path d="M68.0055 160.406C68.0675 161.726 66.3925 162.878 64.2478 162.993C62.1031 163.109 60.2952 162.134 60.2952 160.804C60.2952 159.475 61.917 158.332 64.0528 158.225C66.1887 158.119 67.9346 159.094 68.0055 160.406Z" fill="white"/>
<path d="M61.3319 105.92L46.6912 110.209L48.508 159.147L82.8498 158.297L78.5073 107.71L61.3319 105.92Z" fill="white" stroke="#212121" stroke-width="0.865929" stroke-linecap="round" stroke-linejoin="round"/>
<path d="M54.9243 106.469L52.9568 189.98L34.3103 180.949L42.508 154.575L36.9159 110.041L54.9243 106.469Z" fill="#B75400" stroke="#212121" stroke-width="0.865929" stroke-linecap="round" stroke-linejoin="round"/>
<path d="M69.7512 105.716L80.1734 188.597L97.8185 177.723L86.9886 152.315L88.0344 107.444L69.7512 105.716Z" fill="#B75400" stroke="#212121" stroke-width="0.865929" stroke-linecap="round" stroke-linejoin="round"/>
<path d="M58.6555 115.819L61.5624 120.552L59.2404 153.502L64.7529 160.025L67.6066 152.191L63.1931 120.614L65.9138 116.041L61.9612 110.918L58.6555 115.819Z" fill="#212121" stroke="#212121" stroke-width="0.865929" stroke-linecap="round" stroke-linejoin="round"/>
<path d="M62.2537 115.19L56.7678 119.32L52.3721 108.596L54.8447 104.768L68.2713 104.085L71.444 108.366L68.8296 118.114L62.2537 115.19Z" fill="white" stroke="#212121" stroke-width="0.865929" stroke-linecap="round" stroke-linejoin="round"/>
<path d="M55.9614 100.646L57.1933 107.462L62.2538 115.19L66.8888 106.079L66.5963 100.327L55.9614 100.646Z" fill="white" stroke="#212121" stroke-width="0.865929" stroke-linecap="round" stroke-linejoin="round"/>
<path d="M36.9161 110.041L12.0481 140.146L28.5765 159.715L35.2322 155.39L27.061 138.72L39.2557 129.893L36.9161 110.041Z" fill="#B75400" stroke="#212121" stroke-width="0.865929" stroke-linecap="round" stroke-linejoin="round"/>
<path d="M35.2321 155.39L36.2247 157.552L30.6237 160.725L29.8704 158.988L35.2321 155.39Z" fill="white" stroke="#212121" stroke-width="0.865929" stroke-linecap="round" stroke-linejoin="round"/>
<path d="M36.2249 157.552L41.9323 165.032L40.0534 167.345L38.6886 166.751L35.9235 169.109C35.9235 169.109 33.9029 168.541 33.6459 167.894C33.3889 167.248 30.6504 165.599 30.5884 164.5C30.5263 163.401 30.5884 160.725 30.5884 160.725L36.2249 157.552Z" fill="white" stroke="#212121" stroke-width="0.865929" stroke-linecap="round" stroke-linejoin="round"/>
<path d="M101.887 113.32C102.223 112.441 102.297 111.483 102.099 110.564C101.692 109.509 100.788 105.858 100.965 104.652C101.142 103.447 102.968 101.692 103.127 100.132C103.287 98.5727 103.127 97.1458 103.127 96.3039C103.142 96.0734 103.231 95.8539 103.38 95.6779C103.53 95.5019 103.732 95.3789 103.957 95.3271C104.182 95.2753 104.418 95.2976 104.629 95.3905C104.841 95.4835 105.016 95.6422 105.13 95.843C106.016 96.8711 106.548 97.9257 106.123 99.0158C105.833 100.235 105.696 101.485 105.715 102.738C105.715 102.738 107.133 104.697 107.913 105.973C108.693 107.249 108.622 110.59 108.099 111.928C107.612 112.942 106.924 113.846 106.079 114.587L106.167 116.891L101.887 113.32Z" fill="white" stroke="#212121" stroke-width="0.865929" stroke-linecap="round" stroke-linejoin="round"/>
<path d="M104.474 100.895C104.474 100.895 103.854 102.72 104.944 103.137C106.034 103.553 110.492 104.174 110.536 102.738C110.581 101.302 110.669 100.585 109.951 100.62C109.233 100.655 105.892 100.62 105.892 100.62C105.892 100.62 104.341 100.54 104.474 100.895Z" fill="white" stroke="#212121" stroke-width="0.865929" stroke-linecap="round" stroke-linejoin="round"/>
<path d="M104.98 109.846C104.98 109.846 104.536 111.202 105.325 111.512C106.114 111.822 109.322 112.292 109.349 111.219C109.375 110.147 109.437 109.615 108.923 109.642C108.409 109.669 105.999 109.642 105.999 109.642C105.999 109.642 104.882 109.562 104.98 109.846Z" fill="white" stroke="#212121" stroke-width="0.865929" stroke-linecap="round" stroke-linejoin="round"/>
<path d="M104.386 106.948C104.386 106.948 103.872 108.525 104.784 108.889C105.697 109.252 109.411 109.775 109.446 108.552C109.482 107.329 109.552 106.691 108.95 106.717C108.347 106.744 105.564 106.717 105.564 106.717C105.564 106.717 104.27 106.646 104.386 106.948Z" fill="white" stroke="#212121" stroke-width="0.865929" stroke-linecap="round" stroke-linejoin="round"/>
<path d="M104.04 104.138C104.04 104.138 103.42 105.964 104.519 106.38C105.618 106.797 110.058 107.417 110.102 105.982C110.146 104.546 110.235 103.828 109.517 103.863C108.799 103.899 105.458 103.863 105.458 103.863C105.458 103.863 103.907 103.793 104.04 104.138Z" fill="white" stroke="#212121" stroke-width="0.865929" stroke-linecap="round" stroke-linejoin="round"/>
<path d="M101.381 115.137L102.073 112.354L106.876 115.216L106.07 118.238L101.381 115.137Z" fill="white" stroke="#212121" stroke-width="0.865929" stroke-linecap="round" stroke-linejoin="round"/>
<path d="M88.0344 107.444L97.2336 127.021L101.753 114.427L106.185 118.646L101.647 141.99C101.506 142.708 101.157 143.37 100.645 143.893C100.132 144.417 99.4777 144.779 98.762 144.935C98.0464 145.091 97.3007 145.035 96.6166 144.773C95.9325 144.511 95.3399 144.055 94.9116 143.461L87.5647 133.207L88.0344 107.444Z" fill="#B75400" stroke="#212121" stroke-width="0.865929" stroke-linecap="round" stroke-linejoin="round"/>
<path d="M51.6809 92.6881C51.6809 92.6881 49.8197 90.7029 49.5805 92.1563C49.3412 93.6097 50.0945 96.1178 51.2643 97.0129C52.4342 97.908 53.4622 96.428 53.4622 96.428L51.6809 92.6881Z" fill="white" stroke="#212121" stroke-width="0.865929" stroke-linecap="round" stroke-linejoin="round"/>
<path d="M69.2728 91.7928C69.2728 91.7928 70.9124 89.6304 71.3112 91.0484C71.71 92.4663 71.196 95.0453 70.1236 96.0556C69.0513 97.066 67.8726 95.6923 67.8726 95.6923L69.2728 91.7928Z" fill="white" stroke="#212121" stroke-width="0.865929" stroke-linecap="round" stroke-linejoin="round"/>
<path d="M52.4253 94.7264L50.6528 90.9776C49.2262 88.9697 48.2387 86.6837 47.7548 84.2687C46.8685 80.1565 48.3308 76.7356 50.1919 75.681C51.2379 75.0549 52.4728 74.8224 53.6749 75.0252C53.6749 75.0252 54.0294 72.6146 59.8786 70.594C65.7278 68.5734 72.091 72.2158 71.9935 73.492C71.896 74.7682 70.3362 75.3354 70.3362 75.3354C70.3362 75.3354 74.8915 77.0192 73.2431 79.1728C72.2266 80.4883 70.9111 81.5426 69.4057 82.2481C69.736 83.334 70.0053 84.4377 70.2121 85.5537C70.4426 86.9806 69.1575 93.1134 69.1575 93.1134L66.0113 84.4903L56.1386 84.9954C56.1386 84.9954 55.5537 89.1785 54.5079 90.6674C53.8404 91.7975 53.4685 93.0777 53.4267 94.3896C53.4267 94.3896 52.9659 95.9671 52.4253 94.7264Z" fill="#212121" stroke="#212121" stroke-width="0.865929" stroke-linecap="round" stroke-linejoin="round"/>
<path d="M54.1799 79.146C54.163 81.7197 53.9764 84.2894 53.6215 86.8386C53.408 88.257 52.6752 89.5456 51.5654 90.4544C51.5654 90.4544 52.8239 96.2948 54.4191 99.4055C56.0144 102.516 59.3289 105.069 62.67 104.723C66.0112 104.377 68.6788 100.584 68.9978 97.376C69.3169 94.1678 67.7482 82.3099 67.7482 82.3099C67.7482 82.3099 57.3083 84.1444 54.1799 79.146Z" fill="white" stroke="#212121" stroke-width="0.865929" stroke-linecap="round" stroke-linejoin="round"/>
<path d="M55.0664 91.1368C55.5986 90.8218 56.1994 90.6411 56.817 90.6102C57.4346 90.5793 58.0504 90.6992 58.6114 90.9595" stroke="#212121" stroke-width="0.865929" stroke-linecap="round" stroke-linejoin="round"/>
<path d="M54.9246 88.4781C54.9246 88.4781 55.1284 86.7057 58.0884 86.5461" stroke="#212121" stroke-width="0.865929" stroke-linecap="round" stroke-linejoin="round"/>
<path d="M62.8032 86.1568C63.473 85.8824 64.213 85.8299 64.9149 86.0069C65.6167 86.1839 66.2432 86.5813 66.7027 87.1405" stroke="#212121" stroke-width="0.865929" stroke-linecap="round" stroke-linejoin="round"/>
<path d="M61.7661 89.019C61.7661 89.019 62.2358 92.564 62.2624 92.9983C62.289 93.4325 63.769 93.5123 63.3702 94.4163C62.9714 95.3202 61.6864 96.2774 60.614 95.595" stroke="#212121" stroke-width="0.865929" stroke-linecap="round" stroke-linejoin="round"/>
<path d="M63.4324 98.564C63.4324 98.564 62.3069 99.654 60.0381 98.7324" stroke="#212121" stroke-width="0.865929" stroke-linecap="round" stroke-linejoin="round"/>
<path d="M65.6744 90.1533C65.6744 90.8091 65.3997 91.3585 64.992 91.3763C64.5844 91.394 64.2299 90.88 64.1944 90.233C64.159 89.5861 64.4692 89.0366 64.8768 89.01C65.2845 88.9834 65.6124 89.5063 65.6744 90.1533Z" fill="#212121"/>
</g>
<defs>
<clipPath id="clip0_521_2916">
<rect width="319.382" height="283.395" fill="white" transform="translate(0.809082 0.375977)"/>
</clipPath>
</defs>
</svg>
