<svg width="222" height="51" viewBox="0 0 222 51" fill="none" xmlns="http://www.w3.org/2000/svg">
<g clip-path="url(#clip0_430_1340)">
<path d="M124 0.343994H0V50.344H124V0.343994Z" fill="#56C02B"/>
<path d="M39.6255 10.7228V20.8635H43.3641V19.4722H41.3305V10.7228H39.6255Z" fill="white"/>
<path d="M45.9953 10.7228H44.2915V20.8623H45.9953V10.7228Z" fill="white"/>
<path d="M47.1162 20.8635H48.82V16.3908H50.525V15.0157H48.82V12.1141H51.1053V10.7228H47.1162V20.8635Z" fill="white"/>
<path d="M52.0044 20.8635H56.0691V19.4722H53.7082V16.3908H55.3983V15.0157H53.7082V12.1141H56.0691V10.7228H52.0044V20.8635Z" fill="white"/>
<path d="M9.07935 15.26V19.6471H9.11655L12.0653 16.5868H12.1037V35.7249H16.3061V10.7228H12.9506L9.07935 15.26Z" fill="white"/>
<path d="M26.3004 18.6526C24.6413 18.6526 23.4249 19.2416 22.7602 20.3886H22.723V14.1526H29.951V10.7253H18.889V24.8117H22.723V24.2562C22.723 22.783 23.3864 21.9708 24.5657 21.9708C25.8578 21.9708 26.3748 22.8562 26.3748 24.2214V30.2689C26.3748 31.5945 25.895 32.517 24.6041 32.517C23.167 32.517 22.6523 31.5585 22.6523 30.0829V26.9494H18.8083V29.7903C18.8083 33.5872 20.3199 36.02 24.5979 36.02C28.8387 36.02 30.571 33.7707 30.571 30.3049V24.183C30.571 20.2373 28.5436 18.6526 26.2942 18.6526" fill="white"/>
<path d="M39.6179 33.1197V28.2353C39.6179 26.6556 40.3929 25.5073 42.181 25.5073C43.9691 25.5073 44.7577 26.6543 44.7577 28.2353V33.1197C44.7577 34.6846 43.984 35.8477 42.181 35.8477C40.378 35.8477 39.6179 34.6858 39.6179 33.1197ZM43.0589 33.3875V27.9662C43.0589 27.3549 42.7911 26.9234 42.181 26.9234C41.5709 26.9234 41.313 27.3549 41.313 27.9662V33.3875C41.313 33.9988 41.5808 34.4316 42.181 34.4316C42.7812 34.4316 43.0589 33.9988 43.0589 33.3875Z" fill="white"/>
<path d="M47.1497 29.3823V35.7262H45.72V25.6276H47.389L49.2205 31.4209V25.6276H50.6353V35.7262H49.1473L47.1497 29.3823Z" fill="white"/>
<path d="M54.3169 25.6276H56.0145V34.3411H58.0419V35.7262H54.3169V25.6276Z" fill="white"/>
<path d="M58.5417 35.7262L60.4489 25.6276H62.3857L64.3077 35.7262H62.5643L62.2481 33.8798H60.4489L60.1525 35.7262H58.5417ZM60.6733 32.5245H62.0286L61.3578 28.4734H61.3429L60.6733 32.5245Z" fill="white"/>
<path d="M66.4317 29.3823V35.7262H65.0007V25.6276H66.6698L68.5012 31.4209V25.6276H69.9161V35.7262H68.4281L66.4317 29.3823Z" fill="white"/>
<path d="M76.0976 28.3395V33.0168C76.0976 34.5643 75.4578 35.7262 73.6399 35.7262H71.0186V25.6276H73.6399C75.4578 25.6276 76.0976 26.7746 76.0976 28.3395ZM73.4316 34.3411C74.1297 34.3411 74.4 33.9244 74.4 33.3144V28.0258C74.4 27.4293 74.1297 27.0127 73.4316 27.0127H72.7161V34.3411H73.4316Z" fill="white"/>
</g>
<rect width="98" height="50" transform="translate(124 0.343994)" fill="#56C02B"/>
<path d="M166.989 28.2035C167.012 28.2035 167.034 28.2079 167.054 28.2164C167.075 28.2249 167.094 28.2374 167.109 28.2532C167.125 28.2689 167.138 28.2876 167.146 28.3082C167.155 28.3288 167.159 28.3509 167.159 28.3731V33.9627C167.159 33.985 167.155 34.0071 167.146 34.0277C167.138 34.0483 167.125 34.0671 167.109 34.0828C167.094 34.0986 167.075 34.1111 167.054 34.1196C167.034 34.1281 167.012 34.1324 166.989 34.1323H164.728C164.706 34.1324 164.684 34.1281 164.663 34.1196C164.642 34.1111 164.623 34.0986 164.608 34.0829C164.592 34.0671 164.579 34.0484 164.571 34.0277C164.562 34.0071 164.558 33.985 164.558 33.9627V28.3731C164.558 28.3508 164.562 28.3287 164.571 28.308C164.579 28.2874 164.592 28.2687 164.608 28.2529C164.623 28.2371 164.642 28.2247 164.663 28.2162C164.684 28.2077 164.706 28.2034 164.728 28.2035H166.989Z" fill="white"/>
<path d="M191.829 36.5316H154.554C154.508 36.5329 154.465 36.5519 154.433 36.5848C154.401 36.6176 154.384 36.6617 154.384 36.7074V38.9856C154.384 39.0303 154.403 39.073 154.435 39.1043C154.466 39.1357 154.509 39.1531 154.554 39.1529H191.829C191.873 39.1528 191.916 39.1352 191.948 39.1039C191.98 39.0727 191.999 39.0303 192 38.9856V36.7074C192 36.6616 191.982 36.6177 191.95 36.5849C191.918 36.5521 191.874 36.533 191.829 36.5316Z" fill="white"/>
<path d="M191.829 41.0597H154.554C154.51 41.0603 154.468 41.0782 154.436 41.1096C154.405 41.141 154.387 41.1834 154.386 41.2278V43.5129C154.387 43.5576 154.405 43.6003 154.437 43.6317C154.469 43.6631 154.512 43.6808 154.557 43.681H191.829C191.874 43.6806 191.916 43.6629 191.948 43.6315C191.98 43.6002 191.999 43.5577 192 43.5129V41.2278C191.999 41.183 191.981 41.1404 191.949 41.109C191.917 41.0776 191.874 41.0599 191.829 41.0597Z" fill="white"/>
<path d="M184.736 22.0167C184.27 21.6521 183.027 20.8016 181.512 20.8016C180.428 20.8016 179.42 21.2284 178.518 22.0735C178.487 22.1032 178.462 22.1389 178.445 22.1785C178.428 22.2181 178.419 22.2607 178.418 22.3038V22.5141C178.416 22.5618 178.424 22.6095 178.443 22.6536C178.461 22.6976 178.489 22.737 178.525 22.7689C178.561 22.7991 178.603 22.8204 178.649 22.831C178.695 22.8417 178.742 22.8415 178.788 22.8303C178.811 22.8265 178.835 22.8206 178.857 22.8127C178.927 22.7873 178.991 22.7469 179.044 22.6945C179.239 22.5632 179.773 22.3874 180.537 22.3874C181.326 22.3874 182.878 22.5993 184.375 23.9994L184.409 24.0301C184.452 24.0731 184.502 24.1072 184.558 24.1305C184.613 24.1537 184.673 24.1655 184.733 24.1652C184.792 24.1654 184.85 24.1538 184.904 24.1311C184.959 24.1084 185.008 24.0751 185.049 24.0331L185.079 24.0017C186.587 22.6016 188.136 22.3897 188.925 22.3897C189.693 22.3897 190.23 22.5694 190.422 22.6968C190.48 22.7534 190.551 22.7964 190.628 22.8227C190.7 22.8398 190.775 22.8393 190.846 22.8211C190.914 22.8027 190.973 22.7626 191.015 22.7072C191.058 22.6517 191.081 22.5839 191.081 22.5141V22.3345C191.081 22.2914 191.072 22.2488 191.054 22.2093C191.037 22.1697 191.012 22.134 190.981 22.1042C190.071 21.2368 189.052 20.7993 187.952 20.7993C186.45 20.7993 185.212 21.6368 184.733 22.0159" fill="white"/>
<path d="M182.423 7.16249C182.383 7.18195 182.349 7.20951 182.321 7.24337C182.292 7.27723 182.272 7.31663 182.26 7.35899L182.223 7.48334C182.208 7.53063 182.205 7.58061 182.214 7.62928C182.222 7.67794 182.242 7.72392 182.272 7.76351C182.298 7.8002 182.333 7.83053 182.373 7.85229C182.412 7.87406 182.457 7.88673 182.502 7.88939C182.517 7.89241 182.533 7.89241 182.549 7.88939C182.611 7.8885 182.673 7.87271 182.728 7.84334C182.804 7.8254 182.881 7.8169 182.959 7.81801C183.125 7.81801 184.628 7.86867 185.621 9.55735L185.634 9.58191C185.659 9.62837 185.692 9.66928 185.733 9.70204C185.774 9.73481 185.822 9.75872 185.872 9.77227C185.911 9.78367 185.951 9.78986 185.991 9.79069C186.057 9.79085 186.121 9.77504 186.179 9.74464L186.204 9.73236C186.719 9.46757 187.288 9.32668 187.867 9.32093C188.808 9.32093 189.423 9.70472 189.567 9.86515C189.597 9.91905 189.638 9.96591 189.687 10.0025C189.726 10.0251 189.767 10.0446 189.809 10.0609C189.827 10.0655 189.845 10.068 189.864 10.0686C189.875 10.0697 189.886 10.0697 189.897 10.0686C189.948 10.0683 189.999 10.0556 190.045 10.0317C190.083 10.0122 190.116 9.98524 190.144 9.95238C190.171 9.91953 190.191 9.88149 190.203 9.84058L190.235 9.73082C190.244 9.70152 190.248 9.67094 190.248 9.64024C190.248 9.58376 190.233 9.52825 190.204 9.47982C189.48 8.22329 188.43 7.96078 187.675 7.96078C187.217 7.96649 186.763 8.05167 186.334 8.21254C185.993 7.75199 185.129 6.80403 183.82 6.80403C183.333 6.81058 182.854 6.93153 182.423 7.15712" fill="white"/>
<path d="M174.547 12.8957L174.557 13.0638C174.56 13.1109 174.574 13.1568 174.596 13.1981C174.619 13.2395 174.651 13.2753 174.689 13.3029C174.727 13.3305 174.771 13.3493 174.818 13.3578C174.864 13.3664 174.912 13.3645 174.957 13.3524C174.976 13.348 174.994 13.3424 175.012 13.3355C175.075 13.3096 175.13 13.2688 175.173 13.2165C175.331 13.1022 175.842 12.8934 176.595 12.8934C177.318 12.8934 178.419 13.0868 179.541 14.0087L179.567 14.0355C179.647 14.1048 179.75 14.1432 179.855 14.1438H179.883C179.995 14.1362 180.1 14.0859 180.175 14.0033L180.2 13.9749C181.443 12.66 182.781 12.4651 183.468 12.4651C183.957 12.4651 184.304 12.5656 184.439 12.6424C184.496 12.6899 184.562 12.7243 184.634 12.7429C184.705 12.7608 184.779 12.7573 184.848 12.733C184.914 12.7099 184.97 12.6661 185.008 12.6083C185.046 12.5506 185.064 12.4819 185.06 12.4129L185.051 12.267C185.048 12.2244 185.037 12.1828 185.018 12.1446C184.999 12.1065 184.972 12.0727 184.939 12.0452C184.198 11.4212 183.397 11.1072 182.555 11.1072C181.244 11.1072 180.198 11.8809 179.765 12.2586C179.369 11.9884 178.406 11.4327 177.278 11.4327C176.286 11.4327 175.397 11.8449 174.633 12.6547C174.604 12.6868 174.581 12.7244 174.566 12.7653C174.551 12.8063 174.545 12.8498 174.547 12.8934" fill="white"/>
<path d="M155.684 15.8876C155.684 15.3568 155.788 14.8311 155.991 14.3406C156.194 13.8501 156.492 13.4044 156.867 13.029C157.243 12.6536 157.688 12.3557 158.178 12.1526C158.669 11.9494 159.195 11.8448 159.725 11.8448C159.813 11.8448 159.898 11.8525 159.984 11.8578C160.044 11.0552 160.28 10.2757 160.676 9.57495C161.072 8.87421 161.617 8.26957 162.274 7.80423C162.931 7.3389 163.682 7.02436 164.474 6.8831C165.267 6.74185 166.08 6.77735 166.857 6.98709C167.634 7.19683 168.356 7.57561 168.969 8.09638C169.583 8.61714 170.074 9.26703 170.407 9.99958C170.741 10.7321 170.908 11.5293 170.897 12.334C170.887 13.1388 170.699 13.9313 170.346 14.6549C171.817 14.9795 173.116 15.8361 173.994 17.0602C174.872 18.2843 175.266 19.7896 175.102 21.2868C174.937 22.7841 174.226 24.1678 173.103 25.1721C171.98 26.1765 170.526 26.7306 169.02 26.7282C168.774 26.7282 160.866 26.6806 160.866 26.6806C160.021 26.6819 159.195 26.4355 158.489 25.972C157.782 25.5085 157.228 24.8482 156.893 24.0727C156.558 23.2972 156.458 22.4406 156.605 21.6088C156.751 20.7769 157.139 20.0064 157.719 19.3924C157.101 19.0395 156.587 18.5294 156.23 17.9139C155.872 17.2984 155.684 16.5993 155.684 15.8876Z" fill="white"/>
<defs>
<clipPath id="clip0_430_1340">
<rect width="124" height="50" fill="white" transform="translate(0 0.343994)"/>
</clipPath>
</defs>
</svg>
