<svg xmlns="http://www.w3.org/2000/svg" width="25" height="24" viewBox="0 0 25 24" fill="none">
<rect x="0.5" width="24" height="24" rx="2" fill="#8BC34A"/>
<path d="M8.35938 8.48605V7.83171C8.35938 6.81548 8.76306 5.84087 9.48164 5.12228C10.2002 4.4037 11.1748 4 12.191 4C13.2072 4 14.1818 4.4037 14.9004 5.12228C15.619 5.84087 16.0227 6.81548 16.0227 7.83171V12.5647" stroke="white" stroke-width="2.23497"/>
<path d="M12.1801 20.0002C14.7704 20.0002 16.8702 17.9003 16.8702 15.31C16.8702 12.7198 14.7704 10.6199 12.1801 10.6199C9.58982 10.6199 7.48999 12.7198 7.48999 15.31C7.48999 17.9003 9.58982 20.0002 12.1801 20.0002Z" stroke="white" stroke-width="2.23497"/>
<path d="M12.1986 16.91C13.0729 16.91 13.7816 16.2013 13.7816 15.3271C13.7816 14.4528 13.0729 13.7441 12.1986 13.7441C11.3244 13.7441 10.6157 14.4528 10.6157 15.3271C10.6157 16.2013 11.3244 16.91 12.1986 16.91Z" fill="white"/>
</svg>
