<svg xmlns="http://www.w3.org/2000/svg" width="24" height="23" viewBox="0 0 24 23" fill="none">
<path d="M12 6.09253C13.1 6.09253 14 5.19253 14 4.09253C14 2.99253 13.1 2.09253 12 2.09253C10.9 2.09253 10 2.99253 10 4.09253C10 5.19253 10.9 6.09253 12 6.09253ZM12 8.09253C10.9 8.09253 10 8.99253 10 10.0925C10 11.1925 10.9 12.0925 12 12.0925C13.1 12.0925 14 11.1925 14 10.0925C14 8.99253 13.1 8.09253 12 8.09253ZM12 14.0925C10.9 14.0925 10 14.9925 10 16.0925C10 17.1925 10.9 18.0925 12 18.0925C13.1 18.0925 14 17.1925 14 16.0925C14 14.9925 13.1 14.0925 12 14.0925Z" fill="#616161"/>
</svg>
