<svg xmlns="http://www.w3.org/2000/svg" width="20" height="21" viewBox="0 0 20 21" fill="none">
<path d="M9.16666 7.59261H10.8333V5.92594H9.16666V7.59261ZM9.99999 16.7593C6.32499 16.7593 3.33332 13.7676 3.33332 10.0926C3.33332 6.41761 6.32499 3.42594 9.99999 3.42594C13.675 3.42594 16.6667 6.41761 16.6667 10.0926C16.6667 13.7676 13.675 16.7593 9.99999 16.7593ZM9.99999 1.75928C8.90564 1.75928 7.82201 1.97483 6.81096 2.39361C5.79991 2.8124 4.88125 3.42623 4.10743 4.20005C2.54463 5.76286 1.66666 7.88247 1.66666 10.0926C1.66666 12.3027 2.54463 14.4224 4.10743 15.9852C4.88125 16.759 5.79991 17.3728 6.81096 17.7916C7.82201 18.2104 8.90564 18.4259 9.99999 18.4259C12.2101 18.4259 14.3297 17.548 15.8925 15.9852C17.4553 14.4224 18.3333 12.3027 18.3333 10.0926C18.3333 8.99826 18.1178 7.91463 17.699 6.90358C17.2802 5.89254 16.6664 4.97388 15.8925 4.20005C15.1187 3.42623 14.2001 2.8124 13.189 2.39361C12.178 1.97483 11.0943 1.75928 9.99999 1.75928ZM9.16666 14.2593H10.8333V9.25928H9.16666V14.2593Z" fill="#666666"/>
</svg>
