<svg xmlns="http://www.w3.org/2000/svg" width="38" height="18" viewBox="0 0 38 18" fill="none">
<g clip-path="url(#clip0_42_3434)">
<path fill-rule="evenodd" clip-rule="evenodd" d="M11.5881 12.1087H15.7495L16.6545 14.6867H18.6622L14.5191 3.71857L13.6698 6.14964L15.2096 10.5573H12.1301L11.5881 12.1087Z" fill="#212121"/>
<path d="M20.1517 14.6107V3.70819H21.7092V14.6107H20.1517Z" fill="#212121"/>
<path fill-rule="evenodd" clip-rule="evenodd" d="M8.05354 14.8735C11.1905 14.8735 13.7336 12.3305 13.7336 9.1935C13.7336 6.05652 11.1905 3.51349 8.05354 3.51349C4.91656 3.51349 2.37354 6.05652 2.37354 9.1935C2.37354 12.3305 4.91656 14.8735 8.05354 14.8735ZM8.05352 13.2256C10.2803 13.2256 12.0856 11.4204 12.0856 9.19353C12.0856 6.9667 10.2803 5.16149 8.05352 5.16149C5.82669 5.16149 4.02148 6.9667 4.02148 9.19353C4.02148 11.4204 5.82669 13.2256 8.05352 13.2256Z" fill="#212121"/>
<rect x="23.6084" y="3.50439" width="11.4216" height="11.4216" rx="0.259583" fill="#B75400"/>
<path d="M28.6661 13.7256V7.83436H30.0452V13.7256H28.6661ZM29.3612 6.86352C29.1037 6.86352 28.8904 6.78262 28.7213 6.62081C28.5595 6.459 28.4786 6.2641 28.4786 6.0361C28.4786 5.80074 28.5595 5.60584 28.7213 5.45139C28.8904 5.28958 29.1037 5.20868 29.3612 5.20868C29.6186 5.20868 29.8282 5.28591 29.99 5.44036C30.1592 5.58745 30.2437 5.775 30.2437 6.003C30.2437 6.24571 30.1628 6.45165 30.001 6.62081C29.8392 6.78262 29.6259 6.86352 29.3612 6.86352Z" fill="white"/>
</g>
<defs>
<clipPath id="clip0_42_3434">
<rect x="0.682861" width="37.3171" height="18" rx="0.259583" fill="white"/>
</clipPath>
</defs>
</svg>
