<svg width="222" height="51" viewBox="0 0 222 51" fill="none" xmlns="http://www.w3.org/2000/svg">
<g clip-path="url(#clip0_430_1574)">
<path d="M124 -0.656006H-1V50.344H124V-0.656006Z" fill="#00689D"/>
<path d="M9.49878 15.004V19.3051H9.53691L12.462 16.3047H12.4989V35.064H16.6689V10.557H13.3415L9.49878 15.004Z" fill="white"/>
<path d="M31.2626 29.174V25.5585C31.2626 21.5468 29.6536 19.5214 26.6547 19.5214C24.8981 19.5214 23.8378 20.3165 23.2166 21.5103H23.1809V16.233C23.1809 14.7499 23.6545 13.702 25.1552 13.702C26.6559 13.702 27.0938 14.57 27.0938 16.0871V17.7162H30.8972V16.4129C30.8972 12.7987 29.6905 10.2689 25.0814 10.2689C20.6925 10.2689 19.0466 13.0528 19.0466 16.8846V28.8117C19.0466 32.6071 20.7306 35.3545 25.1183 35.3545C29.5466 35.3545 31.2687 32.9694 31.2687 29.174M27.1356 29.5387C27.1356 31.0923 26.5501 31.9956 25.1245 31.9956C23.7345 31.9956 23.1871 31.0571 23.1871 29.5387V25.0528C23.2584 23.6791 23.8439 22.8111 25.1614 22.8111C26.5858 22.8111 27.1356 23.6791 27.1356 25.2704V29.5387Z" fill="white"/>
<path d="M38.8943 5.3736H41.4C43.1049 5.3736 43.7285 6.20877 43.7285 7.60073V9.69536C43.7285 11.0873 43.1049 11.9371 41.4 11.9371H40.5844V15.3082H38.8943V5.3736ZM40.5844 6.73638V10.6485H41.2081C41.7862 10.6485 42.0384 10.3701 42.0384 9.82787V7.54238C42.0384 7.00019 41.7862 6.73638 41.2081 6.73638H40.5844Z" fill="white"/>
<path d="M44.469 5.3736H48.5024V6.73638H46.1591V9.57866H47.8345V10.9269H46.1591V13.9454H48.5024V15.3082H44.469V5.3736Z" fill="white"/>
<path d="M49.1543 15.3082L51.0523 5.3736H52.9798L54.8914 15.3082H53.157L52.8458 13.4847H51.0523L50.7559 15.3082H49.1543ZM51.2713 12.1571H52.6244L51.9576 8.17211H51.9429L51.2713 12.1571Z" fill="white"/>
<path d="M55.4536 12.7431V7.93989C55.4536 6.38624 56.1917 5.25809 57.974 5.25809C59.8425 5.25809 60.3616 6.28413 60.3616 7.74903V8.92095H58.8203V7.6153C58.8203 7.00017 58.6137 6.64275 58.0048 6.64275C57.3959 6.64275 57.1437 7.06824 57.1437 7.66879V13.002C57.1437 13.6026 57.3959 14.028 58.0048 14.028C58.6137 14.028 58.8203 13.6475 58.8203 13.0555V11.2344H60.3629V12.9485C60.3629 14.3697 59.77 15.4249 57.9753 15.4249C56.1806 15.4249 55.4536 14.2821 55.4536 12.7431Z" fill="white"/>
<path d="M61.2817 5.3736H65.3152V6.73638H62.978V9.57866H64.6534V10.9269H62.9719V13.9454H65.309V15.3082H61.2817V5.3736Z" fill="white"/>
<path d="M68.0275 13.842L67.1664 16.0838H66.218L66.4259 13.7108H68.025L68.0275 13.842Z" fill="white"/>
<path d="M75.189 5.3736V13.0458C75.189 14.4827 74.5506 15.42 72.8604 15.42C71.1113 15.42 70.6377 14.4681 70.6377 13.2075V11.2344H72.2368V13.2415C72.2368 13.7399 72.4152 14.0329 72.8592 14.0329C73.3033 14.0329 73.4976 13.7399 73.4976 13.2269V5.3736H75.189Z" fill="white"/>
<path d="M81.1192 5.3736V12.8902C81.1192 14.428 80.4513 15.4249 78.7316 15.4249C76.9529 15.4249 76.2112 14.428 76.2112 12.8902V5.3736H77.9013V13.0458C77.9013 13.633 78.1387 14.0281 78.7316 14.0281C79.3245 14.0281 79.5631 13.6378 79.5631 13.0458V5.3736H81.1192Z" fill="white"/>
<path d="M82.0676 13.1674V11.8301H83.6397V13.1929C83.6397 13.7497 83.8918 14.0718 84.47 14.0718C85.0038 14.0718 85.2412 13.7205 85.2412 13.1929V12.8124C85.2412 12.241 85.0038 11.8885 84.4847 11.4046L83.4908 10.4236C82.5277 9.48626 82.0824 8.91367 82.0824 7.77092V7.43418C82.0824 6.2039 82.8094 5.24594 84.4552 5.24594C86.1453 5.24594 86.812 6.06653 86.812 7.50226V8.30826H85.2708V7.45363C85.2708 6.88226 85.0038 6.60265 84.47 6.60265C83.9952 6.60265 83.6692 6.86645 83.6692 7.42324V7.62869C83.6692 8.18547 83.9804 8.50763 84.47 8.97688L85.5524 10.0309C86.4713 10.9548 86.9166 11.5116 86.9166 12.6106V13.0968C86.9166 14.4584 86.1786 15.4261 84.4564 15.4261C82.7343 15.4261 82.0676 14.473 82.0676 13.1674Z" fill="white"/>
<path d="M87.6816 5.3736H92.1751V6.73638H90.7864V15.3082H89.0815V6.73638H87.6816V5.3736Z" fill="white"/>
<path d="M93.04 5.3736H94.7302V15.3082H93.04V5.3736Z" fill="white"/>
<path d="M95.7817 12.7431V7.93989C95.7817 6.38624 96.5198 5.25809 98.3022 5.25809C100.171 5.25809 100.69 6.28413 100.69 7.74903V8.92095H99.1472V7.6153C99.1472 7.00017 98.9406 6.64275 98.3317 6.64275C97.7228 6.64275 97.4706 7.06824 97.4706 7.66879V13.002C97.4706 13.6026 97.7167 14.028 98.3317 14.028C98.9467 14.028 99.1472 13.6475 99.1472 13.0555V11.2344H100.69V12.9485C100.69 14.3697 100.097 15.4249 98.3022 15.4249C96.5075 15.4249 95.7817 14.2821 95.7817 12.7431Z" fill="white"/>
<path d="M101.682 5.3736H105.716V6.73638H103.373V9.57866H105.048V10.9269H103.373V13.9454H105.716V15.3082H101.682V5.3736Z" fill="white"/>
<path d="M38.688 29.8781L40.586 19.9435H42.5135L44.4251 29.8781H42.6907L42.3795 28.0619H40.586L40.2896 29.8781H38.688ZM40.8086 26.7283H42.1617L41.495 22.7432H41.4803L40.8086 26.7283Z" fill="white"/>
<path d="M46.6935 23.6368V29.8781H45.2703V19.9435H46.9309L48.7551 25.6439V19.9435H50.1648V29.8781H48.6813L46.6935 23.6368Z" fill="white"/>
<path d="M56.331 22.6107V27.2121C56.331 28.7354 55.6939 29.8781 53.8844 29.8781H51.2717V19.9435H53.8807C55.7 19.9435 56.331 21.0692 56.331 22.6107ZM53.6765 28.5153C54.374 28.5153 54.6409 28.1056 54.6409 27.5051V22.3032C54.6409 21.7172 54.374 21.3063 53.6765 21.3063H52.9655V28.5153H53.6765Z" fill="white"/>
<path d="M59.0593 27.7397V26.4025H60.6301V27.7652C60.6301 28.322 60.8823 28.6442 61.4604 28.6442C61.9943 28.6442 62.2317 28.2928 62.2317 27.7652V27.3908C62.2317 26.8194 61.9943 26.4681 61.4752 25.9843L60.4825 25.0032C59.5181 24.0647 59.0741 23.4933 59.0741 22.3506V22.0138C59.0741 20.7823 59.7998 19.8256 61.4457 19.8256C63.1358 19.8256 63.8037 20.6462 63.8037 22.0819V22.8928H62.2612V22.0284C62.2612 21.457 61.9943 21.1774 61.4604 21.1774C60.9869 21.1774 60.6597 21.4412 60.6597 21.998V22.2035C60.6597 22.7603 60.9709 23.0824 61.4604 23.5505L62.5429 24.6057C63.4618 25.5296 63.9071 26.0864 63.9071 27.1854V27.6716C63.9071 29.0344 63.169 30.0021 61.4469 30.0021C59.7248 30.0021 59.0593 29.0429 59.0593 27.7397Z" fill="white"/>
<path d="M64.5295 19.9435H69.0218V21.3124H67.6318V29.8842H65.9232V21.3124H64.5295V19.9435Z" fill="white"/>
<path d="M71.6467 25.3241V29.8805H69.9565V19.9435H72.4167C74.1216 19.9435 74.7452 20.7787 74.7452 22.1706V23.4459C74.7452 24.5157 74.359 25.1479 73.3922 25.3655L75.0122 29.8781H73.2322L71.6467 25.3241ZM71.6467 21.3124V24.4039H72.21C72.7882 24.4039 73.0391 24.1109 73.0391 23.5845V22.1123C73.0391 21.5701 72.7931 21.3063 72.21 21.3063L71.6467 21.3124Z" fill="white"/>
<path d="M75.8118 27.3142V22.5086C75.8118 20.955 76.583 19.8268 78.363 19.8268C80.1429 19.8268 80.9277 20.955 80.9277 22.5086V27.3142C80.9277 28.8533 80.1564 29.996 78.363 29.996C76.5695 29.996 75.8118 28.8496 75.8118 27.3142ZM79.2375 27.578V22.2448C79.2375 21.6443 78.9706 21.2188 78.363 21.2188C77.7553 21.2188 77.5019 21.6443 77.5019 22.2448V27.578C77.5019 28.1786 77.7676 28.6041 78.363 28.6041C78.9583 28.6041 79.2375 28.1786 79.2375 27.578Z" fill="white"/>
<path d="M83.463 23.6368V29.8781H82.0398V19.9435H83.7004L85.5234 25.6439V19.9435H86.9318V29.8781H85.4557L83.463 23.6368Z" fill="white"/>
<path d="M90.5937 24.5741H92.996V29.8781H91.7795V28.7937C91.558 29.5414 91.0832 29.996 90.1644 29.996C88.7116 29.996 88.0437 28.8533 88.0437 27.3142V22.5086C88.0437 20.955 88.8002 19.8268 90.5789 19.8268C92.4474 19.8268 92.996 20.8529 92.996 22.3178V23.1967H91.4535V22.1865C91.4535 21.5701 91.2161 21.2139 90.6084 21.2139C90.0008 21.2139 89.7338 21.6394 89.7338 22.24V27.5732C89.7338 28.1737 89.986 28.5992 90.5641 28.5992C91.1127 28.5992 91.3944 28.2916 91.3944 27.6461V25.8931H90.5937V24.5741Z" fill="white"/>
<path d="M38.9709 34.6728H40.6611V44.6073H38.9709V34.6728Z" fill="white"/>
<path d="M43.2098 38.3648V44.6073H41.7866V34.6728H43.4472L45.2702 40.3719V34.6728H46.6799V44.6073H45.1964L43.2098 38.3648Z" fill="white"/>
<path d="M47.7046 42.4653V41.1281H49.2766V42.4909C49.2766 43.0476 49.5288 43.3698 50.1069 43.3698C50.6408 43.3698 50.877 43.0185 50.877 42.4909V42.1103C50.877 41.539 50.6408 41.1864 50.1217 40.7038L49.1278 39.7215C48.1646 38.7842 47.7194 38.2129 47.7194 37.0689V36.7321C47.7194 35.5019 48.4463 34.5439 50.0922 34.5439C51.7823 34.5439 52.449 35.3645 52.449 36.8002V37.6062H50.9028V36.7516C50.9028 36.1802 50.6359 35.9006 50.102 35.9006C49.6272 35.9006 49.3012 36.1644 49.3012 36.7212V36.9267C49.3012 37.4834 49.6124 37.8056 50.102 38.2749L51.1845 39.3301C52.1034 40.2528 52.5474 40.8096 52.5474 41.9085V42.3948C52.5474 43.7576 51.8094 44.7241 50.0873 44.7241C48.3651 44.7241 47.7046 43.7722 47.7046 42.4653Z" fill="white"/>
<path d="M53.1733 34.6728H57.6681V36.0355H56.2719V44.6073H54.567V36.0355H53.1733V34.6728Z" fill="white"/>
<path d="M58.5994 34.6728H60.2895V44.6073H58.5994V34.6728Z" fill="white"/>
<path d="M61.2231 34.6728H65.7154V36.0355H64.3217V44.6073H62.6168V36.0355H61.2231V34.6728Z" fill="white"/>
<path d="M71.5569 34.6728V42.1894C71.5569 43.7272 70.8902 44.7241 69.1706 44.7241C67.3907 44.7241 66.6501 43.7272 66.6501 42.1894V34.6728H68.3403V42.3498C68.3403 42.937 68.5777 43.3321 69.1706 43.3321C69.7635 43.3321 70.0009 42.937 70.0009 42.3498V34.6728H71.5569Z" fill="white"/>
<path d="M72.4771 34.6728H76.9693V36.0355H75.5756V44.6073H73.8707V36.0355H72.4771V34.6728Z" fill="white"/>
<path d="M77.9028 34.6728H79.593V44.6073H77.9028V34.6728Z" fill="white"/>
<path d="M80.7197 42.0423V37.2379C80.7197 35.6842 81.491 34.5561 83.2697 34.5561C85.0484 34.5561 85.8369 35.683 85.8369 37.2379V42.0435C85.8369 43.5825 85.0656 44.7253 83.2721 44.7253C81.4787 44.7253 80.7197 43.5813 80.7197 42.0423ZM84.1443 42.3061V36.9728C84.1443 36.3723 83.8773 35.9468 83.2697 35.9468C82.662 35.9468 82.4086 36.3723 82.4086 36.9728V42.3061C82.4086 42.9066 82.6756 43.3321 83.2697 43.3321C83.8638 43.3321 84.1443 42.9066 84.1443 42.3061Z" fill="white"/>
<path d="M88.3698 38.3648V44.6073H86.9441V34.6728H88.6047L90.4289 40.3719V34.6728H91.8398V44.6073H90.3563L88.3698 38.3648Z" fill="white"/>
<path d="M92.8621 42.4653V41.1281H94.4341V42.4909C94.4341 43.0476 94.6863 43.3698 95.2644 43.3698C95.7983 43.3698 96.0357 43.0185 96.0357 42.4909V42.1103C96.0357 41.539 95.7983 41.1864 95.2792 40.7038L94.2853 39.7215C93.3221 38.7842 92.8768 38.2129 92.8768 37.0689V36.7321C92.8768 35.5019 93.6038 34.5439 95.2497 34.5439C96.9398 34.5439 97.6065 35.3645 97.6065 36.8002V37.6062H96.0652V36.7516C96.0652 36.1802 95.7983 35.9006 95.2644 35.9006C94.7896 35.9006 94.4636 36.1644 94.4636 36.7212V36.9267C94.4636 37.4834 94.7748 37.8056 95.2644 38.2749L96.3469 39.3301C97.2658 40.2528 97.711 40.8096 97.711 41.9085V42.3948C97.711 43.7576 96.973 44.7241 95.2509 44.7241C93.5288 44.7241 92.8621 43.7722 92.8621 42.4653Z" fill="white"/>
</g>
<rect width="98" height="50" transform="translate(124 0.343994)" fill="#00689D"/>
<path d="M185.543 8.37805C185.543 8.37805 184.802 9.36182 185.014 10.3209C185.227 11.28 186.325 11.8499 186.325 11.8499C186.325 11.8499 187.066 10.8661 186.853 9.90786C186.641 8.94964 185.543 8.37805 185.543 8.37805Z" fill="white"/>
<path d="M184.335 14.0006C184.335 14.0006 185.076 13.0159 184.863 12.0577C184.651 11.0995 183.554 10.5288 183.554 10.5288C183.554 10.5288 182.812 11.5125 183.025 12.4716C183.238 13.4308 184.336 14.0006 184.336 14.0006" fill="white"/>
<path d="M187.379 12.9472C187.379 12.9472 188.161 13.7398 189.053 13.657C189.944 13.5742 190.604 12.6609 190.604 12.6609C190.604 12.6609 189.823 11.8683 188.93 11.9502C188.038 12.0321 187.379 12.9472 187.379 12.9472Z" fill="white"/>
<path d="M188.662 8.73029C187.937 9.4657 188.039 10.7674 188.039 10.7674C188.039 10.7674 189.317 10.8784 190.044 10.1438C190.77 9.40933 190.666 8.10674 190.666 8.10674C190.666 8.10674 189.388 7.99577 188.662 8.73029Z" fill="white"/>
<path d="M187.062 15.872C187.95 15.9777 188.785 15.2149 188.785 15.2149C188.785 15.2149 188.18 14.2787 187.291 14.1775C186.403 14.0762 185.568 14.8354 185.568 14.8354C185.568 14.8354 186.173 15.7672 187.061 15.872" fill="white"/>
<path d="M187.855 31.2969H181.219C180.97 31.2969 180.731 31.3958 180.555 31.5719C180.379 31.748 180.28 31.9868 180.28 32.2358C180.28 32.4848 180.379 32.7236 180.555 32.8996C180.731 33.0757 180.97 33.1746 181.219 33.1746H187.855C188.104 33.1746 188.343 33.0757 188.519 32.8996C188.695 32.7236 188.794 32.4848 188.794 32.2358C188.794 31.9868 188.695 31.748 188.519 31.5719C188.343 31.3958 188.104 31.2969 187.855 31.2969Z" fill="white"/>
<path d="M187.855 41.6463H181.219C180.97 41.6463 180.731 41.7452 180.555 41.9213C180.379 42.0973 180.28 42.3361 180.28 42.5851C180.28 42.8341 180.379 43.0729 180.555 43.249C180.731 43.4251 180.97 43.524 181.219 43.524H187.855C188.104 43.524 188.343 43.4251 188.519 43.249C188.695 43.0729 188.794 42.8341 188.794 42.5851C188.794 42.3361 188.695 42.0973 188.519 41.9213C188.343 41.7452 188.104 41.6463 187.855 41.6463Z" fill="white"/>
<path d="M158.008 29.0178C157.857 28.9701 157.703 28.9307 157.548 28.8998C157.548 28.8998 157.718 28.9526 158.008 29.0178Z" fill="white"/>
<path d="M187.611 33.8309H181.461C181.319 33.8309 181.184 33.8871 181.083 33.9871C180.983 34.0872 180.927 34.223 180.927 34.3646V36.2273L176.912 36.6677L171.047 36.5338V32.9501C171.836 32.8499 172.616 32.6916 173.381 32.4763C179.027 30.884 180.258 26.2162 180.135 22.9866C180.012 19.6971 181.065 18.42 182.577 17.852C182.983 17.7018 183.403 17.5906 183.83 17.5199C183.847 18.3275 184.006 19.2673 184.372 20.3858C184.507 20.3787 184.636 20.3673 184.773 20.3532C184.391 19.2083 184.228 18.2668 184.22 17.4636C184.663 17.4075 185.112 17.394 185.558 17.423C185.106 17.1605 184.68 16.8568 184.284 16.5159C184.537 14.9588 185.466 14.0023 186.421 13.0238C186.95 12.4857 187.49 11.93 187.919 11.2677L187.586 11.0528C187.181 11.6816 186.649 12.2233 186.138 12.7473C185.206 13.7011 184.264 14.6752 183.946 16.2217C183.605 15.9146 183.282 15.5895 182.976 15.2477C181.584 13.687 179.791 14.8328 177.236 17.2126C174.681 19.5923 171.464 19.6724 168.323 16.4595C164.184 12.218 160.566 12.2426 158.088 12.4831C159.783 13.2053 160.378 14.7897 161.234 18.8163C162.134 23.0438 164.405 24.9532 167.504 25.2165C165.779 25.8269 165.694 26.8018 163.382 28.3977C161.575 29.643 159.035 29.2494 158.009 29.0142C159.899 29.6043 162.139 31.5868 164.143 32.2729C165.325 32.6758 166.553 32.9277 167.798 33.0224V36.4519L157.292 36.2123V38.6044L176.913 38.1552L180.927 38.5956V40.4565C180.928 40.5983 180.984 40.7343 181.084 40.8346C181.184 40.9349 181.32 40.9915 181.462 40.992H187.612C187.754 40.9915 187.89 40.935 187.99 40.8347C188.091 40.7343 188.147 40.5984 188.148 40.4565V34.3646C188.147 34.2227 188.09 34.0868 187.99 33.9868C187.889 33.8867 187.753 33.8306 187.611 33.8309ZM168.764 33.0805C169.204 33.0875 169.64 33.0743 170.08 33.0444V36.5118L168.764 36.4818V33.0805Z" fill="white"/>
<path d="M156.716 38.2168C156.716 38.7214 156.364 39.1301 155.931 39.1301H155.458C155.025 39.1301 154.671 38.7214 154.671 38.2168V36.561C154.671 36.0564 155.024 35.6477 155.458 35.6477H155.931C156.364 35.6477 156.716 36.0564 156.716 36.561V38.2168Z" fill="white"/>
<defs>
<clipPath id="clip0_430_1574">
<rect width="124" height="50" fill="white" transform="translate(0 0.343994)"/>
</clipPath>
</defs>
</svg>
