<svg xmlns="http://www.w3.org/2000/svg" width="578" height="150" viewBox="0 0 578 150" fill="none">
  <path d="M1 139.754C1 139.754 12.6331 21.6035 47.2573 21.6035C83.2664 21.6035 83.9588 103.205 118.583 103.205C153.207 103.205 151.822 69.6044 187.831 69.6044C222.455 69.6044 221.07 115.365 257.08 115.365C291.704 115.365 285.91 19.1906 360 40C434.09 60.8094 419.19 -14.4598 469 3.99998C496.502 14.1923 514.406 26.3595 526.02 37.4316C544.663 55.2054 554.019 80.8285 564.114 104.526C570.655 119.883 576.573 137.219 576.573 149.678" fill="url(#paint0_linear_6_522)" fill-opacity="0.2"/>
  <path d="M1 139.754C1 139.754 12.6331 21.6035 47.2573 21.6035C83.2664 21.6035 83.9588 103.205 118.583 103.205C153.207 103.205 151.822 69.6044 187.831 69.6044C222.455 69.6044 221.07 115.365 257.08 115.365C291.704 115.365 285.91 19.1906 360 40C434.09 60.8094 419.19 -14.4598 469 3.99998C496.502 14.1923 514.406 26.3595 526.02 37.4316C544.663 55.2054 554.019 80.8285 564.114 104.526C570.655 119.883 576.573 137.219 576.573 149.678" stroke="#EF8237" stroke-opacity="0.3" stroke-width="2"/>
  <defs>
    <linearGradient id="paint0_linear_6_522" x1="328.751" y1="-24.4774" x2="328.751" y2="149.606" gradientUnits="userSpaceOnUse">
      <stop stop-color="#EF8237"/>
      <stop offset="1" stop-color="#EF8237" stop-opacity="0"/>
    </linearGradient>
  </defs>
</svg>
