<svg width="222" height="51" viewBox="0 0 222 51" fill="none" xmlns="http://www.w3.org/2000/svg">
<g clip-path="url(#clip0_430_132)">
<path d="M124 0.343994H0V50.344H124V0.343994Z" fill="#E5243B"/>
<path d="M37.0922 14.3796V20.7494H35.6562V10.6112H37.329L39.1704 16.4293V10.6112H40.5915V20.7494H39.096L37.0922 14.3796Z" fill="white"/>
<path d="M44.2829 20.8709C46.0946 20.8709 46.8696 19.7041 46.8696 18.133V13.2288C46.8696 11.6416 46.0946 10.4921 44.2829 10.4921C42.4713 10.4921 41.7112 11.6416 41.7112 13.2288V18.133C41.7112 19.7041 42.4887 20.8709 44.2829 20.8709ZM43.4149 12.9585C43.4149 12.3385 43.684 11.9132 44.2829 11.9132C44.8819 11.9132 45.1658 12.3447 45.1658 12.9585V18.4021C45.1658 19.0221 44.8955 19.4486 44.2829 19.4486C43.6704 19.4486 43.4149 19.0159 43.4149 18.4021V12.9585Z" fill="white"/>
<path d="M37.3612 32.2914H38.1821C39.9033 32.2914 40.5307 31.4234 40.5307 30.0036V27.872C40.5307 26.451 39.9033 25.5978 38.1821 25.5978H35.6562V35.7373H37.3612V32.2914ZM37.3612 26.9829H37.9887C38.5727 26.9829 38.8257 27.2532 38.8257 27.805V30.1362C38.8257 30.6918 38.5777 30.9757 37.9887 30.9757H37.3612V26.9829Z" fill="white"/>
<path d="M44.1191 35.8502C45.9308 35.8502 46.707 34.6846 46.707 33.1147V28.208C46.707 26.6233 45.9308 25.4726 44.1191 25.4726C42.3075 25.4726 41.5474 26.6233 41.5474 28.208V33.1147C41.5474 34.6846 42.3248 35.8502 44.1191 35.8502ZM43.2511 27.9402C43.2511 27.3202 43.519 26.8936 44.1191 26.8936C44.7193 26.8936 45.0032 27.3264 45.0032 27.9402V33.3826C45.0032 33.9964 44.7329 34.4304 44.1191 34.4304C43.5053 34.4304 43.2511 33.9964 43.2511 33.3826V27.9402Z" fill="white"/>
<path d="M51.0569 35.7311L52.9864 25.5916H51.3855L50.1889 32.6646H50.1728L49.0072 25.5916H47.2725L49.2019 35.7311H51.0569Z" fill="white"/>
<path d="M57.9056 34.3411H55.5434V31.2584H57.2323V29.8833H55.5434V26.9829H57.9056V25.5916H53.8384V35.7311H57.9056V34.3411Z" fill="white"/>
<path d="M60.6558 31.0799L62.2554 35.7311H64.051L62.4204 31.1245C63.3925 30.9013 63.7844 30.2565 63.7844 29.1653V27.872C63.7844 26.451 63.1557 25.5978 61.4358 25.5978H58.9558V35.7373H60.662L60.6558 31.0799ZM60.6558 26.9879H61.2225C61.8066 26.9879 62.0608 27.2582 62.0608 27.81V29.298C62.0608 29.8374 61.8066 30.135 61.2225 30.135H60.6558V26.9879Z" fill="white"/>
<path d="M65.9035 35.7311H67.6233V26.9829H69.0295V25.5916H64.4973V26.9829H65.9035V35.7311Z" fill="white"/>
<path d="M71.584 35.7311H73.289V31.8735L75.1725 25.5916H73.5432L72.5127 29.4344H72.4978L71.4649 25.5916H69.6868L71.584 31.8735V35.7311Z" fill="white"/>
<path d="M17.3128 16.6525H17.35V35.7906H21.5524V10.7885H18.1957L14.3257 15.3244V19.7116H14.3629L17.3128 16.6525Z" fill="white"/>
</g>
<rect width="98" height="50" transform="translate(124 0.343994)" fill="#E5243B"/>
<path d="M200.919 12.0559C200.92 11.5201 201.078 10.9965 201.373 10.5512C201.668 10.1058 202.088 9.75879 202.579 9.5539C203.07 9.34901 203.61 9.29545 204.131 9.4C204.652 9.50454 205.13 9.7625 205.506 10.1413C205.881 10.52 206.137 11.0026 206.241 11.5281C206.345 12.0535 206.292 12.5982 206.089 13.0933C205.886 13.5884 205.542 14.0117 205.101 14.3097C204.659 14.6078 204.14 14.7672 203.609 14.7677C202.896 14.7677 202.212 14.4821 201.708 13.9735C201.203 13.465 200.92 12.7752 200.919 12.0559Z" fill="white"/>
<path d="M206.747 15.8128C207.637 15.8956 208.464 16.3109 209.066 16.9772C209.668 17.6435 210.001 18.5126 210 19.4139V26.9336C210 27.2123 209.891 27.4796 209.695 27.6766C209.5 27.8737 209.235 27.9844 208.958 27.9844C208.682 27.9844 208.417 27.8737 208.222 27.6766C208.026 27.4796 207.916 27.2123 207.916 26.9336V20.4746C207.916 20.2317 207.848 19.9046 207.409 19.9046C207.105 19.9046 207.042 20.2288 207.031 20.4354V39.7819C207.031 40.1827 206.873 40.5671 206.592 40.8505C206.311 41.1339 205.93 41.2931 205.533 41.2931C205.135 41.2931 204.754 41.1339 204.473 40.8505C204.192 40.5671 204.034 40.1827 204.034 39.7819V28.6337C204.034 28.5103 203.99 28.1911 203.609 28.1911C203.227 28.1911 203.181 28.5103 203.177 28.6337V39.7819C203.182 39.9834 203.147 40.1839 203.074 40.3716C203.001 40.5592 202.892 40.7303 202.752 40.8746C202.613 41.0189 202.446 41.1336 202.262 41.2119C202.078 41.2902 201.88 41.3306 201.68 41.3306C201.48 41.3306 201.282 41.2902 201.098 41.2119C200.914 41.1336 200.747 41.0189 200.608 40.8746C200.468 40.7303 200.359 40.5592 200.286 40.3716C200.213 40.1839 200.178 39.9834 200.183 39.7819V20.4354C200.174 20.2288 200.108 19.9046 199.807 19.9046C199.366 19.9046 199.299 20.2317 199.299 20.4746V26.9336C199.287 27.2042 199.172 27.4598 198.978 27.6471C198.784 27.8345 198.526 27.9391 198.258 27.9391C197.989 27.9391 197.731 27.8345 197.537 27.6471C197.343 27.4598 197.228 27.2042 197.217 26.9336V19.4139C197.216 18.512 197.55 17.6424 198.153 16.9761C198.756 16.3098 199.584 15.8949 200.475 15.8128C200.539 15.8029 200.604 15.7974 200.669 15.7961H206.539C206.607 15.7972 206.676 15.8028 206.743 15.8128" fill="white"/>
<path d="M184.933 13.4799C184.933 12.9722 184.784 12.4759 184.504 12.0538C184.224 11.6318 183.826 11.3029 183.361 11.1089C182.896 10.9148 182.384 10.8642 181.89 10.9635C181.397 11.0628 180.943 11.3076 180.588 11.6668C180.232 12.026 179.99 12.4836 179.892 12.9817C179.794 13.4797 179.845 13.9958 180.038 14.4648C180.231 14.9337 180.557 15.3344 180.976 15.6162C181.395 15.898 181.887 16.0482 182.39 16.0478C183.065 16.0473 183.712 15.7765 184.189 15.2949C184.666 14.8134 184.934 14.1605 184.933 13.4799Z" fill="white"/>
<path d="M177.26 19.2944L175.144 26.2479C175.144 26.2479 174.768 27.5211 175.839 27.8394C176.91 28.1577 177.228 26.9149 177.228 26.9149L178.934 21.116C178.934 21.116 179.031 20.6694 179.36 20.7664C179.688 20.8634 179.567 21.3393 179.567 21.3393L176.598 32.2104H179.36V39.9934C179.369 40.3418 179.513 40.6728 179.76 40.9159C180.008 41.159 180.34 41.2951 180.685 41.2951C181.031 41.2951 181.363 41.159 181.611 40.9159C181.858 40.6728 182.002 40.3418 182.011 39.9934V32.2015H182.765V39.9846C182.774 40.3333 182.918 40.6645 183.166 40.9078C183.414 41.1511 183.746 41.2872 184.092 41.2872C184.438 41.2872 184.77 41.1511 185.018 40.9078C185.265 40.6645 185.409 40.3333 185.419 39.9846V32.2015H188.179L185.212 21.3305C185.212 21.3305 185.087 20.8614 185.419 20.7635C185.751 20.6655 185.844 21.1131 185.844 21.1131L187.55 26.912C187.55 26.912 187.874 28.1548 188.939 27.8365C190.003 27.5182 189.633 26.2479 189.633 26.2479L187.517 19.2944C187.517 19.2944 186.762 17.2857 185.09 17.2857H179.693C178.019 17.2857 177.265 19.2944 177.265 19.2944" fill="white"/>
<path d="M169.687 13.4799C169.687 12.9722 169.537 12.476 169.257 12.0539C168.978 11.6319 168.58 11.3031 168.115 11.109C167.65 10.9149 167.138 10.8642 166.644 10.9635C166.151 11.0627 165.697 11.3073 165.341 11.6665C164.986 12.0256 164.743 12.4831 164.645 12.9811C164.547 13.479 164.598 13.9951 164.791 14.4641C164.984 14.9331 165.31 15.3338 165.729 15.6157C166.147 15.8976 166.639 16.048 167.143 16.0478C167.818 16.0473 168.465 15.7765 168.942 15.295C169.419 14.8135 169.687 14.1606 169.687 13.4799Z" fill="white"/>
<path d="M162.013 19.2944L159.898 26.2479C159.898 26.2479 159.519 27.5211 160.591 27.8394C161.663 28.1577 161.981 26.9149 161.981 26.9149L163.687 21.116C163.687 21.116 163.779 20.6694 164.112 20.7664C164.445 20.8634 164.319 21.3393 164.319 21.3393L161.351 32.2104H164.112V39.9934C164.112 40.3482 164.252 40.6885 164.501 40.9394C164.749 41.1903 165.087 41.3313 165.439 41.3313C165.79 41.3313 166.128 41.1903 166.376 40.9394C166.625 40.6885 166.765 40.3482 166.765 39.9934V32.2015H167.518V39.9846C167.528 40.333 167.672 40.664 167.919 40.9071C168.167 41.1502 168.499 41.2862 168.844 41.2862C169.19 41.2862 169.522 41.1502 169.77 40.9071C170.017 40.664 170.161 40.333 170.17 39.9846V32.2015H172.933L169.965 21.3305C169.965 21.3305 169.839 20.8536 170.17 20.7576C170.501 20.6616 170.597 21.1072 170.597 21.1072L172.302 26.9061C172.302 26.9061 172.626 28.1489 173.691 27.8306C174.756 27.5123 174.385 26.2479 174.385 26.2479L172.269 19.2944C172.269 19.2944 171.514 17.2857 169.841 17.2857H164.445C162.772 17.2857 162.013 19.2944 162.013 19.2944Z" fill="white"/>
<path d="M193.482 27.8492C193.901 27.8492 194.31 27.724 194.658 27.4892C195.007 27.2545 195.278 26.9209 195.439 26.5305C195.599 26.1401 195.641 25.7105 195.56 25.2961C195.478 24.8816 195.277 24.5008 194.98 24.2019C194.684 23.9029 194.307 23.6992 193.896 23.6166C193.485 23.5339 193.059 23.5759 192.672 23.7374C192.285 23.8988 191.954 24.1724 191.721 24.5236C191.488 24.8747 191.363 25.2877 191.363 25.7103C191.362 25.9912 191.417 26.2694 191.523 26.529C191.629 26.7886 191.785 27.0245 191.982 27.2232C192.179 27.4219 192.413 27.5795 192.67 27.6869C192.927 27.7943 193.203 27.8495 193.482 27.8492Z" fill="white"/>
<path d="M188.402 34.4874C188.298 34.7372 188.213 35.2709 188.71 35.4981C189.293 35.7684 189.618 35.2043 189.618 35.2043L190.77 31.4993C190.77 31.4993 190.97 31.2516 190.97 31.5082V40.2295H190.975C190.983 40.5146 191.102 40.7852 191.304 40.9838C191.507 41.1825 191.779 41.2936 192.062 41.2936C192.345 41.2936 192.616 41.1825 192.819 40.9838C193.022 40.7852 193.141 40.5146 193.149 40.2295V36.7831C193.149 36.7831 193.086 36.2934 193.475 36.2934C193.865 36.2934 193.803 36.7831 193.803 36.7831V40.2255C193.803 40.517 193.918 40.7965 194.123 41.0026C194.327 41.2086 194.604 41.3244 194.893 41.3244C195.182 41.3244 195.459 41.2086 195.663 41.0026C195.868 40.7965 195.982 40.517 195.982 40.2255V31.5042C195.982 31.2476 196.116 31.4308 196.116 31.4308L197.019 33.9674C197.019 33.9674 197.408 35.1005 197.532 35.1504C197.63 35.1914 197.734 35.2125 197.84 35.2126C197.945 35.2128 198.05 35.1919 198.147 35.1513C198.245 35.1106 198.333 35.0509 198.408 34.9757C198.482 34.9004 198.542 34.811 198.582 34.7127C198.636 34.5858 198.657 34.4469 198.642 34.3096C198.627 34.1722 198.577 34.0412 198.496 33.9292L198.504 33.9213C198.478 33.8391 197.154 30.566 196.999 30.1067C196.521 28.6993 195.651 28.7121 194.814 28.6885C193.977 28.665 193.475 28.6885 193.475 28.6885C193.475 28.6885 192.94 28.667 191.834 28.6993C190.728 28.7316 190.378 29.3056 189.163 32.466C188.989 32.9214 188.402 34.3934 188.394 34.4815L188.402 34.4874Z" fill="white"/>
<path d="M144.263 14.7678C144.795 14.7683 145.315 14.6098 145.758 14.3122C146.2 14.0145 146.545 13.5912 146.749 13.0957C146.953 12.6002 147.007 12.0549 146.903 11.5286C146.8 11.0024 146.544 10.5189 146.168 10.1393C145.792 9.75977 145.313 9.5012 144.792 9.39632C144.27 9.29144 143.729 9.34497 143.238 9.55014C142.746 9.75531 142.326 10.1029 142.03 10.5489C141.735 10.995 141.577 11.5194 141.577 12.0559C141.578 12.7744 141.861 13.4632 142.364 13.9716C142.868 14.4799 143.551 14.7662 144.263 14.7678Z" fill="white"/>
<path d="M147.424 15.799C147.353 15.7844 147.281 15.7743 147.209 15.7687H141.334C141.269 15.7739 141.204 15.7841 141.14 15.799C140.248 15.8845 139.421 16.3024 138.819 16.9711C138.217 17.6397 137.885 18.5109 137.887 19.4139V26.9335C137.886 27.1233 137.936 27.3098 138.032 27.4731C138.128 27.6363 138.266 27.7701 138.432 27.86C138.416 27.8891 138.404 27.92 138.397 27.9521L136.008 40.7133C135.997 40.7645 135.997 40.8174 136.008 40.8686C136.018 40.9199 136.038 40.9687 136.067 41.0119C136.096 41.0552 136.134 41.0921 136.177 41.1206C136.221 41.149 136.269 41.1684 136.321 41.1775C136.345 41.1822 136.369 41.1845 136.393 41.1844C136.486 41.1848 136.575 41.1525 136.646 41.0933C136.717 41.0341 136.765 40.9516 136.782 40.8602L139.169 28.099C139.173 28.0492 139.168 27.999 139.154 27.9511C139.377 27.8927 139.574 27.7608 139.714 27.5764C139.854 27.392 139.928 27.1657 139.926 26.9335V20.4746C139.926 20.2317 139.989 19.9046 140.428 19.9046C140.731 19.9046 140.8 20.2287 140.8 20.4354V39.7819C140.8 40.1845 140.958 40.5706 141.241 40.8553C141.523 41.14 141.906 41.2999 142.305 41.2999C142.704 41.2999 143.087 41.14 143.369 40.8553C143.651 40.5706 143.81 40.1845 143.81 39.7819V28.6337C143.809 28.5748 143.82 28.5164 143.843 28.4621C143.866 28.4079 143.9 28.3591 143.942 28.3188C143.985 28.2786 144.035 28.2478 144.091 28.2285C144.146 28.2092 144.204 28.2018 144.263 28.2067C144.644 28.2067 144.683 28.5103 144.683 28.6337V39.7819C144.683 40.1845 144.842 40.5706 145.124 40.8553C145.406 41.14 145.789 41.2999 146.188 41.2999C146.587 41.2999 146.97 41.14 147.252 40.8553C147.535 40.5706 147.693 40.1845 147.693 39.7819V20.4354C147.693 20.2287 147.765 19.9046 148.065 19.9046C148.507 19.9046 148.567 20.2317 148.567 20.4746V26.9335C148.567 27.2192 148.68 27.4933 148.88 27.6953C149.08 27.8973 149.352 28.0108 149.635 28.0108C149.918 28.0108 150.19 27.8973 150.39 27.6953C150.591 27.4933 150.703 27.2192 150.703 26.9335V19.4139C150.699 18.5083 150.361 17.6368 149.755 16.9686C149.149 16.3005 148.318 15.8836 147.424 15.799Z" fill="white"/>
<path d="M157.808 31.3808L159.774 27.7816C159.774 27.7816 160.011 27.2645 160.011 27.1411C160.009 26.9731 159.952 26.8103 159.851 26.677C159.75 26.5436 159.608 26.4467 159.448 26.4004C159.288 26.3542 159.117 26.3612 158.961 26.4203C158.805 26.4794 158.672 26.5876 158.582 26.7288H158.573C158.511 26.7826 157.522 28.5533 157.195 28.8834C156.851 29.235 156.541 29.1909 156.541 29.1909H153.973C153.973 29.1909 153.663 29.235 153.319 28.8834C152.989 28.5543 152.004 26.7807 151.941 26.7288L151.934 26.7347C151.843 26.596 151.711 26.4901 151.557 26.4322C151.402 26.3743 151.234 26.3674 151.075 26.4125C150.917 26.4577 150.776 26.5525 150.675 26.6833C150.573 26.814 150.515 26.974 150.51 27.1401C150.521 27.2568 150.546 27.3716 150.586 27.4819L152.717 31.3808C152.79 31.5428 152.832 31.7172 152.842 31.895V32.6628L151.724 36.8251H152.84V40.2529H152.855C152.858 40.5352 152.971 40.805 153.17 41.0036C153.369 41.2022 153.637 41.3136 153.917 41.3136C154.195 41.3162 154.463 41.2074 154.661 41.0111C154.86 40.8148 154.973 40.5471 154.976 40.2666V36.9632C154.961 36.9441 154.95 36.9219 154.944 36.8981C154.937 36.8743 154.936 36.8495 154.94 36.8251H155.571C155.577 36.8715 155.573 36.9185 155.559 36.9632V40.2666C155.559 40.5524 155.672 40.8264 155.872 41.0284C156.072 41.2304 156.344 41.344 156.627 41.344C156.91 41.344 157.182 41.2304 157.382 41.0284C157.583 40.8264 157.695 40.5524 157.695 40.2666V36.8251H158.792L157.695 32.6383V31.895C157.704 31.7184 157.742 31.5445 157.808 31.3808Z" fill="white"/>
<path d="M155.256 27.8492C155.675 27.8494 156.085 27.7243 156.434 27.4897C156.782 27.2551 157.054 26.9215 157.214 26.5312C157.375 26.1408 157.417 25.7112 157.336 25.2967C157.254 24.8821 157.053 24.5012 156.757 24.2022C156.461 23.9032 156.083 23.6994 155.672 23.6166C155.261 23.5339 154.835 23.5759 154.448 23.7373C154.061 23.8987 153.73 24.1723 153.497 24.5235C153.264 24.8747 153.139 25.2877 153.139 25.7103C153.138 25.9911 153.193 26.2692 153.299 26.5288C153.405 26.7883 153.561 27.0242 153.758 27.2229C153.954 27.4215 154.188 27.5791 154.445 27.6866C154.702 27.7941 154.978 27.8494 155.256 27.8492Z" fill="white"/>
<defs>
<clipPath id="clip0_430_132">
<rect width="124" height="50" fill="white" transform="translate(0 0.343994)"/>
</clipPath>
</defs>
</svg>
