<svg width="222" height="51" viewBox="0 0 222 51" fill="none" xmlns="http://www.w3.org/2000/svg">
<g clip-path="url(#clip0_430_1085)">
<rect width="124" height="50" transform="translate(0 0.343994)" fill="#BF8B2E"/>
<path d="M124 0.843994H0V50.844H124V0.843994Z" fill="#BF8B2E"/>
<path d="M12.3778 17.2961H12.4162V36.0602H16.6198V11.5471H13.2607L9.39062 15.9953V20.2964H9.42658L12.3778 17.2961Z" fill="white"/>
<path d="M19.1257 16.6104V19.5731H22.9597V16.4998C22.9597 15.0191 23.7037 14.5851 24.5829 14.5851C25.3951 14.5851 26.0945 14.9097 26.0945 16.4293V18.4522C26.0945 20.4787 25.9109 21.2726 24.5445 22.6828L22.1885 25.1421C19.9031 27.5285 19.0525 29.1186 19.0525 31.5415V36.0614H29.9645V32.6976H23.0701V31.5415C23.0701 29.6243 23.7707 28.9022 24.8396 27.7814L27.5279 24.9974C29.7041 22.7205 30.184 21.2726 30.184 18.8145V16.4293C30.184 12.9208 28.448 11.259 24.6883 11.259C21.0005 11.259 19.1207 13.1749 19.1207 16.608" fill="white"/>
<path d="M40.9728 11.7273V16.2849H39.269V6.34792H41.749C43.4726 6.34792 44.0926 7.18309 44.0926 8.5787V9.85396C44.0926 10.9238 43.7033 11.5559 42.7286 11.7735L44.358 16.2874H42.5724L40.9728 11.7273ZM40.9728 7.71556V10.8034H41.5407C42.1248 10.8034 42.379 10.5104 42.379 9.98282V8.52399C42.379 7.9818 42.1248 7.71799 41.5407 7.71799L40.9728 7.71556Z" fill="white"/>
<path d="M45.009 6.34792H49.075V7.71192H46.719V10.5542H48.4079V11.9036H46.714V14.9222H49.07V16.2849H45.009V6.34792Z" fill="white"/>
<path d="M49.8823 14.1453V12.8081H51.467V14.1709C51.467 14.7276 51.715 15.051 52.304 15.051C52.8422 15.051 53.0815 14.6985 53.0815 14.1709V13.794C53.0815 13.2226 52.8422 12.8701 52.3189 12.3862L51.3182 11.4052C50.3461 10.4667 49.8972 9.89529 49.8972 8.75133V8.41458C49.8972 7.18309 50.63 6.22635 52.2892 6.22635C53.9942 6.22635 54.6662 7.04694 54.6662 8.48266V9.28988H53.1113V8.42431C53.1113 7.85294 52.8422 7.57333 52.304 7.57333C51.8266 7.57333 51.4968 7.83713 51.4968 8.39392V8.59937C51.4968 9.15615 51.8105 9.47831 52.304 9.94756L53.3928 11.0101C54.3203 11.934 54.7692 12.4908 54.7692 13.5898V14.076C54.7692 15.4388 54.0252 16.4065 52.2892 16.4065C50.5532 16.4065 49.8823 15.4498 49.8823 14.1453Z" fill="white"/>
<path d="M55.6248 6.34792H58.1506C59.8693 6.34792 60.498 7.18309 60.498 8.57627V10.6721C60.498 12.0641 59.8693 12.9138 58.1506 12.9138H57.3285V16.2849H55.6248V6.34792ZM57.3285 7.71192V11.624H57.956C58.5388 11.624 58.793 11.3456 58.793 10.8034V8.51792C58.793 7.97572 58.5388 7.71192 57.956 7.71192H57.3285Z" fill="white"/>
<path d="M61.3633 13.7198V8.91302C61.3633 7.35937 62.1408 6.23121 63.9338 6.23121C65.7268 6.23121 66.5204 7.35937 66.5204 8.91302V13.7198C66.5204 15.2589 65.743 16.4029 63.9338 16.4029C62.1246 16.4029 61.3633 15.265 61.3633 13.7198ZM64.8167 13.9836V8.64921C64.8167 8.04866 64.5476 7.62317 63.9338 7.62317C63.32 7.62317 63.0658 8.04866 63.0658 8.64921V13.9836C63.0658 14.5854 63.3349 15.0097 63.9338 15.0097C64.5327 15.0097 64.8167 14.5854 64.8167 13.9836Z" fill="white"/>
<path d="M68.9125 10.0375V16.2813H67.4778V6.34792H69.1518L70.9907 12.0495V6.34792H72.4105V16.2849H70.9151L68.9125 10.0375Z" fill="white"/>
<path d="M73.2922 14.1453V12.8081H74.877V14.1709C74.877 14.7276 75.125 15.051 75.714 15.051C76.2521 15.051 76.4914 14.6985 76.4914 14.1709V13.794C76.4914 13.2226 76.2521 12.8701 75.7288 12.3862L74.7269 11.4052C73.756 10.4667 73.3071 9.89529 73.3071 8.75133V8.41458C73.3071 7.18309 74.04 6.22635 75.6991 6.22635C77.4028 6.22635 78.0762 7.04694 78.0762 8.48266V9.28988H76.5212V8.42431C76.5212 7.85294 76.2521 7.57333 75.714 7.57333C75.2353 7.57333 74.9067 7.83713 74.9067 8.39392V8.59937C74.9067 9.15615 75.2204 9.47831 75.714 9.94756L76.8052 11.0028C77.7327 11.9267 78.1803 12.4835 78.1803 13.5825V14.0687C78.1803 15.4315 77.4363 16.3992 75.7003 16.3992C73.9643 16.3992 73.2922 15.4498 73.2922 14.1453Z" fill="white"/>
<path d="M79.0322 6.34792H80.7372V16.2849H79.0322V6.34792Z" fill="white"/>
<path d="M81.708 6.34792H84.1756C85.8794 6.34792 86.4473 7.12474 86.4473 8.53615V9.5476C86.4473 10.3828 86.1336 10.9104 85.4305 11.128C86.2824 11.3176 86.7015 11.8744 86.7015 12.7838V14.1028C86.7015 15.5093 86.0592 16.291 84.3542 16.291H81.708V6.34792ZM83.413 10.5396H84.0107C84.5637 10.5396 84.8179 10.2612 84.8179 9.7336V8.51792C84.8179 7.97572 84.5699 7.71192 83.9958 7.71192H83.413V10.5396ZM83.413 11.8149V14.9221H84.157C84.7262 14.9221 84.9952 14.6438 84.9952 14.1162V12.6209C84.9952 12.0932 84.7472 11.8149 84.1421 11.8149H83.413Z" fill="white"/>
<path d="M87.5386 6.34792H89.2423V14.9222H91.2759V16.2849H87.5386V6.34792Z" fill="white"/>
<path d="M92.0386 6.34792H96.1045V7.71192H93.7423V10.5542H95.4287V11.9036H93.7423V14.9222H96.1045V16.2849H92.0386V6.34792Z" fill="white"/>
<path d="M39.269 28.3104V23.5036C39.269 21.9499 40.013 20.8218 41.8098 20.8218C43.6934 20.8218 44.2166 21.8478 44.2166 23.3127V24.4859H42.6629V23.1814C42.6629 22.5651 42.4534 22.2089 41.8396 22.2089C41.2258 22.2089 40.9716 22.6344 40.9716 23.2349V28.5693C40.9716 29.1699 41.2258 29.5954 41.8396 29.5954C42.4534 29.5954 42.6629 29.2149 42.6629 28.6228V26.8005H44.2166V28.5159C44.2166 29.937 43.619 30.9922 41.8098 30.9922C40.0006 30.9922 39.269 29.8531 39.269 28.3104Z" fill="white"/>
<path d="M45.293 28.3105V23.5036C45.293 21.95 46.0705 20.8218 47.8647 20.8218C49.659 20.8218 50.4514 21.95 50.4514 23.5036V28.3105C50.4514 29.8495 49.6739 30.9923 47.8647 30.9923C46.0556 30.9923 45.293 29.8532 45.293 28.3105ZM48.7464 28.5743V23.2398C48.7464 22.6393 48.4773 22.2138 47.8647 22.2138C47.2522 22.2138 46.9967 22.6393 46.9967 23.2398V28.5743C46.9967 29.1748 47.2658 29.6003 47.8647 29.6003C48.4637 29.6003 48.7464 29.1748 48.7464 28.5743Z" fill="white"/>
<path d="M53.007 24.6318V30.8756H51.571V20.9385H53.2463L55.0852 26.6401V20.9385H56.505V30.8756H55.0046L53.007 24.6318Z" fill="white"/>
<path d="M57.5366 28.736V27.3987H59.1213V28.7615C59.1213 29.3183 59.3693 29.6404 59.9583 29.6404C60.4965 29.6404 60.7358 29.2891 60.7358 28.7615V28.3798C60.7358 27.8084 60.4965 27.4571 59.9732 26.9732L58.9725 25.9946C58.0004 25.0573 57.5527 24.4859 57.5527 23.342V23.0052C57.5527 21.7737 58.2843 20.817 59.9447 20.817C61.6485 20.817 62.3218 21.6376 62.3218 23.0733V23.8793H60.7656V23.0149C60.7656 22.4436 60.4965 22.164 59.9583 22.164C59.4797 22.164 59.1511 22.4278 59.1511 22.9845V23.19C59.1511 23.7468 59.4648 24.0689 59.9583 24.5382L61.0495 25.5934C61.9758 26.5161 62.4247 27.0729 62.4247 28.1731V28.6594C62.4247 30.0222 61.6807 30.9886 59.9447 30.9886C58.2087 30.9886 57.5366 30.0404 57.5366 28.736Z" fill="white"/>
<path d="M68.419 20.9385V28.4576C68.419 29.9966 67.747 30.9923 66.0122 30.9923C64.2179 30.9923 63.4714 29.9966 63.4714 28.4576V20.9385H65.1727V28.618C65.1727 29.2052 65.412 29.6003 66.0097 29.6003C66.6074 29.6003 66.8467 29.2052 66.8467 28.618V20.9385H68.419Z" fill="white"/>
<path d="M74.2347 24.4264H74.19L73.0381 30.8756H72.2408L70.976 24.4264H70.945V30.8756H69.54V20.9385H71.524L72.6301 26.5368H72.645L73.637 20.9385H75.7909V30.8756H74.2347V24.4264Z" fill="white"/>
<path d="M76.9104 20.9385H79.4326C81.1512 20.9385 81.7799 21.7737 81.7799 23.1669V25.2627C81.7799 26.6547 81.1512 27.5045 79.4326 27.5045H78.6142V30.8756H76.9104V20.9385ZM78.6142 22.3013V26.2146H79.2416C79.8256 26.2146 80.0786 25.9362 80.0786 25.394V23.1073C80.0786 22.5651 79.8306 22.3013 79.2416 22.3013H78.6142Z" fill="white"/>
<path d="M82.3367 20.9385H86.8726V22.3013H85.4602V30.8756H83.7416V22.3013H82.3367V20.9385Z" fill="white"/>
<path d="M87.6736 20.9385H89.3773V30.8756H87.6736V20.9385Z" fill="white"/>
<path d="M90.3633 28.3105V23.5036C90.3633 21.95 91.1408 20.8218 92.935 20.8218C94.7293 20.8218 95.5217 21.95 95.5217 23.5036V28.3105C95.5217 29.8495 94.7442 30.9923 92.935 30.9923C91.1259 30.9923 90.3633 29.8532 90.3633 28.3105ZM93.8167 28.5743V23.2398C93.8167 22.6393 93.5476 22.2138 92.935 22.2138C92.3225 22.2138 92.067 22.6393 92.067 23.2398V28.5743C92.067 29.1748 92.3361 29.6003 92.935 29.6003C93.534 29.6003 93.8167 29.1748 93.8167 28.5743Z" fill="white"/>
<path d="M97.9435 24.6318V30.8756H96.5076V20.9385H98.1816L100.017 26.6401V20.9385H101.438V30.8756H99.9461L97.9435 24.6318Z" fill="white"/>
<path d="M39 45.4675L40.9133 35.5304H42.8527L44.7821 45.4675H43.0362L42.7287 43.65H40.9133L40.6207 45.4675H39ZM41.1378 42.3164H42.5018L41.8284 38.329H41.8136L41.1378 42.3164Z" fill="white"/>
<path d="M46.9669 39.2237V45.4675H45.5322V35.5304H47.2062L49.0451 41.2308V35.5304H50.4662V45.4675H48.9707L46.9669 39.2237Z" fill="white"/>
<path d="M56.5796 38.1977V42.799C56.5796 44.3235 55.9373 45.4675 54.1132 45.4675H51.4819V35.5304H54.1132C55.9373 35.5304 56.5796 36.661 56.5796 38.1977ZM53.9037 44.1035C54.6067 44.1035 54.8758 43.6938 54.8758 43.092V37.8901C54.8758 37.3029 54.6067 36.8932 53.9037 36.8932H53.1857V44.1035H53.9037Z" fill="white"/>
<path d="M59.2107 35.5304H61.7366C63.4565 35.5304 64.0839 36.3656 64.0839 37.7576V39.8534C64.0839 41.2454 63.4565 42.0964 61.7366 42.0964H60.9145V45.4675H59.2107V35.5304ZM60.9145 36.8932V40.8065H61.5419C62.1259 40.8065 62.3801 40.5281 62.3801 39.9859V37.6992C62.3801 37.157 62.1259 36.8932 61.5419 36.8932H60.9145Z" fill="white"/>
<path d="M66.7153 40.9086V45.4675H65.0103V35.5304H67.4903C69.2089 35.5304 69.8363 36.3656 69.8363 37.7576V39.0328C69.8363 40.1026 69.4482 40.7348 68.4723 40.9524L70.1017 45.4675H68.3149L66.7153 40.9086ZM66.7153 36.8969V39.9896H67.2807C67.8635 39.9896 68.1177 39.6966 68.1177 39.1678V37.7089C68.1177 37.1668 67.8697 36.9029 67.2807 36.9029L66.7153 36.8969Z" fill="white"/>
<path d="M70.811 42.9024V38.0943C70.811 36.5407 71.5885 35.4125 73.3816 35.4125C75.1746 35.4125 75.9682 36.5407 75.9682 38.0943V42.9024C75.9682 44.4414 75.1907 45.5842 73.3816 45.5842C71.5724 45.5842 70.811 44.4414 70.811 42.9024ZM74.2644 43.1662V37.8305C74.2644 37.23 73.9954 36.8045 73.3816 36.8045C72.7678 36.8045 72.5136 37.23 72.5136 37.8305V43.1662C72.5136 43.7667 72.7826 44.1922 73.3816 44.1922C73.9805 44.1922 74.2644 43.7667 74.2644 43.1662Z" fill="white"/>
<path d="M82.0825 38.1977V42.799C82.0825 44.3235 81.4389 45.4675 79.6161 45.4675H76.9849V35.5304H79.6161C81.4389 35.5304 82.0825 36.661 82.0825 38.1977ZM79.4066 44.1035C80.1097 44.1035 80.3775 43.6938 80.3775 43.092V37.8901C80.3775 37.3029 80.1097 36.8932 79.4066 36.8932H78.6886V44.1035H79.4066Z" fill="white"/>
<path d="M88.047 35.5304V43.0482C88.047 44.5873 87.3737 45.5842 85.6401 45.5842C83.8459 45.5842 83.0981 44.5873 83.0981 43.0482V35.5304H84.8031V43.2099C84.8031 43.7959 85.0425 44.1922 85.6401 44.1922C86.2378 44.1922 86.4771 43.7959 86.4771 43.2099V35.5304H88.047Z" fill="white"/>
<path d="M89.0637 42.9024V38.0943C89.0637 36.5407 89.8077 35.4125 91.6045 35.4125C93.488 35.4125 94.0113 36.4386 94.0113 37.9047V39.0766H92.4526V37.7722C92.4526 37.157 92.2443 36.7996 91.6305 36.7996C91.0167 36.7996 90.7625 37.2251 90.7625 37.8257V43.1613C90.7625 43.7619 91.0167 44.1873 91.6305 44.1873C92.2443 44.1873 92.4526 43.8056 92.4526 43.2148V41.3925H94.0076V43.1042C94.0076 44.5253 93.4099 45.5805 91.6008 45.5805C89.7916 45.5805 89.0637 44.4414 89.0637 42.9024Z" fill="white"/>
<path d="M94.7888 35.5304H99.3185V36.8932H97.9087V45.4675H96.1937V36.8932H94.7888V35.5304Z" fill="white"/>
<path d="M100.126 35.5304H101.829V45.4675H100.126V35.5304Z" fill="white"/>
<path d="M102.817 42.9024V38.0943C102.817 36.5407 103.593 35.4125 105.387 35.4125C107.181 35.4125 107.974 36.5407 107.974 38.0943V42.9024C107.974 44.4414 107.196 45.5842 105.387 45.5842C103.578 45.5842 102.817 44.4414 102.817 42.9024ZM106.269 43.1662V37.8305C106.269 37.23 106 36.8045 105.387 36.8045C104.775 36.8045 104.519 37.23 104.519 37.8305V43.1662C104.519 43.7667 104.788 44.1922 105.387 44.1922C105.986 44.1922 106.269 43.7667 106.269 43.1662Z" fill="white"/>
<path d="M110.395 39.2237V45.4675H108.959V35.5304H110.635L112.474 41.2308V35.5304H113.893V45.4675H112.398L110.395 39.2237Z" fill="white"/>
</g>
<rect width="98" height="50" transform="translate(124 0.343994)" fill="#BF8B2E"/>
<path d="M195.287 14.0541C192.01 11.4657 188.08 11.1868 186.543 11.1868C185.732 11.1868 184.981 11.2592 184.432 11.3901L184.216 11.44C182.14 11.9302 178.666 12.7507 174.622 17.77L174.503 17.9171C174.438 18.0054 174.403 18.1115 174.402 18.2209C174.402 18.3142 174.427 18.4059 174.473 18.4869L174.565 18.6371C175.232 19.7542 175.787 20.7241 176.228 21.547C176.267 21.6231 176.324 21.6887 176.394 21.7382C176.464 21.7878 176.544 21.8198 176.629 21.8317C176.714 21.8436 176.8 21.835 176.881 21.8066C176.962 21.7781 177.034 21.7307 177.093 21.6684C177.121 21.6314 177.15 21.592 177.173 21.5623C180.663 16.7318 183.4 16.0889 185.211 15.6606L185.439 15.6067C185.804 15.5366 186.176 15.5051 186.547 15.5127C187.39 15.5127 190.317 15.6525 192.601 17.4558C194.633 19.0631 195.664 21.6218 195.664 25.0701C195.664 30.8497 192.868 33.1062 190.521 33.9773C189.603 34.316 188.632 34.4869 187.653 34.482C186.164 34.4743 184.695 34.1399 183.349 33.5024L183.181 33.422C181.163 32.5461 178.151 30.7195 175.302 24.9994C169.463 13.2666 164.557 12.1592 161.309 11.4239L161.139 11.3861C160.89 11.3291 160.187 11.1981 159.049 11.1981C157.169 11.1981 153.551 11.5677 150.451 14.0429C148.334 15.7305 145.809 19.0116 145.809 25.0524C145.809 28.7305 146.567 31.1599 148.509 33.7145C148.874 34.2128 152.258 38.5828 158.755 38.5828C159.751 38.5795 160.745 38.4821 161.722 38.2919C162.908 38.0653 164.739 37.4787 166.785 35.9791L168.493 37.5205C168.591 37.6034 168.717 37.6462 168.846 37.6402C168.974 37.6343 169.096 37.58 169.186 37.4883C169.268 37.4017 169.312 37.2861 169.309 37.1669L170.63 29.0279V28.933C170.63 28.8659 170.615 28.7996 170.587 28.7385C170.56 28.6773 170.52 28.6226 170.47 28.5778C170.424 28.5353 170.37 28.5023 170.311 28.4806C170.252 28.459 170.19 28.4491 170.127 28.4517L162.199 30.6343L162.048 30.6592C161.95 30.6793 161.862 30.7303 161.796 30.8047C161.752 30.8524 161.718 30.9085 161.696 30.9695C161.674 31.0305 161.664 31.0953 161.667 31.1601C161.671 31.2249 161.687 31.2884 161.714 31.347C161.742 31.4056 161.782 31.4581 161.83 31.5014L163.472 32.9865C162.609 33.5161 161.746 33.8704 160.907 34.0312C160.214 34.1656 159.51 34.2345 158.804 34.2369C154.315 34.2369 152.105 31.29 152.015 31.1655L151.97 31.1044C150.604 29.3099 150.143 27.7823 150.143 25.05C150.143 21.5896 151.156 19.0229 153.153 17.4317C155.375 15.6589 158.234 15.5207 159.058 15.5207C159.436 15.5139 159.812 15.5454 160.183 15.6147L160.359 15.6541C162.951 16.2416 166.501 17.0452 171.424 26.9328C174.024 32.1563 177.284 35.5669 181.382 37.367C181.858 37.6081 184.4 38.8223 187.658 38.8223C189.153 38.8272 190.636 38.564 192.038 38.0452C194.431 37.1524 200 34.0995 200 25.0733C199.998 19.0397 197.436 15.7514 195.287 14.0541Z" fill="white"/>
<defs>
<clipPath id="clip0_430_1085">
<rect width="124" height="50" fill="white" transform="translate(0 0.343994)"/>
</clipPath>
</defs>
</svg>
