<svg xmlns="http://www.w3.org/2000/svg" width="21" height="20" viewBox="0 0 21 20" fill="none">
<path d="M9.66663 15H11.3333V13.3333H9.66663V15ZM10.5 1.66666C9.40561 1.66666 8.32198 1.8822 7.31093 2.30099C6.29988 2.71978 5.38122 3.33361 4.6074 4.10743C3.0446 5.67024 2.16663 7.78985 2.16663 9.99999C2.16663 12.2101 3.0446 14.3297 4.6074 15.8925C5.38122 16.6664 6.29988 17.2802 7.31093 17.699C8.32198 18.1178 9.40561 18.3333 10.5 18.3333C12.7101 18.3333 14.8297 17.4553 16.3925 15.8925C17.9553 14.3297 18.8333 12.2101 18.8333 9.99999C18.8333 8.90564 18.6177 7.82201 18.199 6.81096C17.7802 5.79991 17.1663 4.88125 16.3925 4.10743C15.6187 3.33361 14.7 2.71978 13.689 2.30099C12.6779 1.8822 11.5943 1.66666 10.5 1.66666ZM10.5 16.6667C6.82496 16.6667 3.83329 13.675 3.83329 9.99999C3.83329 6.32499 6.82496 3.33332 10.5 3.33332C14.175 3.33332 17.1666 6.32499 17.1666 9.99999C17.1666 13.675 14.175 16.6667 10.5 16.6667ZM10.5 4.99999C9.6159 4.99999 8.76806 5.35118 8.14294 5.9763C7.51782 6.60142 7.16663 7.44927 7.16663 8.33332H8.83329C8.83329 7.8913 9.00889 7.46737 9.32145 7.15481C9.63401 6.84225 10.0579 6.66666 10.5 6.66666C10.942 6.66666 11.3659 6.84225 11.6785 7.15481C11.991 7.46737 12.1666 7.8913 12.1666 8.33332C12.1666 9.99999 9.66663 9.79166 9.66663 12.5H11.3333C11.3333 10.625 13.8333 10.4167 13.8333 8.33332C13.8333 7.44927 13.4821 6.60142 12.857 5.9763C12.2319 5.35118 11.384 4.99999 10.5 4.99999Z" fill="#E0E0E0"/>
</svg>
