<svg xmlns="http://www.w3.org/2000/svg" width="20" height="20" viewBox="0 0 20 20" fill="none">
<path d="M11.05 7.7898L8.00005 5.4998V14.4998L11.05 12.2098L14 9.9998L11.05 7.7898ZM11.05 7.7898L8.00005 5.4998V14.4998L11.05 12.2098L14 9.9998L11.05 7.7898ZM11.05 7.7898L8.00005 5.4998V14.4998L11.05 12.2098L14 9.9998L11.05 7.7898ZM9.00005 2.0698V0.0498047C6.99005 0.249805 5.16005 1.0498 3.68005 2.2598L5.10005 3.6898C6.21005 2.8298 7.54005 2.2498 9.00005 2.0698ZM3.69005 5.0998L2.26005 3.6798C1.05005 5.1598 0.250049 6.9898 0.0500488 8.9998H2.07005C2.25005 7.5398 2.83005 6.20981 3.69005 5.0998ZM2.07005 10.9998H0.0500488C0.250049 13.0098 1.05005 14.8398 2.26005 16.3198L3.69005 14.8898C2.83005 13.7898 2.25005 12.4598 2.07005 10.9998ZM3.68005 17.7398C5.16005 18.9498 7.00005 19.7498 9.00005 19.9498V17.9298C7.54005 17.7498 6.21005 17.1698 5.10005 16.3098L3.68005 17.7398ZM20 9.9998C20 15.1598 16.08 19.4198 11.05 19.9498V17.9298C14.97 17.4098 18 14.0498 18 9.9998C18 5.9498 14.97 2.5898 11.05 2.0698V0.0498047C16.08 0.579805 20 4.8398 20 9.9998Z" fill="#9E9E9E"/>
</svg>
