<svg xmlns="http://www.w3.org/2000/svg" width="177" height="118" viewBox="0 0 177 118" fill="none">
<mask id="path-1-inside-1_962_18301" fill="white">
<path d="M101.445 30.7607C101.445 30.9343 83.8231 31.0847 62.1051 31.0847C40.3871 31.0847 22.765 30.9343 22.765 30.7607C22.765 30.5872 40.3871 30.4368 62.1051 30.4368C83.8231 30.4368 101.445 30.5756 101.445 30.7607Z"/>
</mask>
<path d="M101.445 30.7607C101.445 30.9343 83.8231 31.0847 62.1051 31.0847C40.3871 31.0847 22.765 30.9343 22.765 30.7607C22.765 30.5872 40.3871 30.4368 62.1051 30.4368C83.8231 30.4368 101.445 30.5756 101.445 30.7607Z" fill="#E0E0E0"/>
<path d="M100.438 30.7607C100.438 30.2006 100.861 29.9399 100.904 29.9128C101.011 29.8456 101.104 29.8161 101.129 29.8082C101.167 29.7962 101.196 29.7898 101.209 29.7871C101.223 29.784 101.233 29.7824 101.237 29.7819C101.243 29.7809 101.224 29.7839 101.162 29.7887C101.049 29.7977 100.865 29.8076 100.606 29.8178C100.092 29.8382 99.3269 29.8581 98.3329 29.8773C96.347 29.9157 93.4699 29.9508 89.911 29.9804C82.7943 30.0397 72.9622 30.0773 62.1051 30.0773V32.0922C72.9661 32.0922 82.804 32.0545 89.9278 31.9952C93.4891 31.9656 96.3749 31.9304 98.3719 31.8918C99.3692 31.8725 100.151 31.8523 100.685 31.8311C100.951 31.8207 101.167 31.8095 101.321 31.7973C101.395 31.7915 101.477 31.7837 101.551 31.772C101.581 31.7673 101.654 31.7554 101.736 31.7296C101.769 31.7189 101.869 31.6867 101.979 31.6168C102.027 31.587 102.453 31.3236 102.453 30.7607H100.438ZM62.1051 30.0773C51.248 30.0773 41.4159 30.0397 34.2992 29.9804C30.7403 29.9508 27.8632 29.9157 25.8773 29.8773C24.8832 29.8581 24.1182 29.8382 23.6044 29.8178C23.3453 29.8076 23.1616 29.7977 23.0477 29.7887C22.9866 29.7839 22.9675 29.7809 22.9735 29.7819C22.9769 29.7824 22.9869 29.784 23.0015 29.7871C23.0141 29.7898 23.0433 29.7962 23.0812 29.8082C23.1063 29.8161 23.1993 29.8456 23.3058 29.9128C23.3488 29.9399 23.7724 30.2006 23.7724 30.7607H21.7576C21.7576 31.3236 22.1834 31.587 22.2307 31.6168C22.3415 31.6867 22.4409 31.7189 22.4746 31.7296C22.5565 31.7554 22.629 31.7673 22.659 31.772C22.7329 31.7837 22.8155 31.7915 22.8887 31.7973C23.0436 31.8095 23.2597 31.8207 23.5248 31.8311C24.0596 31.8523 24.841 31.8725 25.8383 31.8918C27.8353 31.9304 30.7211 31.9656 34.2824 31.9952C41.4062 32.0545 51.2441 32.0922 62.1051 32.0922V30.0773ZM23.7724 30.7607C23.7724 31.3209 23.3488 31.5816 23.3058 31.6087C23.1993 31.6759 23.1063 31.7054 23.0812 31.7133C23.0433 31.7253 23.0141 31.7317 23.0015 31.7344C22.9869 31.7375 22.9769 31.7391 22.9735 31.7396C22.9675 31.7406 22.9866 31.7376 23.0477 31.7328C23.1616 31.7238 23.3453 31.7139 23.6044 31.7036C24.1182 31.6833 24.8832 31.6634 25.8773 31.6441C27.8632 31.6057 30.7403 31.5707 34.2992 31.5411C41.4159 31.4818 51.248 31.4442 62.1051 31.4442V29.4293C51.2441 29.4293 41.4062 29.4669 34.2824 29.5263C30.7211 29.5559 27.8353 29.591 25.8383 29.6297C24.841 29.6489 24.0596 29.6692 23.5248 29.6903C23.2597 29.7008 23.0436 29.712 22.8887 29.7242C22.8155 29.73 22.7329 29.7378 22.659 29.7495C22.629 29.7542 22.5565 29.7661 22.4746 29.7919C22.4409 29.8026 22.3415 29.8348 22.2307 29.9046C22.1834 29.9345 21.7576 30.1979 21.7576 30.7607H23.7724ZM62.1051 31.4442C72.9624 31.4442 82.7945 31.4789 89.9112 31.5367C93.4702 31.5656 96.347 31.6003 98.3326 31.6393C99.3266 31.6588 100.091 31.6792 100.604 31.7003C100.863 31.7109 101.046 31.7212 101.158 31.7306C101.219 31.7356 101.236 31.7386 101.228 31.7371C101.224 31.7364 101.212 31.7345 101.197 31.731C101.183 31.7279 101.152 31.7206 101.112 31.7072C101.084 31.698 100.989 31.6654 100.88 31.5927C100.819 31.5517 100.438 31.2903 100.438 30.7607H102.453C102.453 30.2283 102.069 29.964 102.004 29.9201C101.891 29.8445 101.789 29.8091 101.753 29.797C101.667 29.7682 101.591 29.7551 101.56 29.7499C101.484 29.7371 101.399 29.7288 101.326 29.7226C101.169 29.7096 100.952 29.698 100.687 29.6871C100.151 29.6651 99.3696 29.6443 98.3721 29.6248C96.3749 29.5856 93.4889 29.5509 89.9276 29.5219C82.8038 29.464 72.9659 29.4293 62.1051 29.4293V31.4442Z" fill="#212121" mask="url(#path-1-inside-1_962_18301)"/>
<path d="M23.765 68.1595H27.9553C28.2294 68.1595 28.4516 68.3817 28.4516 68.6558V90.3986C28.4516 90.6727 28.2294 90.8949 27.9553 90.8949H23.765C23.4909 90.8949 23.2687 90.6727 23.2687 90.3986V68.6558C23.2687 68.3817 23.4909 68.1595 23.765 68.1595Z" fill="#B75400" stroke="#212121" stroke-width="1.00743"/>
<path d="M36.9553 63.2071H41.1456C41.4197 63.2071 41.6419 63.4293 41.6419 63.7034V90.3985C41.6419 90.6726 41.4197 90.8947 41.1456 90.8947H36.9553C36.6812 90.8947 36.459 90.6726 36.459 90.3985V63.7034C36.459 63.4293 36.6812 63.2071 36.9553 63.2071Z" fill="#B75400" stroke="#212121" stroke-width="1.00743"/>
<path d="M50.1456 64.7806H54.3359C54.61 64.7806 54.8322 65.0028 54.8322 65.2769V90.3983C54.8322 90.6724 54.61 90.8946 54.3359 90.8946H50.1456C49.8715 90.8946 49.6493 90.6724 49.6493 90.3983V65.2769C49.6493 65.0028 49.8715 64.7806 50.1456 64.7806Z" fill="#B75400" stroke="#212121" stroke-width="1.00743"/>
<path d="M63.3358 55.605H67.5261C67.8002 55.605 68.0224 55.8272 68.0224 56.1013V90.3983C68.0224 90.6724 67.8002 90.8946 67.5261 90.8946H63.3358C63.0617 90.8946 62.8395 90.6724 62.8395 90.3983V56.1013C62.8395 55.8272 63.0617 55.605 63.3358 55.605Z" fill="#B75400" stroke="#212121" stroke-width="1.00743"/>
<path d="M76.5261 71.1561H80.7164C80.9905 71.1561 81.2127 71.3783 81.2127 71.6523V90.3984C81.2127 90.6725 80.9905 90.8947 80.7164 90.8947H76.5261C76.252 90.8947 76.0298 90.6725 76.0298 90.3984V71.6523C76.0298 71.3783 76.252 71.1561 76.5261 71.1561Z" fill="#B75400" stroke="#212121" stroke-width="1.00743"/>
<path d="M89.7164 55.7786H93.9067C94.1808 55.7786 94.403 56.0008 94.403 56.2749V90.3983C94.403 90.6724 94.1808 90.8946 93.9067 90.8946H89.7164C89.4423 90.8946 89.2201 90.6724 89.2201 90.3983V56.2749C89.2201 56.0008 89.4423 55.7786 89.7164 55.7786Z" fill="#B75400" stroke="#212121" stroke-width="1.00743"/>
<path d="M102.907 67.6385H107.097C107.371 67.6385 107.593 67.8607 107.593 68.1348V90.3983C107.593 90.6724 107.371 90.8946 107.097 90.8946H102.907C102.633 90.8946 102.41 90.6724 102.41 90.3983V68.1348C102.41 67.8607 102.633 67.6385 102.907 67.6385Z" fill="#B75400" stroke="#212121" stroke-width="1.00743"/>
<path d="M116.097 57.3755H120.287C120.561 57.3755 120.783 57.5977 120.783 57.8718V90.3985C120.783 90.6726 120.561 90.8948 120.287 90.8948H116.097C115.823 90.8948 115.601 90.6726 115.601 90.3985V57.8718C115.601 57.5977 115.823 57.3755 116.097 57.3755Z" fill="#B75400" stroke="#212121" stroke-width="1.00743"/>
<path d="M129.287 49.5884H133.478C133.752 49.5884 133.974 49.8106 133.974 50.0847V90.3984C133.974 90.6725 133.752 90.8947 133.478 90.8947H129.287C129.013 90.8947 128.791 90.6725 128.791 90.3984V50.0847C128.791 49.8106 129.013 49.5884 129.287 49.5884Z" fill="#B75400" stroke="#212121" stroke-width="1.00743"/>
<path d="M142.478 57.1902H146.668C146.942 57.1902 147.164 57.4124 147.164 57.6865V90.3983C147.164 90.6724 146.942 90.8946 146.668 90.8946H142.478C142.203 90.8946 141.981 90.6724 141.981 90.3983V57.6865C141.981 57.4124 142.203 57.1902 142.478 57.1902Z" fill="#B75400" stroke="#212121" stroke-width="1.00743"/>
<rect x="0.5" y="0.671875" width="176" height="116" rx="11.5" stroke="black"/>
</svg>
