<svg xmlns="http://www.w3.org/2000/svg" width="30" height="31" viewBox="0 0 30 31" fill="none">
<g id="Group">
<g id="Group_2">
<path id="Vector" d="M29.5 27.1719H28.5V25.6719C28.5 25.3958 28.2761 25.1719 28 25.1719H27.5V14.1719H28C28.2761 14.1719 28.5 13.948 28.5 13.6719V11.6719C28.5 11.3958 28.2761 11.1719 28 11.1719H27.5V9.67188C27.5 9.39575 27.2761 9.17188 27 9.17188H26.1L15.5 4.83588V3.17188H19C19.2761 3.17188 19.5 2.948 19.5 2.67188V0.671875C19.5 0.39575 19.2761 0.171875 19 0.171875H15C14.7239 0.171875 14.5 0.39575 14.5 0.671875V4.83588L3.9 9.17188H3C2.72388 9.17188 2.5 9.39575 2.5 9.67188V11.1719H2C1.72388 11.1719 1.5 11.3958 1.5 11.6719V13.6719C1.5 13.948 1.72388 14.1719 2 14.1719H2.5V25.1719H2C1.72388 25.1719 1.5 25.3958 1.5 25.6719V27.1719H0.5C0.223875 27.1719 0 27.3958 0 27.6719V29.6719C0 29.948 0.223875 30.1719 0.5 30.1719H29.5C29.7761 30.1719 30 29.948 30 29.6719V27.6719C30 27.3958 29.7761 27.1719 29.5 27.1719ZM15.5 1.17188H18.5V2.17188H15.5V1.17188ZM15 5.71187L23.457 9.17188H6.543L15 5.71187ZM3.5 10.1719H26.5V11.1719H3.5V10.1719ZM2.5 12.1719H27.5V13.1719H2.5V12.1719ZM26.5 14.1719V25.1719H20.5V14.1719H26.5ZM15 19.6719C13.0681 19.6744 11.5025 21.2399 11.5 23.1719V25.1719H10.5V14.1719H19.5V25.1719H18.5V23.1719C18.4975 21.2399 16.9319 19.6744 15 19.6719ZM17.5 23.1719V25.1719H12.5V23.1719C12.5 21.7912 13.6193 20.6719 15 20.6719C16.3807 20.6719 17.5 21.7912 17.5 23.1719ZM9.5 14.1719V25.1719H3.5V14.1719H9.5ZM2.5 26.1719H27.5V27.1719H2.5V26.1719ZM29 29.1719H1V28.1719H29V29.1719Z" fill="black"/>
</g>
</g>
</svg>
