<svg width="222" height="51" viewBox="0 0 222 51" fill="none" xmlns="http://www.w3.org/2000/svg">
<g clip-path="url(#clip0_430_224)">
<path d="M124 0.343994H0V50.344H124V0.343994Z" fill="#26BDE2"/>
<path d="M18.7625 36.0672C23.2265 36.0672 24.9563 33.6318 24.9563 29.7593V26.0715C24.9563 21.9795 23.3344 19.9137 20.3088 19.9137C18.5393 19.9137 17.4704 20.7271 16.843 21.9436H16.807V16.5595C16.807 15.0454 17.2869 13.9778 18.7985 13.9778C20.31 13.9778 20.7527 14.8632 20.7527 16.4119V18.076H24.588V16.743C24.588 13.0552 23.3704 10.4748 18.7241 10.4748C14.2998 10.4748 12.6394 13.3132 12.6394 17.2216V29.391C12.6394 33.2635 14.3357 36.0672 18.7625 36.0672ZM16.807 25.5557C16.8802 24.1557 17.4704 23.2704 18.7985 23.2704C20.2356 23.2704 20.7887 24.1557 20.7887 25.7789V30.13C20.7887 31.7148 20.2009 32.6373 18.7625 32.6373C17.3588 32.6373 16.807 31.6788 16.807 30.13V25.5557Z" fill="white"/>
<path d="M38.0049 20.8945C39.814 20.8945 40.4105 19.8194 40.4105 18.3674V16.6178H38.8555V18.4877C38.8555 19.0854 38.6484 19.4797 38.0334 19.4797C37.4184 19.4797 37.1654 19.0469 37.1654 18.4331V12.9895C37.1654 12.377 37.4221 11.943 38.0334 11.943C38.6447 11.943 38.8555 12.3013 38.8555 12.935V14.2655H40.4105V13.0689C40.4105 11.5747 39.8884 10.5269 38.0049 10.5269C36.2081 10.512 35.4641 11.6677 35.4641 13.2536V18.1578C35.4641 19.7289 36.2081 20.8945 38.0061 20.8945" fill="white"/>
<path d="M45.2264 19.3854H43.1941V10.636H41.4866V20.7767H45.2264V19.3854Z" fill="white"/>
<path d="M50.2188 19.3854H47.8566V16.3053H49.5455V14.9276H47.8566V12.0273H50.2188V10.636H46.1528V20.7767H50.2188V19.3854Z" fill="white"/>
<path d="M52.9258 18.9217H54.7337L55.0487 20.7817H56.7921L54.8664 10.636H52.9258L51.0112 20.7755H52.6232L52.9258 18.9217ZM53.8223 13.488H53.8372L54.5105 17.5539H53.1465L53.8223 13.488Z" fill="white"/>
<path d="M59.0848 14.4056L61.0874 20.7767H62.5816V10.636H61.1618V16.4541L59.3242 10.636H57.6489V20.7767H59.0848V14.4056Z" fill="white"/>
<path d="M68.9142 20.7755L69.8715 14.5098H69.8852L70.8871 20.7755H72.5028L73.8172 10.6372H72.3838L71.605 17.0666H71.5902L70.649 10.6372H69.259L68.4071 17.0666H68.3922L67.5986 10.6372H65.9531L67.3159 20.7755H68.9142Z" fill="white"/>
<path d="M75.7529 18.9217H77.5633L77.8758 20.7817H79.6254L77.696 10.636H75.7529L73.842 20.7755H75.454L75.7529 18.9217ZM76.6519 13.488H76.6655L77.3388 17.5539H75.9748L76.6519 13.488Z" fill="white"/>
<path d="M80.817 20.7755H82.5369V12.0273H83.9418V10.636H79.4121V12.0273H80.817V20.7755Z" fill="white"/>
<path d="M88.8113 19.3854H86.4491V16.3053H88.138V14.9276H86.4491V12.0273H88.8113V10.636H84.7454V20.7767H88.8113V19.3854Z" fill="white"/>
<path d="M91.4388 16.123L93.0372 20.7767H94.8327L93.2021 16.1689C94.1742 15.9469 94.5661 15.3009 94.5661 14.2109V12.9101C94.5661 11.4891 93.9386 10.636 92.2188 10.636H89.7388V20.7767H91.4425L91.4388 16.123ZM91.4388 12.031H92.008C92.5883 12.031 92.8437 12.3001 92.8437 12.8519V14.3436C92.8437 14.883 92.5883 15.1831 92.008 15.1831H91.4388V12.031Z" fill="white"/>
<path d="M37.1777 33.8711H38.9869L39.3006 35.7249H41.044L39.1134 25.5867H37.1777L35.2644 35.7249H36.8764L37.1777 33.8711ZM38.0742 28.4424H38.0916L38.7624 32.5108H37.3984L38.0742 28.4424Z" fill="white"/>
<path d="M41.7495 25.5867V35.7274H43.1842V29.3563L45.1868 35.7274H46.6798V25.5867H45.2624V31.4047L43.4235 25.5867H41.7495Z" fill="white"/>
<path d="M47.9285 35.7262H50.5573C52.3801 35.7262 53.0236 34.5593 53.0236 33.0044V28.3085C53.0236 26.7399 52.3801 25.5879 50.5573 25.5879H47.9285V35.7262ZM49.631 26.9767H50.344C51.0483 26.9767 51.3149 27.3958 51.3149 27.9948V33.3044C51.3149 33.9158 51.0483 34.3349 50.344 34.3349H49.6273L49.631 26.9767Z" fill="white"/>
<path d="M56.8105 32.1822V33.5462C56.8105 34.8755 57.4851 35.8502 59.2174 35.8502C60.9497 35.8502 61.6974 34.8582 61.6974 33.4706V32.9746C61.6974 31.8586 61.251 31.2845 60.3247 30.3421L59.2323 29.2658C58.7363 28.7884 58.425 28.4573 58.425 27.8918V27.6798C58.425 27.1119 58.7536 26.844 59.2323 26.844C59.7704 26.844 60.0395 27.128 60.0395 27.712V28.5962H61.5945V27.7716C61.5945 26.3059 60.9224 25.4689 59.2174 25.4689C57.5583 25.4689 56.8267 26.441 56.8267 27.7009V28.0431C56.8267 29.21 57.2755 29.794 58.2465 30.75L59.2471 31.7532C59.7704 32.2492 60.0085 32.6051 60.0085 33.1866V33.576C60.0085 34.1142 59.7704 34.4738 59.2323 34.4738C58.6507 34.4738 58.3965 34.1452 58.3965 33.576V32.1822H56.8105Z" fill="white"/>
<path d="M63.8005 35.7262L64.0993 33.8662H65.9085L66.2222 35.7262H67.9706L66.0412 25.5879H64.0993L62.1873 35.7262H63.8005ZM64.9971 28.4449H65.012L65.6841 32.5108H64.3201L64.9971 28.4449Z" fill="white"/>
<path d="M72.3218 31.4048L70.4829 25.5879H68.8076V35.7274H70.2448V29.3563L72.2461 35.7274H73.7403V25.5879H72.3218V31.4048Z" fill="white"/>
<path d="M76.8305 25.5867H75.1255V35.7261H76.8305V25.5867Z" fill="white"/>
<path d="M80.7266 35.7274V26.9779H82.1327V25.5891H77.6042V26.9779H79.0079V35.7274H80.7266Z" fill="white"/>
<path d="M85.5983 25.5879H83.6577L81.7432 35.7262H83.3552L83.6565 33.8724H85.4632L85.7769 35.7262H87.5253L85.5983 25.5879ZM83.8797 32.5108L84.5542 28.4449H84.5679L85.2412 32.5108H83.8797Z" fill="white"/>
<path d="M91.5133 25.5879H86.9849V26.978H88.391V35.7274H90.1109V26.978H91.5133V25.5879Z" fill="white"/>
<path d="M94.1483 25.5867H92.4446V35.7261H94.1483V25.5867Z" fill="white"/>
<path d="M97.825 35.8477C99.6341 35.8477 100.409 34.6808 100.409 33.1097V28.2043C100.409 26.6183 99.6341 25.4676 97.825 25.4676C96.0158 25.4676 95.252 26.6183 95.252 28.2043V33.1097C95.252 34.6808 96.0319 35.8477 97.825 35.8477ZM96.957 27.9352C96.957 27.3227 97.2248 26.8887 97.825 26.8887C98.4251 26.8887 98.7066 27.3227 98.7066 27.9352V33.3788C98.7066 33.9914 98.4375 34.4254 97.825 34.4254C97.2124 34.4254 96.957 33.9914 96.957 33.3788V27.9352Z" fill="white"/>
<path d="M106.45 35.7274V25.5891H105.031V31.4047L103.192 25.5891H101.516V35.7274H102.952V29.355L104.955 35.7274H106.45Z" fill="white"/>
</g>
<rect width="98" height="50" transform="translate(124 0.343994)" fill="#26BDE2"/>
<path d="M187.426 5.86728C187.394 5.83225 187.355 5.80436 187.312 5.78542C187.269 5.76649 187.222 5.75694 187.174 5.75739H159.296C159.249 5.75562 159.202 5.76453 159.158 5.78347C159.115 5.80242 159.077 5.8309 159.046 5.8668C159.015 5.9027 158.993 5.94509 158.98 5.99081C158.968 6.03653 158.967 6.0844 158.976 6.13085L163.663 34.457C163.676 34.533 163.715 34.602 163.774 34.6519C163.833 34.7018 163.907 34.7294 163.984 34.7298H169.733L170.126 39.3403H167.707L173.336 44.9682L178.978 39.3272H176.559L176.948 34.7321H182.798C182.876 34.7324 182.951 34.7044 183.01 34.6532C183.069 34.602 183.107 34.5312 183.118 34.4539L187.498 6.13315C187.505 6.0863 187.503 6.03837 187.491 5.99253C187.478 5.9467 187.456 5.904 187.426 5.86728ZM176.652 28.544C176.204 28.9526 175.679 29.2661 175.107 29.4655C174.536 29.665 173.929 29.7462 173.325 29.7043C172.72 29.7466 172.113 29.6656 171.541 29.4661C170.968 29.2667 170.442 28.9529 169.995 28.544C167.906 26.4578 168.652 23.8621 169.38 22.5204C169.829 21.6805 173.038 16.8618 173.314 16.4499V16.4176L173.327 16.433L173.337 16.4176V16.4499C173.606 16.8602 176.821 21.6751 177.269 22.5204C177.995 23.8621 178.739 26.4578 176.652 28.544ZM185.495 11.8271C184.74 11.4944 183.782 11.6143 182.863 11.9862C179.405 13.3885 177.049 13.8926 173.411 12.7546C171.12 12.0369 168.976 10.5354 166.442 11.4483C164.76 12.053 163.193 12.6301 161.294 12.6155L160.196 6.98609H186.284L185.495 11.8271Z" fill="white"/>
<defs>
<clipPath id="clip0_430_224">
<rect width="124" height="50" fill="white" transform="translate(0 0.343994)"/>
</clipPath>
</defs>
</svg>
