<svg width="222" height="51" viewBox="0 0 222 51" fill="none" xmlns="http://www.w3.org/2000/svg">
<g clip-path="url(#clip0_430_1025)">
<path d="M124 0.343994H0V50.344H124V0.343994Z" fill="#FD9D24"/>
<path d="M36.2762 20.9776C38.0122 20.9776 38.7562 19.9856 38.7562 18.6005V18.1045C38.7562 16.9885 38.3073 16.4156 37.381 15.4732L36.2898 14.3969C35.7938 13.9183 35.4838 13.5897 35.4838 13.0193V12.8122C35.4838 12.243 35.8124 11.974 36.2898 11.974C36.8267 11.974 37.0971 12.2579 37.0971 12.842V13.7224H38.6508V12.9015C38.6508 11.437 37.9799 10.5988 36.2749 10.5988C34.6146 10.5988 33.883 11.571 33.883 12.8308V13.1768C33.883 14.3411 34.3319 14.9252 35.3028 15.8812L36.3035 16.8856C36.8267 17.3816 37.0661 17.7362 37.0661 18.319V18.7072C37.0661 19.2466 36.8267 19.6049 36.2898 19.6049C35.707 19.6049 35.4528 19.2763 35.4528 18.7072V17.3184H33.8718V18.6824C33.8718 20.0129 34.5427 20.985 36.2762 20.985" fill="white"/>
<path d="M44.4503 18.391V10.7191H42.8805V18.5546C42.8805 19.1536 42.6411 19.5553 42.0422 19.5553C41.4433 19.5553 41.2065 19.1536 41.2065 18.5546V10.7191H39.5015V18.391C39.5015 19.9608 40.2455 20.9776 42.0422 20.9776C43.7782 20.9776 44.4503 19.9608 44.4503 18.391Z" fill="white"/>
<path d="M50.2052 18.6005V18.1045C50.2052 16.9885 49.7551 16.4156 48.8313 15.4732L47.7401 14.3969C47.2441 13.9195 46.9316 13.5897 46.9316 13.023V12.8134C46.9316 12.2443 47.2627 11.9752 47.7401 11.9752C48.2782 11.9752 48.5461 12.2579 48.5461 12.8432V13.7236H50.0961V12.9027C50.0961 11.4358 49.4252 10.6 47.7202 10.6C46.0611 10.6 45.3283 11.5722 45.3283 12.832V13.1755C45.3283 14.3411 45.7784 14.9252 46.7506 15.8824L47.75 16.8856C48.2733 17.3816 48.5114 17.7362 48.5114 18.319V18.7096C48.5114 19.2453 48.2733 19.6062 47.7351 19.6062C47.1523 19.6062 46.8981 19.2763 46.8981 18.7096V17.3134H45.3184V18.6774C45.3184 20.0079 45.9892 20.9788 47.724 20.9788C49.4587 20.9788 50.204 19.9868 50.204 18.6018" fill="white"/>
<path d="M55.1466 10.7191H50.6182V12.1104H52.0218V20.8586H53.7417V12.1104H55.1466V10.7191Z" fill="white"/>
<path d="M58.6806 10.7191H56.7375L54.8242 20.8573H56.4362L56.7351 19.0048H58.543L58.8579 20.8573H60.6076L58.6806 10.7191ZM56.9632 17.6432L57.6341 13.576H57.6502L58.3235 17.6432H56.9632Z" fill="white"/>
<path d="M63.0006 10.7203H61.2969V20.8598H63.0006V10.7203Z" fill="white"/>
<path d="M68.9069 20.8586V10.7191H67.4871V16.5347L65.6469 10.7191H63.9729V20.8586H65.4088V14.4874L67.4102 20.8586H68.9069Z" fill="white"/>
<path d="M71.3706 19.0035H73.1797L73.4922 20.8635H75.2406L73.3137 10.7191H71.3706L69.4573 20.8573H71.0693L71.3706 19.0035ZM72.2659 13.5748H72.282L72.9566 17.6432H71.5926L72.2659 13.5748Z" fill="white"/>
<path d="M80.5293 13.984V12.9536C80.5293 11.5176 79.9626 10.7216 78.2576 10.7216H75.79V20.861H78.4362C80.1412 20.861 80.7823 20.0687 80.7823 18.629V17.2849C80.7823 16.3574 80.3656 15.7882 79.5125 15.5948C80.2156 15.3703 80.5293 14.8322 80.5293 13.9828M77.5 12.1104H78.084C78.6507 12.1104 78.9062 12.3782 78.9062 12.9325V14.1725C78.9062 14.7119 78.6507 14.9958 78.0977 14.9958H77.5V12.1104ZM79.0835 18.6452C79.0835 19.1833 78.8156 19.4685 78.2477 19.4685H77.5037V16.2978H78.2353C78.833 16.2978 79.0872 16.5818 79.0872 17.1187L79.0835 18.6452Z" fill="white"/>
<path d="M83.1879 10.7191H81.4841V20.8586H85.219V19.4673H83.1879V10.7191Z" fill="white"/>
<path d="M89.9112 12.1104V10.7191H85.8452V20.8586H89.9112V19.4673H87.549V16.3859H89.2379V15.012H87.549V12.1104H89.9112Z" fill="white"/>
<path d="M95.3176 20.9776C97.1268 20.9776 97.7257 19.9013 97.7257 18.4505V16.7008H96.1695V18.572C96.1695 19.1672 95.9599 19.5566 95.3474 19.5566C94.7348 19.5566 94.4794 19.1238 94.4794 18.51V13.0676C94.4794 12.4476 94.7274 12.0198 95.3474 12.0198C95.9674 12.0198 96.1695 12.3782 96.1695 13.0118V14.3436H97.7257V13.147C97.7257 11.6503 97.2012 10.6038 95.3176 10.6038C93.5246 10.6038 92.7769 11.7545 92.7769 13.3392V18.2459C92.7769 19.8157 93.5209 20.9813 95.3176 20.9813" fill="white"/>
<path d="M100.228 10.7203H98.5254V20.8598H100.228V10.7203Z" fill="white"/>
<path d="M104.005 20.8586V12.1104H105.407V10.7191H100.88V12.1104H102.284V20.8586H104.005Z" fill="white"/>
<path d="M107.776 10.7203H106.073V20.8598H107.776V10.7203Z" fill="white"/>
<path d="M108.654 20.8586H112.719V19.4673H110.358V16.3859H112.044V15.012H110.358V12.1104H112.719V10.7191H108.654V20.8586Z" fill="white"/>
<path d="M115.607 14.3982C115.111 13.9183 114.802 13.5909 114.802 13.0205V12.8134C114.802 12.2443 115.129 11.9752 115.607 11.9752C116.147 11.9752 116.414 12.2592 116.414 12.8432V13.7248H117.97V12.9027C117.97 11.4358 117.297 10.6 115.592 10.6C113.933 10.6 113.202 11.5722 113.202 12.832V13.178C113.202 14.3424 113.649 14.9264 114.621 15.8824L115.621 16.8868C116.147 17.3828 116.385 17.7375 116.385 18.3203V18.7084C116.385 19.2478 116.147 19.6062 115.607 19.6062C115.024 19.6062 114.77 19.2776 114.77 18.7084V17.3196H113.186V18.6836C113.186 20.0141 113.858 20.9863 115.592 20.9863C117.325 20.9863 118.072 19.9943 118.072 18.6092V18.1132C118.072 16.9972 117.619 16.4243 116.695 15.4819L115.607 14.3982Z" fill="white"/>
<path d="M35.8101 25.6016L33.8967 35.7386H35.5087L35.8076 33.8847H37.6155L37.9305 35.7386H39.6801L37.7519 25.6016H35.8101ZM36.0345 32.5245L36.7066 28.4573H36.7227L37.3935 32.5245H36.0345Z" fill="white"/>
<path d="M44.0473 31.4172L42.2084 25.6016H40.5344V35.7398H41.9703V29.3674L43.9717 35.7398H45.4671V25.6016H44.0473V31.4172Z" fill="white"/>
<path d="M49.2206 25.5991H46.5894V35.7398H49.2206C51.0447 35.7398 51.6858 34.5742 51.6858 33.018V28.3221C51.6858 26.7523 51.0447 25.5941 49.2206 25.5941M49.982 33.3119C49.982 33.9244 49.7129 34.3436 49.0111 34.3436H48.2919V26.9916H49.0111C49.7129 26.9916 49.982 27.4095 49.982 28.0072V33.3119Z" fill="white"/>
<path d="M57.0686 25.4813C55.2743 25.4813 54.5266 26.632 54.5266 28.218V33.1234C54.5266 34.692 55.2706 35.8588 57.0686 35.8588C58.8666 35.8588 59.4742 34.7813 59.4742 33.3305V31.5821H57.9192V33.452C57.9192 34.0509 57.7109 34.444 57.0996 34.444C56.4883 34.444 56.2316 34.0112 56.2316 33.3974V27.9538C56.2316 27.3413 56.4871 26.9073 57.0996 26.9073C57.7122 26.9073 57.9192 27.2656 57.9192 27.8993V29.2298H59.4742V28.0332C59.4742 26.5378 58.9522 25.4924 57.0686 25.4924" fill="white"/>
<path d="M63.1247 25.4813C61.3292 25.4813 60.553 26.632 60.553 28.218V33.1234C60.553 34.692 61.3292 35.8588 63.1247 35.8588C64.9203 35.8588 65.7089 34.692 65.7089 33.1234V28.218C65.7089 26.632 64.9327 25.4813 63.1247 25.4813ZM64.0051 33.3912C64.0051 34.005 63.7361 34.4378 63.1247 34.4378C62.5134 34.4378 62.2567 34.005 62.2567 33.3912V27.9476C62.2567 27.3351 62.5233 26.9011 63.1247 26.9011C63.7261 26.9011 64.0051 27.3351 64.0051 27.9476V33.3912Z" fill="white"/>
<path d="M69.9397 31.313H69.9248L68.82 25.5991H66.8323V35.7386H68.236V29.1591H68.2657L69.5367 35.7386H70.3278L71.4798 29.1591H71.5244V35.7386H73.0794V25.5991H70.9268L69.9397 31.313Z" fill="white"/>
<path d="M77.3116 31.313H77.2967L76.1906 25.5991H74.2017V35.7386H75.6078V29.1591H75.6363L76.9061 35.7386H77.6997L78.8492 29.1591H78.8951V35.7386H80.4488V25.5991H78.2974L77.3116 31.313Z" fill="white"/>
<path d="M84.9486 33.4359C84.9486 34.0348 84.7117 34.4403 84.1128 34.4403C83.5139 34.4403 83.2758 34.0348 83.2758 33.4359V25.6016H81.5708V33.2697C81.5708 34.842 82.3148 35.8588 84.1128 35.8588C85.8488 35.8588 86.5184 34.842 86.5184 33.2697V25.6016H84.9486V33.4359Z" fill="white"/>
<path d="M91.156 31.4172L89.3146 25.6016H87.6418V35.7398H89.0778V29.3674L91.0791 35.7398H92.5733V25.6016H91.156V31.4172Z" fill="white"/>
<path d="M8.88452 15.2724V19.6595H8.92048L11.8704 16.5992H11.9089V35.7373H16.1125V10.7352H12.7558L8.88452 15.2724Z" fill="white"/>
<path d="M18.4722 15.2724V19.6595H18.5094L21.4593 16.5992H21.4953V35.7373H25.7001V10.7352H22.3459L18.4722 15.2724Z" fill="white"/>
<path d="M95.4032 25.5991H93.6995V35.7386H95.4032V25.5991Z" fill="white"/>
<path d="M96.3306 26.9904H97.7355V35.7386H99.4541V26.9904H100.859V25.5991H96.3306V26.9904Z" fill="white"/>
<path d="M103.507 25.5991H101.802V35.7386H103.507V25.5991Z" fill="white"/>
<path d="M104.644 35.7386H108.71V34.3485H106.346V31.2684H108.036V29.892H106.346V26.9904H108.71V25.5991H104.644V35.7386Z" fill="white"/>
<path d="M112.013 29.2794C111.517 28.7995 111.206 28.4709 111.206 27.9042V27.6934C111.206 27.1243 111.534 26.8564 112.013 26.8564C112.551 26.8564 112.819 27.1404 112.819 27.7244V28.6073H114.375V27.784C114.375 26.3183 113.702 25.4825 111.998 25.4825C110.338 25.4825 109.606 26.4547 109.606 27.7145V28.058C109.606 29.2236 110.055 29.8076 111.027 30.7637L112.029 31.7668C112.551 32.2628 112.79 32.6187 112.79 33.2015V33.5909C112.79 34.129 112.551 34.4886 112.013 34.4886C111.43 34.4886 111.176 34.16 111.176 33.5909V32.1959H109.591V33.5599C109.591 34.8904 110.263 35.8626 111.998 35.8626C113.733 35.8626 114.478 34.8706 114.478 33.4867V32.9907C114.478 31.8747 114.029 31.3031 113.103 30.3594L112.013 29.2794Z" fill="white"/>
</g>
<rect width="98" height="50" transform="translate(124 0.343994)" fill="#FD9D24"/>
<path d="M137.925 33.4362H153.67C153.745 33.4366 153.818 33.422 153.881 33.3942C153.944 33.3664 153.994 33.3267 154.024 33.2799C154.054 33.2331 154.064 33.1813 154.051 33.1308C154.039 33.0804 154.005 33.0335 153.955 32.9959L153.933 32.9802L146.097 26.0589L146.02 26.001C145.984 25.9739 145.94 25.9523 145.891 25.9375C145.842 25.9227 145.789 25.9151 145.735 25.9152C145.642 25.9165 145.552 25.9405 145.482 25.9831L145.435 26.0203L145.361 26.0767L137.717 32.9258L137.6 33.0238C137.557 33.0672 137.534 33.1185 137.534 33.171C137.534 33.206 137.544 33.2406 137.564 33.2729C137.584 33.3051 137.612 33.3344 137.649 33.3591C137.685 33.3837 137.728 33.4032 137.775 33.4165C137.823 33.4297 137.874 33.4364 137.925 33.4362Z" fill="white"/>
<path d="M153.622 34.4149H137.841C137.79 34.4149 137.74 34.4217 137.693 34.435C137.646 34.4482 137.604 34.4677 137.568 34.4921C137.532 34.5166 137.503 34.5457 137.484 34.5777C137.465 34.6097 137.455 34.644 137.455 34.6787V43.1069C137.454 43.1416 137.464 43.1761 137.484 43.2082C137.503 43.2403 137.531 43.2695 137.567 43.2941C137.603 43.3188 137.646 43.3383 137.693 43.3517C137.74 43.3651 137.79 43.372 137.841 43.3721H142.92V38.0671C142.92 38.0325 142.93 37.9981 142.949 37.9661C142.969 37.934 142.997 37.9049 143.033 37.8804C143.069 37.8559 143.111 37.8365 143.158 37.8232C143.205 37.81 143.256 37.8032 143.306 37.8033H148.018C148.069 37.8032 148.119 37.81 148.166 37.8232C148.213 37.8365 148.256 37.8559 148.291 37.8804C148.327 37.9049 148.356 37.934 148.375 37.9661C148.395 37.9981 148.404 38.0325 148.404 38.0671V43.3721H153.619C153.669 43.372 153.72 43.3651 153.767 43.3517C153.814 43.3383 153.856 43.3188 153.892 43.2941C153.928 43.2695 153.956 43.2403 153.976 43.2082C153.995 43.1761 154.005 43.1416 154.005 43.1069V34.6758C154.004 34.6067 153.963 34.5407 153.891 34.4919C153.82 34.4431 153.723 34.4154 153.622 34.4149Z" fill="white"/>
<path d="M208.162 32.2045H192.544C192.494 32.2039 192.445 32.21 192.399 32.2225C192.353 32.235 192.311 32.2535 192.275 32.2771C192.24 32.3007 192.212 32.3288 192.192 32.3599C192.172 32.391 192.162 32.4244 192.162 32.4583V43.2262C192.163 43.2944 192.204 43.3593 192.276 43.4067C192.348 43.4541 192.444 43.4802 192.544 43.4793H208.162C208.212 43.4799 208.261 43.4738 208.307 43.4613C208.353 43.4489 208.395 43.4305 208.431 43.407C208.466 43.3835 208.495 43.3554 208.514 43.3244C208.534 43.2934 208.545 43.26 208.545 43.2262V32.4583C208.545 32.4244 208.534 32.3909 208.515 32.3598C208.495 32.3286 208.467 32.3004 208.431 32.2768C208.396 32.2533 208.354 32.2347 208.307 32.2223C208.261 32.2099 208.212 32.2038 208.162 32.2045ZM199.616 39.2344C199.616 39.2682 199.606 39.3016 199.586 39.3327C199.567 39.3638 199.538 39.3919 199.503 39.4156C199.468 39.4392 199.426 39.4578 199.38 39.4704C199.334 39.483 199.285 39.4893 199.235 39.4889H194.569C194.519 39.4894 194.47 39.4832 194.424 39.4707C194.378 39.4581 194.335 39.4395 194.3 39.4159C194.264 39.3922 194.236 39.3641 194.216 39.3329C194.197 39.3018 194.186 39.2683 194.186 39.2344V37.2986C194.186 37.2647 194.196 37.2312 194.216 37.2C194.236 37.1688 194.264 37.1406 194.3 37.1169C194.335 37.0933 194.377 37.0747 194.424 37.0622C194.47 37.0497 194.519 37.0435 194.569 37.0441H199.235C199.285 37.0436 199.334 37.0498 199.38 37.0624C199.426 37.0749 199.468 37.0936 199.503 37.1172C199.539 37.1409 199.567 37.1691 199.586 37.2002C199.606 37.2313 199.616 37.2648 199.616 37.2986V39.2344ZM199.616 35.6558C199.616 35.6896 199.606 35.723 199.586 35.7541C199.567 35.7852 199.538 35.8133 199.503 35.837C199.468 35.8606 199.426 35.8792 199.38 35.8918C199.334 35.9044 199.285 35.9107 199.235 35.9103H194.569C194.519 35.9108 194.47 35.9046 194.424 35.8921C194.378 35.8795 194.335 35.8609 194.3 35.8373C194.264 35.8136 194.236 35.7855 194.216 35.7543C194.197 35.7232 194.186 35.6897 194.186 35.6558V33.7186C194.187 33.6504 194.229 33.5855 194.301 33.538C194.372 33.4906 194.469 33.4645 194.569 33.4655H199.235C199.285 33.465 199.334 33.4712 199.38 33.4837C199.425 33.4961 199.467 33.5146 199.503 33.5381C199.538 33.5616 199.566 33.5897 199.586 33.6206C199.605 33.6516 199.616 33.6849 199.616 33.7186V35.6558ZM206.749 39.2344C206.748 39.2684 206.738 39.3019 206.718 39.333C206.699 39.3642 206.67 39.3924 206.635 39.4161C206.599 39.4397 206.557 39.4584 206.511 39.4709C206.465 39.4834 206.415 39.4895 206.366 39.4889H201.701C201.651 39.4895 201.602 39.4834 201.556 39.4709C201.51 39.4584 201.468 39.4397 201.432 39.4161C201.396 39.3924 201.368 39.3642 201.348 39.333C201.329 39.3019 201.318 39.2684 201.318 39.2344V37.2986C201.318 37.2647 201.329 37.2312 201.348 37.2C201.368 37.1688 201.396 37.1406 201.432 37.1169C201.468 37.0933 201.51 37.0747 201.556 37.0622C201.602 37.0497 201.651 37.0435 201.701 37.0441H206.366C206.415 37.0435 206.465 37.0497 206.511 37.0622C206.557 37.0747 206.599 37.0933 206.635 37.1169C206.67 37.1406 206.699 37.1688 206.718 37.2C206.738 37.2312 206.748 37.2647 206.749 37.2986V39.2344ZM206.749 35.6558C206.748 35.6898 206.738 35.7233 206.718 35.7544C206.699 35.7856 206.67 35.8138 206.635 35.8375C206.599 35.8611 206.557 35.8797 206.511 35.8922C206.465 35.9047 206.415 35.9109 206.366 35.9103H201.701C201.651 35.9109 201.602 35.9047 201.556 35.8922C201.51 35.8797 201.468 35.8611 201.432 35.8375C201.396 35.8138 201.368 35.7856 201.348 35.7544C201.329 35.7233 201.318 35.6898 201.318 35.6558V33.7186C201.319 33.6848 201.329 33.6514 201.349 33.6204C201.369 33.5894 201.397 33.5613 201.433 33.5378C201.468 33.5143 201.51 33.4958 201.556 33.4834C201.602 33.471 201.652 33.4649 201.701 33.4655H206.366C206.415 33.4649 206.464 33.471 206.51 33.4834C206.556 33.4958 206.598 33.5143 206.634 33.5378C206.669 33.5613 206.698 33.5894 206.718 33.6204C206.737 33.6514 206.748 33.6848 206.749 33.7186V35.6558Z" fill="white"/>
<path d="M171.855 7.21005H156.568C156.519 7.21014 156.47 7.21683 156.425 7.22975C156.38 7.24266 156.339 7.26154 156.304 7.2853C156.269 7.30907 156.242 7.33725 156.223 7.36825C156.205 7.39925 156.195 7.43245 156.195 7.46597V43.1305C156.196 43.198 156.235 43.2627 156.305 43.3105C156.375 43.3583 156.469 43.3853 156.568 43.3857H171.855C171.954 43.3855 172.049 43.3586 172.119 43.3108C172.19 43.263 172.23 43.1982 172.23 43.1305V7.46454C172.23 7.3966 172.19 7.33151 172.12 7.28353C172.05 7.23556 171.954 7.20862 171.855 7.20862M162.762 39.3224C162.762 39.3404 162.757 39.3583 162.747 39.3749C162.737 39.3916 162.722 39.4067 162.703 39.4194C162.685 39.4322 162.663 39.4423 162.638 39.4492C162.614 39.4561 162.588 39.4596 162.561 39.4596H159.062C159.009 39.4596 158.958 39.4452 158.92 39.4194C158.882 39.3937 158.861 39.3588 158.861 39.3224V36.6602C158.861 36.6422 158.866 36.6244 158.876 36.6078C158.886 36.5912 158.901 36.5761 158.92 36.5634C158.939 36.5508 158.961 36.5407 158.985 36.5339C159.01 36.5271 159.036 36.5236 159.062 36.5237H162.561C162.588 36.5236 162.614 36.5271 162.638 36.5339C162.662 36.5407 162.685 36.5508 162.703 36.5634C162.722 36.5761 162.737 36.5912 162.747 36.6078C162.757 36.6244 162.762 36.6422 162.762 36.6602V39.3224ZM162.762 33.2067C162.762 33.2247 162.757 33.2424 162.747 33.2589C162.736 33.2755 162.722 33.2905 162.703 33.3031C162.684 33.3157 162.662 33.3257 162.638 33.3324C162.613 33.3392 162.587 33.3427 162.561 33.3426H159.062C159.01 33.342 158.96 33.3275 158.923 33.3021C158.886 33.2767 158.865 33.2425 158.865 33.2067V30.5453C158.865 30.5273 158.87 30.5094 158.88 30.4927C158.89 30.476 158.905 30.4608 158.924 30.448C158.942 30.4353 158.965 30.4252 158.989 30.4183C159.014 30.4114 159.04 30.408 159.066 30.4081H162.561C162.588 30.408 162.614 30.4114 162.638 30.4183C162.663 30.4252 162.685 30.4353 162.704 30.448C162.722 30.4608 162.737 30.476 162.747 30.4927C162.757 30.5094 162.762 30.5273 162.762 30.5453V33.2067ZM162.762 27.0925C162.762 27.1105 162.757 27.1284 162.747 27.145C162.737 27.1617 162.722 27.1768 162.703 27.1896C162.685 27.2023 162.663 27.2124 162.638 27.2193C162.614 27.2262 162.588 27.2298 162.561 27.2298H159.062C159.009 27.2298 158.958 27.2153 158.92 27.1896C158.882 27.1638 158.861 27.1289 158.861 27.0925V24.4289C158.861 24.3927 158.883 24.3579 158.92 24.3323C158.958 24.3068 159.009 24.2924 159.062 24.2924H162.561C162.614 24.2924 162.665 24.3068 162.703 24.3323C162.741 24.3579 162.762 24.3927 162.762 24.4289V27.0925ZM162.762 20.9769C162.762 21.0133 162.741 21.0482 162.703 21.0739C162.666 21.0997 162.615 21.1141 162.561 21.1141H159.062C159.009 21.1134 158.959 21.0984 158.922 21.0724C158.885 21.0464 158.865 21.0116 158.865 20.9754V18.3133C158.865 18.2954 158.871 18.2777 158.881 18.2612C158.891 18.2447 158.906 18.2298 158.925 18.2172C158.943 18.2046 158.965 18.1947 158.99 18.188C159.014 18.1813 159.04 18.178 159.066 18.1782H162.561C162.587 18.178 162.613 18.1813 162.638 18.188C162.662 18.1947 162.684 18.2046 162.703 18.2172C162.722 18.2298 162.736 18.2447 162.747 18.2612C162.757 18.2777 162.762 18.2954 162.762 18.3133V20.9769ZM162.762 14.8627C162.762 14.8989 162.741 14.9337 162.703 14.9592C162.665 14.9848 162.614 14.9992 162.561 14.9992H159.062C159.009 14.9992 158.958 14.9848 158.92 14.9592C158.883 14.9337 158.861 14.8989 158.861 14.8627V12.1991C158.861 12.1627 158.882 12.1278 158.92 12.102C158.958 12.0763 159.009 12.0618 159.062 12.0618H162.561C162.588 12.0618 162.614 12.0654 162.638 12.0723C162.663 12.0792 162.685 12.0893 162.703 12.102C162.722 12.1148 162.737 12.1299 162.747 12.1465C162.757 12.1632 162.762 12.181 162.762 12.1991V14.8627ZM169.625 39.3224C169.625 39.3405 169.62 39.3584 169.61 39.3751C169.6 39.3918 169.585 39.4069 169.566 39.4197C169.547 39.4324 169.525 39.4425 169.501 39.4494C169.476 39.4563 169.45 39.4597 169.423 39.4596H165.925C165.899 39.4597 165.873 39.4563 165.848 39.4494C165.824 39.4425 165.802 39.4324 165.783 39.4197C165.764 39.4069 165.749 39.3917 165.739 39.375C165.729 39.3583 165.724 39.3404 165.724 39.3224V36.6602C165.724 36.6422 165.729 36.6244 165.74 36.6078C165.75 36.5912 165.765 36.5761 165.783 36.5634C165.802 36.5508 165.824 36.5407 165.848 36.5339C165.873 36.5271 165.899 36.5236 165.925 36.5237H169.423C169.45 36.5235 169.476 36.5269 169.501 36.5337C169.525 36.5405 169.547 36.5505 169.566 36.5632C169.585 36.5759 169.6 36.591 169.61 36.6077C169.62 36.6243 169.625 36.6422 169.625 36.6602V39.3224ZM169.625 33.2067C169.626 33.2248 169.62 33.2428 169.61 33.2595C169.6 33.2763 169.585 33.2915 169.567 33.3043C169.548 33.317 169.525 33.3271 169.501 33.3339C169.476 33.3408 169.45 33.3442 169.423 33.344H165.925C165.899 33.3442 165.873 33.3408 165.848 33.3339C165.824 33.3271 165.801 33.317 165.783 33.3042C165.764 33.2914 165.749 33.2762 165.739 33.2595C165.729 33.2427 165.724 33.2248 165.724 33.2067V30.5453C165.724 30.5272 165.729 30.5093 165.739 30.4926C165.749 30.4758 165.764 30.4606 165.783 30.4478C165.801 30.435 165.824 30.4249 165.848 30.4181C165.873 30.4113 165.899 30.4079 165.925 30.4081H169.423C169.45 30.4079 169.476 30.4113 169.501 30.4181C169.525 30.4249 169.548 30.435 169.567 30.4478C169.585 30.4606 169.6 30.4758 169.61 30.4925C169.62 30.5092 169.626 30.5272 169.625 30.5453V33.2067ZM169.625 27.0925C169.625 27.1106 169.62 27.1285 169.61 27.1452C169.6 27.1619 169.585 27.1771 169.566 27.1898C169.547 27.2026 169.525 27.2127 169.501 27.2195C169.476 27.2264 169.45 27.2299 169.423 27.2298H165.925C165.899 27.2299 165.873 27.2264 165.848 27.2195C165.824 27.2127 165.802 27.2025 165.783 27.1898C165.764 27.177 165.749 27.1619 165.739 27.1452C165.729 27.1285 165.724 27.1106 165.724 27.0925V24.4289C165.724 24.411 165.729 24.3931 165.74 24.3765C165.75 24.3599 165.765 24.3448 165.783 24.3321C165.802 24.3195 165.824 24.3094 165.848 24.3026C165.873 24.2958 165.899 24.2923 165.925 24.2924H169.423C169.45 24.2923 169.476 24.2958 169.5 24.3026C169.525 24.3094 169.547 24.3194 169.566 24.3321C169.585 24.3448 169.6 24.3599 169.61 24.3765C169.62 24.3931 169.625 24.4109 169.625 24.4289V27.0925ZM169.625 20.9769C169.625 20.995 169.62 21.0129 169.61 21.0296C169.6 21.0463 169.585 21.0614 169.566 21.0742C169.547 21.0869 169.525 21.097 169.501 21.1039C169.476 21.1107 169.45 21.1142 169.423 21.1141H165.925C165.899 21.1142 165.873 21.1107 165.848 21.1039C165.824 21.097 165.802 21.0869 165.783 21.0741C165.764 21.0614 165.749 21.0462 165.739 21.0295C165.729 21.0128 165.724 20.9949 165.724 20.9769V18.3133C165.724 18.2954 165.73 18.2777 165.74 18.2612C165.75 18.2447 165.765 18.2298 165.784 18.2172C165.802 18.2046 165.824 18.1947 165.849 18.188C165.873 18.1813 165.899 18.178 165.925 18.1782H169.423C169.45 18.1779 169.476 18.1812 169.5 18.1878C169.525 18.1945 169.547 18.2044 169.566 18.2169C169.585 18.2295 169.599 18.2445 169.61 18.261C169.62 18.2776 169.625 18.2953 169.625 18.3133V20.9769ZM169.625 14.8627C169.625 14.8807 169.62 14.8985 169.61 14.9151C169.6 14.9317 169.585 14.9468 169.566 14.9595C169.547 14.9722 169.525 14.9822 169.5 14.989C169.476 14.9958 169.45 14.9993 169.423 14.9992H165.925C165.899 14.9993 165.873 14.9958 165.848 14.989C165.824 14.9822 165.802 14.9721 165.783 14.9595C165.765 14.9468 165.75 14.9317 165.74 14.9151C165.729 14.8985 165.724 14.8806 165.724 14.8627V12.1991C165.724 12.181 165.729 12.1631 165.739 12.1464C165.749 12.1297 165.764 12.1146 165.783 12.1018C165.802 12.089 165.824 12.0789 165.848 12.0721C165.873 12.0652 165.899 12.0617 165.925 12.0618H169.423C169.45 12.0617 169.476 12.0652 169.501 12.0721C169.525 12.0789 169.547 12.089 169.566 12.1018C169.585 12.1145 169.6 12.1297 169.61 12.1464C169.62 12.1631 169.625 12.181 169.625 12.1991V14.8627Z" fill="white"/>
<path d="M208.527 31.1208C208.527 31.1776 208.494 31.2322 208.435 31.2724C208.377 31.3126 208.297 31.3352 208.213 31.3352H192.492C192.409 31.3352 192.329 31.3126 192.27 31.2724C192.211 31.2322 192.178 31.1776 192.178 31.1208V28.9762C192.178 28.9193 192.211 28.8648 192.27 28.8245C192.329 28.7843 192.409 28.7617 192.492 28.7617H208.213C208.297 28.7617 208.377 28.7843 208.435 28.8245C208.494 28.8648 208.527 28.9193 208.527 28.9762V31.1208Z" fill="white"/>
<path d="M190.318 13.9448C190.294 13.8877 190.243 13.8374 190.174 13.8014C190.105 13.7655 190.02 13.7458 189.933 13.7453C189.855 13.7467 189.779 13.7639 189.715 13.7946L189.686 13.8075L189.558 13.919L174.535 26.9295L174.466 26.9932C174.385 27.0466 174.338 27.1195 174.335 27.1962V43.1841C174.335 43.2176 174.345 43.2508 174.364 43.2817C174.383 43.3126 174.41 43.3407 174.445 43.3643C174.48 43.388 174.521 43.4067 174.567 43.4194C174.612 43.4322 174.661 43.4387 174.71 43.4386H189.98C190.029 43.4387 190.077 43.4322 190.123 43.4194C190.168 43.4067 190.209 43.3879 190.244 43.3643C190.279 43.3406 190.306 43.3126 190.325 43.2816C190.344 43.2507 190.353 43.2176 190.353 43.1841V14.052C190.353 14.0149 190.34 13.9784 190.318 13.9448ZM183.994 21.0105L184.098 20.919C185.126 20.0182 186.858 18.5599 187.702 17.8551L187.813 17.765C187.854 17.7311 187.905 17.7038 187.964 17.685C188.022 17.6662 188.085 17.6564 188.149 17.6563C188.249 17.6567 188.345 17.6807 188.422 17.7243C188.498 17.7679 188.55 17.8283 188.568 17.8951V21.1899C188.568 21.2663 188.524 21.3396 188.446 21.3943C188.367 21.449 188.261 21.4808 188.149 21.483C188.142 21.483 188.137 21.483 188.131 21.483C188.124 21.483 188.118 21.483 188.111 21.483H184.361C184.354 21.483 184.349 21.483 184.342 21.483C184.336 21.483 184.33 21.483 184.324 21.483C184.212 21.4806 184.106 21.4487 184.028 21.3941C183.95 21.3394 183.905 21.2662 183.905 21.1899C183.905 21.1251 183.936 21.0621 183.994 21.0105ZM181.617 39.2323C181.617 39.2659 181.608 39.2991 181.589 39.3301C181.57 39.3611 181.543 39.3893 181.508 39.413C181.473 39.4367 181.432 39.4555 181.386 39.4683C181.341 39.4811 181.292 39.4876 181.243 39.4875H176.687C176.637 39.4876 176.589 39.4811 176.543 39.4683C176.498 39.4555 176.457 39.4367 176.422 39.413C176.387 39.3893 176.36 39.3611 176.341 39.3301C176.322 39.2991 176.313 39.2659 176.313 39.2323V37.2857C176.313 37.2523 176.322 37.2191 176.341 37.1882C176.36 37.1573 176.388 37.1292 176.422 37.1055C176.457 37.0819 176.498 37.0632 176.544 37.0504C176.589 37.0377 176.638 37.0312 176.687 37.0313H181.242C181.291 37.0312 181.34 37.0377 181.385 37.0504C181.43 37.0632 181.472 37.0819 181.506 37.1055C181.541 37.1292 181.569 37.1573 181.587 37.1882C181.606 37.2191 181.616 37.2523 181.616 37.2857L181.617 39.2323ZM181.617 35.6351C181.617 35.6687 181.608 35.7019 181.589 35.7329C181.57 35.7639 181.543 35.7921 181.508 35.8158C181.473 35.8395 181.432 35.8583 181.386 35.8711C181.341 35.8839 181.292 35.8904 181.243 35.8903H176.687C176.637 35.8904 176.589 35.8839 176.543 35.8711C176.498 35.8583 176.457 35.8395 176.422 35.8158C176.387 35.7921 176.36 35.7639 176.341 35.7329C176.322 35.7019 176.313 35.6687 176.313 35.6351V33.6886C176.313 33.655 176.322 33.6217 176.341 33.5907C176.359 33.5596 176.387 33.5314 176.422 33.5077C176.456 33.4839 176.498 33.4651 176.543 33.4524C176.589 33.4396 176.637 33.4332 176.687 33.4334H181.242C181.291 33.4332 181.34 33.4396 181.386 33.4524C181.431 33.4651 181.472 33.4839 181.507 33.5077C181.542 33.5314 181.569 33.5596 181.588 33.5907C181.607 33.6217 181.616 33.655 181.616 33.6886L181.617 35.6351ZM181.617 32.0379C181.617 32.0714 181.607 32.1046 181.589 32.1355C181.57 32.1664 181.542 32.1945 181.507 32.2181C181.473 32.2418 181.432 32.2605 181.386 32.2733C181.341 32.286 181.292 32.2925 181.243 32.2924H176.687C176.638 32.2925 176.589 32.286 176.544 32.2733C176.498 32.2605 176.457 32.2418 176.422 32.2181C176.388 32.1945 176.36 32.1664 176.341 32.1355C176.322 32.1046 176.313 32.0714 176.313 32.0379V30.0907C176.313 30.0571 176.322 30.0239 176.341 29.9929C176.36 29.9619 176.387 29.9337 176.422 29.91C176.457 29.8863 176.498 29.8675 176.543 29.8547C176.589 29.8419 176.637 29.8354 176.687 29.8354H181.242C181.291 29.8354 181.34 29.8419 181.385 29.8547C181.431 29.8675 181.472 29.8863 181.507 29.91C181.542 29.9337 181.569 29.9619 181.588 29.9929C181.607 30.0239 181.616 30.0571 181.616 30.0907L181.617 32.0379ZM181.63 24.1551V28.4443C181.629 28.512 181.59 28.5768 181.52 28.6246C181.45 28.6724 181.355 28.6993 181.256 28.6995H176.701C176.652 28.6997 176.603 28.6933 176.558 28.6805C176.512 28.6678 176.47 28.649 176.436 28.6253C176.401 28.6016 176.373 28.5734 176.354 28.5423C176.335 28.5113 176.325 28.478 176.325 28.4443V27.9046C176.327 27.8721 176.337 27.8399 176.354 27.8095C176.36 27.7991 176.368 27.7891 176.377 27.7795C176.386 27.7676 176.397 27.7564 176.41 27.7459C176.421 27.7338 176.438 27.718 176.452 27.7044C177.034 27.1326 179.662 24.9251 180.766 24.0015L180.877 23.91C180.918 23.8761 180.969 23.8489 181.027 23.8302C181.085 23.8116 181.149 23.8019 181.213 23.802C181.312 23.8025 181.408 23.8264 181.485 23.8698C181.561 23.9133 181.613 23.9734 181.632 24.0401L181.63 24.1551ZM188.58 39.2323C188.58 39.2658 188.57 39.299 188.551 39.33C188.532 39.3609 188.505 39.3891 188.47 39.4128C188.435 39.4365 188.394 39.4553 188.349 39.4681C188.304 39.4809 188.255 39.4875 188.206 39.4875H183.651C183.602 39.4877 183.553 39.4813 183.508 39.4685C183.462 39.4558 183.421 39.437 183.386 39.4133C183.351 39.3896 183.323 39.3614 183.304 39.3303C183.285 39.2993 183.275 39.266 183.275 39.2323V37.2857C183.276 37.2522 183.285 37.2189 183.304 37.188C183.323 37.157 183.351 37.1289 183.386 37.1052C183.421 37.0816 183.462 37.0629 183.508 37.0502C183.553 37.0375 183.602 37.0311 183.651 37.0313H188.206C188.305 37.0313 188.4 37.058 188.47 37.1058C188.54 37.1535 188.579 37.2182 188.58 37.2857V39.2323ZM188.58 35.6351C188.58 35.7028 188.54 35.7677 188.47 35.8156C188.4 35.8634 188.305 35.8903 188.206 35.8903H183.651C183.602 35.8905 183.553 35.8841 183.508 35.8713C183.462 35.8586 183.421 35.8398 183.386 35.8161C183.351 35.7924 183.323 35.7642 183.304 35.7331C183.285 35.7021 183.275 35.6688 183.275 35.6351V33.6886C183.275 33.6549 183.285 33.6215 183.304 33.5905C183.323 33.5594 183.35 33.5311 183.385 33.5074C183.42 33.4836 183.462 33.4649 183.508 33.4522C183.553 33.4395 183.602 33.4331 183.651 33.4334H188.206C188.255 33.4334 188.304 33.44 188.349 33.4528C188.394 33.4656 188.435 33.4844 188.47 33.5081C188.505 33.5318 188.532 33.5599 188.551 33.5909C188.57 33.6219 188.58 33.655 188.58 33.6886V35.6351ZM188.58 32.0379C188.579 32.1054 188.54 32.1701 188.47 32.2177C188.4 32.2654 188.305 32.2922 188.206 32.2924H183.651C183.602 32.2926 183.553 32.2862 183.508 32.2735C183.462 32.2608 183.421 32.2421 183.386 32.2184C183.351 32.1948 183.323 32.1667 183.304 32.1357C183.285 32.1047 183.276 32.0715 183.275 32.0379V30.0907C183.275 30.057 183.285 30.0237 183.304 29.9927C183.323 29.9616 183.351 29.9334 183.386 29.9097C183.421 29.886 183.462 29.8672 183.508 29.8545C183.553 29.8417 183.602 29.8353 183.651 29.8354H188.206C188.305 29.8354 188.4 29.8623 188.47 29.9102C188.54 29.9581 188.58 30.023 188.58 30.0907V32.0379ZM188.58 28.44C188.579 28.5076 188.54 28.5723 188.47 28.62C188.4 28.6677 188.305 28.6945 188.206 28.6945H183.651C183.602 28.6947 183.553 28.6883 183.508 28.6756C183.462 28.6629 183.421 28.6442 183.386 28.6205C183.351 28.5969 183.323 28.5688 183.304 28.5378C183.285 28.5068 183.276 28.4736 183.275 28.44V26.4935C183.275 26.4598 183.285 26.4265 183.304 26.3955C183.323 26.3644 183.351 26.3362 183.386 26.3125C183.421 26.2888 183.462 26.27 183.508 26.2573C183.553 26.2445 183.602 26.2381 183.651 26.2383H188.206C188.305 26.2383 188.4 26.2651 188.47 26.313C188.54 26.3609 188.58 26.4258 188.58 26.4935V28.44ZM188.58 24.8421C188.58 24.8756 188.57 24.9088 188.551 24.9398C188.532 24.9708 188.505 24.9989 188.47 25.0226C188.435 25.0463 188.394 25.0651 188.349 25.0779C188.304 25.0907 188.255 25.0973 188.206 25.0973H183.651C183.602 25.0975 183.553 25.0911 183.508 25.0783C183.462 25.0656 183.421 25.0468 183.386 25.0231C183.351 24.9994 183.323 24.9712 183.304 24.9401C183.285 24.9091 183.275 24.8758 183.275 24.8421V22.8956C183.275 22.8619 183.285 22.8285 183.304 22.7973C183.323 22.7662 183.35 22.7379 183.385 22.7141C183.42 22.6903 183.462 22.6715 183.507 22.6587C183.553 22.6459 183.602 22.6395 183.651 22.6396H188.206C188.255 22.6396 188.304 22.6463 188.349 22.6591C188.395 22.672 188.436 22.6909 188.471 22.7146C188.505 22.7384 188.533 22.7666 188.552 22.7977C188.57 22.8287 188.58 22.862 188.58 22.8956V24.8421Z" fill="white"/>
<defs>
<clipPath id="clip0_430_1025">
<rect width="124" height="50" fill="white" transform="translate(0 0.343994)"/>
</clipPath>
</defs>
</svg>
