<svg viewBox="0 0 18 24" xmlns="http://www.w3.org/2000/svg"><path d="M3.456 1.314v2.142H1.314a.464.464 0 00-.464.464v18.766a.464.464 0 00.464.464h13.46a.464.464 0 00.464-.464v-2.142h2.142a.464.464 0 00.464-.464V1.313A.464.464 0 0017.38.85H3.92a.464.464 0 00-.464.464zm13.46 18.302h-.296c.057-.012.11-.023.16-.03a.698.698 0 01.137-.01V19.617zM2.987 7.68H14.31v14.544H1.777V7.679H2.985zm-.843-.927v.15-.15H1.776V4.384H14.31v2.368H2.143zm2.152 4.027h7.498a.464.464 0 000-.927H4.295a.464.464 0 000 .927zm1.347 2.606h4.803a.464.464 0 100-.927H5.642a.464.464 0 000 .927zm-1.347 5.213h7.498a.464.464 0 000-.927H4.295a.464.464 0 100 .927z"/></svg>