<svg xmlns="http://www.w3.org/2000/svg" viewBox="0 0 24 24"><mask id="a" style="mask-type:alpha" maskUnits="userSpaceOnUse" x="2" y="2" width="20" height="20"><path fill="#D9D9D9" d="M2 2h20v20H2z"/></mask><g mask="url(#a)"><path fill-rule="evenodd" clip-rule="evenodd" d="M9 3v3.083a6 6 0 013.884 2.43A.501.501 0 0113 8.5h6a.5.5 0 010 1h-5.544c.283.618.465 1.291.524 2H19a.5.5 0 010 1h-5.02a5.963 5.963 0 01-.524 2H19a.5.5 0 010 1h-6a.501.501 0 01-.116-.014A6 6 0 019 17.917V21h12V3H9zM8 6V2.5a.5.5 0 01.5-.5h13a.5.5 0 01.5.5v19a.5.5 0 01-.5.5h-13a.5.5 0 01-.5-.5V18A6 6 0 018 6zm5-.5a.5.5 0 000 1h6a.5.5 0 000-1h-6zM12.5 18a.5.5 0 01.5-.5h6a.5.5 0 010 1h-6a.5.5 0 01-.5-.5zm-6.55-6.002l1.023.903 2.977-2.9 1.05.99-4.09 3.582L5 12.901l.95-.903z"/></g></svg>