<svg width="222" height="51" viewBox="0 0 222 51" fill="none" xmlns="http://www.w3.org/2000/svg">
<g clip-path="url(#clip0_430_303)">
<path d="M123.995 0.343994H0V50.344H123.995V0.343994Z" fill="#C5192D"/>
<path d="M37.35 20.8598V21.548L40.5641 22.1469V20.8747L39.308 20.6341C40.176 20.2162 40.5641 19.3495 40.5641 18.2422V13.3367C40.5641 11.7532 39.7866 10.6013 37.98 10.6013C36.1733 10.6013 35.4082 11.752 35.4082 13.3367V18.2422C35.4082 19.6173 35.991 20.6205 37.35 20.8598ZM37.1132 13.0689C37.1132 12.4563 37.381 12.0236 37.9812 12.0236C38.5814 12.0236 38.8616 12.4563 38.8616 13.0689V18.6018C38.8616 19.1994 38.5938 19.6496 37.9812 19.6496C37.3686 19.6496 37.1132 19.1994 37.1132 18.6018V13.0689Z" fill="white"/>
<path d="M44.2283 20.9801C45.9643 20.9801 46.6364 19.962 46.6364 18.3922V10.7203H45.0653V18.5571C45.0653 19.1548 44.826 19.559 44.2283 19.559C43.6306 19.559 43.3913 19.1548 43.3913 18.5571V10.7203H41.6863V18.3922C41.6863 19.962 42.4303 20.9801 44.2283 20.9801Z" fill="white"/>
<path d="M49.1609 19.0047H50.9639L51.2789 20.8647H53.0285L51.104 10.7203H49.1609L47.2439 20.8598H48.8559L49.1609 19.0047ZM50.0562 13.5773H50.0736L50.7457 17.6445H49.3817L50.0562 13.5773Z" fill="white"/>
<path d="M57.6216 19.4685H55.5905V10.7203H53.8855V20.8598H57.6216V19.4685Z" fill="white"/>
<path d="M60.1164 10.7203H58.4126V20.8585H60.1164V10.7203Z" fill="white"/>
<path d="M62.3236 20.8598H64.041V12.1116H65.4472V10.7203H60.9199V12.1116H62.3236V20.8598Z" fill="white"/>
<path d="M67.8665 20.8598H69.5715V17.0009L71.4538 10.7203H69.8244L68.7927 14.5643H68.7779L67.7474 10.7203H65.968L67.8665 17.0009V20.8598Z" fill="white"/>
<path d="M39.4705 34.3361H37.1095V31.2535H38.7972V29.8795H37.1095V26.9779H39.4705V25.5867H35.4058V35.7249H39.4705V34.3361Z" fill="white"/>
<path d="M45.6135 33.0031V28.3085C45.6135 26.7386 44.9724 25.5805 43.1484 25.5805H40.5159V35.72H43.1521C44.9762 35.72 45.6172 34.5531 45.6172 32.992M42.2246 34.3237V26.9767H42.9426C43.6444 26.9767 43.9122 27.3958 43.9122 27.9935V33.3032C43.9122 33.9158 43.6444 34.3349 42.9426 34.3349L42.2246 34.3237Z" fill="white"/>
<path d="M46.7356 25.5867V33.2586C46.7356 34.8296 47.4796 35.8452 49.2764 35.8452C51.0124 35.8452 51.6832 34.8296 51.6832 33.2586V25.5867H50.1146V33.4222C50.1146 34.0212 49.874 34.4242 49.2764 34.4242C48.6787 34.4242 48.4394 34.0212 48.4394 33.4222V25.5867H46.7356Z" fill="white"/>
<path d="M52.8042 33.1085C52.8042 34.6784 53.5482 35.8452 55.3462 35.8452C57.1442 35.8452 57.7518 34.7689 57.7518 33.3168V31.5684H56.1981V33.4371C56.1981 34.036 55.9885 34.4291 55.376 34.4291C54.7634 34.4291 54.508 33.9964 54.508 33.3813V27.9352C54.508 27.3214 54.756 26.8874 55.376 26.8874C55.996 26.8874 56.1981 27.2458 56.1981 27.8794V29.21H57.7518V28.0084C57.7518 26.5204 57.2285 25.4664 55.3462 25.4664C53.5519 25.4664 52.8042 26.6184 52.8042 28.2031V33.1085Z" fill="white"/>
<path d="M60.187 33.8699H61.9999L62.3136 35.7299H64.0583L62.1301 25.5916H60.187L58.2725 35.7299H59.8845L60.187 33.8699ZM61.0823 28.4424H61.0972L61.7705 32.5096H60.4065L61.0823 28.4424Z" fill="white"/>
<path d="M63.8464 26.9779H65.2501V35.7249H66.97V26.9779H68.3737V25.5867H63.8464V26.9779Z" fill="white"/>
<path d="M71.0209 25.5867H69.3159V35.7261H71.0209V25.5867Z" fill="white"/>
<path d="M74.7285 35.8452C76.5352 35.8452 77.3114 34.6796 77.3114 33.1073V28.2031C77.3114 26.6183 76.5352 25.4676 74.7285 25.4676C72.9218 25.4676 72.158 26.6183 72.158 28.2031V33.1073C72.158 34.6796 72.9342 35.8452 74.7285 35.8452ZM73.8605 27.934C73.8605 27.3214 74.1296 26.8887 74.7285 26.8887C75.3274 26.8887 75.6101 27.3214 75.6101 27.934V33.3763C75.6101 33.9963 75.341 34.4241 74.7285 34.4241C74.1159 34.4241 73.8605 33.9914 73.8605 33.3763V27.934Z" fill="white"/>
<path d="M79.8709 29.3538L81.8748 35.7274H83.3702V25.5854H81.9492V31.4035L80.1103 25.5854H78.4375V35.7274H79.8709V29.3538Z" fill="white"/>
<path d="M19.4247 35.7373H23.4063V31.6813H25.1039V28.4002H23.4063V10.7352H19.2759L12.012 29.0996V31.6813H19.4247V35.7373ZM15.7047 28.4002L19.4656 18.1082H19.5028V28.4002H15.7047Z" fill="white"/>
</g>
<rect width="98" height="50" transform="translate(124 0.343994)" fill="#C5192D"/>
<path d="M168.18 17.5955L154.436 9.659V35.3323L168.18 39.4791V17.5955Z" fill="white"/>
<path d="M169.692 17.6476V39.4883L183.525 35.3292V9.65976L169.692 17.6476Z" fill="white"/>
<path d="M194.314 9.00913C194.319 8.79265 194.28 8.57741 194.201 8.37604C194.121 8.17467 194.002 7.99122 193.851 7.83646C193.699 7.68169 193.518 7.55873 193.319 7.47478C193.119 7.39084 192.905 7.3476 192.688 7.3476C192.472 7.3476 192.257 7.39084 192.058 7.47478C191.858 7.55873 191.677 7.68169 191.526 7.83646C191.374 7.99122 191.255 8.17467 191.176 8.37604C191.096 8.57741 191.058 8.79265 191.062 9.00913V10.7603H194.314V9.00913Z" fill="white"/>
<path d="M191.466 34.877H191.062L192.689 40.5604L194.313 34.877H193.909H194.313V12.0355H193.909H193.505H193.078H192.269H191.869H191.466H191.062V34.877H191.466Z" fill="white"/>
<path d="M186.477 10.7618L185.004 9.59772V36.0289L169.732 40.9635H169.026H168.885H168.18L152.976 36.7156V9.59772L151.502 10.7618V37.7494L168.11 42.3476H168.885H169.026H169.801L185.124 37.4827L186.477 37.0842V10.7618Z" fill="white"/>
<defs>
<clipPath id="clip0_430_303">
<rect width="124" height="50" fill="white" transform="translate(0 0.343994)"/>
</clipPath>
</defs>
</svg>
