<svg xmlns="http://www.w3.org/2000/svg" width="201" height="150" viewBox="0 0 201 150" fill="none">
<path d="M200.5 131.826H0.5V131.926H200.5V131.826Z" fill="#EBEBEB"/>
<path d="M95.3002 113.986H18.0642C17.4591 113.985 16.8792 113.744 16.4517 113.316C16.0243 112.888 15.7842 112.307 15.7842 111.702V3.13021C15.7894 2.52862 16.0319 1.9534 16.4588 1.5295C16.8857 1.10559 17.4626 0.867241 18.0642 0.866211H95.3002C95.9059 0.866211 96.4869 1.10685 96.9152 1.53518C97.3435 1.96351 97.5842 2.54446 97.5842 3.15021V111.702C97.5842 112.308 97.3435 112.889 96.9152 113.317C96.4869 113.746 95.9059 113.986 95.3002 113.986ZM18.0642 0.946211C17.4856 0.947271 16.9312 1.17784 16.5224 1.5873C16.1137 1.99677 15.8842 2.55167 15.8842 3.13021V111.702C15.8842 112.281 16.1137 112.836 16.5224 113.245C16.9312 113.655 17.4856 113.885 18.0642 113.886H95.3002C95.8791 113.885 96.434 113.655 96.8433 113.245C97.2527 112.836 97.4831 112.281 97.4842 111.702V3.13021C97.4831 2.5513 97.2527 1.99641 96.8433 1.58706C96.434 1.17771 95.8791 0.947269 95.3002 0.946211H18.0642Z" fill="#EBEBEB"/>
<path d="M181.824 113.986H104.584C103.979 113.985 103.399 113.744 102.97 113.316C102.542 112.888 102.301 112.308 102.3 111.702V3.13021C102.307 2.52826 102.55 1.95304 102.977 1.52925C103.405 1.10545 103.982 0.86723 104.584 0.866211H181.824C182.425 0.868293 183.001 1.10711 183.427 1.5309C183.853 1.95469 184.095 2.52931 184.1 3.13021V111.702C184.1 112.307 183.861 112.886 183.434 113.314C183.008 113.743 182.429 113.984 181.824 113.986ZM104.584 0.946211C104.005 0.947269 103.45 1.17771 103.041 1.58706C102.632 1.99641 102.401 2.5513 102.4 3.13021V111.702C102.401 112.281 102.632 112.836 103.041 113.245C103.45 113.655 104.005 113.885 104.584 113.886H181.824C182.403 113.885 182.958 113.655 183.367 113.245C183.777 112.836 184.007 112.281 184.008 111.702V3.13021C184.007 2.5513 183.777 1.99641 183.367 1.58706C182.958 1.17771 182.403 0.947269 181.824 0.946211H104.584Z" fill="#EBEBEB"/>
<path d="M31.4117 135.634H21.0117V135.734H31.4117V135.634Z" fill="#EBEBEB"/>
<path d="M76.5721 134.55H58.5601V134.65H76.5721V134.55Z" fill="#EBEBEB"/>
<path d="M56.1275 139.35H31.8115V139.45H56.1275V139.35Z" fill="#EBEBEB"/>
<path d="M179.988 138.678H172.296V138.778H179.988V138.678Z" fill="#EBEBEB"/>
<path d="M168.732 138.678H146.616V138.778H168.732V138.678Z" fill="#EBEBEB"/>
<path d="M133.108 136.99H103.32V137.09H133.108V136.99Z" fill="#EBEBEB"/>
<path d="M76.8315 65.0422L71.7715 131.842H120.571L125.631 65.0422H76.8315ZM107.515 112.242C107.279 114.909 106.064 117.393 104.103 119.215C102.142 121.038 99.576 122.069 96.8995 122.11C95.6322 122.13 94.3751 121.882 93.21 121.383C92.045 120.884 90.9982 120.145 90.138 119.215C89.2778 118.284 88.6235 117.182 88.2178 115.981C87.8121 114.781 87.6641 113.508 87.7835 112.246L89.5635 88.7662C89.7995 86.1005 91.0147 83.6167 92.9745 81.7944C94.9343 79.972 97.4997 78.9402 100.175 78.8982C101.444 78.878 102.702 79.1254 103.868 79.6243C105.034 80.1232 106.081 80.8623 106.942 81.7935C107.803 82.7248 108.458 83.8271 108.865 85.0285C109.271 86.23 109.419 87.5036 109.299 88.7662L107.515 112.242Z" fill="#E6E6E6"/>
<path d="M136.051 131.826H64.8994L65.3114 127.442H136.459L136.051 131.826Z" fill="#E6E6E6"/>
<path d="M163.388 107.03H169.7C169.784 107.03 169.868 107.013 169.946 106.98C170.023 106.946 170.093 106.897 170.151 106.836C170.209 106.774 170.254 106.702 170.283 106.622C170.312 106.543 170.325 106.458 170.32 106.374L170.296 105.926C170.285 105.751 170.209 105.586 170.082 105.465C169.955 105.344 169.787 105.276 169.612 105.274H163.3C163.215 105.273 163.131 105.29 163.053 105.323C162.976 105.356 162.905 105.404 162.847 105.465C162.788 105.526 162.743 105.599 162.714 105.678C162.684 105.757 162.671 105.842 162.676 105.926L162.7 106.374C162.71 106.55 162.786 106.716 162.914 106.838C163.042 106.959 163.211 107.028 163.388 107.03Z" fill="#E0E0E0"/>
<path d="M152.856 107.03H159.156C159.241 107.031 159.325 107.014 159.403 106.981C159.481 106.948 159.551 106.899 159.609 106.837C159.668 106.776 159.712 106.703 159.741 106.623C159.77 106.543 159.782 106.458 159.776 106.374L159.752 105.926C159.742 105.751 159.666 105.586 159.539 105.465C159.412 105.344 159.244 105.276 159.068 105.274H152.768C152.684 105.273 152.6 105.29 152.522 105.323C152.444 105.356 152.374 105.404 152.316 105.465C152.257 105.526 152.212 105.599 152.182 105.678C152.153 105.757 152.14 105.842 152.144 105.926L152.168 106.374C152.179 106.55 152.256 106.715 152.384 106.837C152.511 106.958 152.68 107.027 152.856 107.03Z" fill="#E0E0E0"/>
<path d="M174.592 106.534H27.54C26.7135 106.525 25.9211 106.203 25.3227 105.633C24.7243 105.063 24.3645 104.287 24.316 103.462L19.888 15.1341C19.8632 14.7376 19.9204 14.3403 20.0562 13.9669C20.192 13.5936 20.4033 13.2523 20.677 12.9643C20.9507 12.6764 21.2808 12.448 21.6468 12.2934C22.0128 12.1389 22.4067 12.0615 22.804 12.0661H169.856C170.682 12.0738 171.474 12.3949 172.073 12.9644C172.671 13.5339 173.031 14.3094 173.08 15.1341L177.508 103.462C177.533 103.859 177.475 104.256 177.34 104.63C177.204 105.003 176.993 105.345 176.719 105.633C176.445 105.922 176.115 106.15 175.749 106.305C175.383 106.46 174.989 106.538 174.592 106.534Z" fill="#E0E0E0"/>
<path d="M176.392 106.534H29.344C28.5146 106.529 27.7183 106.208 27.116 105.638C26.5138 105.068 26.1506 104.29 26.1 103.462L21.7 15.1343C21.6752 14.7385 21.7323 14.3418 21.8676 13.969C22.0028 13.5962 22.2135 13.2553 22.4863 12.9674C22.7591 12.6796 23.0883 12.451 23.4533 12.296C23.8183 12.141 24.2114 12.0628 24.608 12.0663H171.656C172.485 12.0708 173.281 12.3902 173.884 12.9599C174.486 13.5295 174.849 14.3068 174.9 15.1343L179.3 103.462C179.325 103.858 179.268 104.255 179.132 104.628C178.997 105.001 178.787 105.342 178.514 105.63C178.241 105.919 177.912 106.148 177.547 106.303C177.182 106.459 176.789 106.537 176.392 106.534Z" fill="#E6E6E6"/>
<path d="M30.2039 100.37L26.0999 18.2302C26.0851 17.9818 26.1215 17.733 26.2069 17.4992C26.2922 17.2655 26.4247 17.0517 26.5962 16.8713C26.7676 16.6909 26.9742 16.5476 27.2033 16.4504C27.4324 16.3532 27.679 16.3041 27.9279 16.3062H168.776C169.294 16.3105 169.791 16.5117 170.166 16.869C170.541 17.2263 170.766 17.713 170.796 18.2302L174.9 100.37C174.915 100.618 174.879 100.867 174.794 101.101C174.71 101.335 174.577 101.548 174.406 101.729C174.235 101.909 174.029 102.053 173.8 102.15C173.571 102.247 173.325 102.296 173.076 102.294H32.2239C31.7061 102.289 31.2096 102.088 30.8347 101.73C30.4597 101.373 30.2343 100.887 30.2039 100.37Z" fill="#F5F5F5"/>
<path d="M34.7642 20.5062C34.7784 20.7249 34.7476 20.9441 34.6736 21.1504C34.5996 21.3567 34.484 21.5456 34.334 21.7054C34.1839 21.8651 34.0027 21.9924 33.8015 22.0792C33.6003 22.1661 33.3833 22.2106 33.1642 22.2102C32.7059 22.2049 32.2666 22.0262 31.9349 21.71C31.6031 21.3938 31.4035 20.9636 31.3762 20.5062C31.3625 20.2878 31.3938 20.0689 31.468 19.8631C31.5423 19.6573 31.658 19.4689 31.8079 19.3096C31.9579 19.1502 32.1389 19.0234 32.3399 18.9368C32.5408 18.8502 32.7574 18.8057 32.9762 18.8062C33.4344 18.8095 33.8741 18.987 34.2062 19.3027C34.5383 19.6184 34.7378 20.0487 34.7642 20.5062Z" fill="white"/>
<path d="M42.4722 20.5062C42.4864 20.7249 42.4556 20.9441 42.3816 21.1504C42.3076 21.3567 42.192 21.5456 42.042 21.7054C41.892 21.8651 41.7107 21.9924 41.5095 22.0792C41.3083 22.1661 41.0913 22.2106 40.8722 22.2102C40.4139 22.2049 39.9746 22.0262 39.6429 21.71C39.3111 21.3938 39.1115 20.9636 39.0842 20.5062C39.0705 20.2878 39.1018 20.0689 39.176 19.8631C39.2503 19.6573 39.366 19.4689 39.5159 19.3096C39.6659 19.1502 39.8469 19.0234 40.0479 18.9368C40.2488 18.8502 40.4654 18.8057 40.6842 18.8062C41.1424 18.8095 41.5822 18.987 41.9142 19.3027C42.2463 19.6184 42.4458 20.0487 42.4722 20.5062Z" fill="white"/>
<path d="M50.184 20.5062C50.1982 20.7249 50.1674 20.9441 50.0934 21.1504C50.0194 21.3567 49.9038 21.5456 49.7538 21.7054C49.6038 21.8651 49.4225 21.9924 49.2213 22.0792C49.0201 22.1661 48.8032 22.2106 48.584 22.2102C48.1258 22.2058 47.6865 22.0272 47.3552 21.7108C47.0239 21.3943 46.8254 20.9636 46.8 20.5062C46.7863 20.2878 46.8176 20.0689 46.8918 19.8631C46.9661 19.6573 47.0818 19.4689 47.2318 19.3096C47.3817 19.1502 47.5628 19.0234 47.7637 18.9368C47.9646 18.8502 48.1812 18.8057 48.4 18.8062C48.8572 18.8114 49.2955 18.9897 49.6265 19.3051C49.9575 19.6206 50.1567 20.0497 50.184 20.5062Z" fill="white"/>
<g opacity="0.6">
<path opacity="0.6" d="M44.8525 102.294H65.1525L83.7125 16.3062H63.4125L44.8525 102.294Z" fill="white"/>
<path opacity="0.6" d="M132.212 102.294H137.352L155.912 16.3062H150.772L132.212 102.294Z" fill="white"/>
<path opacity="0.6" d="M69.6641 102.294H98.4641L117.024 16.3062H88.2241L69.6641 102.294Z" fill="white"/>
</g>
<path d="M100.5 149.89C143.333 149.89 178.056 147.863 178.056 145.362C178.056 142.861 143.333 140.834 100.5 140.834C57.6673 140.834 22.9443 142.861 22.9443 145.362C22.9443 147.863 57.6673 149.89 100.5 149.89Z" fill="#F5F5F5"/>
<path d="M144.74 84.0864H144.596C133.94 83.2144 126.596 74.0864 126.3 73.7184C126.027 73.3454 125.909 72.8812 125.971 72.4232C126.033 71.9652 126.27 71.549 126.632 71.2619C126.994 70.9748 127.454 70.839 127.914 70.8831C128.374 70.9272 128.799 71.1477 129.1 71.4984C129.184 71.6064 135.46 79.3424 144.152 80.4464C146.952 77.6464 149.352 70.2544 149.084 68.0184C149.084 67.9944 149.084 67.9744 149.084 67.9544C149.028 67.2344 148.892 64.7544 149.6 63.2944C149.833 62.9191 150.197 62.6434 150.622 62.5206C151.046 62.3978 151.501 62.4366 151.899 62.6294C152.296 62.8223 152.608 63.1555 152.775 63.5649C152.941 63.9743 152.95 64.4309 152.8 64.8464C152.624 65.2144 152.54 66.5384 152.624 67.6464C153.024 71.3264 149.824 80.6144 145.824 83.7224C145.512 83.9592 145.131 84.087 144.74 84.0864Z" fill="#263238"/>
<path d="M60.0278 74.3943C56.3469 74.3497 52.7163 73.5335 49.3705 71.9984C46.0248 70.4633 43.0382 68.2435 40.6038 65.4823C40.3289 65.1759 40.1683 64.784 40.1494 64.3728C40.1304 63.9616 40.2542 63.5566 40.4998 63.2263C43.3878 59.3423 48.4998 50.1703 49.2998 47.1823C48.9202 46.4617 48.3466 45.8618 47.6438 45.4503C47.3627 45.3193 47.1207 45.1171 46.9418 44.8639C46.7629 44.6106 46.6533 44.315 46.6238 44.0063L46.3358 41.0783C46.3079 40.6168 46.4598 40.1624 46.7598 39.8105C47.0597 39.4586 47.4843 39.2366 47.9444 39.1911C48.4045 39.1455 48.8644 39.28 49.2275 39.5662C49.5906 39.8525 49.8287 40.2682 49.8918 40.7263L50.0918 42.7623C51.2742 43.6703 52.2106 44.8598 52.8158 46.2223C52.9358 46.5075 52.9799 46.8189 52.9438 47.1263C52.5758 50.2983 47.4278 59.4863 44.2598 64.1303C51.6558 71.5023 60.4958 70.8303 60.8838 70.7943C61.3498 70.762 61.81 70.9134 62.1659 71.2161C62.5217 71.5188 62.745 71.9487 62.7878 72.4139C62.8307 72.8792 62.6898 73.3427 62.3952 73.7053C62.1007 74.0679 61.6759 74.3008 61.2118 74.3543C61.1078 74.3623 60.6958 74.3943 60.0278 74.3943Z" fill="#263238"/>
<path d="M117.648 145.302H112.848C112.572 145.302 112.3 145.239 112.054 145.117C111.807 144.994 111.591 144.817 111.425 144.598C111.258 144.378 111.144 144.124 111.092 143.853C111.039 143.583 111.05 143.304 111.124 143.038C112.376 138.542 112.992 134.882 113.452 129.154C111.756 121.154 110.16 113.87 110.144 113.798C110.057 113.341 110.152 112.868 110.409 112.479C110.665 112.091 111.063 111.818 111.518 111.719C111.973 111.619 112.449 111.701 112.844 111.947C113.239 112.192 113.523 112.583 113.636 113.034C113.636 113.106 115.284 120.578 117 128.666C117.036 128.834 117.047 129.007 117.032 129.178C116.632 134.322 116.108 137.878 115.164 141.73H117.636C118.095 141.752 118.528 141.95 118.845 142.282C119.162 142.615 119.339 143.057 119.339 143.516C119.339 143.976 119.162 144.418 118.845 144.75C118.528 145.083 118.095 145.281 117.636 145.302H117.648Z" fill="#263238"/>
<path d="M80.6281 145.302H77.9241C77.6686 145.303 77.4158 145.249 77.1831 145.143C76.9504 145.038 76.7431 144.883 76.5753 144.691C76.4076 144.498 76.2833 144.271 76.211 144.026C76.1386 143.781 76.1199 143.523 76.1561 143.27C76.6161 139.99 78.9561 134.018 81.4761 128.014C82.3681 120.094 83.0961 113.294 83.1041 113.214C83.1239 112.976 83.1913 112.744 83.3023 112.532C83.4134 112.32 83.5659 112.133 83.7507 111.981C83.9355 111.829 84.1489 111.716 84.3783 111.648C84.6077 111.58 84.8484 111.558 85.0861 111.585C85.3238 111.612 85.5538 111.686 85.7623 111.803C85.9708 111.921 86.1537 112.079 86.3001 112.268C86.4465 112.457 86.5534 112.674 86.6146 112.905C86.6757 113.136 86.6899 113.377 86.6561 113.614C86.6561 113.682 85.9041 120.638 84.9961 128.674C84.9776 128.842 84.9345 129.007 84.8681 129.162C83.0961 133.414 81.0721 138.422 80.1481 141.738H80.6281C80.8698 141.727 81.1112 141.765 81.3379 141.849C81.5645 141.934 81.7717 142.063 81.9467 142.23C82.1218 142.397 82.2611 142.598 82.3564 142.821C82.4516 143.043 82.5007 143.282 82.5007 143.524C82.5007 143.766 82.4516 144.006 82.3564 144.228C82.2611 144.45 82.1218 144.651 81.9467 144.818C81.7717 144.985 81.5645 145.115 81.3379 145.199C81.1112 145.284 80.8698 145.322 80.6281 145.31V145.302Z" fill="#263238"/>
<path d="M82.1838 23.2661L61.3598 44.0941C60.3118 67.1781 60.3958 91.4261 61.3598 116.566H130.224C128.86 84.1261 128.732 52.8981 130.224 23.2661H82.1838Z" fill="white"/>
<path d="M130.224 116.918H61.3599C61.2672 116.918 61.1779 116.883 61.1109 116.818C61.0438 116.754 61.0041 116.667 60.9999 116.574C60.0039 90.4662 60.0039 66.0662 60.9999 44.0662C61.0053 43.9768 61.0438 43.8927 61.1079 43.8302L81.9319 23.0022C81.965 22.9692 82.0043 22.943 82.0476 22.9251C82.0908 22.9073 82.1372 22.8981 82.1839 22.8982H130.224C130.273 22.8983 130.321 22.9083 130.365 22.9276C130.41 22.9468 130.45 22.9749 130.484 23.0102C130.517 23.0451 130.543 23.0866 130.56 23.1321C130.576 23.1775 130.583 23.2259 130.58 23.2742C129.144 51.8102 129.144 82.3182 130.58 116.542C130.582 116.59 130.574 116.638 130.556 116.682C130.539 116.727 130.513 116.768 130.48 116.802C130.448 116.838 130.408 116.868 130.364 116.888C130.32 116.908 130.272 116.918 130.224 116.918ZM61.6999 116.202H129.852C128.436 82.2582 128.432 51.9662 129.852 23.6142H82.3319L61.6999 44.2382C60.7199 66.0942 60.7199 90.3022 61.6999 116.202Z" fill="#263238"/>
<path d="M117.876 106.65H110.364C110.293 106.65 110.224 106.622 110.174 106.572C110.124 106.521 110.096 106.453 110.096 106.382C110.096 106.347 110.103 106.313 110.116 106.28C110.13 106.248 110.149 106.219 110.174 106.194C110.199 106.17 110.229 106.15 110.261 106.137C110.294 106.124 110.329 106.118 110.364 106.118H117.876C117.911 106.118 117.945 106.124 117.978 106.137C118.01 106.15 118.04 106.17 118.065 106.194C118.09 106.219 118.11 106.248 118.123 106.28C118.137 106.313 118.144 106.347 118.144 106.382C118.144 106.417 118.137 106.452 118.123 106.485C118.11 106.517 118.09 106.547 118.065 106.572C118.04 106.597 118.011 106.616 117.978 106.63C117.946 106.643 117.911 106.65 117.876 106.65Z" fill="#B75400"/>
<path d="M107.252 106.65H73.6996C73.6286 106.65 73.5604 106.622 73.5101 106.572C73.4599 106.521 73.4316 106.453 73.4316 106.382C73.4316 106.347 73.4386 106.313 73.4521 106.28C73.4656 106.248 73.4854 106.219 73.5104 106.194C73.5353 106.17 73.5649 106.15 73.5974 106.137C73.6299 106.124 73.6646 106.118 73.6996 106.118H107.244C107.279 106.118 107.313 106.124 107.346 106.137C107.378 106.15 107.408 106.17 107.433 106.194C107.458 106.219 107.478 106.248 107.491 106.28C107.505 106.313 107.512 106.347 107.512 106.382C107.512 106.452 107.485 106.519 107.436 106.569C107.387 106.619 107.321 106.648 107.252 106.65Z" fill="#B75400"/>
<path d="M86.2116 66.5423C86.1316 64.7983 85.1436 63.4223 83.9996 63.4623C82.8556 63.5023 81.9996 64.9463 82.0716 66.6903C82.1436 68.4343 83.1396 69.8103 84.2836 69.7663C85.4276 69.7223 86.2916 68.2823 86.2116 66.5423Z" fill="#B75400"/>
<path d="M110.36 65.9943C110.28 64.2543 109.292 62.8783 108.148 62.9183C107.004 62.9583 106.148 64.4023 106.22 66.1463C106.292 67.8903 107.292 69.2663 108.432 69.2223C109.572 69.1783 110.44 67.7383 110.36 65.9943Z" fill="#B75400"/>
<path d="M92.2394 73.6663C94.0848 72.9769 96.0505 72.6676 98.0184 72.757C99.9864 72.8464 101.916 73.3325 103.691 74.1863C103.75 74.2188 103.802 74.2627 103.844 74.3154C103.886 74.3681 103.917 74.4285 103.935 74.4933C103.953 74.558 103.958 74.6258 103.95 74.6925C103.942 74.7593 103.921 74.8238 103.887 74.8823C103.819 74.9999 103.708 75.0863 103.577 75.1229C103.446 75.1595 103.307 75.1435 103.187 75.0783C103.127 75.0463 97.4274 71.9743 90.6234 75.4783C90.502 75.5396 90.3615 75.5514 90.2317 75.5111C90.1018 75.4708 89.9927 75.3815 89.9274 75.2623C89.8963 75.2027 89.8773 75.1376 89.8715 75.0707C89.8657 75.0037 89.8733 74.9363 89.8938 74.8723C89.9142 74.8084 89.9472 74.7491 89.9907 74.6979C90.0342 74.6467 90.0875 74.6047 90.1474 74.5743C90.8232 74.2243 91.5221 73.9209 92.2394 73.6663Z" fill="#B75400"/>
<path d="M82.7559 50.2022C82.9334 50.2071 83.1067 50.2567 83.2599 50.3462C83.4938 50.4847 83.6636 50.7098 83.7325 50.9726C83.8014 51.2355 83.7638 51.5149 83.6279 51.7503C82.8319 53.1689 81.7054 54.3747 80.3441 55.2653C78.9828 56.1559 77.4267 56.7051 75.8079 56.8662C75.5358 56.8772 75.2703 56.7804 75.0689 56.597C74.8675 56.4136 74.7465 56.1583 74.7319 55.8862C74.726 55.7523 74.7466 55.6184 74.7925 55.4924C74.8384 55.3664 74.9086 55.2507 74.9993 55.1518C75.0899 55.053 75.1992 54.973 75.3208 54.9165C75.4424 54.8599 75.574 54.8279 75.7079 54.8222C75.8639 54.8222 79.5559 54.5902 81.8519 50.7142C81.9419 50.5549 82.0736 50.423 82.2329 50.3328C82.3922 50.2426 82.573 50.1975 82.7559 50.2022Z" fill="#B75400"/>
<path d="M106.919 49.6141C107.087 49.5812 107.259 49.5903 107.422 49.6406C107.584 49.6908 107.732 49.7807 107.851 49.9021C111.051 53.1021 114.707 52.4581 114.859 52.4301C115.124 52.3825 115.397 52.4392 115.621 52.5883C115.844 52.7375 116.002 52.9675 116.059 53.2301C116.086 53.3615 116.087 53.4969 116.061 53.6284C116.035 53.76 115.984 53.8852 115.909 53.9967C115.835 54.1083 115.739 54.204 115.628 54.2784C115.516 54.3528 115.391 54.4043 115.259 54.4301C115.059 54.4661 110.403 55.3541 106.375 51.3301C106.244 51.1999 106.15 51.0363 106.105 50.8569C106.06 50.6774 106.064 50.489 106.118 50.312C106.172 50.1349 106.274 49.976 106.411 49.8523C106.549 49.7286 106.718 49.6449 106.899 49.6101L106.919 49.6141Z" fill="#B75400"/>
<path opacity="0.2" d="M129.188 60.8103L126.264 61.0823C125.758 61.1296 125.252 60.9907 124.841 60.6917C124.43 60.3928 124.143 59.9543 124.032 59.4583L119.98 41.3063C119.863 40.7793 119.955 40.2274 120.236 39.7664C120.517 39.3055 120.966 38.9715 121.488 38.8343L129.324 36.7783L129.188 60.8103Z" fill="black"/>
<path opacity="0.2" d="M84.0996 45.9423C82.0636 40.3863 80.0276 31.4943 82.1756 23.2583L61.3516 44.0863C67.2436 46.0663 76.6276 46.9103 84.0996 45.9423Z" fill="black"/>
<path d="M82.1839 44.0863C79.8999 37.3423 80.8319 28.1743 82.1839 23.2583L61.3599 44.0863C67.6639 45.2343 74.7079 45.0503 82.1839 44.0863Z" fill="white"/>
<path d="M70.8998 45.2343C67.6822 45.2582 64.4691 44.9905 61.2998 44.4343C61.2355 44.4238 61.1753 44.3955 61.1261 44.3528C61.0769 44.31 61.0405 44.2545 61.021 44.1922C61.0015 44.13 60.9997 44.0636 61.0157 44.0004C61.0317 43.9372 61.065 43.8797 61.1118 43.8343L81.9358 23.0063C81.9913 22.9499 82.0641 22.9135 82.1426 22.903C82.221 22.8926 82.3008 22.9085 82.3692 22.9485C82.4376 22.9884 82.4907 23.05 82.5201 23.1235C82.5496 23.197 82.5537 23.2782 82.5318 23.3543C81.2758 27.9303 80.2318 37.1943 82.5318 43.9703C82.5477 44.0207 82.5527 44.0738 82.5465 44.1262C82.5403 44.1786 82.523 44.2291 82.4958 44.2743C82.4683 44.3193 82.431 44.3574 82.3867 44.3858C82.3423 44.4142 82.2921 44.4321 82.2398 44.4383C78.4807 44.9458 74.6929 45.2116 70.8998 45.2343ZM62.0998 43.8503C67.6358 44.7663 74.0638 44.7463 81.6998 43.7863C79.8158 37.8103 80.2438 29.9023 81.5078 24.4263L62.0998 43.8503Z" fill="#263238"/>
<path d="M153.74 74.5104C153.609 74.5103 153.481 74.4668 153.377 74.3864C153.272 74.3061 153.198 74.1936 153.164 74.0664L145.828 46.1144C145.788 45.9611 145.81 45.7981 145.89 45.6612C145.97 45.5243 146.101 45.4247 146.254 45.3844C146.408 45.3441 146.571 45.3663 146.707 45.4462C146.844 45.5261 146.944 45.6571 146.984 45.8104L154.32 73.7624C154.34 73.8383 154.345 73.9174 154.334 73.9951C154.323 74.0728 154.297 74.1476 154.257 74.2153C154.218 74.2829 154.165 74.342 154.102 74.3893C154.04 74.4365 153.968 74.4708 153.892 74.4904C153.843 74.5052 153.792 74.5119 153.74 74.5104Z" fill="#263238"/>
<path d="M167.404 34.3575L167.016 34.4575L167.567 36.5954L167.955 36.4954L167.404 34.3575Z" fill="#B75400"/>
<path d="M166.143 31.3022L164.603 25.4342C164.394 24.6398 163.878 23.9608 163.169 23.5462C162.459 23.1316 161.614 23.0151 160.819 23.2222L156.791 24.2782L156.691 23.8782L160.719 22.8182C161.616 22.5854 162.569 22.7173 163.369 23.1851C164.169 23.6529 164.751 24.4184 164.987 25.3142L166.531 31.1862L166.143 31.3022Z" fill="#B75400"/>
<path d="M161.077 24.2003L122.94 34.2054C121.82 34.4992 121.15 35.645 121.444 36.7647L126.27 55.1621C126.564 56.2818 127.71 56.9514 128.83 56.6576L166.967 46.6525C168.087 46.3587 168.756 45.2129 168.463 44.0932L163.636 25.6958C163.342 24.5761 162.197 23.9065 161.077 24.2003Z" fill="#B75400"/>
<path d="M159.178 45.6317L135.116 51.9442C133.996 52.2379 133.327 53.3838 133.62 54.5035L135.129 60.2529C135.422 61.3726 136.568 62.0422 137.688 61.7484L161.75 55.4359C162.869 55.1422 163.539 53.9964 163.245 52.8767L161.737 47.1272C161.443 46.0075 160.297 45.338 159.178 45.6317Z" fill="#B75400"/>
<path d="M131.5 40.7924L135.943 39.6372L136.24 40.7816L133.46 41.505L133.681 42.3579L136.277 41.6885L136.564 42.7682L133.983 43.443L134.259 44.4956L137.12 43.756L137.433 44.9706L132.914 46.1475L131.5 40.7924Z" fill="white"/>
<path d="M138.335 44.7439L136.937 39.3781L139.7 38.6601C140.093 38.543 140.5 38.4848 140.91 38.4874C141.199 38.5027 141.475 38.6149 141.692 38.8059C141.908 39.01 142.066 39.2669 142.151 39.551C142.236 39.835 142.245 40.1365 142.178 40.4253C142.109 40.677 141.975 40.906 141.79 41.0893C141.631 41.2386 141.448 41.3608 141.25 41.451C141.4 41.4443 141.55 41.4675 141.69 41.5194C141.831 41.5714 141.96 41.6509 142.07 41.7533C142.185 41.8347 142.293 41.9249 142.394 42.0232L143.598 43.3674L141.725 43.8586L140.424 42.4443C140.314 42.3054 140.176 42.1913 140.019 42.1096C139.875 42.0637 139.72 42.0637 139.576 42.1096L139.431 42.1474L139.997 44.3067L138.335 44.7439ZM139.166 41.1163L139.868 40.9382C140.013 40.8879 140.154 40.8246 140.289 40.7492C140.391 40.7019 140.47 40.6167 140.51 40.5117C140.566 40.3865 140.571 40.2449 140.526 40.1156C140.481 39.9863 140.388 39.879 140.267 39.8154C140.055 39.7479 139.827 39.7479 139.614 39.8154L138.885 40.0043L139.166 41.1163Z" fill="white"/>
<path d="M144.158 43.227L142.755 37.8612L145.519 37.1432C145.912 37.0286 146.319 36.9705 146.728 36.9705C147.016 36.9861 147.289 37.0983 147.505 37.289C147.746 37.4992 147.912 37.7812 147.98 38.0933C148.056 38.3616 148.056 38.6455 147.98 38.9138C147.91 39.162 147.778 39.3885 147.597 39.5724C147.436 39.7205 147.254 39.8442 147.057 39.9395C147.221 39.9411 147.383 39.9685 147.538 40.0205C147.658 40.08 147.773 40.1524 147.878 40.2364C147.991 40.3174 148.098 40.4077 148.196 40.5063L149.406 41.8559L147.532 42.3417L146.221 40.9328C146.11 40.7923 145.97 40.678 145.81 40.5981C145.668 40.5522 145.515 40.5522 145.373 40.5981L145.227 40.6359L145.794 42.7951L144.158 43.227ZM144.995 39.6048L145.697 39.4212C145.84 39.3695 145.979 39.3063 146.113 39.2323C146.164 39.2097 146.211 39.177 146.25 39.1362C146.289 39.0955 146.319 39.0474 146.339 38.9948C146.393 38.8702 146.398 38.7299 146.353 38.6018C146.308 38.4738 146.216 38.3674 146.096 38.3038C145.883 38.231 145.651 38.231 145.438 38.3038L144.714 38.4928L144.995 39.6048Z" fill="white"/>
<path d="M148.937 39.1245C148.803 38.761 148.751 38.3723 148.786 37.9863C148.82 37.6004 148.939 37.2268 149.134 36.8923C149.33 36.5579 149.597 36.2709 149.917 36.052C150.237 35.8332 150.601 35.6878 150.983 35.6264C151.352 35.5057 151.741 35.4598 152.127 35.4913C152.514 35.5228 152.89 35.6312 153.234 35.81C153.554 36.0146 153.83 36.2817 154.044 36.5952C154.258 36.9087 154.407 37.2622 154.481 37.6346C154.637 38.1601 154.667 38.7149 154.568 39.254C154.465 39.7049 154.23 40.1147 153.893 40.4309C153.494 40.7875 153.011 41.0365 152.489 41.1542C151.978 41.3058 151.439 41.339 150.913 41.2514C150.455 41.1582 150.035 40.9286 149.709 40.5928C149.327 40.1798 149.061 39.6733 148.937 39.1245ZM150.595 38.7034C150.665 39.1224 150.879 39.504 151.199 39.7831C151.334 39.8678 151.485 39.9242 151.643 39.9489C151.8 39.9736 151.961 39.966 152.115 39.9266C152.27 39.8872 152.415 39.8169 152.541 39.7198C152.668 39.6228 152.773 39.501 152.851 39.362C152.987 38.9297 152.976 38.4645 152.819 38.0394C152.75 37.6374 152.539 37.2734 152.225 37.0138C152.092 36.9245 151.94 36.8661 151.781 36.8427C151.623 36.8194 151.461 36.8317 151.307 36.8788C151.153 36.9128 151.009 36.9816 150.885 37.0798C150.762 37.178 150.662 37.3031 150.595 37.4456C150.45 37.8524 150.45 38.2967 150.595 38.7034Z" fill="white"/>
<path d="M156.105 40.1177L154.707 34.7573L157.471 34.0393C157.863 33.9192 158.271 33.8609 158.68 33.8666C158.97 33.8806 159.246 33.993 159.463 34.1851C159.679 34.3885 159.837 34.6455 159.922 34.93C160.006 35.2145 160.013 35.5162 159.943 35.8046C159.873 36.0544 159.741 36.2827 159.56 36.4685C159.401 36.6178 159.219 36.74 159.02 36.8302C159.185 36.8359 159.349 36.865 159.506 36.9166C159.626 36.9732 159.738 37.0439 159.841 37.1271C159.956 37.2083 160.062 37.3005 160.159 37.4024L161.368 38.7466L159.495 39.2378L158.183 37.8289C158.071 37.6886 157.932 37.5729 157.773 37.4888C157.631 37.4454 157.478 37.4454 157.336 37.4888L157.19 37.5266L157.757 39.6859L156.105 40.1177ZM156.936 36.4955L157.638 36.3174C157.783 36.2646 157.924 36.2015 158.059 36.1285C158.16 36.0793 158.239 35.9947 158.281 35.8909C158.336 35.7657 158.342 35.6241 158.297 35.4948C158.252 35.3655 158.159 35.2582 158.038 35.1946C157.826 35.1245 157.597 35.1245 157.385 35.1946L156.656 35.3835L156.936 36.4955Z" fill="white"/>
</svg>
