<svg xmlns="http://www.w3.org/2000/svg" width="20" height="20" viewBox="0 0 20 20">
  <path d="M19.6957 11.0677C19.2905 10.4135 19.2905 9.58628 19.6957 8.93203C20.3112 7.93764 19.9608 6.63026 18.9306 6.07685C18.2527 5.71266 17.8391 4.99631 17.8627 4.22719C17.8986 3.05827 16.9416 2.10105 15.7726 2.13711C15.0035 2.16071 14.2872 1.7471 13.923 1.06926C13.3696 0.039024 12.0622 -0.311363 11.0678 0.304151C10.4135 0.7093 9.58632 0.7093 8.93207 0.304151C7.93767 -0.311363 6.63006 0.039024 6.07687 1.06926C5.71268 1.7471 4.99632 2.16071 4.22721 2.13711C3.05828 2.10127 2.10106 3.05827 2.13712 4.22719C2.16072 4.99631 1.74711 5.71266 1.06926 6.07685C0.0390242 6.63026 -0.311364 7.93764 0.304153 8.93203C0.709302 9.58628 0.709302 10.4135 0.304153 11.0677C-0.311364 12.0621 0.0390242 13.3695 1.06926 13.9229C1.74711 14.2871 2.16072 15.0035 2.13712 15.7726C2.10128 16.9415 3.05828 17.8987 4.22721 17.8629C4.99632 17.8393 5.71268 18.2529 6.07687 18.9307C6.63028 19.961 7.93767 20.3114 8.93207 19.6958C9.58632 19.2907 10.4135 19.2907 11.0678 19.6958C12.0622 20.3114 13.3698 19.961 13.923 18.9307C14.2872 18.2529 15.0035 17.8393 15.7726 17.8629C16.9416 17.8987 17.8988 16.9417 17.8627 15.7726C17.8391 15.0035 18.2527 14.2871 18.9306 13.9229C19.961 13.3695 20.3114 12.0619 19.6957 11.0677ZM15.6974 8.14734L9.00107 14.8436L8.96145 14.8833C8.73572 15.109 8.36953 15.109 8.1438 14.8833L4.81178 11.5515C4.58605 11.3257 4.58605 10.9596 4.81178 10.7336L5.79126 9.75413C6.01699 9.5284 6.38318 9.5284 6.60913 9.75413L8.55252 11.6975L13.9001 6.34999C14.1258 6.12427 14.492 6.12427 14.7179 6.34999L15.6974 7.32947C15.9233 7.55542 15.9233 7.92161 15.6974 8.14734Z"/>
</svg>
