<svg xmlns="http://www.w3.org/2000/svg" width="65" height="65" viewBox="0 0 65 65" fill="none">
<g id="Group 385">
<path id="Vector" d="M8.75286 15.992C5.09201 21.2962 3.31426 27.6742 3.70353 34.1072C4.09281 40.5403 6.62666 46.6574 10.9004 51.4815C15.1741 56.3055 20.9412 59.5582 27.2804 60.7201C33.6197 61.882 40.1654 60.886 45.8722 57.8912C51.579 54.8964 56.1176 50.0755 58.763 44.1987C61.4085 38.3218 62.0082 31.7279 60.4665 25.4702C58.9247 19.2125 55.3304 13.6519 50.2576 9.67663C45.1848 5.70136 38.9262 3.54072 32.4813 3.53979C30.7141 3.5399 28.9504 3.69945 27.2118 4.01653" stroke="#666666" stroke-width="0.621071" stroke-linecap="round" stroke-linejoin="round"/>
<path id="Vector_2" d="M13.6659 10.5447C12.6974 11.3829 11.7843 12.2831 10.9326 13.2398" stroke="#666666" stroke-width="0.621071" stroke-linecap="round" stroke-linejoin="round"/>
<path id="Vector_3" d="M55.0034 41.6724C60.2968 29.2441 54.5128 14.8779 42.0846 9.58447C29.6563 4.29106 15.2901 10.075 9.99667 22.5033C4.70326 34.9315 10.4872 49.2977 22.9155 54.5912C35.3437 59.8846 49.7099 54.1006 55.0034 41.6724Z" fill="#8BC34A"/>
<path id="Vector_4" d="M21.2046 29.5461L30.4849 40.0914L45.664 18.5876" stroke="white" stroke-width="3.72643" stroke-linecap="round" stroke-linejoin="round"/>
</g>
</svg>
