<svg width="222" height="51" viewBox="0 0 222 51" fill="none" xmlns="http://www.w3.org/2000/svg">
<g clip-path="url(#clip0_430_977)">
<path d="M124 0.343994H0V50.344H124V0.343994Z" fill="#DD1367"/>
<path d="M41.3106 16.2805L42.9363 21.0036H44.7641L43.1099 16.3251C44.0957 16.0994 44.4912 15.4447 44.4912 14.3411V13.0156C44.4912 11.5722 43.8526 10.7067 42.1055 10.7067H39.5784V20.9987H41.3144L41.3106 16.2805ZM41.3106 12.119H41.8872C42.4812 12.119 42.7391 12.3918 42.7391 12.956V14.48C42.7391 15.0256 42.4812 15.3306 41.8872 15.3306H41.3106V12.119Z" fill="white"/>
<path d="M49.7103 19.5913H47.3097V16.464H49.0258V15.0653H47.3097V12.119H49.7103V10.7067H45.5774V21.0036H49.7103V19.5913Z" fill="white"/>
<path d="M53.46 10.7067H50.7891V20.9987H53.46C55.3126 20.9987 55.9661 19.8145 55.9661 18.2347V13.4719C55.9661 11.876 55.3126 10.7067 53.46 10.7067ZM54.235 18.5435C54.235 19.1635 53.9635 19.5913 53.243 19.5913H52.5151V12.124H53.243C53.9585 12.124 54.235 12.5481 54.235 13.1557V18.5435Z" fill="white"/>
<path d="M58.8381 10.7067H57.1021V18.4976C57.1021 20.0922 57.8609 21.1239 59.6837 21.1239C61.4458 21.1239 62.129 20.0922 62.129 18.4976V10.7067H60.5369V18.665C60.5369 19.2714 60.2951 19.683 59.6875 19.683C59.0799 19.683 58.8381 19.2714 58.8381 18.665V10.7067Z" fill="white"/>
<path d="M63.2722 13.364V18.3438C63.2722 19.9385 64.0323 21.1227 65.8527 21.1227C67.673 21.1227 68.2967 20.0302 68.2967 18.5571V16.7814H66.7194V18.6799C66.7194 19.2875 66.5061 19.6806 65.8849 19.6806C65.2637 19.6806 65.002 19.2416 65.002 18.6191V13.0912C65.002 12.4712 65.2612 12.0273 65.8849 12.0273C66.5086 12.0273 66.7194 12.3918 66.7194 13.0304V14.382H68.2967V13.1681C68.2967 11.6478 67.7672 10.5864 65.8527 10.5864C64.0323 10.5864 63.2722 11.7557 63.2722 13.3652" fill="white"/>
<path d="M69.3928 21.0024H73.5233V19.5913H71.1251V16.4628H72.84V15.0653H71.1251V12.119H73.5233V10.7067H69.3928V21.0024Z" fill="white"/>
<path d="M74.6008 10.7067V20.9987H77.2743C79.1268 20.9987 79.7803 19.8145 79.7803 18.2347V13.4719C79.7803 11.876 79.1268 10.7067 77.2743 10.7067H74.6008ZM78.0493 13.1507V18.5435C78.0493 19.1635 77.7752 19.5913 77.0573 19.5913H76.3281V12.124H77.0573C77.7703 12.124 78.0493 12.5493 78.0493 13.1557" fill="white"/>
<path d="M41.3106 25.4391H39.5796V35.7348H41.3106V25.4391Z" fill="white"/>
<path d="M47.4486 25.4379H46.0052V31.3465L44.1366 25.4379H42.4365V35.7348H43.8935V29.2658L45.9284 35.7348H47.4486V25.4379Z" fill="white"/>
<path d="M52.5511 26.8515V25.4391H48.4219V35.7348H52.5511V34.3212H50.1529V31.1939H51.8678V29.7977H50.1529V26.8515H52.5511Z" fill="white"/>
<path d="M55.7999 25.3176C53.9784 25.3176 53.1873 26.4857 53.1873 28.0952V33.08C53.1873 34.4775 53.7787 35.493 55.1626 35.7386V36.4367L58.4275 37.0443V35.751L57.1515 35.503C58.0319 35.0789 58.4275 34.1972 58.4275 33.0726V28.0952C58.4275 26.4832 57.6376 25.3176 55.7999 25.3176ZM56.6952 33.4433C56.6952 34.0497 56.4224 34.5048 55.7999 34.5048C55.1775 34.5048 54.9183 34.0497 54.9183 33.4433V27.8236C54.9183 27.2036 55.1936 26.7597 55.7999 26.7597C56.4063 26.7597 56.6952 27.1999 56.6952 27.8236V33.4433Z" fill="white"/>
<path d="M59.396 25.4391V33.23C59.396 34.8247 60.1561 35.8564 61.9789 35.8564C63.741 35.8564 64.4242 34.8247 64.4242 33.23V25.4391H62.8296V33.3962C62.8296 34.0038 62.5816 34.4142 61.9789 34.4142C61.3763 34.4142 61.1283 34.0038 61.1283 33.3962V25.4391H59.396Z" fill="white"/>
<path d="M66.9277 25.4391L64.9846 35.7311H66.6251L66.9277 33.8463H68.7666L69.0853 35.7311H70.861L68.903 25.4391H66.9277ZM67.1559 32.4711L67.8391 28.3395H67.854L68.5372 32.4711H67.1559Z" fill="white"/>
<path d="M71.5603 25.4391V35.7336H75.3572V34.3225H73.2913V25.4391H71.5603Z" fill="white"/>
<path d="M77.8634 25.4391H76.1323V35.7348H77.8634V25.4391Z" fill="white"/>
<path d="M81.829 35.7348V26.8515H83.255V25.4391H78.6533V26.8515H80.0818V35.7348H81.829Z" fill="white"/>
<path d="M85.7757 25.4391H84.0447V35.7361H85.7757V25.4391Z" fill="white"/>
<path d="M90.8944 34.3225H88.495V31.1939H90.2111V29.7977H88.495V26.8515H90.8944V25.4391H86.7627V35.7336H90.8944V34.3225Z" fill="white"/>
<path d="M91.5752 32.1364V33.5177C91.5752 34.8706 92.2584 35.8564 94.0205 35.8564C95.7825 35.8564 96.5414 34.8532 96.5414 33.4408V32.9448C96.5414 31.8078 96.0851 31.2299 95.1452 30.2726L94.0354 29.179C93.5394 28.6916 93.2157 28.3593 93.2157 27.7827V27.5694C93.2157 26.9916 93.5493 26.72 94.0354 26.72C94.5834 26.72 94.855 27.0065 94.855 27.5992V28.492H96.436V27.655C96.436 26.167 95.7528 25.3176 94.0205 25.3176C92.3353 25.3176 91.5913 26.3096 91.5913 27.5794V27.929C91.5913 29.1132 92.0452 29.706 93.0347 30.6769L94.0502 31.6962C94.5834 32.1922 94.8252 32.5642 94.8252 33.1544V33.5487C94.8252 34.0956 94.5772 34.4601 94.0354 34.4601C93.4439 34.4601 93.1847 34.1266 93.1847 33.5487V32.1364H91.5752Z" fill="white"/>
<path d="M11.9636 16.5917V35.7485H16.1709V10.7215H12.8118L8.93677 15.2624V19.6557H8.97273L11.9252 16.5917H11.9636Z" fill="white"/>
<path d="M31.5271 29.2893V17.1807C31.5271 13.2685 29.5716 10.4264 25.2886 10.4264C21.0441 10.4264 19.0886 13.2685 19.0886 17.1807V29.2893C19.0886 33.1643 21.0466 36.0436 25.2886 36.0436C29.5716 36.0436 31.5271 33.1643 31.5271 29.2893ZM23.2947 29.954V16.5173C23.2947 15.0033 23.8477 13.9332 25.2886 13.9332C26.7655 13.9332 27.3185 15.0033 27.3185 16.5173V29.954C27.3185 31.468 26.7655 32.5369 25.2886 32.5369C23.8477 32.5369 23.2947 31.468 23.2947 29.954Z" fill="white"/>
</g>
<rect width="98" height="50" transform="translate(124 0.343994)" fill="#DD1367"/>
<path d="M178.965 27.3855H167.519C167.484 27.3877 167.451 27.4036 167.428 27.4295C167.405 27.4555 167.393 27.4896 167.395 27.5244V30.9648C167.393 30.9997 167.405 31.0339 167.428 31.06C167.451 31.0861 167.484 31.102 167.519 31.1043H178.965C179 31.102 179.033 31.0861 179.056 31.06C179.079 31.0339 179.091 30.9997 179.089 30.9648V27.5244C179.091 27.4896 179.079 27.4555 179.056 27.4295C179.032 27.4036 179 27.3877 178.965 27.3855Z" fill="white"/>
<path d="M178.965 20.0652H167.519C167.484 20.0674 167.452 20.0832 167.428 20.1092C167.405 20.1352 167.393 20.1693 167.395 20.2041V23.6444C167.393 23.6794 167.405 23.7137 167.428 23.7399C167.451 23.766 167.484 23.7819 167.519 23.7839H178.965C179 23.7819 179.033 23.766 179.056 23.7399C179.079 23.7137 179.091 23.6794 179.089 23.6444V20.2041C179.091 20.1693 179.079 20.1352 179.056 20.1092C179.032 20.0832 179 20.0674 178.965 20.0652Z" fill="white"/>
<path d="M178.804 14.8652L173.309 9.37141C173.291 9.35384 173.267 9.34399 173.242 9.34399C173.217 9.34399 173.193 9.35384 173.175 9.37141L167.681 14.8652C167.668 14.8785 167.659 14.8954 167.655 14.9137C167.651 14.9321 167.653 14.9512 167.661 14.9685C167.668 14.9858 167.68 15.0006 167.695 15.011C167.711 15.0214 167.729 15.027 167.748 15.027H178.737C178.756 15.027 178.774 15.0214 178.789 15.011C178.805 15.0006 178.817 14.9858 178.824 14.9685C178.831 14.9512 178.833 14.9321 178.83 14.9137C178.826 14.8954 178.817 14.8785 178.804 14.8652Z" fill="white"/>
<path d="M183.962 31.1465L189.457 25.652C189.465 25.6432 189.472 25.6327 189.477 25.6212C189.482 25.6096 189.485 25.5972 189.485 25.5847C189.485 25.5722 189.482 25.5599 189.477 25.5483C189.472 25.5368 189.465 25.5263 189.457 25.5175L183.962 20.023C183.949 20.0098 183.932 20.0008 183.914 19.9972C183.895 19.9935 183.876 19.9954 183.859 20.0026C183.842 20.0097 183.827 20.0219 183.816 20.0374C183.806 20.053 183.8 20.0713 183.8 20.09V31.0795C183.8 31.0982 183.806 31.1165 183.816 31.1321C183.827 31.1476 183.842 31.1597 183.859 31.1669C183.876 31.1741 183.895 31.1759 183.914 31.1723C183.932 31.1687 183.949 31.1597 183.962 31.1465Z" fill="white"/>
<path d="M167.681 36.3048L173.175 41.7974C173.184 41.8063 173.194 41.8133 173.206 41.8181C173.217 41.8229 173.23 41.8253 173.242 41.8253C173.255 41.8253 173.267 41.8229 173.278 41.8181C173.29 41.8133 173.3 41.8063 173.309 41.7974L178.803 36.303C178.817 36.2897 178.826 36.2728 178.83 36.2543C178.834 36.2359 178.832 36.2167 178.825 36.1992C178.817 36.1818 178.805 36.1669 178.789 36.1565C178.774 36.146 178.755 36.1405 178.736 36.1405H167.748C167.728 36.1401 167.709 36.1454 167.693 36.156C167.677 36.1665 167.665 36.1817 167.657 36.1996C167.65 36.2174 167.648 36.237 167.653 36.2558C167.657 36.2746 167.667 36.2917 167.681 36.3048Z" fill="white"/>
<path d="M162.522 20.023L157.028 25.5175C157.019 25.5263 157.012 25.5368 157.007 25.5483C157.002 25.5599 157 25.5722 157 25.5847C157 25.5972 157.002 25.6096 157.007 25.6212C157.012 25.6327 157.019 25.6432 157.028 25.652L162.522 31.1465C162.536 31.1597 162.553 31.1687 162.571 31.1723C162.589 31.1759 162.608 31.1741 162.626 31.1669C162.643 31.1597 162.658 31.1476 162.668 31.1321C162.679 31.1165 162.684 31.0982 162.684 31.0795V20.09C162.684 20.0713 162.679 20.053 162.668 20.0374C162.658 20.0219 162.643 20.0097 162.626 20.0026C162.608 19.9954 162.589 19.9935 162.571 19.9972C162.553 20.0008 162.536 20.0098 162.522 20.023Z" fill="white"/>
<defs>
<clipPath id="clip0_430_977">
<rect width="124" height="50" fill="white" transform="translate(0 0.343994)"/>
</clipPath>
</defs>
</svg>
