<svg width="222" height="51" viewBox="0 0 222 51" fill="none" xmlns="http://www.w3.org/2000/svg">
<g clip-path="url(#clip0_430_1989)">
<path d="M124 0.343994H0V50.343H124V0.343994Z" fill="#FD6925"/>
<path d="M22.7106 17.0266C22.7106 13.1554 21.0143 10.3555 16.5925 10.3555C12.1285 10.3555 10.3999 12.7871 10.3999 16.6571V20.3435C10.3999 24.4354 12.0206 26.4987 15.0449 26.4987C16.8144 26.4987 17.8821 25.6866 18.5083 24.4726H18.5442V29.8566C18.5442 31.3681 17.9552 32.437 16.4449 32.437C14.9346 32.437 14.384 31.5479 14.384 29.9992V28.3414H10.5462V29.6694C10.5462 33.3533 11.8743 35.9337 16.5193 35.9337C20.9399 35.9337 22.7106 33.0954 22.7106 29.1883V17.0266ZM18.5442 20.8593C18.4711 22.2593 17.8821 23.1434 16.5602 23.1434C15.1243 23.1434 14.5762 22.2593 14.5762 20.6374V16.2888C14.5762 14.7041 15.164 13.7828 16.6036 13.7828C18.0036 13.7828 18.5554 14.7401 18.5554 16.2888L18.5442 20.8593Z" fill="white"/>
<path d="M29.2727 10.9321H30.8971V20.6041H29.2727V10.9321Z" fill="white"/>
<path d="M32.9928 14.5244V20.6004H31.6201V10.9284H33.216L34.9694 16.4737V10.9321H36.3321V20.6041H34.9036L32.9928 14.5244Z" fill="white"/>
<path d="M41.9021 13.5274V18.0026C41.9021 19.4906 41.2895 20.5979 39.5461 20.5979H37.0413V10.9259H39.556C41.292 10.9321 41.9021 12.0307 41.9021 13.5274ZM39.3501 19.2723C40.021 19.2723 40.2777 18.8731 40.2777 18.2878V13.2273C40.2777 12.6569 40.021 12.2589 39.3501 12.2589H38.6669V19.2723H39.3501Z" fill="white"/>
<path d="M47.3332 10.9321V18.2481C47.3332 19.7448 46.6921 20.7145 45.0379 20.7145C43.328 20.7145 42.615 19.7448 42.615 18.2481V10.9321H44.2406V18.4019C44.2406 18.9723 44.4675 19.3579 45.0379 19.3579C45.6083 19.3579 45.8365 18.9723 45.8365 18.4019V10.9321H47.3332Z" fill="white"/>
<path d="M47.9607 18.5159V17.2189H49.476V18.5445C49.476 19.0864 49.7178 19.4001 50.2733 19.4001C50.7867 19.4001 51.0173 19.0578 51.0173 18.5445V18.1725C51.0173 17.617 50.7891 17.2747 50.2907 16.8085L49.3359 15.8524C48.4083 14.941 47.9805 14.3843 47.9805 13.2732V12.9446C47.9805 11.748 48.6799 10.8205 50.2621 10.8205C51.8865 10.8205 52.5289 11.6191 52.5289 13.0166V13.8002H51.0409V12.9595C51.0409 12.4028 50.7842 12.1324 50.2708 12.1324C49.8145 12.1324 49.502 12.3891 49.502 12.931V13.1306C49.502 13.6725 49.8009 13.9862 50.2708 14.4413L51.3124 15.468C52.1953 16.3658 52.6231 16.9077 52.6231 17.9766V18.449C52.6231 19.7745 51.9101 20.7157 50.2572 20.7157C48.6043 20.7157 47.9607 19.7845 47.9607 18.5159Z" fill="white"/>
<path d="M52.7224 10.9321H57.0401V12.2589H55.7009V20.5979H54.0641V12.2589H52.7249L52.7224 10.9321Z" fill="white"/>
<path d="M59.2077 16.1637V20.5979H57.5833V10.9259H59.9492C61.5884 10.9259 62.1874 11.7393 62.1874 13.0934V14.3334C62.1874 15.3738 61.8154 15.9863 60.8903 16.2009L62.444 20.5917H60.7329L59.2077 16.1637ZM59.2077 12.2589V15.2659H59.7495C60.3051 15.2659 60.5481 14.9807 60.5481 14.4673V13.0426C60.5481 12.5143 60.3001 12.2589 59.7495 12.2589H59.2077Z" fill="white"/>
<path d="M65.6655 16.9201V20.5979H64.0399V16.9201L62.2295 10.9321H63.9258L64.9104 14.5963H64.924L65.9073 10.9321H67.4561L65.6655 16.9201Z" fill="white"/>
<path d="M68.8584 19.1715L68.0313 21.3527H67.1199L67.3183 19.0438H68.8584V19.1715Z" fill="white"/>
<path d="M70.8547 10.9321H72.4791V20.6041H70.8547V10.9321Z" fill="white"/>
<path d="M74.5749 14.5244V20.6004H73.2109V10.9284H74.8081L76.5614 16.4737V10.9321H77.9155V20.6041H76.4895L74.5749 14.5244Z" fill="white"/>
<path d="M79.9912 14.5244V20.6004H78.6272V10.9284H80.2231L81.9764 16.4737V10.9321H83.328V20.6041H81.902L79.9912 14.5244Z" fill="white"/>
<path d="M84.0398 18.103V13.427C84.0398 11.9167 84.7838 10.823 86.4913 10.823C88.1988 10.823 88.9576 11.9216 88.9576 13.427V18.103C88.9576 19.5997 88.2136 20.707 86.4913 20.707C84.7689 20.707 84.0398 19.5997 84.0398 18.103ZM87.3332 18.3597V13.1703C87.3332 12.5863 87.0766 12.1783 86.4913 12.1783C85.906 12.1783 85.6654 12.5912 85.6654 13.1703V18.3597C85.6654 18.9437 85.9221 19.3579 86.4913 19.3579C87.0604 19.3579 87.3332 18.945 87.3332 18.3597Z" fill="white"/>
<path d="M94.8736 10.9321L93.0347 20.6041H91.264L89.4263 10.9321H91.0792L92.1952 17.6752H92.2088L93.3496 10.9321H94.8736Z" fill="white"/>
<path d="M94.364 20.5979L96.1881 10.9259H98.0481L99.887 20.5979H98.208L97.9079 18.8297H96.1843L95.9004 20.5979H94.364ZM96.4026 17.5326H97.6996L97.0585 13.6551H97.0437L96.4026 17.5326Z" fill="white"/>
<path d="M99.4355 10.9321H103.754V12.2589H102.414V20.5979H100.775V12.2589H99.4355V10.9321Z" fill="white"/>
<path d="M104.296 10.9321H105.921V20.6041H104.296V10.9321Z" fill="white"/>
<path d="M106.647 18.103V13.427C106.647 11.9167 107.391 10.823 109.1 10.823C110.809 10.823 111.565 11.9216 111.565 13.427V18.103C111.565 19.5997 110.821 20.707 109.1 20.707C107.379 20.707 106.647 19.5997 106.647 18.103ZM109.941 18.3597V13.1703C109.941 12.5863 109.684 12.1783 109.1 12.1783C108.516 12.1783 108.273 12.5912 108.273 13.1703V18.3597C108.273 18.9437 108.53 19.3579 109.1 19.3579C109.671 19.3579 109.941 18.945 109.941 18.3597Z" fill="white"/>
<path d="M113.647 14.5244V20.6004H112.283V10.9284H113.88L115.634 16.4737V10.9321H116.988V20.6041H115.562L113.647 14.5244Z" fill="white"/>
<path d="M29.0161 35.491L30.8402 25.8265H32.6865L34.5254 35.491H32.8601L32.5613 33.724H30.834L30.5488 35.491H29.0161ZM31.0534 32.427H32.3517L31.7094 28.5495H31.6958L31.0534 32.427Z" fill="white"/>
<path d="M36.4934 29.4188V35.4948H35.1294V25.8265H36.7265L38.4799 31.3718V25.8265H39.829V35.491H38.403L36.4934 29.4188Z" fill="white"/>
<path d="M45.5454 28.4206V32.897C45.5454 34.385 44.9316 35.491 43.1894 35.491H40.6846V25.8265H43.1931C44.9316 25.8265 45.5454 26.9239 45.5454 28.4206ZM42.9934 34.1655C43.663 34.1655 43.9197 33.7662 43.9197 33.1822V28.1205C43.9197 27.5501 43.663 27.1508 42.9934 27.1508H42.309V34.1642L42.9934 34.1655Z" fill="white"/>
<path d="M47.8257 25.8265H49.4513V35.491H47.8257V25.8265Z" fill="white"/>
<path d="M51.6882 29.4188V35.4948H50.3242V25.8265H51.9201L53.6735 31.3718V25.8265H55.0275V35.491H53.5991L51.6882 29.4188Z" fill="white"/>
<path d="M55.8794 25.8265H59.6862V27.152H57.505V29.9185H59.1294V31.2292H57.505V35.491H55.8794V25.8265Z" fill="white"/>
<path d="M61.9518 31.058V35.491H60.3274V25.8265H62.6933C64.3326 25.8265 64.9315 26.6387 64.9315 27.994V29.234C64.9315 30.2744 64.5595 30.8869 63.6345 31.1014L65.1882 35.491H63.477L61.9518 31.058ZM61.9518 27.152V30.1603H62.4962C63.0517 30.1603 63.2947 29.8751 63.2947 29.3617V27.937C63.2947 27.4087 63.0467 27.152 62.4962 27.152H61.9518Z" fill="white"/>
<path d="M65.4871 35.491L67.3123 25.8265H69.1649L71.0038 35.491H69.336L69.0372 33.724H67.3123L67.0271 35.491H65.4871ZM67.5256 32.427H68.8202L68.1791 28.5495H68.1655L67.5256 32.427Z" fill="white"/>
<path d="M71.3745 33.4103V32.1133H72.8861V33.4388C72.8861 33.9807 73.1341 34.2944 73.6834 34.2944C74.1968 34.2944 74.4274 33.9522 74.4274 33.4388V33.0668C74.4274 32.5113 74.1992 32.1691 73.7008 31.7028L72.746 30.7468C71.8197 29.8354 71.3919 29.2786 71.3919 28.1664V27.839C71.3919 26.6412 72.09 25.7149 73.6722 25.7149C75.2966 25.7149 75.939 26.5134 75.939 27.9109V28.6946H74.451V27.8539C74.451 27.2971 74.1943 27.0268 73.6809 27.0268C73.2246 27.0268 72.9121 27.2835 72.9121 27.8254V28.025C72.9121 28.5656 73.211 28.8794 73.6809 29.3357L74.7225 30.3624C75.6054 31.2602 76.0332 31.802 76.0332 32.8709V33.3421C76.0332 34.6677 75.3202 35.6076 73.6673 35.6076C72.0144 35.6076 71.3745 34.6788 71.3745 33.4103Z" fill="white"/>
<path d="M76.4214 25.8265H80.7403V27.152H79.3999V35.491H77.7606V27.152H76.4214V25.8265Z" fill="white"/>
<path d="M83.0492 31.058V35.491H81.4248V25.8265H83.7907C85.43 25.8265 86.0227 26.6387 86.0227 27.994V29.234C86.0227 30.2744 85.6507 30.8869 84.7257 31.1014L86.2794 35.491H84.5682L83.0492 31.058ZM83.0492 27.152V30.1603H83.5911C84.1466 30.1603 84.3896 29.8751 84.3896 29.3617V27.937C84.3896 27.4087 84.1416 27.152 83.5911 27.152H83.0492Z" fill="white"/>
<path d="M91.5593 25.8265V33.1425C91.5593 34.6392 90.9182 35.6076 89.264 35.6076C87.5541 35.6076 86.8411 34.6392 86.8411 33.1425V25.8265H88.4667V33.2962C88.4667 33.8666 88.6949 34.251 89.264 34.251C89.8332 34.251 90.0626 33.8666 90.0626 33.2962V25.8265H91.5593Z" fill="white"/>
<path d="M92.4148 32.9974V28.3214C92.4148 26.8098 93.1278 25.7174 94.8378 25.7174C96.6345 25.7174 97.133 26.7094 97.133 28.1403V29.2811H95.645V28.0076C95.645 27.4087 95.4454 27.0665 94.8601 27.0665C94.2748 27.0665 94.0342 27.4806 94.0342 28.0647V33.2541C94.0342 33.8381 94.2822 34.2461 94.8601 34.2461C95.4379 34.2461 95.645 33.8741 95.645 33.3062V31.5292H97.133V33.197C97.133 34.5796 96.5626 35.6051 94.8378 35.6051C93.1129 35.6051 92.4148 34.4941 92.4148 32.9974Z" fill="white"/>
<path d="M97.4045 25.8265H101.723V27.152H100.383V35.491H98.7437V27.152H97.4045V25.8265Z" fill="white"/>
<path d="M107.126 25.8265V33.1425C107.126 34.6392 106.485 35.6076 104.831 35.6076C103.12 35.6076 102.408 34.6392 102.408 33.1425V25.8265H104.036V33.2962C104.036 33.8666 104.264 34.251 104.835 34.251C105.405 34.251 105.633 33.8666 105.633 33.2962V25.8265H107.126Z" fill="white"/>
<path d="M109.606 31.058V35.491H107.982V25.8265H110.348C111.987 25.8265 112.586 26.6387 112.586 27.994V29.234C112.586 30.2744 112.214 30.8869 111.289 31.1014L112.84 35.491H111.129L109.606 31.058ZM109.606 27.152V30.1603H110.148C110.703 30.1603 110.947 29.8751 110.947 29.3617V27.937C110.947 27.4087 110.699 27.152 110.148 27.152H109.606Z" fill="white"/>
<path d="M113.398 25.8265H117.276V27.152H115.024V29.9185H116.636V31.2292H115.024V34.1655H117.276V35.491H113.398V25.8265Z" fill="white"/>
</g>
<rect width="98" height="50" transform="translate(124 0.343994)" fill="#FD6925"/>
<path d="M188.237 27.0108L180.866 22.757V14.2475C180.866 14.1598 180.844 14.0736 180.8 13.9974C180.757 13.9213 180.694 13.8578 180.618 13.8135L172.998 9.41146C172.922 9.36726 172.835 9.34399 172.747 9.34399C172.659 9.34399 172.572 9.36726 172.496 9.41146L164.87 13.8122C164.795 13.8566 164.732 13.92 164.688 13.9962C164.645 14.0723 164.622 14.1585 164.622 14.2462V22.757L157.252 27.0108C157.175 27.0547 157.112 27.118 157.068 27.1941C157.024 27.2703 157 27.3567 157 27.4448V36.2488C157 36.3368 157.024 36.4232 157.068 36.4994C157.112 36.5755 157.175 36.6388 157.252 36.6828L164.872 41.0848C164.949 41.1287 165.035 41.1518 165.124 41.1518C165.212 41.1518 165.298 41.1287 165.375 41.0848L172.744 36.8272L180.112 41.0811C180.189 41.1249 180.276 41.148 180.364 41.148C180.452 41.148 180.539 41.1249 180.615 41.0811L188.237 36.6791C188.313 36.635 188.376 36.5718 188.421 36.4956C188.465 36.4195 188.488 36.3331 188.489 36.2451V27.4411C188.488 27.3536 188.464 27.2679 188.42 27.1924C188.376 27.117 188.313 27.0543 188.237 27.0108ZM172.241 35.3758L166.129 31.8462L172.241 28.3171L172.241 35.3758ZM179.358 23.0477L173.246 26.5749V19.5181L179.358 23.0477ZM172.241 26.5755L166.13 23.0471L172.241 19.5181V26.5755ZM173.75 27.4435L180.364 23.6281L186.98 27.446L180.364 31.2658L173.75 27.4435ZM179.861 22.1735L173.75 18.6439L179.861 15.1155V22.1735ZM171.739 18.6439L165.627 22.1735V15.1186L171.739 18.6439ZM164.622 39.7747L158.007 35.9561V28.3171L164.622 32.1394V39.7747ZM165.627 39.7747V32.7173L171.74 36.2469L165.627 39.7747ZM187.484 35.9561L180.866 39.7747V32.1394L187.483 28.3196L187.484 35.9561Z" fill="white"/>
<defs>
<clipPath id="clip0_430_1989">
<rect width="124" height="50" fill="white" transform="translate(0 0.343994)"/>
</clipPath>
</defs>
</svg>
