<svg width="75" height="36" viewBox="0 0 75 36" fill="none" xmlns="http://www.w3.org/2000/svg">
<g clip-path="url(#clip0_216_313)">
<path fill-rule="evenodd" clip-rule="evenodd" d="M21.4543 23.8221H29.6414L31.4218 28.8942H35.3717L27.2206 7.31565L25.5498 12.0985L28.5791 20.7699H22.5205L21.4543 23.8221Z" fill="#212121"/>
<path d="M38.3027 6.78475H41.3668V28.2339H38.3027V6.78475Z" fill="#212121"/>
<path fill-rule="evenodd" clip-rule="evenodd" d="M14.5009 29.2617C20.6726 29.2617 25.6756 24.2586 25.6756 18.087C25.6756 11.9154 20.6726 6.91229 14.5009 6.91229C8.32934 6.91229 3.32626 11.9154 3.32626 18.087C3.32626 24.2586 8.32934 29.2617 14.5009 29.2617ZM14.5009 26.0194C18.8819 26.0194 22.4334 22.4679 22.4334 18.0869C22.4334 13.7059 18.8819 10.1544 14.5009 10.1544C10.1199 10.1544 6.56844 13.7059 6.56844 18.0869C6.56844 22.4679 10.1199 26.0194 14.5009 26.0194Z" fill="#212121"/>
<rect x="45.1029" y="6.89435" width="22.4706" height="22.4706" rx="0.510695" fill="#B75400"/>
<path d="M55.0539 14.7721H57.7669V26.3623H55.0539V14.7721ZM56.4212 12.8621C55.9293 12.8621 55.5169 12.7101 55.1841 12.4063C54.8513 12.0879 54.6849 11.6973 54.6849 11.2342C54.6849 10.7712 54.8513 10.3878 55.1841 10.0839C55.5169 9.76556 55.9293 9.60639 56.4212 9.60639C56.9132 9.60639 57.3256 9.75833 57.6584 10.0622C57.9912 10.3516 58.1576 10.7206 58.1576 11.1691C58.1576 11.6466 57.9912 12.0518 57.6584 12.3846C57.3401 12.7029 56.9277 12.8621 56.4212 12.8621Z" fill="white"/>
</g>
<defs>
<clipPath id="clip0_216_313">
<rect width="74.6342" height="36" rx="0.510695" fill="white"/>
</clipPath>
</defs>
</svg>
