<svg xmlns="http://www.w3.org/2000/svg" viewBox="0 0 24 24"><path fill-rule="evenodd" clip-rule="evenodd" d="M12 22c5.523 0 10-4.477 10-10S17.523 2 12 2 2 6.477 2 12s4.477 10 10 10zM7.54 8.18v8.367h1.202V8.18H7.54zm6.218 0h-3.25v8.375h3.265c2.758 0 4.438-2.04 4.438-4.188 0-1.976-1.36-4.187-4.453-4.187zm-.133 7.289h-1.914V9.266h1.851c2.344 0 3.415 1.421 3.415 3.101 0 1.031-.625 3.102-3.352 3.102zM8.141 7.227c.437 0 .789-.36.789-.79 0-.43-.352-.789-.79-.789a.787.787 0 00-.788.79c0 .43.351.789.789.789z"/></svg>