<svg xmlns="http://www.w3.org/2000/svg" viewBox="0 0 22 22"><path d="M5.652 7.864c.273-.465.605-.891.986-1.268L3.405 3.05a11.064 11.064 0 00-2.053 2.671l4.3 2.142zM13.577 5.36c.49.224.945.51 1.356.849l3.242-3.54A11.034 11.034 0 0015.302.877L13.577 5.36zM21.002 6.426l-4.297 2.142c.206.479.351.987.43 1.518l4.78-.451a10.9 10.9 0 00-.913-3.21zM16.397 7.947l4.297-2.142a11.045 11.045 0 00-2.008-2.666l-3.242 3.539c.369.38.69.805.953 1.269zM4.798 11c0-.096.003-.193.007-.29l-4.78-.427a11.014 11.014 0 00.301 3.377l4.617-1.325A6.206 6.206 0 014.798 11zM15.795 14.93c-.34.414-.732.782-1.166 1.097l2.525 4.087a11.086 11.086 0 002.472-2.296l-3.83-2.888zM17.202 11c0 .453-.049.894-.142 1.32l4.617 1.326a10.968 10.968 0 00.302-3.321l-4.781.452c.003.074.004.148.004.223zM6.282 15.021l-3.821 2.905c.71.875 1.552 1.638 2.496 2.26l2.524-4.082a6.25 6.25 0 01-1.199-1.083zM4.875 10.021c.086-.54.242-1.057.458-1.54L1.038 6.34C.563 7.35.238 8.444.09 9.59l4.785.43zM16.566 20.484l-2.52-4.082a6.184 6.184 0 01-1.471.598l.89 4.721a10.919 10.919 0 003.101-1.237zM16.876 12.988a6.205 6.205 0 01-.67 1.382l3.833 2.892a10.947 10.947 0 001.45-2.948l-4.613-1.326zM11.895 17.137a6.246 6.246 0 01-1.617.023l-.89 4.722a11.091 11.091 0 003.395-.027l-.888-4.718zM11.397 4.81a6.154 6.154 0 011.534.297L14.656.625a10.927 10.927 0 00-3.26-.617V4.81zM9.595 17.042a6.167 6.167 0 01-1.523-.576l-2.525 4.085c.971.556 2.033.968 3.16 1.208l.888-4.717zM9.136 5.084a6.143 6.143 0 011.567-.278V.004C9.549.035 8.44.245 7.4.606l1.736 4.478zM5.862 14.47a6.169 6.169 0 01-.732-1.467L.516 14.327c.35 1.1.867 2.126 1.524 3.047l3.822-2.904zM7.157 6.135a6.211 6.211 0 011.33-.805L6.752.854a11 11 0 00-2.83 1.733l3.235 3.548z"/></svg>