<svg xmlns="http://www.w3.org/2000/svg" width="198" height="180" viewBox="0 0 198 180" fill="none">
<path d="M137.037 135.697C137.037 135.697 146.084 108.487 134.724 133.618C134.724 133.618 130.716 111.744 131.762 135.613C131.762 135.613 120.049 117.297 129.926 139.585C129.926 139.585 114.726 123.374 130.421 144.498C130.421 144.498 161.077 142.957 137.257 141.911C137.257 141.911 164.988 130.162 138.555 138.61C138.555 138.619 162.19 115.213 137.037 135.697Z" fill="#B75400"/>
<path d="M135.108 136.301C135.108 136.301 129.012 144.895 126.806 153.801" stroke="#212121" stroke-width="0.368142" stroke-linecap="round" stroke-linejoin="round"/>
<path d="M118.42 136.57C118.42 136.57 97.0847 119.764 115.82 137.961C115.82 137.961 95.05 134.505 116.646 141.24C116.646 141.24 96.5639 145.79 119.603 144.153C119.603 144.153 100.276 152.486 124.14 145.292C124.14 145.292 132.618 117.486 124.03 138.371C124.03 138.371 122.476 109.89 121.509 136.164C121.509 136.156 108.233 107.582 118.42 136.57Z" fill="#B75400"/>
<path opacity="0.3" d="M118.42 136.57C118.42 136.57 97.0847 119.764 115.82 137.961C115.82 137.961 95.05 134.505 116.646 141.24C116.646 141.24 96.5639 145.79 119.603 144.153C119.603 144.153 100.276 152.486 124.14 145.292C124.14 145.292 132.618 117.486 124.03 138.371C124.03 138.371 122.476 109.89 121.509 136.164C121.509 136.156 108.233 107.582 118.42 136.57Z" fill="white"/>
<path d="M128.465 154.618C124.63 141.819 117.873 138.694 117.873 138.694" stroke="#212121" stroke-width="0.368142" stroke-linecap="round" stroke-linejoin="round"/>
<path d="M127.053 138.058C127.053 138.058 129.789 140.627 130.518 144.118C133.143 143.22 135.918 142.847 138.687 143.019" stroke="#212121" stroke-width="0.245428" stroke-linecap="round" stroke-linejoin="round"/>
<path d="M129.944 135.291C129.944 135.291 131.824 137.572 130.518 144.118L137.712 139.073" stroke="#212121" stroke-width="0.245428" stroke-linecap="round" stroke-linejoin="round"/>
<path d="M124.939 138.38C124.158 140.326 123.776 142.41 123.818 144.506C123.818 144.506 120.728 144.851 118.636 145.83" stroke="#212121" stroke-width="0.245428" stroke-linecap="round" stroke-linejoin="round"/>
<path d="M121.607 137.568C121.931 139.992 122.678 142.34 123.813 144.507C123.813 144.507 121.845 142.741 116.637 142.45" stroke="#212121" stroke-width="0.245428" stroke-linecap="round" stroke-linejoin="round"/>
<path d="M121.174 152.826H133.903L131.948 164.742H131.33V165.219C131.33 165.301 131.315 165.381 131.284 165.457C131.253 165.532 131.208 165.601 131.15 165.659C131.093 165.717 131.025 165.763 130.949 165.794C130.874 165.825 130.793 165.841 130.712 165.841H130.12C130.039 165.841 129.958 165.825 129.883 165.794C129.808 165.763 129.739 165.717 129.682 165.659C129.624 165.601 129.579 165.532 129.548 165.457C129.517 165.381 129.502 165.301 129.502 165.219V164.742H125.574V165.219C125.574 165.301 125.558 165.382 125.527 165.457C125.496 165.533 125.45 165.601 125.392 165.659C125.334 165.717 125.266 165.763 125.19 165.794C125.115 165.825 125.034 165.841 124.952 165.841H124.361C124.196 165.84 124.039 165.774 123.923 165.657C123.808 165.541 123.743 165.383 123.743 165.219V164.742H123.125L121.174 152.826Z" fill="#212121" stroke="#212121" stroke-width="0.368142" stroke-linecap="round" stroke-linejoin="round"/>
<path d="M177.301 165.815H28.3431C19.3527 167.192 12.1409 168.975 14.405 171.005C19.7013 175.759 57.8435 170.206 56.7224 175.71C55.6014 181.214 84.2058 179.85 99.768 179.85C115.33 179.85 132.318 178.389 126.85 174.165C121.381 169.942 157.683 173.027 173.285 173.027C184.672 173.027 192.475 169.849 177.301 165.815Z" fill="#E0E0E0"/>
<path d="M0.828857 165.815H197.171" stroke="#212121" stroke-width="0.368142" stroke-linecap="round" stroke-linejoin="round"/>
<path d="M142.076 10.5898H66.3924C64.379 10.5898 62.7468 12.222 62.7468 14.2355V113.784C62.7468 115.797 64.379 117.429 66.3924 117.429H142.076C144.09 117.429 145.722 115.797 145.722 113.784V14.2355C145.722 12.222 144.09 10.5898 142.076 10.5898Z" fill="#212121" stroke="#212121" stroke-width="0.490856" stroke-linecap="round" stroke-linejoin="round"/>
<path d="M140.752 9.02246H65.0685C63.055 9.02246 61.4229 10.6547 61.4229 12.6681V112.216C61.4229 114.23 63.055 115.862 65.0685 115.862H140.752C142.766 115.862 144.398 114.23 144.398 112.216V12.6681C144.398 10.6547 142.766 9.02246 140.752 9.02246Z" fill="#B75400"/>
<path d="M140.752 9.02246H65.0685C63.055 9.02246 61.4229 10.6547 61.4229 12.6681V112.216C61.4229 114.23 63.055 115.862 65.0685 115.862H140.752C142.766 115.862 144.398 114.23 144.398 112.216V12.6681C144.398 10.6547 142.766 9.02246 140.752 9.02246Z" fill="white"/>
<path d="M140.752 9.02246H65.0685C63.055 9.02246 61.4229 10.6547 61.4229 12.6681V112.216C61.4229 114.23 63.055 115.862 65.0685 115.862H140.752C142.766 115.862 144.398 114.23 144.398 112.216V12.6681C144.398 10.6547 142.766 9.02246 140.752 9.02246Z" stroke="#212121" stroke-width="0.490856" stroke-linecap="round" stroke-linejoin="round"/>
<path d="M119.351 14.1294H86.4699C86.1043 14.1294 85.8079 14.4258 85.8079 14.7914C85.8079 15.1571 86.1043 15.4535 86.4699 15.4535H119.351C119.717 15.4535 120.013 15.1571 120.013 14.7914C120.013 14.4258 119.717 14.1294 119.351 14.1294Z" fill="#212121" stroke="#212121" stroke-width="0.368142" stroke-linecap="round" stroke-linejoin="round"/>
<path d="M140.205 61.2176H107.324C107.149 61.2176 106.98 61.1479 106.856 61.0237C106.732 60.8996 106.662 60.7312 106.662 60.5556C106.662 60.38 106.732 60.2116 106.856 60.0875C106.98 59.9633 107.149 59.8936 107.324 59.8936H140.205C140.381 59.8936 140.549 59.9633 140.673 60.0875C140.798 60.2116 140.867 60.38 140.867 60.5556C140.867 60.7312 140.798 60.8996 140.673 61.0237C140.549 61.1479 140.381 61.2176 140.205 61.2176Z" fill="#212121" stroke="#212121" stroke-width="0.368142" stroke-linecap="round" stroke-linejoin="round"/>
<path d="M133.144 68.5355H107.324C107.149 68.5355 106.98 68.4658 106.856 68.3416C106.732 68.2174 106.662 68.049 106.662 67.8735C106.662 67.6979 106.732 67.5295 106.856 67.4053C106.98 67.2812 107.149 67.2114 107.324 67.2114H133.144C133.319 67.2114 133.488 67.2812 133.612 67.4053C133.736 67.5295 133.806 67.6979 133.806 67.8735C133.806 68.049 133.736 68.2174 133.612 68.3416C133.488 68.4658 133.319 68.5355 133.144 68.5355Z" fill="#212121" stroke="#212121" stroke-width="0.368142" stroke-linecap="round" stroke-linejoin="round"/>
<path d="M129.723 72.3887H107.324C106.959 72.3887 106.662 72.6851 106.662 73.0507C106.662 73.4163 106.959 73.7127 107.324 73.7127H129.723C130.089 73.7127 130.385 73.4163 130.385 73.0507C130.385 72.6851 130.089 72.3887 129.723 72.3887Z" fill="#212121" stroke="#212121" stroke-width="0.368142" stroke-linecap="round" stroke-linejoin="round"/>
<path d="M136.233 78.8856H107.324C107.149 78.8856 106.98 78.8159 106.856 78.6917C106.732 78.5675 106.662 78.3991 106.662 78.2236C106.662 78.048 106.732 77.8796 106.856 77.7554C106.98 77.6313 107.149 77.5615 107.324 77.5615H136.233C136.409 77.5615 136.577 77.6313 136.701 77.7554C136.825 77.8796 136.895 78.048 136.895 78.2236C136.895 78.3991 136.825 78.5675 136.701 78.6917C136.577 78.8159 136.409 78.8856 136.233 78.8856Z" fill="#212121" stroke="#212121" stroke-width="0.368142" stroke-linecap="round" stroke-linejoin="round"/>
<path d="M133.475 84.0584H107.324C107.149 84.0584 106.98 83.9887 106.856 83.8645C106.732 83.7404 106.662 83.572 106.662 83.3964C106.662 83.2208 106.732 83.0524 106.856 82.9283C106.98 82.8041 107.149 82.7344 107.324 82.7344H133.475C133.65 82.7344 133.819 82.8041 133.943 82.9283C134.067 83.0524 134.137 83.2208 134.137 83.3964C134.137 83.572 134.067 83.7404 133.943 83.8645C133.819 83.9887 133.65 84.0584 133.475 84.0584Z" fill="#212121" stroke="#212121" stroke-width="0.368142" stroke-linecap="round" stroke-linejoin="round"/>
<path d="M129.723 89.2352H107.324C107.149 89.2352 106.98 89.1655 106.856 89.0413C106.732 88.9171 106.662 88.7488 106.662 88.5732C106.662 88.3976 106.732 88.2292 106.856 88.105C106.98 87.9809 107.149 87.9111 107.324 87.9111H129.723C129.899 87.9111 130.067 87.9809 130.191 88.105C130.315 88.2292 130.385 88.3976 130.385 88.5732C130.385 88.7488 130.315 88.9171 130.191 89.0413C130.067 89.1655 129.899 89.2352 129.723 89.2352Z" fill="#212121" stroke="#212121" stroke-width="0.368142" stroke-linecap="round" stroke-linejoin="round"/>
<path d="M124.316 19.9378H81.5046C81.329 19.9378 81.1606 19.8681 81.0364 19.7439C80.9123 19.6198 80.8425 19.4514 80.8425 19.2758C80.8425 19.1002 80.9123 18.9318 81.0364 18.8077C81.1606 18.6835 81.329 18.6138 81.5046 18.6138H124.316C124.492 18.6138 124.66 18.6835 124.784 18.8077C124.909 18.9318 124.978 19.1002 124.978 19.2758C124.978 19.4514 124.909 19.6198 124.784 19.7439C124.66 19.8681 124.492 19.9378 124.316 19.9378Z" fill="#212121" stroke="#212121" stroke-width="0.368142" stroke-linecap="round" stroke-linejoin="round"/>
<path d="M102.911 111.299C106.811 111.299 109.972 108.137 109.972 104.237C109.972 100.337 106.811 97.1753 102.911 97.1753C99.0105 97.1753 95.8489 100.337 95.8489 104.237C95.8489 108.137 99.0105 111.299 102.911 111.299Z" fill="#E0E0E0" stroke="#212121" stroke-width="0.368142" stroke-linecap="round" stroke-linejoin="round"/>
<path d="M81.7253 111.299C85.6254 111.299 88.787 108.137 88.787 104.237C88.787 100.337 85.6254 97.1753 81.7253 97.1753C77.8252 97.1753 74.6636 100.337 74.6636 104.237C74.6636 108.137 77.8252 111.299 81.7253 111.299Z" fill="#E0E0E0" stroke="#212121" stroke-width="0.490856" stroke-linecap="round" stroke-linejoin="round"/>
<path d="M124.096 111.299C127.996 111.299 131.157 108.137 131.157 104.237C131.157 100.337 127.996 97.1753 124.096 97.1753C120.196 97.1753 117.034 100.337 117.034 104.237C117.034 108.137 120.196 111.299 124.096 111.299Z" fill="#E0E0E0" stroke="#212121" stroke-width="0.490856" stroke-linecap="round" stroke-linejoin="round"/>
<path d="M31.8873 55.6785C31.927 56.8613 32.0506 60.4098 32.0506 60.4098L39.0859 64.6292L39.5272 56.5877L39.77 45.5537L40.9263 43.9472C40.9263 43.9472 42.6564 41.299 39.77 40.2707C36.8835 39.2423 37.6867 41.1534 34.8179 41.4756C31.9491 41.7978 25.2228 46.3305 28.2682 50.2718C31.3135 54.2132 31.8167 53.7012 31.8873 55.6785Z" fill="white"/>
<path d="M34.584 53.5734C34.9961 53.9294 35.4907 54.1767 36.0228 54.2928C36.0228 54.2928 37.1129 57.3823 37.6602 57.7972C38.2075 58.2121 40.1583 58.5431 40.1583 58.5431L40.7321 54.4694L36.6804 51.8212L34.4736 51.1592L34.584 53.5734Z" fill="#212121" stroke="#212121" stroke-width="0.490856" stroke-linecap="round" stroke-linejoin="round"/>
<path d="M31.8873 55.6785C31.927 56.8613 32.0506 60.4098 32.0506 60.4098L39.0859 64.6292L39.5272 56.5877L39.77 45.5537L40.9263 43.9472C40.9263 43.9472 42.6564 41.299 39.77 40.2707C36.8835 39.2423 37.6867 41.1534 34.8179 41.4756C31.9491 41.7978 25.2228 46.3305 28.2682 50.2718C31.3135 54.2132 31.8167 53.7012 31.8873 55.6785Z" stroke="#212121" stroke-width="0.490856" stroke-linecap="round" stroke-linejoin="round"/>
<path d="M39.7654 45.5625L40.9218 43.956C40.9218 43.956 42.6519 41.3078 39.7654 40.2794C36.8789 39.2511 37.6822 41.1622 34.8134 41.4844C31.9446 41.8066 25.2227 46.3305 28.2681 50.2718C30.2453 52.8493 31.1545 53.5246 31.565 54.244C31.8893 54.0355 32.2758 53.9457 32.6588 53.99C33.0418 54.0342 33.3977 54.2098 33.6659 54.4868C34.8134 55.6299 35.983 49.2434 35.983 49.2434L39.7434 46.5732L39.7654 45.5625Z" fill="#212121" stroke="#212121" stroke-width="0.490856" stroke-linecap="round" stroke-linejoin="round"/>
<path d="M34.6414 49.813C34.6414 49.813 31.8079 49.888 33.3173 52.0198C34.8268 54.1515 36.4069 53.7455 36.4069 53.7455L38.1326 57.0336C38.1326 57.0336 44.1394 57.881 45.5562 57.475C46.973 57.0689 44.5234 52.1169 44.5234 52.1169L45.4635 51.04C45.5159 50.981 45.5556 50.912 45.5803 50.8371C45.605 50.7622 45.6142 50.683 45.6071 50.6045C45.6001 50.5259 45.5771 50.4497 45.5395 50.3803C45.5019 50.311 45.4505 50.2501 45.3885 50.2014L43.1464 48.4007C43.3362 47.2928 40.8866 43.9606 40.8866 43.9606C40.8866 43.9606 37.2498 43.9209 36.9144 45.1478C36.7086 45.8739 36.5421 46.6106 36.4157 47.3546L34.3501 48.1976L34.6414 49.813Z" fill="white"/>
<path d="M34.6414 49.813C34.6414 49.813 31.8079 49.888 33.3173 52.0198C34.8268 54.1515 36.4069 53.7455 36.4069 53.7455L38.1326 57.0336C38.1326 57.0336 44.1394 57.881 45.5562 57.475C46.973 57.0689 44.5234 52.1169 44.5234 52.1169L45.4635 51.04C45.5159 50.981 45.5556 50.912 45.5803 50.8371C45.605 50.7622 45.6142 50.683 45.6071 50.6045C45.6001 50.5259 45.5771 50.4497 45.5395 50.3803C45.5019 50.311 45.4505 50.2501 45.3885 50.2014L43.1464 48.4007C43.3362 47.2928 40.8866 43.9606 40.8866 43.9606C40.8866 43.9606 37.2498 43.9209 36.9144 45.1478C36.7086 45.8739 36.5421 46.6106 36.4157 47.3546L34.3501 48.1976L34.6414 49.813Z" stroke="#212121" stroke-width="0.490856" stroke-linecap="round" stroke-linejoin="round"/>
<path d="M42.63 48.6917C42.7448 49.0315 42.7271 49.3493 42.5859 49.3978C42.4447 49.4464 42.2372 49.2081 42.1225 48.8638C42.0077 48.5195 42.0298 48.2106 42.1666 48.162C42.3034 48.1135 42.5065 48.3518 42.63 48.6917Z" fill="#212121"/>
<path d="M42.065 47.0943C42.065 47.0943 41.0323 46.8648 40.741 48.2816" stroke="#212121" stroke-width="0.490856" stroke-linecap="round" stroke-linejoin="round"/>
<path d="M44.1173 52.8052C44.1173 52.8052 43.7598 53.8026 42.396 53.2995" stroke="#212121" stroke-width="0.490856" stroke-linecap="round" stroke-linejoin="round"/>
<path d="M69.0275 52.6157C69.4689 52.8055 69.5042 53.6043 69.5042 53.6043C70.4487 53.2204 70.2192 54.871 70.2192 54.871C71.2741 54.6195 70.4399 56.301 70.4399 56.301C70.4399 56.301 71.124 56.61 70.4929 57.2897C69.6631 58.1724 66.8561 59.5406 66.8561 59.5406L63.2722 62.736L60.7786 60.3262L64.3712 57.3824C64.3712 57.3824 64.5434 56.4246 64.7684 55.1756C64.7684 55.1756 65.0995 53.6396 65.8939 52.832C66.6884 52.0243 68.5465 52.4259 69.0275 52.6157Z" fill="white" stroke="#212121" stroke-width="0.490856" stroke-linecap="round" stroke-linejoin="round"/>
<path d="M68.3523 53.5156C68.3523 53.5156 67.8624 55.8548 69.0717 54.0541C69.0717 54.0541 68.0566 56.6316 69.747 55.1972C69.747 55.1972 68.0036 57.0024 69.6631 56.4904C69.6631 56.4904 68.8775 56.8258 68.8157 57.2142C68.7539 57.6026 69.5351 57.479 69.5351 57.479" fill="#999999"/>
<path d="M68.3523 53.5156C68.3523 53.5156 67.8624 55.8548 69.0717 54.0541C69.0717 54.0541 68.0566 56.6316 69.747 55.1972C69.747 55.1972 68.0036 57.0024 69.6631 56.4904C69.6631 56.4904 68.8775 56.8258 68.8157 57.2142C68.7539 57.6026 69.5351 57.479 69.5351 57.479" stroke="#212121" stroke-width="0.490856" stroke-linecap="round" stroke-linejoin="round"/>
<path d="M31.7107 72.3707C31.7107 72.3707 38.0971 73.8581 51.7792 71.8411C51.7792 71.8411 62.288 66.3506 64.9714 61.297L62.4777 58.4326L49.568 65.6797C49.568 65.6797 36.1243 63.6053 33.635 63.9143L31.7107 72.3707Z" fill="#212121" stroke="#212121" stroke-width="0.490856" stroke-linecap="round" stroke-linejoin="round"/>
<circle cx="86" cy="47" r="19.2857" stroke="#B75400" stroke-width="1.42857"/>
<circle cx="86.0002" cy="46.9997" r="18.1429" stroke="#E0E0E0" stroke-width="1.42857"/>
<circle cx="86" cy="46.9998" r="17.6429" fill="white" stroke="#E0E0E0"/>
<path d="M80 39.2856V54.7142H85.1429V51.7142H86.8571V54.7142H92V39.2856H80ZM81.7143 40.9999H83.4286V42.7142H81.7143V40.9999ZM85.1429 40.9999H86.8571V42.7142H85.1429V40.9999ZM88.5714 40.9999H90.2857V42.7142H88.5714V40.9999ZM81.7143 44.4285H83.4286V46.1428H81.7143V44.4285ZM85.1429 44.4285H86.8571V46.1428H85.1429V44.4285ZM88.5714 44.4285H90.2857V46.1428H88.5714V44.4285ZM81.7143 47.8571H83.4286V49.5714H81.7143V47.8571ZM85.1429 47.8571H86.8571V49.5714H85.1429V47.8571ZM88.5714 47.8571H90.2857V49.5714H88.5714V47.8571ZM81.7143 51.2856H83.4286V52.9999H81.7143V51.2856ZM88.5714 51.2856H90.2857V52.9999H88.5714V51.2856Z" fill="black" fill-opacity="0.38"/>
<path d="M66.834 52.6245C66.922 52.5366 67.0333 52.4757 67.1547 52.4489C67.2761 52.4221 67.4027 52.4306 67.5195 52.4732C67.6363 52.5158 67.7385 52.5909 67.8141 52.6897C67.8897 52.7884 67.9355 52.9066 67.9462 53.0305C68.2596 54.0809 69.6146 54.6062 69.2438 54.8313C68.8731 55.0563 68.0213 55.4977 67.3195 54.3193C67.3195 54.3193 67.0591 54.2928 67.0768 54.8004C67.0988 55.4183 67.0768 56.1906 66.7722 56.5879" fill="white"/>
<path d="M66.834 52.6245C66.922 52.5366 67.0333 52.4757 67.1547 52.4489C67.2761 52.4221 67.4027 52.4306 67.5195 52.4732C67.6363 52.5158 67.7385 52.5909 67.8141 52.6897C67.8897 52.7884 67.9355 52.9066 67.9462 53.0305C68.2596 54.0809 69.6146 54.6062 69.2438 54.8313C68.8731 55.0563 68.0213 55.4977 67.3195 54.3193C67.3195 54.3193 67.0591 54.2928 67.0768 54.8004C67.0988 55.4183 67.0768 56.1906 66.7722 56.5879" stroke="#212121" stroke-width="0.490856" stroke-linecap="round" stroke-linejoin="round"/>
<path d="M18.064 160.125C16.911 161.605 16.1 163.322 15.6895 165.153C15.6482 165.334 15.6437 165.521 15.6763 165.704C15.7089 165.887 15.7778 166.061 15.8791 166.217C15.9804 166.372 16.1119 166.506 16.2658 166.61C16.4198 166.714 16.593 166.785 16.7752 166.821L25.7348 168.648C27.7032 169.054 30.7177 168.97 32.2404 168.895C32.416 168.889 32.5883 168.845 32.7457 168.767C32.903 168.689 33.0419 168.578 33.153 168.442C33.2641 168.305 33.3449 168.147 33.39 167.977C33.4351 167.807 33.4434 167.63 33.4144 167.456C33.3311 167.117 33.1713 166.801 32.9472 166.532C32.7231 166.264 32.4406 166.05 32.1212 165.907C30.0027 164.733 24.9668 163.943 22.8924 160.761L18.064 160.125Z" fill="#212121" stroke="#212121" stroke-width="0.490856" stroke-linecap="round" stroke-linejoin="round"/>
<path d="M44.7794 105.005C44.7794 105.005 40.0657 118.1 34.0323 130.63C34.0323 130.63 32.8627 136.138 30.2278 139.899L23.6075 161.035C23.6075 161.035 20.7033 162.231 17.2607 160.153C17.2607 160.153 18.9026 146.629 23.0999 136.818L25.5759 129.046L28.6654 113.395C28.6654 113.395 26.0482 108.867 26.7455 102.22L38.3665 102.061L44.7794 105.005Z" fill="#B75400"/>
<path opacity="0.2" d="M29.8571 102.957C29.0759 103.398 28.3344 103.897 27.5399 104.312C27.1266 104.51 26.727 104.735 26.3439 104.987C26.3703 104.987 26.3174 105.027 26.2644 105.075C26.2724 105.147 26.2724 105.219 26.2644 105.291C26.2423 105.425 26.2038 105.555 26.1497 105.68C26.3553 105.88 26.5132 106.124 26.6117 106.394C26.7103 106.664 26.7469 106.952 26.719 107.238C26.719 107.441 26.719 107.644 26.6837 107.847L26.7411 107.935C26.9983 108.508 27.1721 109.114 27.2575 109.736C27.4445 110.662 27.7517 111.559 28.1711 112.406C28.2603 112.602 28.327 112.808 28.3697 113.02L28.6654 113.395C28.6654 113.395 31.5254 132.532 33.6572 132.104C35.7889 131.676 37.188 121.48 37.188 121.48L29.8571 102.957Z" fill="#212121"/>
<path d="M44.7794 105.005C44.7794 105.005 40.0657 118.1 34.0323 130.63C34.0323 130.63 32.8627 136.138 30.2278 139.899L23.6075 161.035C23.6075 161.035 20.7033 162.231 17.2607 160.153C17.2607 160.153 18.9026 146.629 23.0999 136.818L25.5759 129.046L28.6654 113.395C28.6654 113.395 26.0482 108.867 26.7455 102.22L38.3665 102.061L44.7794 105.005Z" stroke="#212121" stroke-width="0.490856" stroke-linecap="round" stroke-linejoin="round"/>
<path d="M38.0927 162.227C38.0927 162.227 36.6803 164.111 36.6053 167.475C36.6035 167.67 36.6405 167.863 36.7141 168.044C36.7877 168.224 36.8964 168.389 37.0339 168.527C37.1714 168.665 37.335 168.775 37.5153 168.85C37.6955 168.924 37.8888 168.963 38.0838 168.962H47.7937C49.9255 168.962 53.037 168.234 54.6039 167.832C54.7864 167.787 54.9571 167.703 55.1046 167.586C55.2522 167.47 55.3732 167.323 55.4597 167.156C55.5461 166.989 55.596 166.805 55.6059 166.617C55.6159 166.43 55.5857 166.242 55.5175 166.067C55.3558 165.735 55.1215 165.443 54.8319 165.214C54.5424 164.985 54.205 164.824 53.8447 164.743C51.3908 163.979 45.993 164.231 43.1595 161.366L38.0927 162.227Z" fill="#212121" stroke="#212121" stroke-width="0.490856" stroke-linecap="round" stroke-linejoin="round"/>
<path d="M43.9408 100.971C43.9408 100.971 45.8872 115.054 43.9408 128.838C43.9408 128.838 44.06 134.575 42.683 138.945L43.7819 161.573C43.7819 161.573 41.4207 163.409 37.5147 162.491C37.5147 162.491 33.4939 148.249 34.4251 138.027L33.9838 129.871L30.8546 112.975C30.8546 112.975 27.2663 110.327 25.9158 103.786L36.9497 100.11L43.9408 100.971Z" fill="#B75400" stroke="#212121" stroke-width="0.490856" stroke-linecap="round" stroke-linejoin="round"/>
<path d="M30.9694 60.0347C30.9694 60.0347 26.1453 63.7112 25.4524 72.9002C24.7595 82.0893 23.2721 101.271 26.2601 106.324C26.2601 106.324 29.1289 101.165 44.6382 103.235C44.6382 103.235 46.2448 95.5375 43.8305 80.4916C41.4163 65.4457 38.6622 61.6456 30.9694 60.0347Z" fill="#212121" stroke="#212121" stroke-width="0.490856" stroke-linecap="round" stroke-linejoin="round"/>
<path d="M30.9692 60.4938L31.4106 57.625C33.7268 57.7449 35.9422 58.6104 37.7264 60.0922C39.7787 61.8223 40.4275 63.4818 38.9313 65.4326L30.9692 60.8381V60.4938Z" fill="#212121" stroke="#212121" stroke-width="0.490856" stroke-linecap="round" stroke-linejoin="round"/>
<path d="M38.8255 64.3555C37.1439 62.1796 34.9945 61.0188 32.0815 60.2817" stroke="#7F7F7F" stroke-width="0.368142" stroke-linecap="round" stroke-linejoin="round"/>
<path d="M42.5506 73.5094C41.734 70.058 40.816 67.4981 39.6597 65.5649" stroke="#7F7F7F" stroke-width="0.368142" stroke-linecap="round" stroke-linejoin="round"/>
<path d="M55.751 93.1223L33.8508 93.1528L33.8736 109.426L55.7737 109.395L55.751 93.1223Z" fill="#999999" stroke="#212121" stroke-width="0.368142" stroke-linecap="round" stroke-linejoin="round"/>
<path d="M37.5641 94.198L35.269 94.2012L35.2714 95.9048L37.5665 95.9016L37.5641 94.198Z" fill="#212121" stroke="#212121" stroke-width="0.490856" stroke-linecap="round" stroke-linejoin="round"/>
<path d="M37.4219 105.883L42.6034 97.9473L47.8026 105.865L37.4219 105.883Z" fill="#B75400"/>
<path opacity="0.5" d="M37.4219 105.883L42.6034 97.9473L47.8026 105.865L37.4219 105.883Z" fill="white"/>
<path d="M37.4219 105.883L42.6034 97.9473L47.8026 105.865L37.4219 105.883Z" stroke="#212121" stroke-width="0.368142" stroke-linecap="round" stroke-linejoin="round"/>
<path d="M44.2808 105.874L48.2353 99.8145L52.2075 105.861L44.2808 105.874Z" fill="#B75400" stroke="#212121" stroke-width="0.368142" stroke-linecap="round" stroke-linejoin="round"/>
<path d="M47.7629 97.9383C47.7629 98.2002 47.6852 98.4562 47.5397 98.674C47.3943 98.8917 47.1875 99.0614 46.9455 99.1616C46.7036 99.2618 46.4373 99.2881 46.1805 99.237C45.9237 99.1859 45.6877 99.0598 45.5026 98.8746C45.3174 98.6894 45.1913 98.4535 45.1402 98.1966C45.0891 97.9398 45.1153 97.6736 45.2155 97.4316C45.3158 97.1897 45.4855 96.9829 45.7032 96.8374C45.9209 96.6919 46.1769 96.6143 46.4388 96.6143C46.79 96.6143 47.1268 96.7538 47.3751 97.0021C47.6234 97.2504 47.7629 97.5872 47.7629 97.9383Z" fill="#B75400"/>
<path opacity="0.7" d="M47.7629 97.9383C47.7629 98.2002 47.6852 98.4562 47.5397 98.674C47.3943 98.8917 47.1875 99.0614 46.9455 99.1616C46.7036 99.2618 46.4373 99.2881 46.1805 99.237C45.9237 99.1859 45.6877 99.0598 45.5026 98.8746C45.3174 98.6894 45.1913 98.4535 45.1402 98.1966C45.0891 97.9398 45.1153 97.6736 45.2155 97.4316C45.3158 97.1897 45.4855 96.9829 45.7032 96.8374C45.9209 96.6919 46.1769 96.6143 46.4388 96.6143C46.79 96.6143 47.1268 96.7538 47.3751 97.0021C47.6234 97.2504 47.7629 97.5872 47.7629 97.9383Z" fill="white"/>
<path d="M47.7629 97.9383C47.7629 98.2002 47.6852 98.4562 47.5397 98.674C47.3943 98.8917 47.1875 99.0614 46.9455 99.1616C46.7036 99.2618 46.4373 99.2881 46.1805 99.237C45.9237 99.1859 45.6877 99.0598 45.5026 98.8746C45.3174 98.6894 45.1913 98.4535 45.1402 98.1966C45.0891 97.9398 45.1153 97.6736 45.2155 97.4316C45.3158 97.1897 45.4855 96.9829 45.7032 96.8374C45.9209 96.6919 46.1769 96.6143 46.4388 96.6143C46.79 96.6143 47.1268 96.7538 47.3751 97.0021C47.6234 97.2504 47.7629 97.5872 47.7629 97.9383Z" stroke="#212121" stroke-width="0.368142" stroke-linecap="round" stroke-linejoin="round"/>
<path d="M54.6003 91.7872L32.8865 94.6382L35.0049 110.773L56.7187 107.922L54.6003 91.7872Z" fill="white" stroke="#212121" stroke-width="0.368142" stroke-linecap="round" stroke-linejoin="round"/>
<path d="M36.7091 95.1988L34.4336 95.4976L34.6554 97.1867L36.9309 96.8879L36.7091 95.1988Z" fill="#212121" stroke="#212121" stroke-width="0.490856" stroke-linecap="round" stroke-linejoin="round"/>
<path d="M38.0752 106.797L42.1931 98.2607L48.3721 105.442L38.0752 106.797Z" fill="#B75400"/>
<path opacity="0.5" d="M38.0752 106.797L42.1931 98.2607L48.3721 105.442L38.0752 106.797Z" fill="white"/>
<path d="M38.0752 106.797L42.1931 98.2607L48.3721 105.442L38.0752 106.797Z" stroke="#212121" stroke-width="0.368142" stroke-linecap="round" stroke-linejoin="round"/>
<path d="M44.8765 105.901L48.0189 99.3862L52.737 104.868L44.8765 105.901Z" fill="#B75400" stroke="#212121" stroke-width="0.368142" stroke-linecap="round" stroke-linejoin="round"/>
<path d="M47.3083 97.5854C47.3427 97.8449 47.2993 98.1088 47.1837 98.3438C47.0681 98.5787 46.8854 98.7741 46.6588 98.9052C46.4322 99.0363 46.1717 99.0973 45.9104 99.0805C45.6491 99.0636 45.3987 98.9696 45.1908 98.8105C44.9829 98.6513 44.8269 98.4341 44.7424 98.1862C44.6579 97.9384 44.6489 97.6711 44.7163 97.4181C44.7838 97.1651 44.9247 96.9378 45.1213 96.7649C45.3179 96.5919 45.5614 96.4812 45.8209 96.4466C45.9934 96.4237 46.1687 96.4349 46.3368 96.4797C46.5048 96.5245 46.6625 96.602 46.8006 96.7078C46.9387 96.8135 47.0547 96.9455 47.1418 97.096C47.2289 97.2466 47.2855 97.4129 47.3083 97.5854Z" fill="#B75400"/>
<path opacity="0.7" d="M47.3083 97.5854C47.3427 97.8449 47.2993 98.1088 47.1837 98.3438C47.0681 98.5787 46.8854 98.7741 46.6588 98.9052C46.4322 99.0363 46.1717 99.0973 45.9104 99.0805C45.6491 99.0636 45.3987 98.9696 45.1908 98.8105C44.9829 98.6513 44.8269 98.4341 44.7424 98.1862C44.6579 97.9384 44.6489 97.6711 44.7163 97.4181C44.7838 97.1651 44.9247 96.9378 45.1213 96.7649C45.3179 96.5919 45.5614 96.4812 45.8209 96.4466C45.9934 96.4237 46.1687 96.4349 46.3368 96.4797C46.5048 96.5245 46.6625 96.602 46.8006 96.7078C46.9387 96.8135 47.0547 96.9455 47.1418 97.096C47.2289 97.2466 47.2855 97.4129 47.3083 97.5854Z" fill="white"/>
<path d="M47.3083 97.5854C47.3427 97.8449 47.2993 98.1088 47.1837 98.3438C47.0681 98.5787 46.8854 98.7741 46.6588 98.9052C46.4322 99.0363 46.1717 99.0973 45.9104 99.0805C45.6491 99.0636 45.3987 98.9696 45.1908 98.8105C44.9829 98.6513 44.8269 98.4341 44.7424 98.1862C44.6579 97.9384 44.6489 97.6711 44.7163 97.4181C44.7838 97.1651 44.9247 96.9378 45.1213 96.7649C45.3179 96.5919 45.5614 96.4812 45.8209 96.4466C45.9934 96.4237 46.1687 96.4349 46.3368 96.4797C46.5048 96.5245 46.6625 96.602 46.8006 96.7078C46.9387 96.8135 47.0547 96.9455 47.1418 97.096C47.2289 97.2466 47.2855 97.4129 47.3083 97.5854V97.5854Z" stroke="#212121" stroke-width="0.368142" stroke-linecap="round" stroke-linejoin="round"/>
<path d="M41.8489 100.971L44.166 104.272L46.8141 104.886C47.8999 105.137 48.4737 105.375 48.8885 106.417C49.1842 107.163 48.9856 107.392 48.4472 107.587C48.4472 107.587 50.0272 110.619 48.381 110.323C48.381 110.323 48.5178 111.713 46.8759 111.206C46.8759 111.206 46.3507 112.146 45.212 111.382C45.212 111.382 44.3293 112.058 43.1023 109.776L41.3369 106.527L38.7373 103.597L41.8489 100.971Z" fill="white" stroke="#212121" stroke-width="0.490856" stroke-linecap="round" stroke-linejoin="round"/>
<path d="M48.244 109.343C48.244 109.343 48.4647 110.261 47.5599 110.226C46.6551 110.191 46.8184 111.109 44.7043 110.787" stroke="#212121" stroke-width="0.490856" stroke-linecap="round" stroke-linejoin="round"/>
<path d="M29.3583 67.957C29.3583 67.957 27.0633 74.8466 28.3256 90.0249C28.3256 90.0249 33.9794 101.968 39.7656 105.3L43.3714 102.312L36.3671 88.0697C36.3671 88.0697 39.9509 73.4828 39.7656 70.7288" fill="#212121"/>
<path d="M29.3583 67.957C29.3583 67.957 27.0633 74.8466 28.3256 90.0249C28.3256 90.0249 33.9794 101.968 39.7656 105.3L43.3714 102.312L36.3671 88.0697C36.3671 88.0697 39.9509 73.4828 39.7656 70.7288" stroke="#212121" stroke-width="0.490856" stroke-linecap="round" stroke-linejoin="round"/>
<path d="M38.9446 76.6516C39.4698 74.0034 39.8273 71.6642 39.7876 70.7197" stroke="#7F7F7F" stroke-width="0.368142" stroke-linecap="round" stroke-linejoin="round"/>
<path d="M36.7687 88.8244L36.3936 88.0608C36.3936 88.0608 37.7176 82.663 38.7151 77.8125" stroke="#7F7F7F" stroke-width="0.368142" stroke-linecap="round" stroke-linejoin="round"/>
<path d="M38.7107 92.7879L37.2278 89.769" stroke="#7F7F7F" stroke-width="0.368142" stroke-linecap="round" stroke-linejoin="round"/>
<path d="M28.2241 88.3877C28.2594 88.9217 28.2992 89.4602 28.3477 90.0163C29.7237 92.8333 31.2912 95.5525 33.0393 98.155" stroke="#7F7F7F" stroke-width="0.368142" stroke-linecap="round" stroke-linejoin="round"/>
<path d="M29.3803 67.957C29.3803 67.957 27.3809 73.9639 28.14 87.0943" stroke="#7F7F7F" stroke-width="0.368142" stroke-linecap="round" stroke-linejoin="round"/>
</svg>
