<svg xmlns="http://www.w3.org/2000/svg" width="200" height="150" viewBox="0 0 200 150" fill="none">
<path d="M200 131.145H0V131.245H200V131.145Z" fill="#EBEBEB"/>
<path d="M94.8002 113.305H17.5642C16.9591 113.304 16.3792 113.063 15.9517 112.635C15.5243 112.206 15.2842 111.626 15.2842 111.021V2.44906C15.2894 1.84747 15.5319 1.27225 15.9588 0.848346C16.3857 0.424442 16.9626 0.186089 17.5642 0.185059H94.8002C95.4059 0.185059 95.9869 0.425694 96.4152 0.854027C96.8435 1.28236 97.0842 1.8633 97.0842 2.46906V111.021C97.0842 111.627 96.8435 112.208 96.4152 112.636C95.9869 113.064 95.4059 113.305 94.8002 113.305V113.305ZM17.5642 0.265059C16.9856 0.266118 16.4312 0.496685 16.0224 0.906149C15.6137 1.31561 15.3842 1.87052 15.3842 2.44906V111.021C15.3842 111.6 15.6137 112.154 16.0224 112.564C16.4312 112.973 16.9856 113.204 17.5642 113.205H94.8002C95.3791 113.204 95.934 112.974 96.3433 112.564C96.7527 112.155 96.9831 111.6 96.9842 111.021V2.44906C96.9831 1.87015 96.7527 1.31526 96.3433 0.905905C95.934 0.496555 95.3791 0.266116 94.8002 0.265059H17.5642Z" fill="#EBEBEB"/>
<path d="M181.324 113.305H104.084C103.479 113.304 102.899 113.063 102.47 112.635C102.042 112.207 101.801 111.626 101.8 111.021V2.44906C101.807 1.8471 102.05 1.27189 102.477 0.848096C102.905 0.424302 103.482 0.186078 104.084 0.185059H181.324C181.925 0.18714 182.501 0.425958 182.927 0.84975C183.353 1.27354 183.595 1.84816 183.6 2.44906V111.021C183.6 111.625 183.361 112.205 182.934 112.633C182.508 113.061 181.929 113.303 181.324 113.305V113.305ZM104.084 0.265059C103.505 0.266116 102.95 0.496555 102.541 0.905905C102.132 1.31526 101.901 1.87015 101.9 2.44906V111.021C101.901 111.6 102.132 112.155 102.541 112.564C102.95 112.974 103.505 113.204 104.084 113.205H181.324C181.903 113.204 182.458 112.974 182.867 112.564C183.277 112.155 183.507 111.6 183.508 111.021V2.44906C183.507 1.87015 183.277 1.31526 182.867 0.905905C182.458 0.496555 181.903 0.266116 181.324 0.265059H104.084Z" fill="#EBEBEB"/>
<path d="M30.9117 134.953H20.5117V135.053H30.9117V134.953Z" fill="#EBEBEB"/>
<path d="M76.0721 133.869H58.0601V133.969H76.0721V133.869Z" fill="#EBEBEB"/>
<path d="M55.6275 138.669H31.3115V138.769H55.6275V138.669Z" fill="#EBEBEB"/>
<path d="M179.488 137.997H171.796V138.097H179.488V137.997Z" fill="#EBEBEB"/>
<path d="M168.232 137.997H146.116V138.097H168.232V137.997Z" fill="#EBEBEB"/>
<path d="M132.608 136.309H102.82V136.409H132.608V136.309Z" fill="#EBEBEB"/>
<path d="M76.3315 64.3611L71.2715 131.161H120.071L125.131 64.3611H76.3315ZM107.015 111.561C106.779 114.227 105.564 116.712 103.603 118.534C101.642 120.357 99.076 121.388 96.3995 121.429C95.1323 121.449 93.8751 121.201 92.71 120.702C91.545 120.203 90.4982 119.464 89.638 118.533C88.7778 117.603 88.1235 116.501 87.7178 115.3C87.3121 114.1 87.1641 112.827 87.2835 111.565L89.0635 88.0851C89.2995 85.4194 90.5147 82.9356 92.4745 81.1132C94.4343 79.2908 96.9997 78.2591 99.6755 78.2171C100.944 78.1968 102.202 78.4442 103.368 78.9431C104.534 79.442 105.581 80.1812 106.442 81.1124C107.303 82.0436 107.958 83.1459 108.365 84.3474C108.771 85.5488 108.919 86.8225 108.799 88.0851L107.015 111.561Z" fill="#E6E6E6"/>
<path d="M135.551 131.145H64.3994L64.8114 126.761H135.959L135.551 131.145Z" fill="#E6E6E6"/>
<path d="M162.888 106.349H169.2C169.284 106.349 169.368 106.332 169.446 106.298C169.523 106.265 169.593 106.216 169.651 106.155C169.709 106.093 169.754 106.021 169.783 105.941C169.812 105.862 169.825 105.777 169.82 105.693L169.796 105.245C169.785 105.07 169.709 104.905 169.582 104.784C169.455 104.663 169.287 104.595 169.112 104.593H162.8C162.715 104.592 162.631 104.609 162.553 104.642C162.476 104.675 162.405 104.723 162.347 104.784C162.288 104.845 162.243 104.918 162.214 104.997C162.184 105.076 162.171 105.16 162.176 105.245L162.2 105.693C162.21 105.869 162.286 106.035 162.414 106.157C162.542 106.278 162.711 106.347 162.888 106.349V106.349Z" fill="#E0E0E0"/>
<path d="M152.356 106.349H158.656C158.741 106.35 158.825 106.333 158.903 106.3C158.981 106.266 159.051 106.218 159.109 106.156C159.168 106.094 159.212 106.021 159.241 105.942C159.27 105.862 159.282 105.777 159.276 105.693L159.252 105.245C159.242 105.07 159.166 104.905 159.039 104.784C158.912 104.663 158.744 104.595 158.568 104.593H152.268C152.184 104.592 152.1 104.609 152.022 104.642C151.944 104.675 151.874 104.723 151.816 104.784C151.757 104.845 151.712 104.918 151.682 104.997C151.653 105.076 151.64 105.16 151.644 105.245L151.668 105.693C151.679 105.869 151.756 106.034 151.884 106.155C152.011 106.277 152.18 106.346 152.356 106.349V106.349Z" fill="#E0E0E0"/>
<path d="M174.092 105.853H27.04C26.2135 105.844 25.4211 105.522 24.8227 104.952C24.2243 104.382 23.8645 103.606 23.816 102.781L19.388 14.453C19.3632 14.0565 19.4204 13.6591 19.5562 13.2858C19.692 12.9124 19.9033 12.5711 20.177 12.2832C20.4507 11.9952 20.7808 11.7668 21.1468 11.6123C21.5128 11.4577 21.9067 11.3803 22.304 11.385H169.356C170.182 11.3927 170.974 11.7137 171.573 12.2832C172.171 12.8527 172.531 13.6282 172.58 14.453L177.008 102.781C177.033 103.178 176.975 103.575 176.84 103.949C176.704 104.322 176.493 104.664 176.219 104.952C175.945 105.24 175.615 105.469 175.249 105.624C174.883 105.779 174.489 105.857 174.092 105.853V105.853Z" fill="#E0E0E0"/>
<path d="M175.892 105.853H28.844C28.0146 105.848 27.2183 105.527 26.616 104.957C26.0138 104.387 25.6506 103.609 25.6 102.781L21.2 14.4531C21.1752 14.0573 21.2323 13.6606 21.3676 13.2878C21.5028 12.915 21.7135 12.5741 21.9863 12.2863C22.2591 11.9984 22.5883 11.7699 22.9533 11.6148C23.3183 11.4598 23.7114 11.3816 24.108 11.3851H171.156C171.985 11.3897 172.781 11.7091 173.384 12.2787C173.986 12.8484 174.349 13.6256 174.4 14.4531L178.8 102.781C178.825 103.177 178.768 103.574 178.632 103.947C178.497 104.32 178.287 104.661 178.014 104.949C177.741 105.237 177.412 105.466 177.047 105.622C176.682 105.777 176.289 105.856 175.892 105.853Z" fill="#E6E6E6"/>
<path d="M29.7039 99.6891L25.5999 17.5491C25.5851 17.3006 25.6215 17.0518 25.7069 16.8181C25.7922 16.5843 25.9247 16.3706 26.0962 16.1902C26.2676 16.0097 26.4742 15.8665 26.7033 15.7693C26.9324 15.6721 27.179 15.623 27.4279 15.6251H168.276C168.794 15.6293 169.291 15.8305 169.666 16.1878C170.041 16.5451 170.266 17.0318 170.296 17.5491L174.4 99.6891C174.415 99.9373 174.379 100.186 174.294 100.42C174.21 100.654 174.077 100.867 173.906 101.048C173.735 101.228 173.529 101.372 173.3 101.469C173.071 101.566 172.825 101.615 172.576 101.613H31.7239C31.2061 101.608 30.7096 101.406 30.3347 101.049C29.9597 100.692 29.7343 100.206 29.7039 99.6891V99.6891Z" fill="#F5F5F5"/>
<path d="M34.2642 19.825C34.2784 20.0437 34.2476 20.263 34.1736 20.4693C34.0996 20.6756 33.984 20.8645 33.834 21.0242C33.6839 21.184 33.5027 21.3112 33.3015 21.3981C33.1003 21.4849 32.8833 21.5295 32.6642 21.529C32.2059 21.5237 31.7666 21.345 31.4349 21.0288C31.1031 20.7127 30.9035 20.2825 30.8762 19.825C30.8625 19.6066 30.8938 19.3878 30.968 19.182C31.0423 18.9761 31.158 18.7877 31.3079 18.6284C31.4579 18.4691 31.6389 18.3422 31.8399 18.2556C32.0408 18.169 32.2574 18.1246 32.4762 18.125C32.9344 18.1283 33.3741 18.3058 33.7062 18.6216C34.0383 18.9373 34.2378 19.3676 34.2642 19.825V19.825Z" fill="white"/>
<path d="M41.9722 19.825C41.9864 20.0437 41.9556 20.263 41.8816 20.4693C41.8076 20.6756 41.692 20.8645 41.542 21.0242C41.392 21.184 41.2107 21.3112 41.0095 21.3981C40.8083 21.4849 40.5913 21.5295 40.3722 21.529C39.9139 21.5237 39.4746 21.345 39.1429 21.0288C38.8111 20.7127 38.6115 20.2825 38.5842 19.825C38.5705 19.6066 38.6018 19.3878 38.676 19.182C38.7503 18.9761 38.866 18.7877 39.0159 18.6284C39.1659 18.4691 39.3469 18.3422 39.5479 18.2556C39.7488 18.169 39.9654 18.1246 40.1842 18.125C40.6424 18.1283 41.0822 18.3058 41.4142 18.6216C41.7463 18.9373 41.9458 19.3676 41.9722 19.825V19.825Z" fill="white"/>
<path d="M49.684 19.825C49.6982 20.0437 49.6674 20.263 49.5934 20.4693C49.5194 20.6756 49.4038 20.8645 49.2538 21.0242C49.1038 21.184 48.9225 21.3112 48.7213 21.3981C48.5201 21.4849 48.3032 21.5295 48.084 21.529C47.6258 21.5246 47.1865 21.3461 46.8552 21.0296C46.5239 20.7132 46.3254 20.2825 46.3 19.825C46.2863 19.6066 46.3176 19.3878 46.3918 19.182C46.4661 18.9761 46.5818 18.7877 46.7318 18.6284C46.8817 18.4691 47.0628 18.3422 47.2637 18.2556C47.4646 18.169 47.6812 18.1246 47.9 18.125C48.3572 18.1303 48.7955 18.3086 49.1265 18.624C49.4575 18.9394 49.6567 19.3686 49.684 19.825V19.825Z" fill="white"/>
<g opacity="0.6">
<path opacity="0.6" d="M44.3525 101.613H64.6525L83.2125 15.625H62.9125L44.3525 101.613Z" fill="white"/>
<path opacity="0.6" d="M131.712 101.613H136.852L155.412 15.625H150.272L131.712 101.613Z" fill="white"/>
<path opacity="0.6" d="M69.1641 101.613H97.9641L116.524 15.625H87.7241L69.1641 101.613Z" fill="white"/>
</g>
<path d="M100 149.209C142.833 149.209 177.556 147.182 177.556 144.681C177.556 142.18 142.833 140.153 100 140.153C57.1673 140.153 22.4443 142.18 22.4443 144.681C22.4443 147.182 57.1673 149.209 100 149.209Z" fill="#F5F5F5"/>
<path d="M144.24 83.3127H144.096C133.44 82.4407 126.096 73.3127 125.8 72.9447C125.527 72.5717 125.409 72.1075 125.471 71.6495C125.533 71.1915 125.77 70.7753 126.132 70.4882C126.494 70.2011 126.954 70.0653 127.414 70.1094C127.874 70.1535 128.299 70.3741 128.6 70.7247C128.684 70.8327 134.96 78.5687 143.652 79.6727C146.452 76.8727 148.852 69.4807 148.584 67.2447C148.584 67.2207 148.584 67.2007 148.584 67.1807C148.528 66.4607 148.392 63.9807 149.1 62.5207C149.333 62.1454 149.697 61.8697 150.122 61.7469C150.546 61.6241 151.001 61.6629 151.399 61.8557C151.796 62.0486 152.108 62.3819 152.275 62.7913C152.441 63.2007 152.45 63.6572 152.3 64.0727C152.124 64.4407 152.04 65.7647 152.124 66.8727C152.524 70.5527 149.324 79.8408 145.324 82.9488C145.012 83.1855 144.631 83.3133 144.24 83.3127Z" fill="#263238"/>
<path d="M59.5278 73.6206C55.8469 73.576 52.2163 72.7598 48.8705 71.2247C45.5248 69.6897 42.5382 67.4698 40.1038 64.7086C39.8289 64.4023 39.6683 64.0103 39.6494 63.5991C39.6304 63.188 39.7542 62.7829 39.9998 62.4526C42.8878 58.5686 47.9998 49.3966 48.7998 46.4086C48.4202 45.688 47.8466 45.0881 47.1438 44.6766C46.8627 44.5456 46.6207 44.3434 46.4418 44.0902C46.2629 43.8369 46.1533 43.5413 46.1238 43.2326L45.8358 40.3046C45.8079 39.8431 45.9598 39.3887 46.2598 39.0368C46.5597 38.6849 46.9843 38.4629 47.4444 38.4174C47.9045 38.3718 48.3644 38.5063 48.7275 38.7926C49.0906 39.0788 49.3287 39.4946 49.3918 39.9526L49.5918 41.9886C50.7742 42.8966 51.7106 44.0861 52.3158 45.4486C52.4358 45.7338 52.4799 46.0453 52.4438 46.3526C52.0758 49.5246 46.9278 58.7126 43.7598 63.3566C51.1558 70.7286 59.9958 70.0566 60.3838 70.0206C60.8498 69.9883 61.31 70.1397 61.6659 70.4424C62.0217 70.7451 62.245 71.1751 62.2878 71.6403C62.3307 72.1055 62.1898 72.569 61.8952 72.9316C61.6007 73.2942 61.1759 73.5272 60.7118 73.5806C60.6078 73.5886 60.1958 73.6206 59.5278 73.6206Z" fill="#263238"/>
<path d="M117.148 144.529H112.348C112.072 144.529 111.8 144.465 111.554 144.343C111.307 144.221 111.091 144.043 110.925 143.824C110.758 143.605 110.644 143.35 110.592 143.08C110.539 142.809 110.55 142.53 110.624 142.265C111.876 137.769 112.492 134.109 112.952 128.381C111.256 120.381 109.66 113.097 109.644 113.025C109.557 112.567 109.652 112.094 109.909 111.706C110.165 111.317 110.563 111.044 111.018 110.945C111.473 110.845 111.949 110.927 112.344 111.173C112.739 111.419 113.023 111.809 113.136 112.261C113.136 112.333 114.784 119.805 116.5 127.893C116.536 128.061 116.547 128.233 116.532 128.405C116.132 133.549 115.608 137.105 114.664 140.957H117.136C117.595 140.978 118.028 141.176 118.345 141.509C118.662 141.841 118.839 142.283 118.839 142.743C118.839 143.202 118.662 143.644 118.345 143.977C118.028 144.309 117.595 144.507 117.136 144.529H117.148Z" fill="#263238"/>
<path d="M80.1281 144.529H77.4241C77.1686 144.529 76.9158 144.475 76.6831 144.37C76.4504 144.264 76.2431 144.11 76.0753 143.917C75.9076 143.724 75.7833 143.498 75.711 143.252C75.6386 143.007 75.6199 142.75 75.6561 142.497C76.1161 139.217 78.4561 133.245 80.9761 127.241C81.8681 119.321 82.5961 112.521 82.6041 112.441C82.6239 112.202 82.6913 111.97 82.8023 111.758C82.9134 111.546 83.0659 111.359 83.2507 111.207C83.4355 111.055 83.6489 110.942 83.8783 110.874C84.1077 110.806 84.3484 110.785 84.5861 110.812C84.8238 110.838 85.0538 110.913 85.2623 111.03C85.4708 111.147 85.6537 111.305 85.8001 111.494C85.9465 111.683 86.0534 111.9 86.1146 112.131C86.1757 112.363 86.1899 112.604 86.1561 112.841C86.1561 112.909 85.4041 119.865 84.4961 127.901C84.4776 128.069 84.4345 128.233 84.3681 128.389C82.5961 132.641 80.5721 137.649 79.6481 140.965H80.1281C80.3698 140.953 80.6112 140.991 80.8379 141.075C81.0645 141.16 81.2717 141.29 81.4467 141.457C81.6218 141.624 81.7611 141.824 81.8564 142.047C81.9516 142.269 82.0007 142.509 82.0007 142.751C82.0007 142.992 81.9516 143.232 81.8564 143.454C81.7611 143.677 81.6218 143.877 81.4467 144.044C81.2717 144.211 81.0645 144.341 80.8379 144.426C80.6112 144.51 80.3698 144.548 80.1281 144.537V144.529Z" fill="#263238"/>
<path d="M81.6838 22.4927L60.8598 43.3207C59.8118 66.4047 59.8958 90.6527 60.8598 115.793H129.724C128.36 83.3527 128.232 52.1247 129.724 22.4927H81.6838Z" fill="white"/>
<path d="M129.724 116.145H60.8599C60.7672 116.145 60.6779 116.109 60.6109 116.045C60.5438 115.981 60.5041 115.893 60.4999 115.8C59.5039 89.6925 59.5039 65.2925 60.4999 43.2925C60.5053 43.2031 60.5438 43.119 60.6079 43.0565L81.4319 22.2285C81.465 22.1955 81.5043 22.1693 81.5476 22.1514C81.5908 22.1336 81.6372 22.1244 81.6839 22.1245H129.724C129.773 22.1246 129.821 22.1346 129.865 22.1539C129.91 22.1731 129.95 22.2012 129.984 22.2365C130.017 22.2714 130.043 22.3129 130.06 22.3584C130.076 22.4039 130.083 22.4523 130.08 22.5005C128.644 51.0365 128.644 81.5445 130.08 115.769C130.082 115.816 130.074 115.864 130.056 115.909C130.039 115.953 130.013 115.994 129.98 116.028C129.948 116.065 129.908 116.094 129.864 116.114C129.82 116.134 129.772 116.144 129.724 116.145ZM61.1999 115.428H129.352C127.936 81.4845 127.932 51.1925 129.352 22.8405H81.8319L61.1999 43.4645C60.2199 65.3205 60.2199 89.5285 61.1999 115.428Z" fill="#263238"/>
<path d="M117.376 105.877H109.864C109.793 105.877 109.724 105.849 109.674 105.798C109.624 105.748 109.596 105.68 109.596 105.609C109.596 105.574 109.603 105.539 109.616 105.507C109.63 105.474 109.649 105.445 109.674 105.421C109.699 105.396 109.729 105.377 109.761 105.364C109.794 105.351 109.829 105.344 109.864 105.345H117.376C117.411 105.344 117.445 105.351 117.478 105.364C117.51 105.377 117.54 105.396 117.565 105.421C117.59 105.445 117.61 105.474 117.623 105.507C117.637 105.539 117.644 105.574 117.644 105.609C117.644 105.644 117.637 105.679 117.623 105.711C117.61 105.744 117.59 105.773 117.565 105.798C117.54 105.823 117.511 105.843 117.478 105.856C117.446 105.87 117.411 105.877 117.376 105.877Z" fill="#B75400"/>
<path d="M106.752 105.877H73.1996C73.1286 105.877 73.0604 105.848 73.0101 105.798C72.9599 105.748 72.9316 105.68 72.9316 105.609C72.9316 105.574 72.9386 105.539 72.9521 105.507C72.9656 105.474 72.9854 105.445 73.0104 105.42C73.0353 105.396 73.0649 105.376 73.0974 105.363C73.1299 105.35 73.1646 105.344 73.1996 105.345H106.744C106.779 105.344 106.813 105.35 106.846 105.363C106.878 105.376 106.908 105.396 106.933 105.42C106.958 105.445 106.978 105.474 106.991 105.507C107.005 105.539 107.012 105.574 107.012 105.609C107.012 105.678 106.985 105.745 106.936 105.795C106.887 105.845 106.821 105.874 106.752 105.877Z" fill="#B75400"/>
<path d="M85.7116 65.7686C85.6316 64.0246 84.6436 62.6486 83.4996 62.6886C82.3556 62.7286 81.4996 64.1726 81.5716 65.9166C81.6436 67.6606 82.6396 69.0366 83.7836 68.9926C84.9276 68.9486 85.7916 67.5086 85.7116 65.7686Z" fill="#B75400"/>
<path d="M109.86 65.2206C109.78 63.4807 108.792 62.1046 107.648 62.1446C106.504 62.1846 105.648 63.6286 105.72 65.3726C105.792 67.1166 106.792 68.4926 107.932 68.4486C109.072 68.4046 109.94 66.9646 109.86 65.2206Z" fill="#B75400"/>
<path d="M100.714 79.8684C98.869 80.5578 96.9033 80.867 94.9354 80.7777C92.9674 80.6883 91.0378 80.2022 89.2625 79.3484C89.2036 79.3159 89.1517 79.272 89.1099 79.2193C89.0681 79.1666 89.0372 79.1061 89.019 79.0414C89.0008 78.9766 88.9956 78.9089 89.0037 78.8421C89.0119 78.7754 89.0332 78.7109 89.0665 78.6524C89.1344 78.5348 89.2457 78.4484 89.3765 78.4118C89.5074 78.3751 89.6473 78.3912 89.7665 78.4564C89.8265 78.4884 95.5265 81.5604 102.33 78.0564C102.452 77.9951 102.592 77.9833 102.722 78.0236C102.852 78.0639 102.961 78.1531 103.026 78.2724C103.058 78.3319 103.077 78.3971 103.082 78.464C103.088 78.5309 103.081 78.5983 103.06 78.6623C103.04 78.7263 103.007 78.7856 102.963 78.8368C102.92 78.8879 102.866 78.93 102.806 78.9604C102.131 79.3104 101.432 79.6138 100.714 79.8684Z" fill="#B75400"/>
<path d="M74.4983 55.0718C74.3281 55.0212 74.1735 54.9285 74.0487 54.8023C73.8587 54.608 73.7529 54.3467 73.7544 54.0749C73.7559 53.8032 73.8645 53.543 74.0566 53.3509C75.1927 52.1866 76.5929 51.3134 78.1384 50.8055C79.6838 50.2976 81.329 50.1698 82.9343 50.4332C83.2 50.4931 83.4314 50.6552 83.5785 50.8845C83.7255 51.1138 83.7764 51.3918 83.72 51.6583C83.691 51.7892 83.6365 51.9131 83.5596 52.023C83.4826 52.1328 83.3848 52.2264 83.2717 52.2984C83.1585 52.3704 83.0323 52.4194 82.9002 52.4426C82.7681 52.4657 82.6327 52.4626 82.5019 52.4334C82.3512 52.393 78.7249 51.6616 75.504 54.8112C75.3758 54.9419 75.2145 55.0352 75.0373 55.0811C74.8601 55.127 74.6738 55.1238 74.4983 55.0718Z" fill="#B75400"/>
<path d="M116.161 53.9235C115.993 53.9564 115.821 53.9473 115.658 53.897C115.495 53.8468 115.348 53.7569 115.228 53.6355C112.028 50.4355 108.372 51.0795 108.22 51.1075C107.956 51.1551 107.683 51.0984 107.459 50.9493C107.236 50.8001 107.078 50.5701 107.02 50.3075C106.994 50.1761 106.993 50.0407 107.019 49.9092C107.045 49.7776 107.096 49.6524 107.171 49.5409C107.245 49.4293 107.341 49.3336 107.452 49.2592C107.564 49.1848 107.689 49.1333 107.82 49.1075C108.02 49.0715 112.676 48.1835 116.704 52.2075C116.836 52.3377 116.929 52.5013 116.975 52.6807C117.02 52.8602 117.016 53.0486 116.962 53.2256C116.908 53.4027 116.806 53.5616 116.669 53.6853C116.531 53.809 116.362 53.8927 116.18 53.9275L116.161 53.9235Z" fill="#B75400"/>
<path opacity="0.2" d="M83.5996 45.1686C81.5636 39.6126 79.5276 30.7206 81.6756 22.4846L60.8516 43.3126C66.7436 45.2926 76.1276 46.1366 83.5996 45.1686Z" fill="black"/>
<path d="M81.6839 43.3126C79.3999 36.5686 80.3319 27.4006 81.6839 22.4846L60.8599 43.3126C67.1639 44.4606 74.2079 44.2766 81.6839 43.3126Z" fill="white"/>
<path d="M70.3998 44.4607C67.1822 44.4845 63.9691 44.2168 60.7998 43.6607C60.7355 43.6501 60.6753 43.6219 60.6261 43.5791C60.5769 43.5364 60.5405 43.4808 60.521 43.4186C60.5015 43.3563 60.4997 43.2899 60.5157 43.2267C60.5317 43.1635 60.565 43.1061 60.6118 43.0607L81.4358 22.2327C81.4913 22.1762 81.5641 22.1398 81.6426 22.1294C81.721 22.1189 81.8008 22.1349 81.8692 22.1748C81.9376 22.2147 81.9907 22.2763 82.0201 22.3498C82.0496 22.4233 82.0537 22.5046 82.0318 22.5807C80.7758 27.1567 79.7318 36.4207 82.0318 43.1967C82.0477 43.247 82.0527 43.3001 82.0465 43.3525C82.0403 43.4049 82.023 43.4554 81.9958 43.5007C81.9683 43.5456 81.931 43.5837 81.8867 43.6121C81.8423 43.6405 81.7921 43.6585 81.7398 43.6647C77.9807 44.1721 74.1929 44.438 70.3998 44.4607ZM61.5998 43.0767C67.1358 43.9927 73.5638 43.9727 81.1998 43.0127C79.3158 37.0367 79.7438 29.1287 81.0078 23.6527L61.5998 43.0767Z" fill="#263238"/>
<path d="M153.24 73.7367C153.109 73.7367 152.981 73.6931 152.877 73.6128C152.772 73.5324 152.698 73.4199 152.664 73.2927L145.328 45.3407C145.288 45.1874 145.31 45.0244 145.39 44.8875C145.47 44.7506 145.601 44.651 145.754 44.6107C145.908 44.5704 146.071 44.5926 146.207 44.6725C146.344 44.7524 146.444 44.8834 146.484 45.0367L153.82 72.9887C153.84 73.0646 153.845 73.1437 153.834 73.2214C153.823 73.2991 153.797 73.374 153.757 73.4416C153.718 73.5092 153.665 73.5684 153.602 73.6156C153.54 73.6628 153.468 73.6972 153.392 73.7167C153.343 73.7315 153.292 73.7382 153.24 73.7367Z" fill="#263238"/>
<path d="M121.313 13.8651C118.103 18.5155 116.545 24.1075 116.886 29.7477C117.227 35.388 119.449 40.7512 123.196 44.9807C126.943 49.2102 131.999 52.0621 137.557 53.0807C143.115 54.0994 148.854 53.2262 153.857 50.6005C158.861 47.9748 162.84 43.7481 165.16 38.5955C167.479 33.4429 168.005 27.6616 166.653 22.1751C165.301 16.6886 162.15 11.8134 157.702 8.32803C153.255 4.84268 147.767 2.94832 142.117 2.94751C140.567 2.9476 139.021 3.08749 137.497 3.36549" stroke="#666666" stroke-width="0.544529" stroke-linecap="round" stroke-linejoin="round"/>
<path d="M125.62 9.08862C124.771 9.82352 123.971 10.6128 123.224 11.4516" stroke="#666666" stroke-width="0.544529" stroke-linecap="round" stroke-linejoin="round"/>
<path d="M161.863 36.6292C166.504 25.7326 161.433 13.1369 150.537 8.49589C139.64 3.85485 127.044 8.92597 122.403 19.8225C117.762 30.7191 122.833 43.3148 133.73 47.9558C144.627 52.5969 157.222 47.5258 161.863 36.6292Z" fill="#B75400"/>
<path d="M132.23 25.9973L140.367 35.2429L153.675 16.3894" stroke="white" stroke-width="3.26717" stroke-linecap="round" stroke-linejoin="round"/>
</svg>
